<?xml version="1.0" encoding="utf-8"?>
<!-- Generator: Adobe Illustrator 27.9.1, SVG Export Plug-In . SVG Version: 6.00 Build 0)  -->
<svg version="1.1" id="Layer_1" xmlns="http://www.w3.org/2000/svg" xmlns:xlink="http://www.w3.org/1999/xlink" x="0px" y="0px"
	 viewBox="0 0 250 250" style="enable-background:new 0 0 250 250;" xml:space="preserve">
<style type="text/css">
	.st0{fill:#FFBB08;}
	.st1{fill:#28375E;}
</style>
<g>
	<g>
		<path class="st0" d="M128.7,89.3h47.5v102.9h-47.5V89.3z"/>
		<path class="st1" d="M192,73.4h-7.9V41.7h-7.9V25.9h-19.8V2.1h-7.9v23.8h-19.8v15.8h-7.9v31.7h-7.9v55.4h-7.9v-23.8H97V89.3H85.1
			V69.5h-7.9v19.8H65.3v15.8h-7.9v23.8H41.6v110.9h-7.9v7.9h166.3v-7.9H192V73.4z M136.6,33.8h31.7v7.9h-31.7V33.8z M128.7,49.7
			h47.5v23.8h-7.9V57.6h-7.9v15.8h-15.8V57.6h-7.9v15.8h-7.9V49.7z M184.1,81.3v158.4h-11.9v-39.6h-39.6v39.6h-11.9V81.3H184.1z
			 M164.3,239.7h-23.8V208h23.8V239.7z M73.2,97.2h15.8v7.9H73.2V97.2z M65.3,113H97v15.8H85.1v-7.9h-7.9v7.9H65.3V113z M49.5,136.8
			h63.4v102.9h-7.9v-95H97v95H85.1v-95h-7.9v95H65.3v-95h-7.9v95h-7.9V136.8z"/>
		<path class="st1" d="M128.7,89.3h7.9v7.9h-7.9V89.3z"/>
		<path class="st1" d="M148.5,89.3h7.9v7.9h-7.9V89.3z"/>
		<path class="st1" d="M168.3,89.3h7.9v7.9h-7.9V89.3z"/>
		<path class="st1" d="M128.7,113h7.9v7.9h-7.9V113z"/>
		<path class="st1" d="M148.5,113h7.9v7.9h-7.9V113z"/>
		<path class="st1" d="M168.3,113h7.9v7.9h-7.9V113z"/>
		<path class="st1" d="M128.7,136.8h7.9v7.9h-7.9V136.8z"/>
		<path class="st1" d="M148.5,136.8h7.9v7.9h-7.9V136.8z"/>
		<path class="st1" d="M168.3,136.8h7.9v7.9h-7.9V136.8z"/>
		<path class="st1" d="M128.7,160.5h7.9v7.9h-7.9V160.5z"/>
		<path class="st1" d="M148.5,160.5h7.9v7.9h-7.9V160.5z"/>
		<path class="st1" d="M168.3,160.5h7.9v7.9h-7.9V160.5z"/>
		<path class="st1" d="M128.7,184.3h7.9v7.9h-7.9V184.3z"/>
		<path class="st1" d="M148.5,184.3h7.9v7.9h-7.9V184.3z"/>
		<path class="st1" d="M168.3,184.3h7.9v7.9h-7.9V184.3z"/>
		<path class="st1" d="M207.9,239.7h7.9v7.9h-7.9V239.7z"/>
	</g>
</g>
</svg>
