<?xml version="1.0" encoding="utf-8"?>
<!-- Generator: Adobe Illustrator 27.9.1, SVG Export Plug-In . SVG Version: 6.00 Build 0)  -->
<svg version="1.1" id="Layer_1" xmlns="http://www.w3.org/2000/svg" xmlns:xlink="http://www.w3.org/1999/xlink" x="0px" y="0px"
	 viewBox="0 0 250 250" style="enable-background:new 0 0 250 250;" xml:space="preserve">
<style type="text/css">
	.st0{fill:#FFBB08;}
	.st1{fill:#28375E;}
</style>
<g>
	<rect x="68.2" y="133.4" class="st0" width="26.2" height="17.1"/>
	<rect x="193.5" y="63" class="st0" width="25.3" height="17.1"/>
	<rect x="192.6" y="203.8" class="st0" width="27.1" height="17.1"/>
	<path class="st1" d="M132.7,201.3c0,2.1-1.7,3.8-3.8,3.8H62.6c-2.1,0-3.8-1.7-3.8-3.8v-17.6c0-2.1,1.7-3.8,3.8-3.8s3.8,1.7,3.8,3.8
		v13.8h62.4C131,197.5,132.7,199.2,132.7,201.3z M183,113.5v22.8c0,2.1,1.7,3.8,3.8,3.8s3.8-1.7,3.8-3.8v-22.8
		c0-2.1-1.7-3.8-3.8-3.8S183,111.4,183,113.5L183,113.5z M62.6,69.9c2.1,0,3.8-1.7,3.8-3.8V52.3h53.5c2.1,0,3.8-1.7,3.8-3.8
		s-1.7-3.8-3.8-3.8H62.6c-2.1,0-3.8,1.7-3.8,3.8v17.6C58.8,68.2,60.5,69.9,62.6,69.9z M223.1,205.6v13.2c0,3.3-2.7,6-6,6H194
		c-3.3,0-6-2.7-6-6v-13.2c0-3.3,2.7-6,6-6h23.2C220.5,199.6,223.1,202.3,223.1,205.6z M218.8,205.6h-26.5v13.1h26.5V205.6z
		 M242.7,177.8c0.3,0.5,0.4,1.2,0.4,1.8c0,6.5-3.6,12.1-8.9,14.9v45.1c0,2.1-1.7,3.8-3.8,3.8h-87.2c-2.1,0-3.8-1.7-3.8-3.8v-45.1
		c-5.3-2.9-8.9-8.5-8.9-14.9c0-0.6,0.1-1.2,0.4-1.8l14.5-27.8c1-2,3.1-3.2,5.3-3.2H223c2.2,0,4.3,1.2,5.3,3.2L242.7,177.8z
		 M221.9,154.4h-11.5l5.6,21.3h17L221.9,154.4z M234.7,183.3h-17c1.5,3.2,4.7,5.5,8.5,5.5C230,188.8,233.2,186.6,234.7,183.3
		L234.7,183.3z M147.4,188.8c3.8,0,7-2.3,8.5-5.5h-17C140.4,186.6,143.6,188.8,147.4,188.8L147.4,188.8z M190.6,175.7h17.5
		l-5.6-21.3h-11.9V175.7z M183,154.4h-11.9l-5.6,21.3H183V154.4z M165.2,183.3c1.5,3.2,4.7,5.5,8.5,5.5s7-2.3,8.5-5.5H165.2z
		 M191.5,183.3c1.5,3.2,4.7,5.5,8.5,5.5s7-2.3,8.5-5.5H191.5z M140.6,175.7h17l5.6-21.3h-11.5L140.6,175.7z M175.4,207.3H159v28.4
		h16.3V207.3z M226.6,196.5c-0.1,0-0.2,0-0.4,0c-5.3,0-10-2.4-13.1-6.2c-3.1,3.8-7.8,6.2-13.1,6.2c-5.3,0-10-2.4-13.1-6.2
		c-3.1,3.8-7.8,6.2-13.1,6.2s-10-2.4-13.1-6.2c-3.1,3.8-7.8,6.2-13.1,6.2c-0.1,0-0.2,0-0.4,0v39.2h4.4v-30.1c0-3.3,2.7-6,6-6h19.7
		c3.3,0,6,2.7,6,6v30.1h43.6L226.6,196.5z M106.2,173.2H19c-2.1,0-3.8-1.7-3.8-3.8v-45.1c-5.3-2.9-8.9-8.5-8.9-14.9
		c0-0.6,0.1-1.2,0.4-1.8l14.5-27.8c1-2,3.1-3.2,5.3-3.2h72.3c2.2,0,4.3,1.2,5.3,3.2l14.5,27.8c0.3,0.5,0.4,1.2,0.4,1.8
		c0,6.5-3.6,12.1-8.9,14.9v45.1C110,171.5,108.3,173.2,106.2,173.2z M23.2,118.7c3.8,0,7-2.3,8.5-5.5h-17
		C16.2,116.4,19.5,118.7,23.2,118.7z M66.5,105.5h17.5l-5.6-21.3H66.5V105.5z M58.8,84.3H46.9l-5.6,21.3h17.5V84.3z M41,113.2
		c1.5,3.2,4.7,5.5,8.5,5.5c3.8,0,7-2.3,8.5-5.5H41z M67.3,113.2c1.5,3.2,4.7,5.5,8.5,5.5s7-2.3,8.5-5.5H67.3z M110.5,113.2h-17
		c1.5,3.2,4.7,5.5,8.5,5.5C105.8,118.7,109.1,116.4,110.5,113.2z M97.8,84.3H86.2l5.6,21.3h17L97.8,84.3z M16.4,105.5h17L39,84.3
		H27.5L16.4,105.5z M51.2,137.1H34.9v28.4h16.3V137.1z M102.4,165.5v-39.2c-0.1,0-0.2,0-0.4,0c-5.3,0-10-2.4-13.1-6.2
		c-3.1,3.8-7.8,6.2-13.1,6.2c-5.3,0-10-2.4-13.1-6.2c-3.1,3.8-7.8,6.2-13.1,6.2s-10-2.4-13.1-6.2c-3.1,3.8-7.8,6.2-13.1,6.2
		c-0.1,0-0.2,0-0.4,0v39.2h4.4v-30.1c0-3.3,2.7-6,6-6h19.7c3.3,0,6,2.7,6,6v30.1H102.4z M99,135.4v13.2c0,3.3-2.7,6-6,6H69.8
		c-3.3,0-6-2.7-6-6v-13.2c0-3.3,2.7-6,6-6H93C96.3,129.5,99,132.1,99,135.4z M94.3,135.6H68.5v12.8h25.8V135.6z M223.1,65.3v13.2
		c0,3.3-2.7,6-6,6H194c-3.3,0-6-2.7-6-6V65.3c0-3.3,2.7-6,6-6h23.2C220.5,59.3,223.1,62,223.1,65.3z M217.9,65.7h-24.6V78h24.6V65.7
		z M130.4,39.2c0-0.6,0.1-1.2,0.4-1.8l14.5-27.8c1-2,3.1-3.2,5.3-3.2H223c2.2,0,4.3,1.2,5.3,3.2l14.5,27.8c0.3,0.5,0.4,1.2,0.4,1.8
		c0,6.5-3.6,12.1-8.9,14.9v45.1c0,2.1-1.7,3.8-3.8,3.8h-87.2c-2.1,0-3.8-1.7-3.8-3.8V54.1C134.1,51.3,130.4,45.6,130.4,39.2
		L130.4,39.2z M234.7,43h-17c1.5,3.2,4.7,5.5,8.5,5.5C230,48.5,233.2,46.2,234.7,43L234.7,43z M208.1,35.4l-5.6-21.3h-11.9v21.3
		H208.1z M191.5,43c1.5,3.2,4.7,5.5,8.5,5.5s7-2.3,8.5-5.5H191.5z M183,14.1h-11.9l-5.6,21.3H183V14.1z M165.2,43
		c1.5,3.2,4.7,5.5,8.5,5.5s7-2.3,8.5-5.5H165.2z M147.4,48.5c3.8,0,7-2.3,8.5-5.5h-17C140.4,46.2,143.6,48.5,147.4,48.5L147.4,48.5z
		 M175.4,66.9H159v28.4h16.3V66.9z M226.6,56.1c-0.1,0-0.2,0-0.4,0c-5.3,0-10-2.4-13.1-6.2c-3.1,3.8-7.8,6.2-13.1,6.2
		s-10-2.4-13.1-6.2c-3.1,3.8-7.8,6.2-13.1,6.2c-5.3,0-10-2.4-13.1-6.2c-3.1,3.8-7.8,6.2-13.1,6.2c-0.1,0-0.2,0-0.4,0v39.2h4.4V65.3
		c0-3.3,2.7-6,6-6h19.7c3.3,0,6,2.7,6,6v30.1h43.6L226.6,56.1z M221.9,14.1h-11.5l5.6,21.3h17L221.9,14.1z M140.6,35.4h17l5.6-21.3
		h-11.5L140.6,35.4z"/>
</g>
</svg>
