<?xml version="1.0" encoding="utf-8"?>
<!-- Generator: Adobe Illustrator 27.9.1, SVG Export Plug-In . SVG Version: 6.00 Build 0)  -->
<svg version="1.1" id="Layer_1" xmlns="http://www.w3.org/2000/svg" xmlns:xlink="http://www.w3.org/1999/xlink" x="0px" y="0px"
	 viewBox="0 0 250 250" style="enable-background:new 0 0 250 250;" xml:space="preserve">
<style type="text/css">
	.st0{fill-rule:evenodd;clip-rule:evenodd;fill:#FFFFFF;}
	.st1{fill-rule:evenodd;clip-rule:evenodd;fill:#FFBB08;}
	.st2{fill:#27375D;}
</style>
<g>
	<g>
		<path class="st0" d="M64.7,158.3v30.2l59.8,40.5v-91.1l-16,11.6L94.4,134l-11.3,5.8C75.3,143.9,64.7,147.8,64.7,158.3z"/>
		<path class="st0" d="M124.6,137.8v91.1l59.8-40.5l0-30.2c0-10.5-10.6-14.4-18.4-18.4l-11.3-5.8l-14.1,15.4L124.6,137.8z"/>
		<path class="st0" d="M12.8,171.8v16.7h51.9v-16.7H12.8L12.8,171.8z M48.8,144l-11.1-12.2l-8.8,4.7c-7.8,4.2-16.1,7.3-16.2,16.1
			v5.7h51.9c0-5,2.3-8.4,5.7-11.2c2.4-2,5.4-3.6,8.3-5.1c-2.9-2.1-6.5-3.7-10-5.6l-8.8-4.7L48.8,144z"/>
		<rect x="12.8" y="158.3" class="st0" width="51.9" height="13.5"/>
		<path class="st1" d="M37.7,131.7L48.8,144l11.1-12.2l-1.1-10.9c-3,1.6-6.4,2.5-10,2.5c-3.6,0-7-0.9-10-2.5L37.7,131.7z"/>
		<path class="st0" d="M48.8,123.4c11.6,0,21.3-9.5,21.3-21.3v-9.9H27.5v9.9C27.5,113.9,37.2,123.4,48.8,123.4z"/>
		<path class="st0" d="M27.5,92.2h42.6v-3.7c0-11.7-9.6-21.3-21.3-21.3c-11.7,0-21.3,9.6-21.3,21.3L27.5,92.2L27.5,92.2z"/>
		<path class="st1" d="M210.3,120.9c-3,1.6-6.4,2.5-10,2.5c-3.6,0-7-0.9-10-2.5l-1.1,10.9c0,4.9,5,8.9,11.1,8.9s11.1-4,11.1-8.9
			L210.3,120.9z"/>
		<path class="st1" d="M117.8,24.6v34.7h13.5V24.6c0-3.7-3-6.7-6.7-6.7C120.8,17.8,117.8,20.8,117.8,24.6z"/>
		<path class="st0" d="M131.3,24.6v34.7h25.3v-3.4C156.6,40.5,145.8,27.7,131.3,24.6L131.3,24.6z M117.8,24.6
			c-14.5,3.1-25.3,16-25.3,31.3v3.4h25.3V24.6z"/>
		<rect x="85.8" y="59.3" class="st1" width="77.6" height="13.5"/>
		<path class="st1" d="M117.8,24.6c-14.5,3.1-25.3,16-25.3,31.3v3.4h10.1v-3.4c0-11.5,6.1-21.6,15.2-27.3L117.8,24.6L117.8,24.6z"/>
		<rect x="85.8" y="59.3" class="st1" width="10.1" height="13.5"/>
		<path class="st0" d="M93.8,72.8V84c0,11.7,6.6,21.9,16.3,27.1c4.3,2.3,9.3,3.6,14.5,3.6c5.2,0,10.2-1.3,14.5-3.6
			c9.7-5.2,16.3-15.4,16.3-27.1V72.8H93.8z"/>
		<path class="st1" d="M124.6,114.7c-5.2,0-10.2-1.3-14.5-3.6l-1.6,15.7l16,11l16-11l-1.6-15.7C134.7,113.4,129.8,114.7,124.6,114.7
			z"/>
		<polygon class="st1" points="124.6,137.8 108.5,126.8 94.4,134 108.5,149.4 		"/>
		<polygon class="st1" points="124.6,137.8 140.6,149.4 154.7,134 140.6,126.8 		"/>
		<path class="st1" d="M103.9,72.8H93.8V84c0,17,13.9,30.8,30.8,30.8c1.7,0,3.4-0.1,5.1-0.4c-14.7-2.5-25.7-15.3-25.7-30.3V72.8z"/>
		<path class="st1" d="M64.7,158.3v30.2l10.1,6.8v-51.2C69.4,147.2,64.7,151.3,64.7,158.3z"/>
		<path class="st1" d="M12.8,171.8v16.7h10.1v-16.7H12.8L12.8,171.8z M22.9,139.6c-5.5,3-10.1,6.4-10.1,12.9v5.7h10.1V139.6z"/>
		<rect x="12.8" y="158.3" class="st1" width="10.1" height="13.5"/>
		<path class="st1" d="M48.8,123.4c1.7,0,3.4-0.2,5.1-0.6c-9.3-2.3-16.2-10.7-16.2-20.7v-9.9H27.5v9.9
			C27.5,113.9,37.2,123.4,48.8,123.4z"/>
		<path class="st1" d="M27.5,92.2h10.1v-3.7c0-10,6.9-18.4,16.2-20.7c-1.6-0.4-3.3-0.6-5.1-0.6c-11.7,0-21.3,9.6-21.3,21.3
			L27.5,92.2z"/>
		<path class="st0" d="M200.3,123.4c11.6,0,21.3-9.5,21.3-21.3v-9.9H179v9.9C179,113.9,188.6,123.4,200.3,123.4z"/>
		<path class="st0" d="M179,92.2h42.6v-3.7c0-11.7-9.6-21.3-21.3-21.3c-11.7,0-21.3,9.6-21.3,21.3V92.2z"/>
		<path class="st1" d="M200.3,123.4c1.7,0,3.4-0.2,5.1-0.6c-9.3-2.3-16.2-10.7-16.2-20.7v-9.9H179v9.9
			C179,113.9,188.6,123.4,200.3,123.4z"/>
		<path class="st1" d="M179,92.2h10.1v-3.7c0-10,6.9-18.4,16.2-20.7c-1.6-0.4-3.3-0.6-5.1-0.6c-11.7,0-21.3,9.6-21.3,21.3V92.2z"/>
		<path class="st0" d="M200.3,140.6c-6.1,0-11.1-4-11.1-8.9l-8.8,4.7c-3.5,1.9-7.1,3.5-10,5.6c2.9,1.5,5.9,3.1,8.3,5.1
			c3.4,2.7,5.7,6.2,5.7,11.2l0,30.2h51.9v-35.9c0-8.9-8.4-11.9-16.2-16.1l-8.8-4.7C211.4,136.6,206.4,140.6,200.3,140.6z"/>
	</g>
	<g>
		<g>
			<polygon class="st2" points="124.7,142 106.1,129.2 107.8,111.9 112.1,112.3 110.6,127.1 124.7,136.8 138.9,127.1 137.4,112.3 
				141.6,111.9 143.4,129.2 			"/>
		</g>
		<g>
			<path class="st2" d="M124.7,118c-18.5,0-33.5-15-33.5-33.5V73.7h4.3v10.7c0,16.1,13.1,29.2,29.3,29.2S154,100.6,154,84.5V73.7
				h4.3v10.7C158.3,102.9,143.2,118,124.7,118z"/>
		</g>
		<g>
			<polygon class="st2" points="108,154.1 92.4,137 95.5,134.1 108.6,148.4 123.5,137.7 126,141.1 			"/>
		</g>
		<g>
			<path class="st2" d="M166.5,75.2H83v-18h83.5V75.2z M87.2,70.9h75v-9.5h-75V70.9z"/>
		</g>
		<g>
			<path class="st2" d="M159.6,59.3h-4.3v-3.4c0-14.3-10.2-26.9-24.2-29.9l0.9-4.2c15.9,3.4,27.5,17.7,27.5,34.1V59.3z M94.1,59.3
				h-4.3v-3.4c0-6.7,1.9-13.2,5.5-18.8l3.6,2.3c-3.2,4.9-4.8,10.6-4.8,16.5V59.3z M103.1,34.1l-3-3c4.8-4.7,10.7-8,17.2-9.4l0.9,4.2
				C112.6,27.2,107.3,30,103.1,34.1z"/>
		</g>
		<g>
			<path class="st2" d="M133.7,59.3h-4.3V23.8c0-2.6-2.1-4.8-4.8-4.8s-4.8,2.1-4.8,4.8v35.4h-4.3V23.8c0-5,4-9,9-9c5,0,9,4,9,9V59.3
				z"/>
		</g>
		<g>
			<path class="st2" d="M124.7,234.9l-63.2-42.7v-31.9c0-10.7,8.8-15.1,17.3-19.4c0.9-0.4,1.8-0.9,2.6-1.3l25.9-13.3l2,3.8
				l-25.9,13.3c-0.9,0.5-1.8,0.9-2.7,1.4c-8,4-15,7.5-15,15.6v29.7l59,39.9l26.5-17.9l2.4,3.5L124.7,234.9z M159.3,211.5l-2.4-3.5
				l26.8-18.1l0-29.7c0-8-6.9-11.5-15-15.6c-0.9-0.4-1.8-0.9-2.7-1.4L140.1,130l2-3.8l25.9,13.3c0.9,0.5,1.8,0.9,2.6,1.3
				c8.5,4.3,17.3,8.7,17.3,19.4l0,31.9L159.3,211.5z"/>
		</g>
		<g>
			<path class="st2" d="M211.3,133.4l-1.1-11.1l4.2-0.4l1.1,11.1L211.3,133.4z M192.8,133.4l-4.2-0.4l1.1-11.1l4.2,0.4L192.8,133.4z
				"/>
		</g>
		<g>
			<path class="st2" d="M241,193.2h-55.2v-4.3h50.9v-34.4c0-6.3-4.7-9.1-12.4-13.1c-1-0.5-2-1-3-1.6l-8.9-4.8l2-3.7l8.9,4.8
				c1,0.5,2,1,2.9,1.5c7.2,3.7,14.7,7.6,14.7,16.9V193.2z M172.7,145.5l-2.5-3.5c2.3-1.6,5-3,7.6-4.3c1-0.5,1.9-1,2.9-1.5l8.9-4.8
				l2,3.7l-8.9,4.8c-1,0.5-2,1-3,1.6C177.2,142.8,174.8,144,172.7,145.5z"/>
		</g>
		<g>
			<path class="st2" d="M202.1,144.4c-7.4,0-13.5-5-13.5-11.2h4.3c0,3.8,4.1,6.9,9.2,6.9c5.1,0,9.2-3.1,9.2-6.9h4.3
				C215.5,139.4,209.5,144.4,202.1,144.4z"/>
		</g>
		<g>
			<rect x="171.4" y="90.7" class="st2" width="61.2" height="4.3"/>
		</g>
		<g>
			<path class="st2" d="M202.1,126.8c-13.2,0-23.9-10.7-23.9-23.8V89.1c0-13.1,10.7-23.8,23.9-23.8c13.2,0,23.9,10.7,23.9,23.8V103
				C225.9,116.1,215.2,126.8,202.1,126.8z M202.1,69.5c-10.8,0-19.6,8.8-19.6,19.6V103c0,10.8,8.8,19.6,19.6,19.6
				c10.8,0,19.6-8.8,19.6-19.6V89.1C221.7,78.3,212.9,69.5,202.1,69.5z"/>
		</g>
		<g>
			<rect x="199.9" y="58.8" class="st2" width="4.3" height="20.7"/>
		</g>
		<g>
			<path class="st2" d="M38.2,133.4l-4.2-0.4l1.1-11.1l4.2,0.4L38.2,133.4z M56.6,133.4l-1.1-11.1l4.2-0.4l1.1,11.1L56.6,133.4z"/>
		</g>
		<g>
			<path class="st2" d="M63.6,193.2H8.4v-38.7c0-9.3,7.5-13.1,14.7-16.9c1-0.5,1.9-1,2.9-1.5l8.9-4.8l2,3.7l-8.9,4.8
				c-1,0.5-2,1.1-3,1.6c-7.7,4-12.4,6.7-12.4,13.1v34.4h50.9V193.2z M76.7,145.5c-2-1.4-4.5-2.7-7.1-4c-1-0.5-2-1-3-1.6l-8.9-4.8
				l2-3.7l8.9,4.8c1,0.5,1.9,1,2.9,1.5c2.6,1.3,5.3,2.7,7.6,4.3L76.7,145.5z"/>
		</g>
		<g>
			<polygon class="st2" points="47.4,148.8 34.5,134.6 37.6,131.8 47.4,142.5 57.1,131.8 60.3,134.6 			"/>
		</g>
		<g>
			<rect x="16.8" y="90.7" class="st2" width="61.2" height="4.3"/>
		</g>
		<g>
			<path class="st2" d="M47.4,126.8c-13.2,0-23.9-10.7-23.9-23.8V89.1c0-13.1,10.7-23.8,23.9-23.8c13.2,0,23.9,10.7,23.9,23.8V103
				C71.2,116.1,60.5,126.8,47.4,126.8z M47.4,69.5c-10.8,0-19.6,8.8-19.6,19.6V103c0,10.8,8.8,19.6,19.6,19.6
				c10.8,0,19.6-8.8,19.6-19.6V89.1C67,78.3,58.2,69.5,47.4,69.5z"/>
		</g>
		<g>
			<rect x="45.2" y="58.8" class="st2" width="4.3" height="20.7"/>
		</g>
		<g>
			<rect x="45.2" y="145.7" class="st2" width="4.3" height="41.9"/>
		</g>
		<g>
			<rect x="10.6" y="171.9" class="st2" width="53" height="4.3"/>
		</g>
		<g>
			<rect x="10.6" y="158.1" class="st2" width="53" height="4.3"/>
		</g>
		<g>
			<rect x="122.6" y="139.4" class="st2" width="4.3" height="93"/>
		</g>
		<g>
			<path class="st2" d="M174.2,180.9h-4.3V174h4.3V180.9z M174.2,167.1h-4.3v-6.9h4.3V167.1z"/>
		</g>
		<g>
			<polygon class="st2" points="141.4,154.1 123.5,141.1 126,137.7 140.8,148.4 153.9,134.1 157.1,137 			"/>
		</g>
	</g>
</g>
</svg>
