<?xml version="1.0" encoding="utf-8"?>
<!-- Generator: Adobe Illustrator 27.9.1, SVG Export Plug-In . SVG Version: 6.00 Build 0)  -->
<svg version="1.1" id="Layer_1" xmlns="http://www.w3.org/2000/svg" xmlns:xlink="http://www.w3.org/1999/xlink" x="0px" y="0px"
	 viewBox="0 0 250 250" style="enable-background:new 0 0 250 250;" xml:space="preserve">
<style type="text/css">
	.st0{fill:#FFBB08;}
	.st1{fill:none;stroke:#28375E;stroke-width:6;stroke-miterlimit:10;}
</style>
<g>
	<polygon class="st0" points="52.8,78.7 235.6,78.7 144,21.6 	"/>
	<polygon class="st0" points="160.6,157.5 160.6,182.9 144.7,184.8 144,213.2 205.5,214.7 203.4,186.1 189.4,184.7 189.4,153.8 	"/>
	<g>
		<g id="g4364" transform="translate(392,128)">
			<path id="path4366" class="st1" d="M-202.6,57.6V27.4h-30.2v30.2"/>
		</g>
		<g id="g4368" transform="translate(360,192)">
			<path id="path4370" class="st1" d="M-185.7-36.6v15.1"/>
		</g>
		<g id="g4372" transform="translate(392,128)">
			<path id="path4374" class="st1" d="M-202.6,57.6v15.1"/>
		</g>
		<g id="g4376" transform="translate(328,128)">
			<path id="path4378" class="st1" d="M-168.9,57.6v15.1"/>
		</g>
		<g id="g4380" transform="translate(424,64)">
			<path id="path4382" class="st1" d="M-219.5,151.9v-30.2H-280v30.2"/>
		</g>
		<g id="g4384" transform="translate(360,128)">
			<path id="path4386" class="st1" d="M-185.7,57.6v30.2"/>
		</g>
		<g id="g4388" transform="translate(136,272)">
			<path id="path4390" class="st1" d="M-67.6-154.4H83.6v98.3"/>
		</g>
		<g id="g4392" transform="translate(256,384)">
			<path id="path4394" class="st1" d="M-130.9-319.3h7.6"/>
		</g>
		<g id="g4396" transform="translate(288,384)">
			<path id="path4398" class="st1" d="M-147.8-319.3h7.6"/>
		</g>
		<g id="g4400" transform="translate(320,384)">
			<path id="path4402" class="st1" d="M-164.6-319.3h7.6"/>
		</g>
		<g id="g4406">
			<g id="g4412" transform="translate(88,352)">
				<path id="path4414" class="st1" d="M-42.3-272.2h196.6"/>
			</g>
		</g>
		<g id="g4416" transform="translate(200,320)">
			<path id="path4418" class="st1" d="M-101.4-225.1h-52.9"/>
		</g>
		<g id="g4422">
			<g id="g4428" transform="translate(504,320)">
				<path id="path4430" class="st1" d="M-261.7-225.1h-136.1"/>
			</g>
		</g>
		<g id="g4432" transform="translate(136,208)">
			<path id="path4434" class="st1" d="M-67.6-60.2h30.2l30.2,30.2V7.9"/>
		</g>
		<g id="g4436" transform="translate(264,144)">
			<path id="path4438" class="st1" d="M-135.1,34.1h-60.5"/>
		</g>
		<g id="g4442">
			<g id="g4448" transform="translate(168,64)">
				<path id="path4450" class="st1" d="M-84.5,151.9h-79.4"/>
			</g>
			<g id="g4452" transform="translate(0,288)">
				<path id="path4454" class="st1" d="M4.1-178h64.3v105.9"/>
			</g>
			<g id="g4456" transform="translate(0,128)">
				<path id="path4458" class="st1" d="M4.1,57.6h64.3"/>
			</g>
			<g id="g4460" transform="translate(232,64)">
				<path id="path4462" class="st1" d="M-118.2,151.9c0,8.4-6.8,15.1-15.1,15.1s-15.1-6.8-15.1-15.1c0-8.4,6.8-15.1,15.1-15.1
					S-118.2,143.5-118.2,151.9z"/>
			</g>
			<g id="g4464" transform="translate(192,64)">
				<path id="path4466" class="st1" d="M-97.1,151.9h7.6"/>
			</g>
			<g id="g4468" transform="translate(32,96)">
				<path id="path4470" class="st1" d="M-12.7,104.8h37.8"/>
			</g>
			<g id="g4472" transform="translate(152,120)">
				<path id="path4474" class="st1" d="M-76,69.4h15.1"/>
			</g>
			<g id="g4476" transform="translate(504,200)">
				<path id="path4478" class="st1" d="M-261.7-48.4v64.3h-128.5"/>
			</g>
			<g id="g4480" transform="translate(88,288)">
				<path id="path4482" class="st1" d="M-42.3-178v-30.2L56-268.7l98.3,60.5v64.3"/>
			</g>
			<g id="g4484" transform="translate(136,240)">
				<path id="path4486" class="st1" d="M-67.6-107.3H83.6"/>
			</g>
		</g>
	</g>
</g>
</svg>
