<?xml version="1.0" encoding="utf-8"?>
<!-- Generator: Adobe Illustrator 27.9.1, SVG Export Plug-In . SVG Version: 6.00 Build 0)  -->
<svg version="1.1" id="Layer_1" xmlns="http://www.w3.org/2000/svg" xmlns:xlink="http://www.w3.org/1999/xlink" x="0px" y="0px"
	 viewBox="0 0 250 250" style="enable-background:new 0 0 250 250;" xml:space="preserve">
<style type="text/css">
	.st0{fill:#FFBB08;}
	.st1{fill:#28375E;}
</style>
<g>
	<rect x="105.8" y="155.6" class="st0" width="70.3" height="70.3"/>
	<g>
		<g>
			<path class="st1" d="M174.4,147.7h-7.6v-7.6h7.6V147.7z"/>
			<path class="st1" d="M159.2,147.7h-7.6v-7.6h7.6V147.7z"/>
			<path class="st1" d="M144,147.7h-7.6v-7.6h7.6V147.7z"/>
			<path class="st1" d="M174.4,162.9h-7.6v-7.6h7.6V162.9z"/>
			<path class="st1" d="M159.2,162.9h-7.6v-7.6h7.6V162.9z"/>
			<path class="st1" d="M144,162.9h-7.6v-7.6h7.6V162.9z"/>
			<path class="st1" d="M128.8,162.9h-7.6v-7.6h7.6V162.9z"/>
			<path class="st1" d="M113.6,162.9H106v-7.6h7.6V162.9z"/>
			<path class="st1" d="M174.4,178.1h-7.6v-7.6h7.6V178.1z"/>
			<path class="st1" d="M159.2,178.1h-7.6v-7.6h7.6V178.1z"/>
			<path class="st1" d="M144,178.1h-7.6v-7.6h7.6V178.1z"/>
			<path class="st1" d="M128.8,178.1h-7.6v-7.6h7.6V178.1z"/>
			<path class="st1" d="M113.6,178.1H106v-7.6h7.6V178.1z"/>
			<path class="st1" d="M174.4,193.3h-7.6v-7.6h7.6V193.3z"/>
			<path class="st1" d="M159.2,193.3h-7.6v-7.6h7.6V193.3z"/>
			<path class="st1" d="M144,193.3h-7.6v-7.6h7.6V193.3z"/>
			<path class="st1" d="M128.8,193.3h-7.6v-7.6h7.6V193.3z"/>
			<path class="st1" d="M113.6,193.3H106v-7.6h7.6V193.3z"/>
			<path class="st1" d="M174.4,208.5h-7.6v-7.6h7.6V208.5z"/>
			<path class="st1" d="M159.2,208.5h-7.6v-7.6h7.6V208.5z"/>
			<path class="st1" d="M144,208.5h-7.6v-7.6h7.6V208.5z"/>
			<path class="st1" d="M128.8,208.5h-7.6v-7.6h7.6V208.5z"/>
			<path class="st1" d="M113.6,208.5H106v-7.6h7.6V208.5z"/>
			<path class="st1" d="M174.4,223.7h-7.6v-7.6h7.6V223.7z"/>
			<path class="st1" d="M159.2,223.7h-7.6v-7.6h7.6V223.7z"/>
			<path class="st1" d="M144,223.7h-7.6v-7.6h7.6V223.7z"/>
			<path class="st1" d="M128.8,223.7h-7.6v-7.6h7.6V223.7z"/>
			<path class="st1" d="M113.6,223.7H106v-7.6h7.6V223.7z"/>
			<path class="st1" d="M11,26.1v15.2c0,2.1,1.7,3.8,3.8,3.8h26.6v3.8c0,2.1,1.7,3.8,3.8,3.8h7.6v178.6h-6.8c2.7-2.9,3.6-7,2.5-10.8
				c-1.1-3.8-4.1-6.7-8-7.7c1.9-4.8,0.4-10.2-3.6-13.3c-4.1-3.1-9.7-3.1-13.8,0c-4.1,3.1-5.6,8.6-3.6,13.3c-3.8,1-6.9,3.9-8,7.7
				c-1.1,3.8-0.2,7.9,2.5,10.8h-3v7.6h228v-7.6h-2.2l-17.9-17.9c-1.5-1.5-3.9-1.5-5.4,0l-17.9,17.9h-6v-171H182v15.2h-49.4v7.6H182
				v11.4h-22.8v-3.8h-7.6v3.8h-22.8v-7.6h-7.6v7.6H98.4V79.3h-7.6v152H75.6V52.7h7.6c2.1,0,3.8-1.7,3.8-3.8v-3.8h129.2v69
				c-3.6,1.2-6.3,4.2-7.2,7.9c-0.9,3.7,0,7.6,2.6,10.4l-9.7,13l0,0c-0.5,0.6-0.8,1.4-0.8,2.2v15.2c0,1,0.4,2,1.1,2.7l7.6,7.6
				c0.7,0.7,1.7,1.1,2.7,1.1h15.2c1,0,2-0.4,2.7-1.1l7.6-7.6c0.7-0.7,1.1-1.7,1.1-2.7v-15.2c0-0.8-0.3-1.6-0.8-2.2l0,0l-9.7-13
				c1.9-2.1,2.9-4.7,2.9-7.5h-7.6c0,2.1-1.7,3.8-3.8,3.8c-2.1,0-3.8-1.7-3.8-3.8c0-2.1,1.7-3.8,3.8-3.8c2.1,0,3.8-1.7,3.8-3.8V45.1
				h11.4c2.1,0,3.8-1.7,3.8-3.8V26.1c0-2.1-1.7-3.8-3.8-3.8H87v-7.6c0-2.1-1.7-3.8-3.8-3.8h-38c-2.1,0-3.8,1.7-3.8,3.8v7.6H14.8
				C12.7,22.3,11,24,11,26.1z M221.9,136.3l5.7,7.6h-15.2l5.7-7.6H221.9z M208.6,151.5h22.8v9.8l-5.4,5.4H214l-5.4-5.4V151.5z
				 M41.4,29.9v6.8l-10.3-6.8H41.4z M79.4,33.7H64.2V18.5h15.2V33.7z M192.3,37.5h-20.5l10.3-6.8L192.3,37.5z M194.5,29.9h20.5
				l-10.3,6.8L194.5,29.9z M159.2,36.7L149,29.9h20.5L159.2,36.7z M146.7,37.5h-20.5l10.3-6.8L146.7,37.5z M113.6,36.7l-10.3-6.8
				h20.5L113.6,36.7z M231.4,37.5h-14.1l11.4-7.6h2.7V37.5z M87,37.5v-7.6h2.7l11.4,7.6H87z M60.4,198.2l6.8,10.3l-6.8,10.3V198.2z
				 M60.4,107l6.8,10.3l-6.8,10.3V107z M68,150.3l-6.8-10.3l6.8-10.3V150.3z M61.2,94.5L68,84.2v20.5L61.2,94.5z M68,195.9
				l-6.8-10.3l6.8-10.3V195.9z M60.4,152.6l6.8,10.3l-6.8,10.2V152.6z M60.4,82V61.4l6.8,10.3L60.4,82z M63.7,52.7H68v6.5L63.7,52.7
				z M121.2,102.1v38H98.4v-38H121.2z M151.6,102.1V125h-11.4c-1,0-2,0.4-2.7,1.1l-8.7,8.6v-32.7H151.6z M182,102.1v6.3h-22.8v-6.3
				H182z M226,231.3h-19.6l9.8-9.8L226,231.3z M98.4,231.3v-83.6H125c1,0,2-0.4,2.7-1.1l14.1-13.9h13.6c2.1,0,3.8-1.7,3.8-3.8V116
				H182v115.2H98.4z M68,231.3h-6.8L68,221V231.3z M18.6,223.7c0-2.1,1.7-3.8,3.8-3.8s3.8,1.7,3.8,3.8c0,2.1-1.7,3.8-3.8,3.8
				S18.6,225.8,18.6,223.7z M33.8,208.5c0,2.1-1.7,3.8-3.8,3.8s-3.8-1.7-3.8-3.8c0-2.1,1.7-3.8,3.8-3.8S33.8,206.4,33.8,208.5z
				 M41.4,223.7c0,2.1-1.7,3.8-3.8,3.8c-2.1,0-3.8-1.7-3.8-3.8c0-2.1,1.7-3.8,3.8-3.8C39.7,219.9,41.4,221.6,41.4,223.7z M49,18.5
				h7.6v19c0,2.1,1.7,3.8,3.8,3.8h19v3.8H49V18.5z M18.6,37.5v-6.8l10.3,6.8H18.6z"/>
		</g>
	</g>
</g>
</svg>
