<?xml version="1.0" encoding="utf-8"?>
<!-- Generator: Adobe Illustrator 27.9.1, SVG Export Plug-In . SVG Version: 6.00 Build 0)  -->
<svg version="1.1" id="Layer_1" xmlns="http://www.w3.org/2000/svg" xmlns:xlink="http://www.w3.org/1999/xlink" x="0px" y="0px"
	 viewBox="0 0 250 250" style="enable-background:new 0 0 250 250;" xml:space="preserve">
<style type="text/css">
	.st0{fill:#FCB917;}
	.st1{fill:#28375E;}
</style>
<g>
	<circle class="st0" cx="38.2" cy="212.2" r="9.5"/>
	<circle class="st0" cx="96.3" cy="211.2" r="9.5"/>
	<circle class="st0" cx="154.4" cy="211.2" r="9.5"/>
	<circle class="st0" cx="211.4" cy="212.2" r="9.5"/>
	<g>
		<polygon class="st0" points="28.7,77 32.8,66.2 32.9,55.9 40.3,48.5 52.3,52.2 61.6,47.3 64.6,39 77.7,38.3 85.7,48.5 94.7,52.2 
			99.5,50.6 106.4,52.2 114.3,59.1 113.4,70.8 114.9,77 125,87.1 125,97.9 116.4,104.5 112.1,116.1 113.1,125 104.8,134.1 95.2,132 
			83.6,136.2 78.4,144.6 66.6,144.6 59.3,136.2 48.8,132 39.3,134.1 29.8,125.6 31.9,116.1 28.7,104.2 19.2,99.2 17.6,85 28.2,81.8 
					"/>
		<path class="st1" d="M219.1,187.2h1.8v-35.6c0-2-1.6-3.6-3.6-3.6h-38.2c-2,0-3.6,1.6-3.6,3.6v34.6h-8.3v-34.6c0-2-1.6-3.6-3.6-3.6
			h-38.2c-2,0-3.6,1.6-3.6,3.6v34.6H106v-2.5c0-5.4-4.4-9.7-9.7-9.7h-2.5l-8.7-33l0.4-0.9c3.8-1.1,7.4-2.6,10.9-4.5l7,3.1
			c1.4,0.6,3,0.3,4-0.7l10.2-10.2c1.1-1.1,1.4-2.7,0.7-4l-3.1-7c1.9-3.4,3.4-7.1,4.5-10.9l7.1-2.7c1.4-0.5,2.3-1.9,2.3-3.4V85.1
			c0-1.5-0.9-2.8-2.3-3.4l-7.1-2.7c-0.6-2.2-1.4-4.3-2.3-6.4l29.1-24.4l29.5,25.8c0.1,3.5,1.5,6.7,3.7,9.2
			c-10.2,4.3-17.4,14.4-17.4,26.2c0,10.1,5.4,19.5,14.2,24.6c1.1,0.6,2.5,0.6,3.6,0c1.1-0.6,1.8-1.8,1.8-3.1v-19.8l8.6-4.9l8.6,4.9
			v20c0,1.3,0.7,2.5,1.8,3.1c0.6,0.3,1.2,0.5,1.8,0.5c0.6,0,1.2-0.1,1.7-0.4c9.1-5,14.8-14.6,14.8-24.9c0-11.8-7.2-21.9-17.4-26.2
			c2.3-2.6,3.7-6.1,3.7-9.8c0-8-6.3-14.5-14.3-14.8l-26.9-28.8c-0.2-9.1-7.7-16.4-16.8-16.4c-6,0-11.3,3.1-14.2,7.9L90.7,46.6
			c-1.7-0.7-3.5-1.3-5.3-1.8l-2.7-7.1c-0.5-1.4-1.9-2.3-3.4-2.3H64.8c-1.5,0-2.8,0.9-3.4,2.3l-2.7,7.1c-3.8,1.1-7.4,2.6-10.9,4.5
			l-7-3.1c-1.4-0.6-3-0.3-4,0.7L26.6,57.2c-1.1,1.1-1.4,2.7-0.7,4l3.1,7c-1.9,3.4-3.4,7.1-4.5,10.9l-7.1,2.7
			c-1.4,0.5-2.3,1.9-2.3,3.4v14.5c0,1.5,0.9,2.8,2.3,3.4l7.1,2.7c1.1,3.8,2.6,7.4,4.5,10.9l-3.1,7c-0.6,1.4-0.3,3,0.7,4l10.2,10.2
			c0.4,0.4,0.8,0.6,1.3,0.8l2.1,35.3h-1.4c-5.4,0-9.7,4.4-9.7,9.7v4.2c-9.4,3.6-16.1,12.8-16.1,23.5c0,13.9,11.3,25.2,25.2,25.2
			h173.6c13.9,0,25.2-11.3,25.2-25.2C237,200,229.4,190.3,219.1,187.2L219.1,187.2z M195.4,155.2h5.6v8.3h-5.6V155.2z M182.7,155.2
			h5.5v12c0,2,1.6,3.6,3.6,3.6h12.8c2,0,3.6-1.6,3.6-3.6v-12h5.5v31c-0.6,0-1.2-0.1-1.8-0.1h-29.1L182.7,155.2z M141.7,155.2h5.6
			v8.3h-5.6V155.2z M129,155.2h5.5v12c0,2,1.6,3.6,3.6,3.6h12.8c2,0,3.6-1.6,3.6-3.6v-12h5.5v30.9H129L129,155.2z M117.4,57.2
			l-10.2-10.2c-0.4-0.4-0.9-0.7-1.5-0.9l24.9-14.8c0.3,5.8,3.6,10.9,8.4,13.7l-21.8,18.3l0.9-2.1C118.8,59.8,118.5,58.2,117.4,57.2z
			 M211.8,109.5c0,5.4-2.1,10.6-5.7,14.4v-14.8c0-1.3-0.7-2.5-1.8-3.1l-12.2-7c-0.6-0.3-1.2-0.5-1.8-0.5c-0.6,0-1.2,0.2-1.8,0.5
			l-12.2,7c-1.1,0.6-1.8,1.8-1.8,3.1v14.2c-3.3-3.8-5.2-8.7-5.2-13.9c0-11.7,9.5-21.2,21.2-21.2C202.3,88.3,211.8,97.8,211.8,109.5
			L211.8,109.5z M190.6,65.9c4.2,0,7.6,3.4,7.6,7.6s-3.4,7.6-7.6,7.6c-4.2,0-7.6-3.4-7.6-7.6S186.5,65.9,190.6,65.9z M177.8,66.2
			l-23.4-20.5c3.4-1.5,6.2-4.1,7.9-7.4l20.9,22.4C180.9,62,179,63.9,177.8,66.2L177.8,66.2z M147.5,20.7c5.3,0,9.6,4.3,9.6,9.6
			s-4.3,9.6-9.6,9.6s-9.6-4.3-9.6-9.6S142.2,20.7,147.5,20.7z M33.4,124.2l2.8-6.4c0.5-1.1,0.4-2.3-0.2-3.4
			c-2.3-3.8-4.1-7.9-5.1-12.3c-0.3-1.2-1.1-2.1-2.2-2.5l-6.5-2.5v-9.5l6.5-2.5c1.1-0.4,1.9-1.4,2.2-2.5c1-4.3,2.7-8.5,5.1-12.3
			c0.6-1,0.7-2.3,0.2-3.4l-2.8-6.4l6.7-6.7l6.4,2.8c1.1,0.5,2.3,0.4,3.4-0.2c3.8-2.3,7.9-4.1,12.3-5.1c1.2-0.3,2.1-1.1,2.5-2.2
			l2.5-6.5h9.5l2.5,6.5c0.4,1.1,1.4,1.9,2.5,2.2c4.3,1,8.5,2.7,12.3,5.1c1,0.6,2.3,0.7,3.4,0.2l6.4-2.8l6.7,6.7l-2.8,6.4
			c-0.5,1.1-0.4,2.3,0.2,3.4c2.3,3.8,4.1,7.9,5.1,12.3c0.3,1.2,1.1,2.1,2.2,2.5l6.5,2.5v9.5l-6.5,2.5c-1.1,0.4-1.9,1.4-2.2,2.5
			c-1,4.3-2.7,8.5-5.1,12.3c-0.6,1-0.7,2.3-0.2,3.4l2.8,6.4l-6.7,6.7l-6.4-2.8c-1.1-0.5-2.3-0.4-3.4,0.2c-3.8,2.3-7.9,4.1-12.3,5.1
			c-1.2,0.3-2.1,1.1-2.5,2.2l-2.5,6.5h-9.5l-2.5-6.5c-0.4-1.1-1.4-1.9-2.5-2.2c-4.3-1-8.5-2.7-12.3-5.1c-1-0.6-2.3-0.7-3.4-0.2
			l-6.4,2.8L33.4,124.2z M45.2,136.6l2.6-1.2c3.4,1.9,7.1,3.4,10.9,4.5l2.7,7.1c0.5,1.4,1.9,2.3,3.4,2.3h14.5c0.2,0,0.3,0,0.5,0
			l6.5,24.6H47.4L45.2,136.6z M36.3,183.6c0-1.4,1.1-2.5,2.5-2.5h57.4c1.4,0,2.5,1.1,2.5,2.5v2.5H38.2c-0.6,0-1.2,0-1.8,0.1
			L36.3,183.6z M211.8,229.3H38.2c-9.9,0-18-8.1-18-18c0-9.9,8.1-18,18-18h173.6c9.9,0,18,8.1,18,18
			C229.8,221.2,221.7,229.3,211.8,229.3L211.8,229.3z M137.1,199.9c0,2-1.6,3.6-3.6,3.6h-17c-2,0-3.6-1.6-3.6-3.6s1.6-3.6,3.6-3.6
			h17C135.5,196.3,137.1,197.9,137.1,199.9z M195,222.7c0,2-1.6,3.6-3.6,3.6h-17c-2,0-3.6-1.6-3.6-3.6s1.6-3.6,3.6-3.6h17
			C193.4,219.1,195,220.7,195,222.7z M79.2,199.9c0,2-1.6,3.6-3.6,3.6h-17c-2,0-3.6-1.6-3.6-3.6s1.6-3.6,3.6-3.6h17
			C77.6,196.3,79.2,197.9,79.2,199.9z M195,199.9c0,2-1.6,3.6-3.6,3.6h-17c-2,0-3.6-1.6-3.6-3.6s1.6-3.6,3.6-3.6h17
			C193.4,196.3,195,197.9,195,199.9z M137.1,222.7c0,2-1.6,3.6-3.6,3.6h-17c-2,0-3.6-1.6-3.6-3.6s1.6-3.6,3.6-3.6h17
			C135.5,219.1,137.1,220.7,137.1,222.7z M79.2,222.7c0,2-1.6,3.6-3.6,3.6h-17c-2,0-3.6-1.6-3.6-3.6s1.6-3.6,3.6-3.6h17
			C77.6,219.1,79.2,220.7,79.2,222.7z M38.2,196.3c-8.3,0-15,6.7-15,15c0,8.3,6.7,15,15,15c8.3,0,15-6.7,15-15
			C53.2,203.1,46.5,196.3,38.2,196.3z M38.2,219.1c-4.3,0-7.8-3.5-7.8-7.8s3.5-7.8,7.8-7.8s7.8,3.5,7.8,7.8S42.5,219.1,38.2,219.1z
			 M96.1,196.3c-8.3,0-15,6.7-15,15c0,8.3,6.7,15,15,15s15-6.7,15-15C111.1,203.1,104.3,196.3,96.1,196.3z M96.1,219.1
			c-4.3,0-7.8-3.5-7.8-7.8s3.5-7.8,7.8-7.8c4.3,0,7.8,3.5,7.8,7.8S100.4,219.1,96.1,219.1z M153.9,196.3c-8.3,0-15,6.7-15,15
			c0,8.3,6.7,15,15,15c8.3,0,15-6.7,15-15C169,203.1,162.2,196.3,153.9,196.3z M153.9,219.1c-4.3,0-7.8-3.5-7.8-7.8s3.5-7.8,7.8-7.8
			c4.3,0,7.8,3.5,7.8,7.8S158.2,219.1,153.9,219.1z M211.8,196.3c-8.3,0-15,6.7-15,15c0,8.3,6.7,15,15,15c8.3,0,15-6.7,15-15
			C226.8,203.1,220.1,196.3,211.8,196.3z M211.8,219.1c-4.3,0-7.8-3.5-7.8-7.8s3.5-7.8,7.8-7.8c4.3,0,7.8,3.5,7.8,7.8
			S216.1,219.1,211.8,219.1z M142.5,30.3c0-2.7,2.2-5,5-5c2.7,0,5,2.2,5,5s-2.2,5-5,5C144.7,35.3,142.5,33.1,142.5,30.3z M72,121.2
			c15.9,0,28.8-12.9,28.8-28.8c0-15.9-12.9-28.8-28.8-28.8S43.2,76.5,43.2,92.4C43.2,108.3,56.1,121.2,72,121.2z M72,70.8
			c11.9,0,21.6,9.7,21.6,21.6c0,11.9-9.7,21.6-21.6,21.6c-11.9,0-21.6-9.7-21.6-21.6C50.4,80.5,60.1,70.8,72,70.8z"/>
	</g>
</g>
</svg>
