<?xml version="1.0" encoding="utf-8"?>
<!-- Generator: Adobe Illustrator 27.9.1, SVG Export Plug-In . SVG Version: 6.00 Build 0)  -->
<svg version="1.1" id="Layer_1" xmlns="http://www.w3.org/2000/svg" xmlns:xlink="http://www.w3.org/1999/xlink" x="0px" y="0px"
	 viewBox="0 0 250 250" style="enable-background:new 0 0 250 250;" xml:space="preserve">
<style type="text/css">
	.st0{fill:#FFFFFF;}
	.st1{fill:#FCB917;}
	.st2{fill:#F2F2F2;}
	.st3{fill:#27375D;}
</style>
<g>
	<g>
		<g>
			<path class="st0" d="M213.6,18.4h-56.8c-12.1,0-21.8,9.8-21.8,21.8v28.3c0,12.1,9.8,21.8,21.8,21.8h28.5L199,106
				c4.1,4.6,11.7,1.8,11.7-4.4V90.3h2.9c12.1,0,21.8-9.8,21.8-21.8V40.2C235.4,28.1,225.6,18.4,213.6,18.4z"/>
			<path class="st1" d="M167.2,90.3h-10.4c-12.1,0-21.8-9.8-21.8-21.8V40.2c0-12.1,9.8-21.8,21.8-21.8h10.4
				c-12.1,0-21.8,9.8-21.8,21.8v28.3C145.3,80.6,155.1,90.3,167.2,90.3z"/>
		</g>
		<g>
			<path class="st0" d="M41.4,117h72.4c15.4,0,27.8,12.5,27.8,27.8V181c0,15.4-12.5,27.8-27.8,27.8H77.5l-17.4,19.9
				c-5.2,5.9-14.9,2.3-14.9-5.6v-14.3h-3.7c-15.4,0-27.8-12.5-27.8-27.8v-36.2C13.6,129.4,26.1,117,41.4,117L41.4,117z"/>
			<path class="st1" d="M59.7,229.1c-5.2,5.4-14.6,1.7-14.6-6v-14.3h-3.7c-15.4,0-27.8-12.5-27.8-27.8v-36.2
				c0-15.4,12.5-27.8,27.8-27.8h12.2c-15.4,0-27.8,12.5-27.8,27.8V181c0,15.4,12.5,27.8,27.8,27.8h3.7v14.3
				C57.3,225.6,58.3,227.6,59.7,229.1z"/>
		</g>
		<g>
			<path class="st0" d="M172,134.5h46.5c9.9,0,17.9,8,17.9,17.9v23.2c0,9.9-8,17.9-17.9,17.9h-23.4l-11.2,12.8
				c-3.3,3.8-9.6,1.4-9.6-3.6v-9.2H172c-9.9,0-17.9-8-17.9-17.9v-23.2C154.1,142.5,162.1,134.5,172,134.5L172,134.5z"/>
			<path class="st1" d="M183.7,206.5c-3.4,3.5-9.4,1.1-9.4-3.8v-9.2H172c-9.9,0-17.9-8-17.9-17.9v-23.2c0-9.9,8-17.9,17.9-17.9h7.8
				c-9.9,0-17.9,8-17.9,17.9v23.2c0,9.9,8,17.9,17.9,17.9h2.4v9.2C182.2,204.3,182.8,205.6,183.7,206.5z"/>
		</g>
		<path class="st0" d="M162.3,63.2H82c-17,0-30.9,13.8-30.9,30.9v40.1c0,17,13.8,30.9,30.9,30.9h40.4l19.3,22.1
			c5.7,6.5,16.5,2.5,16.5-6.2V165h4.1c17,0,30.9-13.8,30.9-30.9V94C193.1,77,179.3,63.2,162.3,63.2z"/>
		<path class="st2" d="M96.6,165H82c-17,0-30.9-13.8-30.9-30.9V94c0-17,13.8-30.9,30.9-30.9h14.7c-17,0-30.9,13.8-30.9,30.9v40.1
			C65.8,151.2,79.6,165,96.6,165z"/>
		<g>
			<path class="st0" d="M80.8,18.4H35.9c-9.5,0-17.3,7.7-17.3,17.3V58c0,9.5,7.7,17.3,17.3,17.3h22.6l10.8,12.3
				c3.2,3.7,9.2,1.4,9.2-3.5v-8.9h2.3c9.5,0,17.3-7.7,17.3-17.3V35.6C98.1,26.1,90.4,18.4,80.8,18.4z"/>
			<path class="st1" d="M44.1,75.3h-8.2c-9.5,0-17.3-7.7-17.3-17.3V35.6c0-9.5,7.7-17.3,17.3-17.3h8.2c-9.5,0-17.3,7.7-17.3,17.3V58
				C26.9,67.6,34.6,75.3,44.1,75.3z"/>
		</g>
	</g>
	<g>
		<path class="st3" d="M218.5,131.1h-22v-22.9c2,2.2,4.7,3.4,7.4,3.4c1.2,0,2.4-0.2,3.6-0.7c3.9-1.5,6.5-5.2,6.5-9.4v-7.9
			c13.7-0.2,24.7-11.4,24.7-25.2V40.2c0-13.9-11.3-25.2-25.2-25.2h-56.8c-13.9,0-25.2,11.3-25.2,25.2v19.6h-30.2
			c0.1-0.6,0.1-1.2,0.1-1.8V35.6c0-11.4-9.3-20.6-20.6-20.6H35.9c-11.4,0-20.6,9.3-20.6,20.6V58c0,11.4,9.3,20.6,20.6,20.6h15.4
			c-2.4,4.7-3.6,10-3.6,15.4v19.6h-6.3c-17.2,0-31.2,14-31.2,31.2V181c0,17.2,14,31.2,31.2,31.2h0.4v11c0,5,3,9.3,7.7,11.1
			c1.4,0.5,2.8,0.8,4.2,0.8c3.3,0,6.6-1.4,8.9-4.1L79,212.2h14.6c1.9,0,3.4-1.5,3.4-3.4s-1.5-3.4-3.4-3.4H77.5c-1,0-1.9,0.4-2.5,1.1
			l-17.4,19.9c-2.2,2.5-4.9,1.7-5.7,1.4c-0.8-0.3-3.3-1.5-3.3-4.8v-14.3c0-1.9-1.5-3.4-3.4-3.4h-3.7c-13.5,0-24.5-11-24.5-24.5
			v-36.2c0-13.5,11-24.5,24.5-24.5h6.3v13.8c0,18.9,15.4,34.2,34.2,34.2h38.8l16.7,19.1c-2.9,10.5-12.6,18-23.6,18h-7
			c-1.9,0-3.4,1.5-3.4,3.4s1.5,3.4,3.4,3.4h7c13,0,24.5-8.1,29.1-19.9c1.7,0.9,3.7,1.4,5.7,1.4c0.5,0,0.9,0,1.4-0.1
			c2.6-0.3,5-1.3,6.9-2.9c3.7,3.7,8.7,5.9,14,6.2v5.9c0,3.7,2.2,7,5.7,8.3c1,0.4,2.1,0.6,3.1,0.6c2.5,0,4.9-1.1,6.6-3l10.2-11.6
			h21.9c11.7,0,21.3-9.5,21.3-21.3v-23.2C239.8,140.7,230.2,131.1,218.5,131.1L218.5,131.1z M22,58V35.6c0-7.7,6.2-13.9,13.9-13.9
			h44.9c7.7,0,13.9,6.2,13.9,13.9V58c0,7.7-6.2,13.9-13.9,13.9h-2.3c-1.9,0-3.4,1.5-3.4,3.4v8.9c0,1.2-0.9,1.6-1.2,1.8
			c-0.4,0.1-1.3,0.4-2.1-0.5L61,73.1c-0.6-0.7-1.6-1.1-2.5-1.1H35.9C28.3,71.9,22,65.7,22,58z M149.3,186.9c-1.1,0.1-3.3,0-5.2-2.1
			l-19.3-22.1c-0.6-0.7-1.6-1.1-2.5-1.1H82c-15.2,0-27.5-12.3-27.5-27.5V94c0-5,1.3-9.7,3.8-13.9l8.5,9.7c1.7,1.9,4,3,6.5,3
			c1,0,2.1-0.2,3.1-0.6c3.4-1.3,5.6-4.4,5.6-8.1v-5.5c7.9-0.4,14.6-5.3,17.7-12.1h62.6c0.3,0,0.6,0,0.9,0c0.1,0,0.1,0,0.2,0
			c1.8,0,3.3-1.4,3.4-3.2c0.1-1.9-1.3-3.4-3.2-3.5c-0.4,0-0.8,0-1.3,0h-24V40.2c0-10.2,8.3-18.5,18.5-18.5h56.8
			c10.2,0,18.5,8.3,18.5,18.5v28.3c0,10.2-8.3,18.5-18.5,18.5h-2.9c-1.9,0-3.4,1.5-3.4,3.4v11.2c0,2.1-1.6,2.9-2.1,3.1
			c-0.5,0.2-2.2,0.7-3.6-0.9l-5-5.7v-4c0-13.1-7.3-24.8-19-30.7c-1.7-0.8-3.7-0.1-4.5,1.5c-0.8,1.7-0.2,3.7,1.5,4.5
			c9.4,4.7,15.3,14.1,15.3,24.6v40.1c0,0.1,0,0.2,0,0.2c0,0,0,0.1,0,0.1c-0.2,15-12.5,27.2-27.5,27.2h-4.1c-1.9,0-3.4,1.5-3.4,3.4
			v15.9c0,1.1-0.2,2.1-0.7,2.9C153.1,185.5,151.3,186.7,149.3,186.9L149.3,186.9z M233,175.6c0,8-6.5,14.5-14.5,14.5h-23.4
			c-1,0-1.9,0.4-2.5,1.1l-11.2,12.8c-0.9,1-1.9,0.7-2.3,0.6c-0.4-0.2-1.4-0.7-1.4-2v-9.2c0-1.9-1.5-3.4-3.4-3.4H172
			c-4.3,0-8.4-1.9-11.1-5.2c0.4-1.3,0.7-2.7,0.7-4.1v-12.5h0.8c9.1,0,17.6-3.5,24.1-9.9c5.7-5.6,9.1-12.8,10-20.6h22.2
			c8,0,14.5,6.5,14.5,14.5L233,175.6L233,175.6z"/>
		<path class="st1" d="M115.6,98.9C115.6,98.9,115.5,98.9,115.6,98.9c-0.6-1.4-1.9-2.3-3.4-2.3c-1.5,0-2.8,0.9-3.3,2.2
			c0,0,0,0,0,0.1l-12,31.4c-0.6,1.5,0.2,3.2,1.7,3.7c1.5,0.6,3.2-0.2,3.7-1.7l2.3-6h15.2l2.2,6c0.4,1.2,1.5,1.9,2.7,1.9
			c0.3,0,0.7-0.1,1-0.2c1.5-0.6,2.2-2.2,1.7-3.7L115.6,98.9z M106.7,120.6l5.5-14.3l5.4,14.3H106.7z"/>
		<path class="st1" d="M93.7,97H80.9c-1.6,0-2.9,1.3-2.9,2.9v31.6c0,1.6,1.3,2.9,2.9,2.9s2.9-1.3,2.9-2.9v-13.2h8.9
			c1.6,0,2.9-1.3,2.9-2.9c0-1.6-1.3-2.9-2.9-2.9h-8.9v-9.7h9.9c1.6,0,2.9-1.3,2.9-2.9S95.3,97,93.7,97L93.7,97z"/>
		<path class="st1" d="M161.3,133.6c0.6,0.6,1.3,0.8,2,0.8c0.7,0,1.5-0.3,2-0.8c1.1-1.1,1.1-3,0-4.1l-2.8-2.8
			c2.2-3.1,3.5-6.9,3.5-11c0-10.4-8.4-18.8-18.8-18.8s-18.8,8.4-18.8,18.8s8.4,18.8,18.8,18.8c4.2,0,8.1-1.4,11.2-3.7L161.3,133.6z
			 M147.3,128.8c-7.2,0-13-5.9-13-13c0-7.2,5.9-13,13-13s13,5.9,13,13c0,2.5-0.7,4.8-1.9,6.8l-3.2-3.2c-1.1-1.1-3-1.1-4.1,0
			c-1.1,1.1-1.1,3,0,4.1l3.3,3.3C152.4,128,149.9,128.8,147.3,128.8L147.3,128.8z"/>
	</g>
</g>
</svg>
