<?xml version="1.0" encoding="utf-8"?>
<!-- Generator: Adobe Illustrator 27.9.1, SVG Export Plug-In . SVG Version: 6.00 Build 0)  -->
<svg version="1.1" id="Layer_1" xmlns="http://www.w3.org/2000/svg" xmlns:xlink="http://www.w3.org/1999/xlink" x="0px" y="0px"
	 viewBox="0 0 250 250" style="enable-background:new 0 0 250 250;" xml:space="preserve">
<style type="text/css">
	.st0{fill:#FFFFFF;}
	.st1{fill:#FCB917;}
	.st2{fill:#27375D;}
</style>
<g>
	<path class="st0" d="M192.9,234.5H34.4V30.6h105.7l52.8,52.8V234.5z"/>
	<path class="st0" d="M215.6,211.8H57.1V15.5h105.7l52.8,52.8V211.8z"/>
	<path class="st1" d="M162.7,68.4h52.8l-52.8-52.8V68.4z"/>
	<g>
		<path class="st1" d="M79.7,49.5h22.6v22.6H79.7V49.5z"/>
	</g>
	<path class="st2" d="M79.7,181.6h7.5c2.1,0,3.8-1.7,3.8-3.8c0-2.1-1.7-3.8-3.8-3.8h-7.5c-2.1,0-3.8,1.7-3.8,3.8
		C75.9,179.9,77.6,181.6,79.7,181.6z"/>
	<path class="st2" d="M192.9,174.1h-90.6c-2.1,0-3.8,1.7-3.8,3.8c0,2.1,1.7,3.8,3.8,3.8h90.6c2.1,0,3.8-1.7,3.8-3.8
		C196.7,175.8,195,174.1,192.9,174.1z"/>
	<path class="st2" d="M79.7,159h7.5c2.1,0,3.8-1.7,3.8-3.8c0-2.1-1.7-3.8-3.8-3.8h-7.5c-2.1,0-3.8,1.7-3.8,3.8
		C75.9,157.3,77.6,159,79.7,159z"/>
	<path class="st2" d="M192.9,151.4h-90.6c-2.1,0-3.8,1.7-3.8,3.8c0,2.1,1.7,3.8,3.8,3.8h90.6c2.1,0,3.8-1.7,3.8-3.8
		C196.7,153.1,195,151.4,192.9,151.4z"/>
	<path class="st2" d="M79.7,136.3h7.5c2.1,0,3.8-1.7,3.8-3.8c0-2.1-1.7-3.8-3.8-3.8h-7.5c-2.1,0-3.8,1.7-3.8,3.8
		C75.9,134.6,77.6,136.3,79.7,136.3z"/>
	<path class="st2" d="M192.9,128.8h-90.6c-2.1,0-3.8,1.7-3.8,3.8c0,2.1,1.7,3.8,3.8,3.8h90.6c2.1,0,3.8-1.7,3.8-3.8
		C196.7,130.5,195,128.8,192.9,128.8z"/>
	<path class="st2" d="M79.7,113.7h7.5c2.1,0,3.8-1.7,3.8-3.8c0-2.1-1.7-3.8-3.8-3.8h-7.5c-2.1,0-3.8,1.7-3.8,3.8
		C75.9,112,77.6,113.7,79.7,113.7z"/>
	<path class="st2" d="M192.9,106.1h-90.6c-2.1,0-3.8,1.7-3.8,3.8c0,2.1,1.7,3.8,3.8,3.8h90.6c2.1,0,3.8-1.7,3.8-3.8
		C196.7,107.8,195,106.1,192.9,106.1z"/>
	<path class="st2" d="M79.7,91h7.5c2.1,0,3.8-1.7,3.8-3.8s-1.7-3.8-3.8-3.8h-7.5c-2.1,0-3.8,1.7-3.8,3.8S77.6,91,79.7,91z"/>
	<path class="st2" d="M98.6,87.3c0,2.1,1.7,3.8,3.8,3.8h90.6c2.1,0,3.8-1.7,3.8-3.8s-1.7-3.8-3.8-3.8h-90.6
		C100.3,83.5,98.6,85.2,98.6,87.3z"/>
	<path class="st2" d="M34.4,238.2h158.5c2.1,0,3.8-1.7,3.8-3.8v-18.9h18.9c2.1,0,3.8-1.7,3.8-3.8V68.4c0-0.1,0-0.2,0-0.2
		c0-0.3-0.1-0.7-0.2-1c0-0.1-0.1-0.2-0.1-0.4c-0.2-0.4-0.4-0.8-0.8-1.1l-52.8-52.8c-0.3-0.3-0.7-0.6-1.1-0.8
		c-0.1-0.1-0.2-0.1-0.4-0.1c-0.3-0.1-0.6-0.2-1-0.2c-0.1,0-0.1,0-0.2,0H57.1c-2.1,0-3.8,1.7-3.8,3.8v11.3H34.4
		c-2.1,0-3.8,1.7-3.8,3.8v203.8C30.6,236.5,32.3,238.2,34.4,238.2L34.4,238.2z M206.5,64.6h-40v-40L206.5,64.6z M60.8,19.3H159v49.1
		c0,2.1,1.7,3.8,3.8,3.8h49.1V208h-151V19.3z M38.2,34.4h15.1v177.4c0,2.1,1.7,3.8,3.8,3.8h132.1v15.1h-151V34.4z"/>
	<path class="st2" d="M79.7,75.9h22.6c2.1,0,3.8-1.7,3.8-3.8V49.5c0-2.1-1.7-3.8-3.8-3.8H79.7c-2.1,0-3.8,1.7-3.8,3.8v22.6
		C75.9,74.2,77.6,75.9,79.7,75.9z M83.5,53.3h15.1v15.1H83.5V53.3z"/>
</g>
</svg>
