<?xml version="1.0" encoding="utf-8"?>
<!-- Generator: Adobe Illustrator 27.9.1, SVG Export Plug-In . SVG Version: 6.00 Build 0)  -->
<svg version="1.1" id="Layer_1" xmlns="http://www.w3.org/2000/svg" xmlns:xlink="http://www.w3.org/1999/xlink" x="0px" y="0px"
	 viewBox="0 0 4290 2666" style="enable-background:new 0 0 4290 2666;" xml:space="preserve">
<style type="text/css">
	.st0{fill:url(#SVGID_1_);}
	.st1{filter:url(#Adobe_OpacityMaskFilter);}
	
		.st2{clip-path:url(#SVGID_00000124126786726483275660000010508838922640210615_);fill:url(#SVGID_00000008849389431781317160000018273168464320058505_);}
	
		.st3{clip-path:url(#SVGID_00000124126786726483275660000010508838922640210615_);mask:url(#SVGID_00000120530306740827809640000009023012360379660967_);}
	.st4{fill:#CAD8FF;}
	.st5{filter:url(#Adobe_OpacityMaskFilter_00000146494827727038304990000006378662461339861400_);}
	
		.st6{clip-path:url(#SVGID_00000181051541057577560630000015113074552084776639_);fill:url(#SVGID_00000014606884354915787560000006966364998781443734_);}
	
		.st7{clip-path:url(#SVGID_00000181051541057577560630000015113074552084776639_);mask:url(#SVGID_00000023981048502668682340000018179260629363108283_);}
	.st8{fill:#FCE5B4;}
	.st9{fill:#FFFFFF;}
</style>
<linearGradient id="SVGID_1_" gradientUnits="userSpaceOnUse" x1="491.1378" y1="1218.564" x2="3963.8677" y2="1460.8474">
	<stop  offset="4.262232e-07" style="stop-color:#F5F7FF"/>
	<stop  offset="0.3969" style="stop-color:#F6F7FB"/>
	<stop  offset="0.8142" style="stop-color:#FAF6EE"/>
	<stop  offset="1" style="stop-color:#FCF5E6"/>
</linearGradient>
<rect x="-4.6" y="-2" class="st0" width="4300.6" height="2672"/>
<g>
	<g>
		<defs>
			<rect id="SVGID_00000152238298511868929470000002836988392937498035_" width="2989.5" height="2541.8"/>
		</defs>
		<clipPath id="SVGID_00000106126959304769629270000012588623204043458432_">
			<use xlink:href="#SVGID_00000152238298511868929470000002836988392937498035_"  style="overflow:visible;"/>
		</clipPath>
		<defs>
			<filter id="Adobe_OpacityMaskFilter" filterUnits="userSpaceOnUse" x="-2515.7" y="-2021.9" width="4809.8" height="4709.4">
				<feColorMatrix  type="matrix" values="1 0 0 0 0  0 1 0 0 0  0 0 1 0 0  0 0 0 1 0"/>
			</filter>
		</defs>
		
			<mask maskUnits="userSpaceOnUse" x="-2515.7" y="-2021.9" width="4809.8" height="4709.4" id="SVGID_00000098912356128940487500000013060122162227459212_">
			<g class="st1">
				
					<radialGradient id="SVGID_00000092450552815281483610000000513557132978535093_" cx="2669.2578" cy="1378.2766" r="2548.5229" gradientTransform="matrix(-1.0581 0 0 -1.036 2713.5586 1851.7288)" gradientUnits="userSpaceOnUse">
					<stop  offset="0" style="stop-color:#FFFFFF"/>
					<stop  offset="1.477480e-02" style="stop-color:#F4F4F4"/>
					<stop  offset="9.003413e-02" style="stop-color:#C2C2C2"/>
					<stop  offset="0.1708" style="stop-color:#939393"/>
					<stop  offset="0.2551" style="stop-color:#6C6C6C"/>
					<stop  offset="0.3439" style="stop-color:#4A4A4A"/>
					<stop  offset="0.4385" style="stop-color:#2F2F2F"/>
					<stop  offset="0.5408" style="stop-color:#1A1A1A"/>
					<stop  offset="0.6549" style="stop-color:#0B0B0B"/>
					<stop  offset="0.79" style="stop-color:#030303"/>
					<stop  offset="1" style="stop-color:#000000"/>
				</radialGradient>
				
					<polygon style="clip-path:url(#SVGID_00000106126959304769629270000012588623204043458432_);fill:url(#SVGID_00000092450552815281483610000000513557132978535093_);" points="
					-2807.4,-2216.5 2585.8,-2216.5 2585.8,3064.1 -2807.4,3064.1 				"/>
			</g>
		</mask>
		
			<g style="clip-path:url(#SVGID_00000106126959304769629270000012588623204043458432_);mask:url(#SVGID_00000098912356128940487500000013060122162227459212_);">
			<g>
				<path class="st4" d="M-86,202.3c7.9,0,15.6,2.9,21.4,8.4l76.2,71.1c8,7.4,11.3,18.6,8.7,29.1L-4.4,411
					c-2.6,10.5-10.8,18.9-21.4,22l-101,29.1c-10.6,3-22.1,0.3-30.1-7.1l-76.3-71.1c-8-7.4-11.3-18.6-8.7-29.1l24.8-100.2
					c2.6-10.5,10.8-18.9,21.4-22l101-29.1C-91.9,202.7-89,202.3-86,202.3z M-135.5,462.4c2.8,0,5.7-0.4,8.4-1.2l101-29.1
					c10.3-3,18.2-11.1,20.7-21.3l24.8-100.2c2.5-10.2-0.7-21-8.5-28.2l-76.2-71.1c-7.7-7.2-18.9-9.9-29.2-6.9l-101,29.1
					c-10.3,3-18.2,11.1-20.7,21.3L-241,355c-2.5,10.2,0.7,21,8.5,28.2l76.3,71.1C-150.6,459.6-143.1,462.4-135.5,462.4z"/>
			</g>
			<g>
				<path class="st4" d="M-75.5,197c9.3,0,18.3,3.9,24.6,10.8l74,81.7c7.8,8.6,10.3,20.6,6.6,31.5L-5.6,424.7
					c-3.7,10.9-13.1,19-24.5,21.3l-109.3,21.9c-11.5,2.3-23.4-1.6-31.1-10.2l-74-81.7c-7.8-8.6-10.3-20.6-6.6-31.5l35.3-103.6
					c3.7-10.9,13.1-19,24.5-21.3l109.3-21.9l0.1,0.5l-0.1-0.5C-79.9,197.2-77.7,197-75.5,197z M-146,467.6c2.1,0,4.2-0.2,6.3-0.6
					l109.3-21.9c11.1-2.2,20.2-10.1,23.8-20.7l35.3-103.6c3.6-10.5,1.1-22.2-6.4-30.5l-74-81.7c-7.5-8.3-19.1-12.1-30.2-9.8
					l-109.3,21.9c-11.1,2.2-20.2,10.1-23.8,20.7l-35.3,103.6c-3.6,10.5-1.1,22.2,6.4,30.5l74,81.7C-163.8,463.8-155,467.6-146,467.6
					z"/>
			</g>
			<g>
				<path class="st4" d="M-64.1,192.4c10.9,0,21.3,5,27.9,13.7l70.7,92.8c7.4,9.7,9,22.7,4.1,33.8L-8.1,439
					C-13,450.2-23.7,458-36,459.4L-153.4,473c-12.3,1.4-24.5-3.7-31.9-13.4l-70.7-92.8c-7.4-9.7-9-22.7-4.1-33.8l46.7-106.4
					c4.9-11.1,15.6-18.9,27.9-20.4l117.4-13.6C-66.8,192.5-65.5,192.4-64.1,192.4z M-157.4,472.2c1.3,0,2.6-0.1,3.9-0.2l117.4-13.6
					c11.9-1.4,22.3-8.9,27-19.7l46.7-106.4c4.7-10.8,3.2-23.4-4-32.8l-70.7-92.8c-7.2-9.4-19.1-14.4-31-13l-117.4,13.6
					c-11.9,1.4-22.3,8.9-27,19.7l-46.7,106.4c-4.7,10.8-3.2,23.4,4,32.8l70.7,92.8C-178.1,467.3-168,472.2-157.4,472.2z"/>
			</g>
			<g>
				<path class="st4" d="M-51.8,188.5c12.7,0,24.6,6.4,31.3,17l66.2,104.1c6.9,10.9,7.4,24.7,1.2,36.1l-59,108.2
					c-6.2,11.3-18.2,18.6-31.3,19.1l-125.2,4.1c-13.2,0.4-25.6-6.1-32.5-17L-267.3,356c-6.9-10.9-7.4-24.7-1.2-36.1l59-108.2
					c6.2-11.3,18.2-18.6,31.3-19.1l125.2-4.1C-52.6,188.5-52.2,188.5-51.8,188.5z M-169.8,476c0.4,0,0.8,0,1.2,0l125.2-4.1
					c12.7-0.4,24.3-7.5,30.3-18.5l59-108.2c6-11,5.5-24.4-1.2-35l-66.2-104.1c-6.7-10.6-18.8-16.9-31.5-16.5l-125.2,4.1
					c-12.7,0.4-24.3,7.5-30.3,18.5l-59,108.2c-6,11-5.5,24.4,1.2,35l66.2,104.1C-193.6,469.8-182,476-169.8,476z"/>
			</g>
			<g>
				<path class="st4" d="M-171.2,178.8c0.7,0,1.3,0,2,0l132.6,6.6c13.9,0.7,26.4,8.7,32.8,20.8L56.6,322c6.3,12.1,5.6,26.8-2,38.2
					l-72.1,109.1c-7.6,11.4-20.9,18.1-34.8,17.4l-132.6-6.6c-13.9-0.7-26.4-8.7-32.8-20.8l-60.5-115.7c-6.3-12.1-5.6-26.7,2-38.2
					l72.1-109.1C-196.8,185.4-184.4,178.8-171.2,178.8z M-50.3,485.6c12.8,0,24.8-6.4,31.8-16.9l72.1-109.1
					c7.3-11.1,8.1-25.3,1.9-37L-4.9,206.8c-6.1-11.8-18.3-19.5-31.8-20.1l-132.6-6.6c-13.5-0.7-26.4,5.8-33.7,16.9L-275.1,306
					c-7.3,11.1-8.1,25.3-1.9,37l60.5,115.7c6.1,11.8,18.3,19.5,31.8,20.1l132.6,6.6C-51.6,485.6-51,485.6-50.3,485.6z"/>
			</g>
			<g>
				<path class="st4" d="M-164,164.8c1.8,0,3.7,0.1,5.5,0.4l139.4,18.6c14.6,1.9,27.1,11.4,32.7,24.8L66.9,336
					c5.6,13.4,3.4,28.7-5.6,40.1l-86.1,108.9c-9,11.4-23.7,17.3-38.3,15.3l-139.4-18.6c-14.6-1.9-27.1-11.4-32.7-24.8l-53.3-127.5
					c-5.6-13.4-3.4-28.7,5.6-40.1l86.1-108.9C-188.9,170.6-176.7,164.8-164,164.8z M-57.5,499.6c12.3,0,24.1-5.6,31.8-15.2
					l86.1-108.9c8.7-11.1,10.8-26,5.4-38.9L12.5,209c-5.4-12.9-17.6-22.2-31.7-24l-139.4-18.6c-14.2-1.9-28.4,3.8-37.1,14.9
					l-86.1,108.9c-8.7,11.1-10.8,26-5.4,38.9l53.3,127.5c5.4,12.9,17.6,22.2,31.7,24l139.4,18.6C-61.1,499.4-59.3,499.6-57.5,499.6z
					"/>
			</g>
			<g>
				<path class="st4" d="M-155.4,150.6c3.2,0,6.3,0.3,9.5,1l145.5,31.8c15.2,3.3,27.6,14.5,32.3,29l44.7,139.3
					c4.7,14.6,1,30.6-9.5,41.9L-33.8,501.1c-10.6,11.3-26.6,16.2-41.8,12.9l-145.5-31.8c-15.2-3.3-27.6-14.5-32.3-29l-44.7-139.3
					c-4.7-14.6-1-30.6,9.5-41.9l100.8-107.5C-179.3,155.6-167.5,150.6-155.4,150.6z M-0.7,184.7l-145.5-31.8
					c-14.8-3.2-30.3,1.6-40.6,12.5l-100.8,107.5c-10.2,10.9-13.8,26.5-9.3,40.6l44.7,139.3c4.5,14.1,16.5,24.9,31.3,28.2l145.5,31.8
					c14.8,3.2,30.3-1.6,40.6-12.5L66,392.7c10.2-10.9,13.8-26.5,9.3-40.6L30.6,212.8C26.1,198.7,14.1,187.9-0.7,184.7z"/>
			</g>
			<g>
				<path class="st4" d="M-145.2,136.4c4.6,0,9.3,0.7,13.8,2.1l150.7,46.2c15.8,4.8,27.8,17.7,31.4,33.5l34.5,150.9
					c3.6,15.8-1.7,32.4-13.9,43.4L-44.9,517.2c-12.2,11-29.5,14.8-45.3,9.9l-150.7-46.2c-15.8-4.8-27.8-17.7-31.4-33.5l-34.5-150.9
					c-3.6-15.8,1.7-32.4,13.9-43.4l116.3-104.7C-168,140.6-156.7,136.4-145.2,136.4z M-76.4,527.8c11.2,0,22.1-4,30.6-11.6
					L70.5,411.5c11.8-10.6,17-26.8,13.5-42.1L49.5,218.5C46,203.1,34.3,190.7,19,186l-150.7-46.3c-15.3-4.7-32.2-1-44,9.6
					L-292,254.1c-11.8,10.6-17,26.8-13.5,42.1l34.5,150.9c3.5,15.3,15.2,27.8,30.5,32.5l150.7,46.3
					C-85.4,527.2-80.9,527.8-76.4,527.8z"/>
			</g>
			<g>
				<path class="st4" d="M-133.4,122.2c6.3,0,12.6,1.2,18.6,3.6l155,62c16.2,6.5,27.8,21.1,30.2,38.1L93,388.3
					c2.4,17-4.8,34.1-18.6,44.6L-58,533.3c-13.9,10.5-32.5,13-48.8,6.5l-155-62c-16.2-6.5-27.8-21.1-30.2-38.1l-22.6-162.4
					c-2.4-17,4.8-34.1,18.6-44.6l132.3-100.4C-154.8,125.7-144.1,122.2-133.4,122.2z M39.6,189.1l-155-62
					c-15.7-6.3-33.9-3.9-47.3,6.3L-295,233.9c-13.4,10.2-20.4,26.8-18.1,43.3l22.6,162.4c2.3,16.5,13.5,30.6,29.2,36.9l155,62
					c15.7,6.3,33.9,3.9,47.3-6.3L73.4,431.7c13.4-10.2,20.4-26.8,18.1-43.3L68.8,226.1C66.5,209.6,55.3,195.4,39.6,189.1L39.6,189.1
					z"/>
			</g>
			<g>
				<path class="st4" d="M-119.9,108.3c8.1,0,16.3,1.8,23.7,5.6l158,79c16.5,8.3,27.4,24.7,28.4,42.9l9.1,173.5
					c1,18.2-8.1,35.6-23.7,45.5l-148.9,94.5c-15.6,9.9-35.6,10.9-52.1,2.6l-158-79c-16.5-8.3-27.4-24.7-28.4-42.9l-9.1-173.5
					c-1-18.2,8.1-35.6,23.7-45.5l148.9-94.5C-139.7,111-129.8,108.3-119.9,108.3z M61.1,194.2l-158-79c-16-8-35.4-7-50.5,2.5
					l-148.9,94.5c-15.1,9.6-23.9,26.5-23,44.1l9.1,173.5c0.9,17.6,11.5,33.5,27.5,41.6l158,79c16,8,35.4,7,50.5-2.5l148.9-94.5
					c15.1-9.6,23.9-26.5,23-44.1l-9.1-173.5C87.7,218.2,77.1,202.3,61.1,194.2L61.1,194.2z"/>
			</g>
			<g>
				<path class="st4" d="M-104.6,94.8c10.2,0,20.3,2.7,29.2,8.1l159.6,97.2c16.7,10.2,26.7,28.5,26.1,47.7l-6.2,183.9
					c-0.6,19.3-11.8,36.9-29.2,46l-165.8,86.7c-17.4,9.1-38.5,8.4-55.2-1.8l-159.6-97.2c-16.7-10.2-26.7-28.5-26.1-47.7l6.2-183.9
					c0.6-19.3,11.8-36.9,29.2-46l165.8-86.7C-122.5,96.9-113.6,94.8-104.6,94.8z M83.3,201.5l-159.6-97.2
					c-16.2-9.9-36.7-10.5-53.6-1.7l-165.8,86.7c-16.8,8.8-27.7,25.9-28.3,44.6l-6.2,183.9c-0.6,18.7,9.1,36.4,25.3,46.3l159.6,97.2
					c16.2,9.9,36.7,10.5,53.6,1.7l165.8-86.7c16.8-8.8,27.7-25.9,28.3-44.6l6.2-183.9C109.2,229.1,99.5,211.4,83.3,201.5L83.3,201.5
					z"/>
			</g>
			<g>
				<path class="st4" d="M-87.6,81.8c12.4,0,24.8,3.9,35.1,11.4l159.7,116.6c16.7,12.2,25.6,32.4,23.2,52.7l-23.3,193.7
					c-2.4,20.3-15.9,37.9-35,46l-182.9,77.1c-19.2,8.1-41.5,5.5-58.2-6.7l-159.7-116.6c-16.7-12.2-25.6-32.4-23.2-52.7l23.3-193.7
					c2.4-20.3,15.9-37.9,35-46l182.9-77.1C-103.3,83.3-95.4,81.8-87.6,81.8z M-134,582.1c7.6,0,15.2-1.5,22.4-4.5l182.9-77.1
					c18.6-7.8,31.6-24.9,34-44.6l23.3-193.7c2.4-19.7-6.2-39.2-22.5-51.1h0L-53.5,94.5C-69.8,82.7-91.4,80.2-110,88l-182.9,77.1
					c-18.6,7.8-31.6,24.9-34,44.6l-23.3,193.7c-2.4,19.7,6.2,39.2,22.5,51.1L-168,571.1C-158,578.3-146.1,582.1-134,582.1z"/>
			</g>
			<g>
				<path class="st4" d="M-68.6,69.6c15,0,29.7,5.3,41.2,15.3l158,137c16.5,14.3,24.1,36.4,19.7,57.6L108,482
					c-4.4,21.2-20.2,38.6-41.2,45.5l-200.2,65.4c-21,6.8-44.3,2.2-60.8-12.2l-158-137c-16.5-14.4-24.1-36.4-19.7-57.6l42.2-202.5
					c4.4-21.2,20.2-38.6,41.2-45.5l200.2-65.4C-81.8,70.6-75.2,69.6-68.6,69.6z M-152.9,594.2c6.4,0,12.8-1,19-3l200.2-65.4
					c20.3-6.6,35.6-23.5,39.9-44.1l42.2-202.5c4.3-20.6-3-42-19.1-55.9l-158-137c-16-13.9-38.6-18.4-59-11.8l-200.2,65.4
					c-20.3,6.6-35.6,23.5-39.9,44.1l-42.2,202.5c-4.3,20.6,3,42,19.1,55.9l158,137C-181.7,589.1-167.4,594.2-152.9,594.2z"/>
			</g>
			<g>
				<path class="st4" d="M-47.8,58.3c17.8,0,35.1,7.1,47.7,19.9l154.3,158.5c16.2,16.6,22.1,40.6,15.5,62.6l-63,210.1
					c-6.6,22-24.8,39-47.6,44.4l-217.4,51.6c-22.8,5.4-46.9-1.5-63.1-18.1l-154.3-158.5c-16.2-16.6-22.1-40.6-15.5-62.6l63-210.1
					c6.6-22,24.8-39,47.6-44.4l217.3-51.6C-58.2,58.9-53,58.3-47.8,58.3z M-173.7,605.3c5,0,10-0.6,15-1.7L58.6,552
					c22.1-5.2,39.8-21.8,46.2-43.1l63-210.1c6.4-21.3,0.6-44.6-15-60.7L-1.6,79.6C-17.3,63.5-40.7,56.8-62.8,62l-217.3,51.6
					c-22.1,5.2-39.8,21.8-46.2,43.1l-63,210.1c-6.4,21.3-0.6,44.6,15,60.7L-220,586C-207.8,598.5-191,605.3-173.7,605.3z"/>
			</g>
			<g>
				<path class="st4" d="M-25.2,48.2c20.9,0,41.1,9.3,54.4,25.5l148.5,180.8c15.6,18.9,19.6,44.8,10.7,67.4l-85.7,216.4
					c-9,22.7-29.8,39-54.3,42.8l-234.2,35.5c-24.5,3.7-49.4-5.7-65-24.7l-148.5-180.8c-15.6-18.9-19.6-44.8-10.7-67.4l85.7-216.4
					c9-22.7,29.8-39,54.3-42.8L-35.8,49C-32.2,48.5-28.7,48.2-25.2,48.2z M176.1,255.8L27.6,75C12.5,56.6-11.7,47.4-35.4,51
					l-234.2,35.5c-23.8,3.6-44,19.5-52.7,41.5L-408,344.4c-8.7,22-4.7,47,10.3,65.4l148.5,180.8c15.1,18.4,39.2,27.5,63,23.9
					L48.1,579c23.8-3.6,44-19.5,52.7-41.5l85.7-216.4C195.1,299.2,191.2,274.2,176.1,255.8z"/>
			</g>
			<g>
				<path class="st4" d="M-0.6,39.5c24.4,0,47.5,11.9,61.3,31.9L201,275.3c14.7,21.4,16.7,49,5.1,72.1l-110.2,221
					c-11.5,23.1-35,38.6-61.2,40.4l-250.5,17.1c-26.2,1.8-51.7-10.4-66.4-31.7l-140.4-203.9c-14.7-21.4-16.7-49-5.1-72.1l110.2-221
					c11.5-23.1,35-38.6,61.2-40.4L-5.7,39.7C-4,39.6-2.3,39.5-0.6,39.5z M199.1,276.5L58.8,72.6C44.5,51.9,19.9,40.1-5.6,41.9
					l-250.5,17.1c-25.4,1.7-48.2,16.7-59.4,39.2l-110.2,221c-11.2,22.4-9.3,49.2,5,70L-280.3,593c14.3,20.7,38.9,32.5,64.4,30.8
					l250.5-17.1c25.4-1.7,48.2-16.7,59.4-39.2l110.2-221C215.3,324.1,213.4,297.3,199.1,276.5z"/>
			</g>
			<g>
				<path class="st4" d="M-240.4,28.6c0.4,0,0.8,0,1.2,0l266.1,3.9C54.7,32.9,80.5,47.9,94,71.8l129.6,227.6
					c13.6,23.8,13.1,53.2-1.2,76.6L86,599.7C71.9,622.8,46.3,637,18.8,637c-0.4,0-0.8,0-1.2,0l-266.1-3.9
					c-27.9-0.4-53.6-15.5-67.2-39.3l-129.6-227.6c-13.6-23.8-13.1-53.2,1.2-76.6l136.5-223.7C-293.5,42.8-267.8,28.6-240.4,28.6z
					 M221.6,300.5L92,72.9C78.8,49.8,53.8,35.2,26.8,34.8l-266.1-3.9c-0.4,0-0.7,0-1.1,0c-26.6,0-51.5,13.8-65.2,36.2L-442,290.8
					c-13.9,22.7-14.3,51.2-1.1,74.3l129.6,227.6c13.2,23.1,38.1,37.7,65.2,38.1l266.1,3.9c27,0.5,52.4-13.5,66.3-36.2l136.5-223.7
					C234.3,352,234.8,323.6,221.6,300.5z"/>
			</g>
			<g>
				<path class="st4" d="M-226.9,0c2.7,0,5.4,0.1,8.1,0.4L61.9,27.7c29.4,2.9,55.2,21,67.4,47.4l116.1,251.6
					c12.2,26.4,9,57.3-8.2,80.8L72.7,631.8c-17.2,23.5-46.2,36.3-75.6,33.4l-280.6-27.3c-29.4-2.9-55.2-21-67.4-47.4L-467,338.9
					c-12.2-26.4-9-57.3,8.2-80.8l164.5-224.3C-278.7,12.5-253.4,0-226.9,0z M243.1,327.7L127,76.1c-11.8-25.6-36.8-43.1-65.3-45.9
					L-219,2.8c-28.5-2.8-56.6,9.7-73.3,32.4l-164.5,224.3c-16.7,22.8-19.8,52.8-8,78.4l116.1,251.6c11.8,25.6,36.8,43.2,65.3,45.9
					l280.6,27.3c28.5,2.8,56.6-9.7,73.3-32.4L235.2,406C251.9,383.3,254.9,353.2,243.1,327.7z"/>
			</g>
			<g>
				<path class="st4" d="M-210.4-29c5.3,0,10.6,0.5,15.9,1.4L99.3,25.7c30.8,5.6,56.4,27,66.8,55.9l99.7,275.8
					c10.4,28.9,4.3,61.3-16,84.6L55.8,664.5c-20.3,23.3-52.1,34.3-82.8,28.7l-293.8-53.3c-30.8-5.6-56.4-27-66.8-55.9l-99.7-275.8
					c-10.4-28.9-4.3-61.3,16-84.6L-277.3,1.1C-260.5-18.2-235.8-29-210.4-29z M263.4,358.3L163.6,82.5c-10.1-28-35-48.8-64.8-54.2
					L-195-25c-29.8-5.4-60.6,5.2-80.3,27.8l-194.1,222.5c-19.7,22.6-25.7,54-15.5,82l99.7,275.8c10.1,28,35,48.8,64.8,54.2
					l293.8,53.3c29.8,5.4,60.6-5.2,80.3-27.8l194.1-222.5C267.5,417.7,273.5,386.3,263.4,358.3z"/>
			</g>
			<g>
				<path class="st4" d="M-190.8-58.3c8.2,0,16.4,1.1,24.5,3.2l305.4,82c32,8.6,57.1,33.4,65.5,64.8l80.2,299.9
					c8.4,31.4-1,65.1-24.6,87.9l-225.2,218c-23.6,22.8-58.1,31.7-90.1,23.1l-305.4-82c-32-8.6-57.1-33.4-65.5-64.8l-80.2-299.9
					c-8.4-31.4,1-65.1,24.6-87.9l225.2-218C-238.8-49-215-58.3-190.8-58.3z M282,392.4L201.8,92.5c-8.1-30.5-32.5-54.6-63.5-62.9
					l-305.4-82c-31-8.3-64.5,0.3-87.4,22.4l-225.2,218c-22.9,22.1-32,54.8-23.9,85.3l80.2,299.9c8.1,30.5,32.5,54.6,63.5,62.9
					l305.4,82c31,8.3,64.5-0.2,87.4-22.4l225.2-218C281,455.5,290.1,422.9,282,392.4z"/>
			</g>
			<g>
				<path class="st4" d="M-168-87.5c11.4,0,22.9,1.9,33.9,5.9l315,113.2c33,11.9,57.2,40.3,63.2,74.2l57.3,323.7
					c6,33.9-7,68.7-34,90.7L9.8,730.7c-27,22-64.2,28.4-97.2,16.5l-315-113.2c-33-11.9-57.2-40.3-63.2-74.2L-523,236.1
					c-6-33.9,7-68.7,34-90.7l257.6-210.5C-213.3-79.8-190.8-87.5-168-87.5z M298.5,430l-57.3-323.7c-5.8-32.9-29.3-60.4-61.3-71.9
					l-315-113.2c-32-11.5-68.1-5.4-94.3,16L-487,147.6c-26.2,21.4-38.8,55.1-33,87.9l57.3,323.7c5.8,32.9,29.3,60.4,61.3,71.9
					l315,113.2c32,11.5,68.1,5.4,94.3-16L265.5,518C291.7,496.6,304.3,462.9,298.5,430z"/>
			</g>
			<g>
				<path class="st4" d="M-141.8-116.3c15,0,30.1,3.1,44.1,9.5L224.6,40.3c33.8,15.4,56.7,47.5,60,83.9l31.1,346.8
					c3.3,36.3-13.7,71.9-44.2,92.8L-19.7,763.5c-30.5,20.9-70.4,24.3-104.2,8.9l-322.3-147.1c-33.8-15.4-56.7-47.5-60-83.9
					l-31.1-346.8c-3.3-36.3,13.7-71.9,44.2-92.8l291.2-199.7C-184-110.1-162.9-116.3-141.8-116.3z M312.5,471.2l-31.1-346.8
					C278.3,89.2,256,58,223.3,43.1L-99-104c-32.7-14.9-71.4-11.6-101,8.7l-291.2,199.7c-29.6,20.3-46,54.8-42.8,90l31.1,346.8
					c3.2,35.2,25.4,66.4,58.2,81.3l322.3,147.1c32.7,14.9,71.4,11.6,101-8.7l291.2-199.7C299.2,540.9,315.7,506.4,312.5,471.2z"/>
			</g>
			<g>
				<path class="st4" d="M-112-144.5c19,0,38.1,4.8,55.1,14.3L270,53.2c34.2,19.2,55.6,55.1,55.7,93.8l1.2,368.9
					c0.1,38.6-21,74.7-55.1,94.1L-53.9,795.5c-34.1,19.4-76.6,19.6-110.8,0.3l-326.9-183.4c-34.2-19.2-55.6-55.1-55.7-93.8
					l-1.2-368.9c-0.1-38.6,21-74.7,55.1-94.1l325.7-185.5C-150.5-139.7-131.2-144.5-112-144.5z M-109.6,806.9
					c18.7,0,37.4-4.7,54-14.2l325.7-185.5c33.1-18.8,53.5-53.8,53.4-91.3L322.4,147c-0.1-37.5-20.8-72.3-54-90.9L-58.5-127.4
					C-91.7-146-132.9-145.9-166-127L-491.7,58.4c-33.1,18.8-53.5,53.8-53.4,91.3l1.2,368.9c0.1,37.5,20.8,72.3,54,90.9L-163,793
					C-146.5,802.2-128,806.9-109.6,806.9z"/>
			</g>
			<g>
				<path class="st4" d="M-78.5-171.7c23.5,0,46.9,6.9,66.8,20.3L316.8,70.8c34.4,23.3,53.7,63.1,50.3,103.9l-32.3,389.6
					c-3.4,40.8-29,77-66.7,94.6L-92.8,826.3c-37.8,17.5-82.6,14-117-9.3l-328.5-222.2c-34.4-23.3-53.7-63.1-50.3-103.9l32.3-389.6
					c3.4-40.8,29-77,66.7-94.6l360.8-167.4C-112.8-168.1-95.6-171.7-78.5-171.7z M332.9,564.2l-1.8-0.1l32.3-389.6
					c3.3-39.6-15.4-78.2-48.8-100.7L-13.7-148.5c-33.4-22.6-76.8-26-113.5-9L-488,9.8c-36.6,17-61.4,52.1-64.7,91.7L-585,491.2
					c-3.3,39.6,15.4,78.2,48.8,100.7l328.5,222.2c33.4,22.6,76.8,26,113.5,9l360.8-167.4c36.6-17,61.4-52.1,64.7-91.7L332.9,564.2z"
					/>
			</g>
			<g>
				<path class="st4" d="M-41.3-197.6c28.5,0,56.6,9.5,79.2,27.7L364.5,93.5c34.2,27.6,50.9,71.3,43.6,114.1l-69.6,408.6l-1.9-0.3
					l1.9,0.3c-7.3,42.8-37.6,78.8-79.1,94l-396.2,145.2c-41.5,15.2-88.5,7.5-122.7-20l-326.6-263.3c-34.2-27.6-50.9-71.3-43.6-114.1
					l69.6-408.6c7.3-42.8,37.6-78.8,79.1-94l396.2-145.2C-70.7-195-55.9-197.6-41.3-197.6z M-180.3,859.5c14.2,0,28.5-2.4,42.2-7.5
					l396.2-145.2c40.2-14.8,69.6-49.7,76.7-91.2L404.4,207c7.1-41.5-9.1-83.9-42.3-110.6L35.6-167c-33.2-26.7-78.8-34.2-119-19.4
					L-479.6-41.2c-40.2,14.8-69.6,49.7-76.7,91.2L-626,458.6c-7.1,41.5,9.1,83.9,42.3,110.6l326.6,263.3
					C-235.2,850.2-207.9,859.5-180.3,859.5z"/>
			</g>
			<g>
				<path class="st4" d="M-0.2-221.6c34,0,67.3,12.9,92.2,36.7l320.8,306.6c33.6,32.1,47.3,79.7,35.7,124.3L337.8,671.3
					c-11.6,44.5-46.9,79.9-92.1,92.4l-431.6,118.8c-45.2,12.4-94.1,0.2-127.8-31.9L-634.4,544c-33.6-32.1-47.3-79.7-35.7-124.3
					L-559.4-5.7c11.6-44.5,46.9-79.9,92.1-92.4l431.6-118.8C-24-220-12.1-221.6-0.2-221.6z M335.9,670.8l-1.9-0.5l110.7-425.3
					c11.2-43.2-2-89.4-34.6-120.5L89.3-182.1c-32.6-31.1-80.1-43-123.9-30.9L-466.2-94.3c-43.8,12.1-78,46.4-89.3,89.6l-110.7,425.3
					c-11.2,43.2,2,89.4,34.6,120.5l320.8,306.6c32.6,31.1,80,43,123.9,30.9l431.6-118.8c43.8-12.1,78-46.4,89.3-89.6L335.9,670.8z"
					/>
			</g>
			<g>
				<path class="st4" d="M44.7-243.4c40.1,0,79.1,17,105.8,47.3l310.9,351.7c32.6,36.8,42.7,88.3,26.3,134.3L332.1,729.4
					c-16.3,46-56.8,80.3-105.6,89.5l-466.5,87.7c-48.9,9.2-99.4-8-132-44.8L-682.9,510c-32.6-36.8-42.6-88.3-26.3-134.3l155.7-439.5
					c16.3-46,56.8-80.3,105.6-89.5L18.6-241C27.3-242.6,36-243.4,44.7-243.4z M-266.3,904.9c8.4,0,16.9-0.8,25.4-2.4l466.5-87.7
					c47.4-8.9,86.6-42.2,102.4-86.8l155.7-439.5c15.8-44.6,6-94.5-25.6-130.3L147.3-193.4c-31.6-35.7-80.6-52.4-128-43.5
					l-466.5,87.7c-47.4,8.9-86.6,42.2-102.4,86.8l-155.7,439.5c-15.8,44.6-6,94.5,25.5,130.3L-368.9,859
					C-342.9,888.4-305.2,904.9-266.3,904.9z"/>
			</g>
			<g>
				<path class="st4" d="M93.5-262.6c47,0,91.8,22,119.8,59.7l296.2,398.5c31,41.7,37,97,15.6,144.1L320.7,790.2
					c-21.4,47.2-67.3,79.9-119.7,85.3l-500.6,51.9c-52.4,5.4-104.3-17.1-135.3-58.9L-731.1,470c-31-41.7-37-97-15.6-144.1
					l204.4-450.4c21.4-47.2,67.3-79.9,119.7-85.3L78-261.8C83.2-262.3,88.4-262.6,93.5-262.6z M318.7,789.3l-2-0.9L521,338
					c20.8-45.7,15-99.3-15.1-139.8L209.7-200.3c-30.1-40.5-80.4-62.4-131.2-57.1l-500.6,51.9c-50.8,5.3-95.3,37-116.1,82.7
					l-204.4,450.4c-20.8,45.7-15,99.3,15.1,139.8l296.2,398.5c30.1,40.5,80.4,62.3,131.2,57.1l500.6-51.9
					c50.8-5.3,95.3-37,116.1-82.7L318.7,789.3z"/>
			</g>
			<g>
				<path class="st4" d="M146.1-278.5c54.6,0,105.8,28.1,134.2,74l276.4,446.7c29,46.8,30.2,105.6,3.3,153.6L303.2,853.4l-2.1-1.1
					l2.1,1.1c-26.9,47.9-78.3,78.4-134.2,79.6l-533.3,11.1c-55.9,1.2-108.5-27.2-137.5-74l-276.4-446.7
					c-29-46.8-30.2-105.6-3.3-153.6l256.9-457.7c26.9-47.9,78.3-78.4,134.2-79.6l533.3-11.1C143.9-278.5,145-278.5,146.1-278.5z
					 M-367.6,939.5c1.1,0,2.1,0,3.2,0l533.3-11.1c54.2-1.1,104-30.7,130.1-77.2l256.9-457.8c26.1-46.5,24.9-103.5-3.2-148.9
					L276.2-202.1c-28.1-45.4-79.1-72.8-133.3-71.7l-533.3,11.1c-54.2,1.1-104,30.7-130.1,77.2l-256.9,457.7
					c-26.1,46.5-24.8,103.6,3.2,148.9l276.4,446.7C-470.2,912.2-420.6,939.5-367.6,939.5z"/>
			</g>
			<g>
				<path class="st4" d="M-361.9-325.7c3.5,0,6.9,0.1,10.4,0.3l564.1,34.9c59.1,3.7,112.1,38.2,138.4,90.1l251.2,495.8
					c26.3,51.9,22.3,114.2-10.5,162.4L278.9,918.7C246.1,967,189,994.6,130,991l-564.1-34.9c-59.1-3.7-112.1-38.2-138.4-90.1
					l-251.2-495.8c-26.3-51.9-22.3-114.2,10.5-162.4l312.9-460.9C-469.6-298.5-417.2-325.7-361.9-325.7z M276.8,917.3l-2.1-1.4
					L587.6,455c31.8-46.8,35.7-107.2,10.2-157.5L346.5-198.3c-25.5-50.3-76.9-83.8-134.2-87.4l-564.1-34.9
					c-57.3-3.6-112.6,23.3-144.4,70.1l-312.9,460.9c-31.8,46.8-35.7,107.2-10.2,157.5l251.2,495.8c25.5,50.4,77,83.8,134.2,87.4
					l564.1,34.9c57.3,3.6,112.6-23.3,144.4-70.1L276.8,917.3z"/>
			</g>
			<g>
				<path class="st4" d="M-330.7-385.1c8.5,0,17.1,0.6,25.7,1.9l592.5,86.1c62,9,114.9,50.1,138,107.2l220.1,545.4
					c23.1,57.1,13.1,122.5-25.9,170.6L247.3,985.5l-2.1-1.6l2.1,1.6c-39,48.1-101.8,72.4-163.8,63.4L-509,962.8
					c-62.1-9-114.9-50.1-138-107.2l-220.1-545.4c-23.1-57.1-13.1-122.5,25.9-170.6l372.4-459.4
					C-435.2-361.3-383.9-385.1-330.7-385.1z M109.2,1045.5c51.6,0,101.4-23,134-63.3l372.4-459.4c37.8-46.7,47.4-110,25.1-165.4
					L420.5-188c-22.4-55.4-73.6-95.2-133.8-104l-592.5-86.1c-60.2-8.7-121,14.8-158.9,61.5L-837,142.7
					c-37.8,46.7-47.4,110-25.1,165.4L-642,853.6c22.4,55.4,73.6,95.2,133.8,104l592.5,86.1C92.6,1044.9,100.9,1045.5,109.2,1045.5z"
					/>
			</g>
			<g>
				<path class="st4" d="M-293.3-445.1c14.2,0,28.5,1.6,42.6,4.8l617.8,142.6c64.7,14.9,116.8,62.9,135.9,125.3l182.7,595.1
					c19.1,62.3,2.7,130.5-42.8,177.9l-435,452.5c-45.6,47.4-114,67.5-178.8,52.6l-617.8-142.6c-64.7-14.9-116.8-62.9-135.9-125.3
					l-182.7-595.1c-19.1-62.3-2.7-130.5,42.8-177.9l435-452.5C-393.8-424.7-344.1-445.1-293.3-445.1z M205.8,1051.3l-2.1-1.9
					l435-452.5c44.2-46,60.1-112.1,41.5-172.5L497.6-170.7c-18.6-60.4-69.1-107-131.8-121.5l-617.8-142.6
					c-62.7-14.5-129.2,5.1-173.3,51l-435,452.5c-44.2,46-60.1,112-41.5,172.5l182.7,595.1c18.6,60.4,69.1,107,131.8,121.5
					l617.8,142.6c62.7,14.5,129.2-5.1,173.3-51L205.8,1051.3z"/>
			</g>
			<g>
				<path class="st4" d="M-249.3-505.2c20.5,0,41.2,3.1,61.2,9.5l639.3,204.6c67,21.4,117.6,76.7,132.1,144.1l138.7,644.4
					c14.5,67.5-9,138-61.4,184.1L160,1121.3c-52.4,46.1-126.6,61.4-193.5,39.9l-639.3-204.6c-67-21.4-117.6-76.7-132.1-144.1
					l-138.7-644.4c-14.5-67.5,9-138,61.4-184.1l500.6-439.8C-344.8-488-297.4-505.2-249.3-505.2z M158,1119.1l-2-2.2l500.6-439.8
					c50.8-44.7,73.7-113.1,59.6-178.5L577.5-145.8c-14.1-65.4-63.2-119-128.1-139.8l-639.3-204.6c-64.9-20.8-136.8-5.9-187.7,38.7
					L-878.2-11.5C-929,33.1-951.8,101.5-937.7,167L-799,811.3c14.1,65.4,63.2,119,128.1,139.8l639.3,204.6
					c64.9,20.8,136.8,5.9,187.7-38.7L158,1119.1z"/>
			</g>
			<g>
				<path class="st4" d="M-198.4-564.8c27.6,0,55.3,5.3,81.5,16.1l656.4,271.8c68.7,28.5,117.2,91.2,126.4,163.7l87.8,692.5
					c9.2,72.5-22.1,145-81.6,189L103.4,1189c-59.6,44.1-139.2,53.7-208,25.3L-761,942.5c-68.7-28.5-117.2-91.2-126.4-163.7
					l-87.8-692.5c-9.2-72.5,22.1-144.9,81.6-189l568.6-420.7C-288-550.7-243.4-564.8-198.4-564.8z M101.5,1186.6l-1.9-2.5
					l568.6-420.7c57.7-42.7,88.1-113,79.2-183.3l-87.8-692.5c-8.9-70.3-55.9-131.2-122.5-158.8L-119.4-543
					c-66.7-27.6-144-18.2-201.7,24.5L-889.7-97.8c-57.7,42.7-88.1,113-79.2,183.3l87.8,692.5c8.9,70.3,55.9,131.2,122.5,158.8
					l656.4,271.8c66.7,27.6,143.9,18.2,201.7-24.5L101.5,1186.6z"/>
			</g>
			<g>
				<path class="st4" d="M-140.3-623.5c35.5,0,71,8.3,103.4,24.9l668.3,344.3c70,36.1,115.4,106.5,118.5,183.9l29.6,738.9
					C782.6,746,743,819.7,676.1,861L37.3,1255.6l-1.8-2.8l1.8,2.8c-66.9,41.3-151.9,44.6-221.9,8.5l-668.3-344.3
					c-70-36.1-115.4-106.5-118.5-183.9L-1001-3c-3.1-77.4,36.5-151.1,103.4-192.4L-258.9-590C-222.9-612.2-181.6-623.4-140.3-623.5z
					 M-81.2,1282.5c40.1,0,80.1-10.9,115-32.4l638.7-394.6c64.9-40.1,103.3-111.6,100.3-186.6L743.2-70c-3-75-47-143.4-114.9-178.3
					L-40.1-592.7c-67.9-35-150.3-31.8-215.2,8.3L-894-189.9C-958.9-149.8-997.3-78.3-994.3-3.3l29.6,738.9
					c3,75,47,143.4,114.9,178.4l668.3,344.3C-150.1,1274.4-115.6,1282.5-81.2,1282.5z"/>
			</g>
			<g>
				<path class="st4" d="M-74.8-680.3c44.3,0,88.4,12.1,126.8,36.2l674.3,421.9C796.9-178,838.5-99.6,834.7-17.7l-36,782.8
					c-3.8,82-52.3,156.4-126.7,194.2l-710.4,360.8l-1.6-3.1l1.6,3.1c-74.4,37.8-164.5,33.8-235.1-10.4l-674.3-421.9
					c-70.6-44.2-112.1-122.6-108.4-204.5l36-782.8c3.8-82,52.3-156.4,126.7-194.2l710.4-360.8C-149.2-671.8-112-680.3-74.8-680.3z
					 M-146.7,1338.9c36,0,72.1-8.3,105-25l710.4-360.8c72.1-36.6,119.2-108.8,122.9-188.3l36-782.8c3.7-79.5-36.6-155.5-105.1-198.4
					L48.2-638.3c-68.5-42.9-155.8-46.7-228-10.1l-710.4,360.8c-72.1,36.6-119.2,108.8-122.9,188.3l-36,782.8
					c-3.7,79.5,36.6,155.5,105.1,198.4l674.3,421.9C-232.5,1327.2-189.6,1338.9-146.7,1338.9z"/>
			</g>
			<g>
				<path class="st4" d="M-1.7-734.7c54,0,107.6,17.1,151.7,50.1l673.6,504.4c70.5,52.8,107.3,139.2,95.8,225.4L810.1,868.7
					c-11.4,86.2-69.5,160.6-151.5,194l-782.9,319c-82,33.4-176.8,21.3-247.3-31.5l-673.6-504.4c-70.5-52.8-107.3-139.2-95.8-225.4
					l109.3-823.4c11.5-86.2,69.5-160.6,151.5-194l782.9-319C-66.5-728.5-34-734.7-1.7-734.7z M-125.8,1378.2l-1.5-3.4l782.9-319
					c79.5-32.4,135.8-104.5,146.9-188.1L912,44.4c11.1-83.6-24.5-167.4-92.9-218.6L145.5-678.7c-68.4-51.2-160.3-62.9-239.8-30.5
					l-782.9,319c-79.5,32.4-135.8,104.5-146.9,188.1l-109.3,823.4c-11.1,83.6,24.5,167.4,92.9,218.6l673.6,504.4
					c68.4,51.2,160.3,62.9,239.8,30.5L-125.8,1378.2z"/>
			</g>
			<g>
				<path class="st4" d="M79.4-785.7c64.9,0,128.7,23.3,178,67.1l665.3,591.4c69.7,61.9,100.6,156.4,80.6,246.4L812.8,979.1
					c-19.9,90.1-88,163.5-177.6,191.6l-855.8,268.4c-89.6,28.1-188.6,7.1-258.3-54.8l-665.3-591.4
					c-69.7-61.9-100.6-156.4-80.6-246.4l190.5-859.9c19.9-90.1,88-163.5,177.6-191.6L-0.9-773.5C25.3-781.7,52.4-785.7,79.4-785.7z
					 M-221.8,1435.3l-1.2-3.7l855.8-268.4c86.9-27.3,152.9-98.4,172.3-185.8l190.5-859.9c19.3-87.3-10.6-178.9-78.2-238.9
					L251.9-712.8C184.4-772.9,88.4-793.3,1.5-766l-855.8,268.4c-86.9,27.3-152.9,98.4-172.3,185.8L-1217,548
					c-19.3,87.3,10.6,178.9,78.2,239l665.3,591.4c67.6,60.1,163.5,80.4,250.4,53.2L-221.8,1435.3z"/>
			</g>
			<g>
				<path class="st4" d="M168.3-832.6c76.9,0,151.9,31.1,205.4,87.4l648.6,682.6c67.9,71.5,91.9,173.9,62.7,267.2l-279.4,891.3
					c-29.3,93.3-107.8,164.9-205,186.8l-928,208.7l-0.9-4l0.9,4c-97.2,21.9-199.8-9-267.7-80.5l-648.6-682.6
					c-67.9-71.5-91.9-173.9-62.7-267.2l279.4-891.3c29.3-93.3,107.8-164.9,205-186.8l928-208.7C126.6-830.4,147.5-832.6,168.3-832.6
					z M-389.9,1489.9c20.1,0,40.4-2.2,60.4-6.7l928-208.7c94.3-21.2,170.4-90.6,198.8-181.1l279.4-891.3
					c28.4-90.5,5.1-189.8-60.8-259.1L367.5-739.6c-65.9-69.3-165.3-99.2-259.6-78l-928,208.7c-94.2,21.2-170.4,90.6-198.8,181.1
					l-279.4,891.3c-28.4,90.5-5.1,189.8,60.8,259.1l648.6,682.6C-537.1,1459.8-464.4,1489.9-389.9,1489.9z"/>
			</g>
			<g>
				<path class="st4" d="M265.2-874.4c90.3,0,177.2,40.6,233.8,111.2l622.7,777.4c65.2,81.4,81.2,191.6,41.8,287.6l-376.2,916.7
					c-39.4,96-128.9,164.7-233.5,179.3l-998.9,139.3c-104.6,14.6-210.1-26.9-275.3-108.3l-622.7-777.4
					c-65.2-81.4-81.3-191.6-41.8-287.6l376.2-916.7c39.4-96,128.9-164.7,233.5-179.3l998.9-139.3
					C237.5-873.5,251.4-874.4,265.2-874.4z M-445.8,1532.8l-0.6-4.4l998.9-139.3c101.4-14.2,188.2-80.8,226.4-173.9l376.2-916.7
					c38.2-93.1,22.7-200-40.6-278.9L491.9-757.8C437-826.3,352.8-865.6,265.2-865.6c-13.4,0-26.9,0.9-40.3,2.8l-998.9,139.3
					c-101.4,14.1-188.2,80.8-226.4,173.9l-376.2,916.7c-38.2,93.1-22.7,200,40.6,278.9l622.7,777.4c63.2,78.9,165.5,119.2,267,105.1
					L-445.8,1532.8z"/>
			</g>
			<g>
				<path class="st4" d="M369.9-910.2c105.3,0,204.8,52.2,263,138.9L1219.6,104c61.4,91.7,68.3,209.4,18,307.4l-480.8,935.1
					c-50.4,97.9-151.1,162.7-262.9,168.9l-1067.5,59.9c-111.8,6.2-219.4-46.8-280.9-138.4l-586.7-875.2
					c-61.4-91.7-68.3-209.4-18-307.4l480.8-935.1c50.4-97.9,151.1-162.7,262.9-168.9L352-909.7C358-910,363.9-910.2,369.9-910.2z
					 M-591.4,1566.5c5.8,0,11.5-0.2,17.3-0.5l1067.5-59.9c108.4-6.1,206.1-68.9,254.9-163.8L1229,407.1
					c48.8-95,42.1-209.2-17.4-298.1L624.9-766.1c-56.4-84.1-152.9-134.7-255-134.7c-5.8,0-11.5,0.2-17.3,0.5l-1067.5,59.9
					c-108.4,6.1-206.1,68.9-254.9,163.8l-480.8,935.1c-48.8,95-42.1,209.2,17.4,298.1l586.7,875.2
					C-790,1515.9-693.5,1566.5-591.4,1566.5z"/>
			</g>
			<g>
				<path class="st4" d="M-650.5-968.8c3,0,6,0,8.9,0.1l1132.6,30c118.6,3.1,227.4,68.5,284,170.7l539.8,975.4
					c56.5,102.2,53.1,227.1-9,326.1L713,1478.9c-62.1,99-174.4,158.6-293,155.4l-1132.6-30c-118.6-3.1-227.4-68.5-284-170.7
					l-539.8-975.4c-56.5-102.2-53.1-227.1,9-326.1l592.8-945.4C-874-909.8-765.8-968.8-650.5-968.8z M428.9,1624.5
					c111.8,0,216.7-57.2,275.4-150.8l592.8-945.4c60.2-96,63.5-217.2,8.7-316.3L766.1-763.3c-54.8-99.1-160.3-162.5-275.4-165.5
					l-1132.6-30c-115-3-223.9,54.7-284.1,150.7l-592.8,945.4c-60.2,96-63.6,217.2-8.7,316.2l539.8,975.4
					c54.8,99.1,160.3,162.5,275.4,165.5l1132.6,30C423.2,1624.5,426.1,1624.5,428.9,1624.5z"/>
			</g>
			<g>
				<path class="st4" d="M-591.6-1089.9c12.9,0,25.9,0.7,38.9,2.1L640.5-957.2c125,13.7,233.9,92.2,284.3,205l481.1,1077
					c50.4,112.8,35.4,244.4-39.2,343.6l-712.1,946.5c-74.6,99.1-198.5,152.2-323.5,138.5L-862,1622.8
					c-125-13.7-233.9-92.2-284.3-205l-481.1-1077c-50.4-112.8-35.4-244.4,39.2-343.6l712.1-946.5
					C-809.4-1038.1-702.9-1089.9-591.6-1089.9z M370.1,1745.1c107.9,0,211.1-50.3,275.9-136.4l712.1-946.5
					c72.3-96.1,86.9-223.8,38-333.2L915-748c-48.9-109.4-154.5-185.6-275.7-198.8l-1193.2-130.6c-121.2-13.3-241.4,38.2-313.7,134.3
					L-1579.6,3.4c-72.3,96.1-86.9,223.8-38,333.2l481.1,1077c48.9,109.4,154.5,185.6,275.7,198.8L332.3,1743
					C344.9,1744.4,357.5,1745.1,370.1,1745.1z"/>
			</g>
			<g>
				<path class="st4" d="M-520.2-1212.7c24,0,48.2,2.3,72.3,6.9l1248,242c130.7,25.3,238.6,117.8,281.5,241.3l409.9,1179.3
					c42.9,123.5,15.1,261.2-72.7,359.4l-838.1,937.2c-87.8,98.2-223.5,143.4-354.2,118l-1248-242
					c-130.7-25.3-238.6-117.8-281.5-241.3l-409.9-1179.3c-42.9-123.5-15.1-261.2,72.7-359.4l838.1-937.2
					C-730.5-1167.9-626.9-1212.7-520.2-1212.7z M298.7,1867.2c103.5,0,203.9-43.5,273.4-121.2l838.1-937.2
					c85.1-95.2,112.1-228.7,70.5-348.5L1070.8-718.9c-41.6-119.8-146.2-209.4-273-234l-1248-242c-23.3-4.5-46.8-6.7-70.1-6.7
					c-103.5,0-203.9,43.5-273.4,121.2l-838.1,937.2c-85.1,95.2-112.1,228.7-70.5,348.5l409.9,1179.2c41.6,119.8,146.2,209.4,273,234
					l1248,242C251.9,1865,275.4,1867.2,298.7,1867.2z"/>
			</g>
			<g>
				<path class="st4" d="M-435.7-1336.3c36.4,0,73.1,4.9,109,15L969-956.7c135.7,38.2,241.2,145.2,275.2,279.4l325.4,1281
					c34.1,134.2-7.9,277.1-109.5,373.1l-970.3,916.4c-101.6,96-249,131.9-384.7,93.7l-1295.7-364.6
					c-135.7-38.2-241.2-145.2-275.2-279.4l-325.4-1281c-34.1-134.2,7.9-277.1,109.5-373.1l970.3-916.4
					C-636.7-1298.2-537.1-1336.3-435.7-1336.3z M214.1,1990.1c98.4,0,194.9-36.9,267.4-105.4l970.3-916.4
					c98.5-93.1,139.2-231.7,106.2-361.8l-325.4-1281c-33-130.1-135.3-233.9-266.9-270.9L-330-1310c-131.6-37-274.5-2.2-373.1,90.9
					l-970.3,916.4c-98.5,93.1-139.2,231.7-106.2,361.8l325.4,1281c33,130.1,135.3,233.9,266.9,270.9l1295.7,364.6
					C143.2,1985.3,178.8,1990.1,214.1,1990.1z"/>
			</g>
			<g>
				<path class="st4" d="M-337.2-1459.4c50.3,0,100.9,8.8,149.2,26.8l1334.9,498.1c139.8,52.2,241.4,174.4,265.2,319l226.9,1381
					c23.8,144.6-33.6,291.9-149.6,384.4l-1108,882.9c-116,92.5-275,117.5-414.8,65.3l-1334.9-498.1
					c-139.8-52.2-241.4-174.4-265.2-319l-226.9-1381c-23.8-144.6,33.6-291.9,149.6-384.4l1108-882.9
					C-526.9-1427.8-432.6-1459.4-337.2-1459.4z M115.7,2112.5c92.4,0,183.9-30.7,257.6-89.4l1108-882.9
					c112.5-89.7,168.1-232.5,145.1-372.7l-226.9-1381c-23-140.2-121.6-258.8-257.2-309.4l-1334.9-498.1c-46.8-17.5-95.9-26-144.6-26
					c-92.4,0-183.9,30.7-257.6,89.4l-1108,882.9c-112.5,89.7-168.1,232.5-145.1,372.7l226.9,1381c23,140.3,121.6,258.8,257.2,309.4
					l1334.9,498.1C17.9,2104,66.9,2112.5,115.7,2112.5z"/>
			</g>
			<g>
				<path class="st4" d="M-224.3-1580.9c65.8,0,131.7,14.2,192.7,42.9l1364.2,642.5c142.9,67.3,239,205.2,250.9,360l113.8,1478
					c11.9,154.8-62,305.3-193,392.8L254,2170.8c-130.9,87.5-301.1,100.1-443.9,32.8l-1364.2-642.5c-142.9-67.3-239-205.2-250.9-360
					l-113.8-1478c-11.9-154.8,62-305.3,193-392.8l1250.4-835.5C-400.5-1555.4-312.6-1580.9-224.3-1580.9z M2.8,2233.3
					c85.6,0,170.8-24.8,243.6-73.4l1250.4-835.5c127-84.9,198.7-230.8,187.1-380.9l-113.8-1478c-11.6-150.1-104.8-283.9-243.3-349.1
					L-37.5-1526.1c-138.5-65.2-303.5-53.1-430.5,31.8l-1250.4,835.5c-127,84.9-198.7,230.8-187.1,380.9l113.8,1478
					c11.6,150.1,104.8,283.9,243.3,349.1l1364.2,642.5C-124.9,2219.6-61,2233.3,2.8,2233.3z"/>
			</g>
			<g>
				<path class="st4" d="M-96.4-1699.5c83,0,165.9,21.3,239.6,63.8l1381.9,797.5c144.7,83.5,233.7,237.6,232.2,402.1l-14.4,1570.6
					c-1.5,164.5-93.3,317-239.5,397.9L107,2305.4c-146.2,81-327,79.4-471.7-4.2l-1381.9-797.5c-144.7-83.5-233.7-237.6-232.2-402.1
					l14.5-1570.6c1.5-164.5,93.3-317,239.5-397.9l1396.4-773C-256.7-1679.6-176.5-1699.5-96.4-1699.5z M-125.2,2351.1
					c77.7,0,155.4-19.2,225.1-57.8l1396.4-773c141.8-78.5,230.8-226.4,232.3-385.9L1743-436.2c1.5-159.5-84.8-308.9-225.1-389.9
					L136-1623.6c-140.3-81-315.6-82.5-457.4-4l-1396.4,773c-141.8,78.5-230.8,226.4-232.3,385.9l-14.5,1570.6
					c-1.5,159.5,84.8,308.9,225.1,389.9l1381.9,797.5C-286.1,2330.4-205.7,2351.1-125.2,2351.1z"/>
			</g>
			<g>
				<path class="st4" d="M47.7-1813.7c15.5,0,31,0.7,46.4,2.1c87.2,8,171.1,38.4,242.6,88.1l1386.5,962.8
					c71.5,49.6,128.6,117.1,165.1,195.1c36.6,78,51.6,164.3,43.4,249.8l-158.3,1657.1c-8.2,85.4-39.3,167.6-90,237.6
					c-50.7,70-119.6,125.9-199.2,161.7L-60.6,2434.7c-79.6,35.8-167.8,50.5-255.1,42.5c-87.2-8-171.1-38.4-242.6-88.1l-1386.5-962.8
					c-71.5-49.6-128.6-117.1-165.1-195.1c-36.6-78-51.6-164.3-43.4-249.8L-1995-675.6c8.2-85.4,39.3-167.6,90-237.6
					c50.7-70,119.6-125.9,199.2-161.7L-161-1769.1C-95.5-1798.6-24.1-1813.7,47.7-1813.7z M-268.8,2464.3
					c68.7,0,137.6-14.2,201.9-43.1L1478,1726.9c156.9-70.5,264.3-218.9,280.4-387.2l158.3-1657.1c16.1-168.3-61.4-333.6-202.2-431.4
					L328-1711.4c-83.1-57.7-181.7-87.3-280.8-87.3c-68.7,0-137.6,14.2-201.9,43.1l-1544.8,694.3
					c-156.9,70.5-264.3,218.9-280.4,387.2l-158.3,1657.1c-16.1,168.3,61.4,333.6,202.2,431.4L-549.5,2377
					C-466.4,2434.8-367.8,2464.3-268.8,2464.3z"/>
			</g>
			<g>
				<path class="st4" d="M207.4-1921.7c31.2,0,62.5,2.7,93.4,8.1c91.4,16.1,177.2,55.5,248.2,114.2L1925.3-661.7
					c70.9,58.7,125.1,134.9,156.6,220.4c31.5,85.5,39.5,178,23.1,267.5l-318.1,1735.9c-16.4,89.5-56.7,173.5-116.6,243
					c-59.9,69.5-137.7,122.5-225.1,153.3l-1694.4,598.2c-87.4,30.8-181.8,38.7-273.2,22.6c-91.4-16.1-177.2-55.5-248.2-114.2
					l-1376.3-1137.7c-71-58.6-125.1-134.9-156.6-220.4s-39.5-178-23.1-267.5l318.1-1735.9c16.4-89.5,56.7-173.5,116.6-243
					c59.9-69.5,137.7-122.5,225.1-153.3L27.7-1891C85.4-1911.4,146.4-1921.7,207.4-1921.7z M-428.3,2571.5
					c58.4,0,117.2-9.7,173.7-29.7l1694.4-598.2c172.1-60.8,299.1-208,331.4-384.3l318.1-1735.9c32.3-176.3-34.5-357.6-174.2-473.1
					L538.7-1787.4c-93.9-77.6-212.2-118.5-331.9-118.5c-58.4,0-117.2,9.7-173.7,29.7L-1661.3-1278
					c-172.1,60.8-299.1,208-331.4,384.3l-318.1,1735.9c-32.3,176.3,34.5,357.6,174.2,473.1L-760.2,2453
					C-666.3,2530.6-548,2571.5-428.3,2571.5z"/>
			</g>
			<g>
				<path class="st4" d="M383.2-2021.9c48.9,0,97.8,6.2,145.3,18.7c95,24.9,182.1,74.1,251.6,142.2L2129.8-539.5
					c69.6,68.1,119.8,153.3,145.3,246.4c25.5,93.1,25.5,191.4,0,284.5l-494,1805.2c-25.5,93.1-75.7,178.3-145.3,246.4
					c-69.6,68.1-156.6,117.3-251.6,142.2l-1843.6,483.7c-95,24.9-195.5,24.9-290.6,0c-95-24.9-182.1-74.1-251.6-142.2
					l-1349.6-1321.5c-69.6-68.1-119.8-153.3-145.3-246.4c-25.5-93.1-25.5-191.4,0-284.5l494-1805.2
					c25.5-93.1,75.7-178.3,145.3-246.4s156.6-117.3,251.6-142.2l1843.6-483.7C285.5-2015.7,334.3-2021.9,383.2-2021.9z
					 M-604.1,2670.8c46.8,0,93.9-5.9,140.2-18l1843.6-483.7c187.2-49.1,334.7-193.5,384.9-376.9L2258.6-13
					c50.2-183.3-3.8-380.6-140.9-514.8L768.1-1849.2c-137.1-134.2-338.5-187-525.8-137.9l-1843.6,483.7
					c-187.2,49.1-334.7,193.5-384.9,376.9l-494,1805.2c-50.2,183.3,3.8,380.6,140.9,514.8l1349.6,1321.5
					C-886.5,2615.8-746.7,2670.8-604.1,2670.8z"/>
			</g>
		</g>
	</g>
	<g>
		<defs>
			<rect id="SVGID_00000034801203313166380390000006716982909234430107_" x="1736.1" y="0" width="2553.9" height="2627.2"/>
		</defs>
		<clipPath id="SVGID_00000050625482100377649710000000437412268236474523_">
			<use xlink:href="#SVGID_00000034801203313166380390000006716982909234430107_"  style="overflow:visible;"/>
		</clipPath>
		<defs>
			
				<filter id="Adobe_OpacityMaskFilter_00000081635710481486377620000013082570824043222163_" filterUnits="userSpaceOnUse" x="1325.3" y="-1000.4" width="6155.2" height="6467.5">
				<feColorMatrix  type="matrix" values="1 0 0 0 0  0 1 0 0 0  0 0 1 0 0  0 0 0 1 0"/>
			</filter>
		</defs>
		
			<mask maskUnits="userSpaceOnUse" x="1325.3" y="-1000.4" width="6155.2" height="6467.5" id="SVGID_00000095322266779446793760000000322924442929629111_">
			<g style="filter:url(#Adobe_OpacityMaskFilter_00000081635710481486377620000013082570824043222163_);">
				
					<radialGradient id="SVGID_00000117640849922772468660000012026672583936646280_" cx="-9247.541" cy="10252.5205" r="2099.7424" gradientTransform="matrix(1.6435 0 0 1.7269 19600.9668 -15596.2607)" gradientUnits="userSpaceOnUse">
					<stop  offset="0" style="stop-color:#FFFFFF"/>
					<stop  offset="1.477480e-02" style="stop-color:#F4F4F4"/>
					<stop  offset="9.003413e-02" style="stop-color:#C2C2C2"/>
					<stop  offset="0.1708" style="stop-color:#939393"/>
					<stop  offset="0.2551" style="stop-color:#6C6C6C"/>
					<stop  offset="0.3439" style="stop-color:#4A4A4A"/>
					<stop  offset="0.4385" style="stop-color:#2F2F2F"/>
					<stop  offset="0.5408" style="stop-color:#1A1A1A"/>
					<stop  offset="0.6549" style="stop-color:#0B0B0B"/>
					<stop  offset="0.79" style="stop-color:#030303"/>
					<stop  offset="1" style="stop-color:#000000"/>
				</radialGradient>
				
					<rect x="952" y="-1517.6" style="clip-path:url(#SVGID_00000050625482100377649710000000437412268236474523_);fill:url(#SVGID_00000117640849922772468660000012026672583936646280_);" width="6901.7" height="7251.9"/>
			</g>
		</mask>
		
			<g style="clip-path:url(#SVGID_00000050625482100377649710000000437412268236474523_);mask:url(#SVGID_00000095322266779446793760000000322924442929629111_);">
			<g>
				<path class="st8" d="M4371.2,2412.6c-10.1,0-19.9-4-27.4-11.5l-97.6-97.6c-10.2-10.2-14.5-25.5-11.2-39.9l31.7-137.6
					c3.3-14.4,13.8-26,27.3-30.2l129.3-40c13.5-4.2,28.3-0.4,38.5,9.8l97.6,97.6c10.2,10.2,14.5,25.5,11.2,39.9l-31.7,137.6
					c-3.3,14.4-13.8,26-27.3,30.2l-129.3,40C4378.7,2412,4375,2412.6,4371.2,2412.6z M4434.5,2055.3c-3.6,0-7.3,0.5-10.8,1.6
					l-129.3,40c-13.1,4.1-23.3,15.3-26.5,29.2l-31.7,137.6c-3.2,14,0.9,28.8,10.8,38.7l97.6,97.6c9.9,9.9,24.2,13.6,37.3,9.5
					l129.3-40c13.1-4.1,23.3-15.3,26.5-29.2l31.7-137.6c3.2-14-0.9-28.8-10.8-38.7l-97.6-97.6
					C4453.9,2059.2,4444.3,2055.3,4434.5,2055.3z"/>
			</g>
			<g>
				<path class="st8" d="M4357.8,2419.8c-11.9,0-23.4-5.3-31.5-14.8l-94.7-112.2c-9.9-11.8-13.2-28.3-8.4-43.2l45.1-142.3
					c4.7-14.9,16.8-26.1,31.4-29.3l139.9-30.1c14.7-3.2,29.9,2.2,39.8,14l94.7,112.2c9.9,11.8,13.1,28.3,8.4,43.2l-45.1,142.3
					c-4.7,14.9-16.8,26.1-31.4,29.3l-139.9,30.1l-0.1-0.7l0.1,0.7C4363.4,2419.5,4360.6,2419.8,4357.8,2419.8z M4448,2048.2
					c-2.7,0-5.4,0.3-8.1,0.9l-139.9,30.1c-14.2,3.1-25.9,13.9-30.5,28.4l-45.1,142.3c-4.6,14.5-1.5,30.5,8.2,41.9l94.7,112.2
					c9.6,11.4,24.4,16.6,38.6,13.5l139.9-30.1c14.2-3.1,25.9-13.9,30.5-28.4l45.1-142.3c4.6-14.5,1.5-30.5-8.2-41.9l-94.7-112.2
					C4470.7,2053.4,4459.5,2048.2,4448,2048.2z"/>
			</g>
			<g>
				<path class="st8" d="M4343.2,2426.1c-13.9,0-27.3-6.9-35.7-18.8L4217,2280c-9.5-13.3-11.5-31.1-5.2-46.4l59.7-146.1
					c6.3-15.3,19.9-26,35.7-28l150.3-18.7c15.8-1.9,31.4,5.1,40.9,18.5l90.5,127.4c9.5,13.3,11.5,31.1,5.2,46.4l-59.7,146.1
					c-6.3,15.3-19.9,26-35.7,28l-150.3,18.7C4346.6,2426,4344.9,2426.1,4343.2,2426.1z M4462.6,2041.9c-1.7,0-3.4,0.1-5,0.3
					l-150.3,18.7c-15.3,1.9-28.5,12.3-34.6,27.1l-59.7,146.1c-6.1,14.8-4.1,32.1,5.1,45l90.5,127.4c9.2,12.9,24.4,19.8,39.6,17.9
					l150.3-18.7c15.3-1.9,28.5-12.3,34.6-27.1l59.7-146.1c6.1-14.8,4.1-32.1-5.1-45l-90.5-127.4
					C4489,2048.6,4476.1,2041.9,4462.6,2041.9z"/>
			</g>
			<g>
				<path class="st8" d="M4327.4,2431.5c-16.2,0-31.4-8.8-40-23.4l-84.8-143c-8.9-15-9.5-33.9-1.6-49.5l75.5-148.6
					c7.9-15.6,23.2-25.6,40-26.2l160.2-5.6c16.8-0.6,32.7,8.4,41.6,23.3l84.8,143c8.9,15,9.5,34,1.6,49.5l-75.5,148.6
					c-7.9,15.6-23.2,25.6-40,26.2l-160.2,5.6C4328.5,2431.5,4327.9,2431.5,4327.4,2431.5z M4478.4,2036.6c-0.5,0-1,0-1.5,0
					l-160.2,5.6c-16.3,0.6-31.1,10.3-38.8,25.4l-75.5,148.6c-7.7,15.1-7.1,33.5,1.5,48l84.8,143c8.6,14.5,24.1,23.2,40.3,22.6
					l160.2-5.6c16.3-0.6,31.1-10.3,38.8-25.4l75.5-148.6c7.7-15.1,7.1-33.5-1.5-48l-84.8-143
					C4508.8,2045.2,4494.1,2036.6,4478.4,2036.6z"/>
			</g>
			<g>
				<path class="st8" d="M4480.2,2444.8c-0.8,0-1.7,0-2.5-0.1l-169.7-9.1c-17.8-0.9-33.8-11.9-41.9-28.5l-77.4-158.9
					c-8.1-16.6-7.1-36.7,2.5-52.4l92.3-149.9c9.7-15.7,26.7-24.8,44.5-23.9l169.7,9.1c17.8,1,33.8,11.9,41.9,28.5l77.4,158.9
					c8.1,16.6,7.1,36.7-2.5,52.4l-92.3,149.9C4513,2435.7,4497.1,2444.8,4480.2,2444.8z M4325.6,2023.5c-16.3,0-31.8,8.7-40.7,23.2
					l-92.3,149.9c-9.4,15.2-10.3,34.7-2.5,50.8l77.4,158.9c7.9,16.1,23.4,26.7,40.7,27.7l169.7,9.1c17.2,0.9,33.8-8,43.1-23.2
					l92.3-149.9c9.4-15.2,10.3-34.7,2.5-50.8l-77.4-158.9c-7.9-16.1-23.4-26.7-40.7-27.7l-169.7-9.1
					C4327.2,2023.5,4326.4,2023.5,4325.6,2023.5z"/>
			</g>
			<g>
				<path class="st8" d="M4471,2464c-2.4,0-4.7-0.2-7.1-0.5l-178.4-25.5c-18.7-2.7-34.7-15.7-41.9-34.1l-68.2-175.1
					c-7.1-18.3-4.4-39.5,7.1-55.1l110.2-149.6c11.5-15.7,30.3-23.7,49-21.1l178.4,25.5c18.7,2.7,34.7,15.7,41.9,34.1l68.2,175.1
					c7.1,18.3,4.4,39.5-7.1,55.1L4513,2442.5C4502.9,2456.1,4487.3,2464,4471,2464z M4334.7,2004.3c-15.7,0-30.9,7.7-40.6,20.9
					l-110.2,149.6c-11.2,15.2-13.8,35.7-6.9,53.5l68.2,175.1c6.9,17.8,22.5,30.4,40.6,33l178.4,25.5c18.1,2.6,36.3-5.2,47.5-20.4
					l110.2-149.6c11.2-15.2,13.8-35.7,6.9-53.5l-68.2-175.1c-6.9-17.8-22.5-30.4-40.6-33l-178.4-25.5
					C4339.3,2004.5,4337,2004.3,4334.7,2004.3z"/>
			</g>
			<g>
				<path class="st8" d="M4460,2483.5c-4,0-8.1-0.5-12.1-1.4l-186.2-43.6c-19.5-4.6-35.3-19.8-41.3-39.9l-57.1-191.3
					c-6-20-1.3-42.1,12.2-57.5l129.1-147.6c13.5-15.5,34-22.2,53.5-17.7l186.2,43.6c19.5,4.6,35.3,19.8,41.3,39.9l57.1,191.3
					c6,20,1.3,42.1-12.2,57.5l-129.1,147.6C4490.6,2476.7,4475.5,2483.5,4460,2483.5z M4262,2436.7l186.2,43.6
					c18.9,4.4,38.8-2.1,51.9-17.1l129.1-147.6c13.1-15,17.6-36.4,11.8-55.8l-57.1-191.3c-5.8-19.4-21.2-34.2-40.1-38.7l-186.2-43.6
					c-18.9-4.4-38.8,2.1-51.9,17.1L4176.6,2151c-13.1,15-17.6,36.4-11.8,55.8l57.1,191.3C4227.7,2417.5,4243.1,2432.3,4262,2436.7z"
					/>
			</g>
			<g>
				<path class="st8" d="M4446.9,2503.1c-5.9,0-11.9-0.9-17.7-2.8l-192.9-63.5c-20.2-6.7-35.6-24.3-40.2-46l-44.1-207.3
					c-4.6-21.7,2.2-44.6,17.8-59.6l148.8-143.8c15.6-15.1,37.8-20.3,58-13.6l192.9,63.5c20.2,6.7,35.6,24.3,40.2,46l44.1,207.3
					c4.6,21.7-2.2,44.5-17.8,59.6l-148.8,143.8C4476.1,2497.3,4461.6,2503.1,4446.9,2503.1z M4358.9,1965.5
					c-14.3,0-28.3,5.6-39.1,16L4171,2125.2c-15.1,14.6-21.7,36.8-17.2,57.8l44.1,207.3c4.5,21.1,19.4,38.1,39,44.6l192.9,63.5
					c19.6,6.5,41.2,1.4,56.3-13.2l148.8-143.8c15.1-14.6,21.7-36.8,17.2-57.8l-44.1-207.3c-4.5-21.1-19.4-38.1-39-44.6l-192.9-63.5
					C4370.4,1966.4,4364.6,1965.5,4358.9,1965.5z"/>
			</g>
			<g>
				<path class="st8" d="M4431.8,2522.5c-8,0-16.1-1.6-23.8-4.9l-198.3-85.1c-20.8-8.9-35.6-29-38.6-52.3l-29-223
					c-3-23.4,6.1-46.8,23.8-61.3l169.3-137.9c17.7-14.4,41.6-17.9,62.4-9l198.3,85.1c20.8,8.9,35.6,29,38.6,52.3l29,223
					c3,23.4-6.1,46.8-23.8,61.3l-169.3,137.9C4459.3,2517.8,4445.6,2522.5,4431.8,2522.5z M4210.5,2430.6l198.3,85.1
					c20.1,8.6,43.3,5.3,60.5-8.7l169.3-137.9c17.2-14,26.1-36.8,23.1-59.4l-29-223c-2.9-22.6-17.3-42.1-37.4-50.7l-198.3-85.1
					c-20.1-8.6-43.3-5.3-60.5,8.7l-169.3,137.9c-17.2,14-26,36.8-23.1,59.4l29,223C4176,2402.5,4190.3,2422,4210.5,2430.6
					L4210.5,2430.6z"/>
			</g>
			<g>
				<path class="st8" d="M4414.5,2541.6c-10.4,0-20.8-2.5-30.3-7.6L4182,2425.5c-21.2-11.4-35.1-33.9-36.3-58.9l-11.7-238.2
					c-1.2-24.9,10.4-48.9,30.4-62.5l190.5-129.7c20-13.6,45.5-15,66.7-3.6l202.2,108.5c21.2,11.4,35.1,33.9,36.3,58.9l11.7,238.2
					c1.2,24.9-10.4,48.9-30.4,62.5l-190.5,129.7C4439.9,2537.9,4427.2,2541.6,4414.5,2541.6z M4183,2423.6l202.2,108.5
					c20.5,11,45.3,9.7,64.7-3.5l190.5-129.7c19.3-13.2,30.6-36.4,29.4-60.6l-11.7-238.2c-1.2-24.2-14.7-46.1-35.2-57.1l-202.2-108.5
					c-20.5-11-45.3-9.7-64.6,3.5l-190.5,129.7c-19.3,13.2-30.6,36.4-29.4,60.6l11.7,238.2C4148.9,2390.7,4162.4,2412.6,4183,2423.6
					L4183,2423.6z"/>
			</g>
			<g>
				<path class="st8" d="M4395,2560.2c-13,0-26-3.7-37.4-11.2l-204.3-133.5c-21.4-14-34.2-39.1-33.3-65.6l7.9-252.6
					c0.8-26.5,15.1-50.6,37.4-63.1l212.2-119.1c22.2-12.5,49.3-11.5,70.7,2.4l204.3,133.5c21.4,14,34.2,39.1,33.3,65.6l-7.9,252.6
					c-0.8,26.5-15.1,50.6-37.4,63.1l-212.2,119.1C4417.9,2557.3,4406.5,2560.2,4395,2560.2z M4154.5,2413.6l204.3,133.5
					c20.7,13.6,47,14.5,68.6,2.4l212.2-119.1c21.5-12.1,35.4-35.6,36.2-61.2l7.9-252.6c0.8-25.7-11.6-50-32.3-63.6L4447,1919.5
					c-20.7-13.6-47-14.5-68.6-2.4l-212.2,119.1c-21.5,12.1-35.4,35.5-36.2,61.2l-7.9,252.6
					C4121.4,2375.7,4133.8,2400.1,4154.5,2413.6L4154.5,2413.6z"/>
			</g>
			<g>
				<path class="st8" d="M4373.2,2578c-15.9,0-31.7-5.3-44.9-15.6L4124,2402.4c-21.4-16.8-32.8-44.5-29.6-72.3l29.8-266
					c3.1-27.9,20.3-52.1,44.8-63.1L4403,1895c24.5-11.1,53-7.6,74.4,9.2l204.3,160.1c21.4,16.8,32.8,44.5,29.6,72.3l-29.8,266
					c-3.1,27.9-20.3,52.1-44.8,63.1l-234.1,105.9C4393.3,2575.9,4383.2,2578,4373.2,2578z M4432.6,1891c-9.7,0-19.5,2-28.7,6.2
					l-234.1,105.9c-23.8,10.8-40.4,34.2-43.5,61.2l-29.8,266c-3,27,8,53.9,28.7,70.2h0l204.3,160.1c20.8,16.3,48.4,19.7,72.2,8.9
					l234.1-105.9c23.8-10.8,40.4-34.2,43.5-61.2l29.8-266c3-27-8-53.9-28.7-70.2l-204.3-160.1
					C4463.4,1896.1,4448.1,1891,4432.6,1891z"/>
			</g>
			<g>
				<path class="st8" d="M4349,2594.8c-19.2,0-38.1-7.3-52.8-21L4094,2385.7c-21.2-19.7-30.8-50-25.2-79.2l54-278.1
					c5.7-29.1,25.8-53.1,52.7-62.5l256.2-89.9c26.8-9.4,56.6-3,77.8,16.7l202.2,188.2c21.2,19.7,30.8,50,25.2,79.2l-54,278.1
					c-5.7,29.1-25.8,53.1-52.7,62.5l-256.2,89.9C4365.8,2593.4,4357.4,2594.8,4349,2594.8z M4456.8,1874.3c-8.2,0-16.4,1.4-24.3,4.1
					l-256.2,89.9c-26,9.1-45.6,32.3-51.1,60.6l-54,278.1c-5.5,28.2,3.9,57.7,24.4,76.8l202.2,188.2c20.5,19.1,49.4,25.3,75.5,16.2
					l256.2-89.9c26-9.1,45.6-32.3,51.1-60.6l54-278.1c5.5-28.2-3.9-57.7-24.4-76.8L4508,1894.7
					C4493.7,1881.4,4475.4,1874.3,4456.8,1874.3z"/>
			</g>
			<g>
				<path class="st8" d="M4322.4,2610.3c-22.8,0-45-9.7-61-27.4l-197.5-217.7c-20.7-22.8-28.3-55.7-19.8-85.9l80.6-288.6
					c8.4-30.2,31.8-53.6,60.9-61l278.1-70.9c29.1-7.4,60.1,2.1,80.8,24.9l197.5,217.7c20.7,22.8,28.3,55.7,19.8,85.9l-80.6,288.6
					c-8.4,30.2-31.8,53.6-60.9,61l-278.1,70.9C4335.6,2609.5,4328.9,2610.3,4322.4,2610.3z M4483.4,1859c-6.4,0-12.8,0.8-19.1,2.4
					l-278.1,70.9c-28.2,7.2-50.9,29.9-59.1,59.2l-80.6,288.6c-8.2,29.3-0.8,61.2,19.2,83.3l197.5,217.7
					c20.1,22.1,50.1,31.4,78.3,24.2l278.1-70.9c28.2-7.2,50.9-29.9,59.1-59.2l80.6-288.6c8.2-29.3,0.8-61.2-19.2-83.3l-197.5-217.7
					C4527.1,1868.4,4505.5,1859,4483.4,1859z"/>
			</g>
			<g>
				<path class="st8" d="M4293.3,2624.2c-26.8,0-52.6-12.7-69.6-35l-190.1-248.3c-19.9-26-25.1-61.5-13.7-92.6l109.6-297.1
					c11.5-31.1,38.1-53.6,69.5-58.7l299.7-48.8c31.4-5.1,63.3,7.9,83.2,33.9l190.1,248.3c19.9,26,25.1,61.5,13.7,92.6l-109.6,297.1
					c-11.5,31.1-38.1,53.6-69.5,58.7l-299.7,48.8C4302.4,2623.8,4297.8,2624.2,4293.3,2624.2z M4035.8,2339.1l190.1,248.3
					c19.3,25.2,50.2,37.8,80.6,32.9l299.7-48.8c30.4-5,56.3-26.8,67.4-57l109.6-297.1c11.1-30.2,6.1-64.6-13.2-89.8l-190.1-248.3
					c-19.3-25.2-50.2-37.8-80.6-32.9l-299.7,48.8c-30.4,5-56.3,26.8-67.4,57l-109.6,297.1
					C4011.4,2279.4,4016.5,2313.8,4035.8,2339.1z"/>
			</g>
			<g>
				<path class="st8" d="M4261.9,2636.1c-31.2,0-60.8-16.4-78.4-43.8l-179.6-280c-18.8-29.3-21.3-67.3-6.6-99.1l141-303.5
					c14.8-31.8,44.8-53,78.4-55.5l320.6-23.4c33.6-2.5,66.1,14.2,84.9,43.6l179.6,280c18.8,29.3,21.3,67.3,6.6,99.1l-141,303.5
					c-14.8,31.8-44.8,53-78.4,55.5l-320.6,23.4C4266.3,2636,4264.1,2636.1,4261.9,2636.1z M4006.3,2310.6l179.6,280
					c18.2,28.4,49.8,44.6,82.4,42.2l320.6-23.4c32.6-2.4,61.7-23,76-53.8l141-303.5c14.3-30.8,11.9-67.6-6.4-96.1l-179.6-280
					c-18.2-28.4-49.8-44.6-82.4-42.2l-320.6,23.4c-32.6,2.4-61.7,23-76,53.8l-141,303.5C3985.6,2245.3,3988,2282.1,4006.3,2310.6z"
					/>
			</g>
			<g>
				<path class="st8" d="M4568.8,2651.1c-0.5,0-1,0-1.5,0l-340.5-5.3c-35.7-0.6-68.6-21.2-86-54l-165.9-312.5
					c-17.4-32.7-16.8-73,1.5-105.2l174.6-307.2c18-31.7,50.9-51.3,86-51.3c0.5,0,1,0,1.5,0l340.5,5.3c35.7,0.6,68.6,21.2,86,54
					l165.9,312.5c17.4,32.7,16.8,73-1.5,105.2l-174.6,307.2C4636.7,2631.5,4603.9,2651.1,4568.8,2651.1z M3977.6,2277.7l165.9,312.5
					c16.8,31.7,48.8,51.8,83.4,52.3l340.5,5.3c0.5,0,1,0,1.4,0c34,0,65.9-18.9,83.4-49.7l174.6-307.2c17.7-31.2,18.3-70.3,1.4-102
					l-165.9-312.5c-16.8-31.7-48.8-51.8-83.4-52.3l-340.5-5.3c-34.6-0.6-67.1,18.5-84.8,49.7L3979,2175.7
					C3961.3,2206.9,3960.7,2246,3977.6,2277.7z"/>
			</g>
			<g>
				<path class="st8" d="M4551.4,2690.4c-3.5,0-6.9-0.2-10.4-0.5l-359.1-37.5c-37.6-3.9-70.6-28.8-86.2-65l-148.6-345.5
					c-15.6-36.2-11.5-78.7,10.5-111l210.5-308c22-32.3,59.1-49.9,96.7-45.9l359.1,37.5c37.6,3.9,70.6,28.8,86.2,65l148.6,345.5
					c15.6,36.2,11.5,78.7-10.5,111l-210.5,308C4617.7,2673.2,4585.4,2690.4,4551.4,2690.4z M3950,2240.4l148.6,345.5
					c15.1,35.1,47.1,59.3,83.6,63.1l359.1,37.5c36.5,3.8,72.4-13.3,93.8-44.5l210.5-308c21.4-31.3,25.3-72.5,10.2-107.6
					l-148.6-345.5c-15.1-35.1-47.1-59.3-83.6-63.1l-359.1-37.5c-36.5-3.8-72.4,13.3-93.8,44.5l-210.5,308
					C3938.8,2164,3934.9,2205.3,3950,2240.4z"/>
			</g>
			<g>
				<path class="st8" d="M4530.4,2730.2c-6.8,0-13.6-0.6-20.4-2l-376-73.3c-39.4-7.7-72.1-37.1-85.5-76.8l-127.6-378.8
					c-13.4-39.7-5.5-84.2,20.5-116.2l248.4-305.5c26-32,66.6-47.1,106-39.4l376,73.3c39.4,7.7,72.1,37.1,85.5,76.8l127.6,378.8
					c13.4,39.7,5.5,84.2-20.5,116.2L4616,2688.8C4594.5,2715.3,4562.9,2730.2,4530.4,2730.2z M3924.1,2198.3l127.6,378.8
					c13,38.5,44.7,67,82.9,74.4l376,73.3c38.2,7.5,77.6-7.2,102.8-38.2l248.4-305.5c25.2-31,32.8-74.2,19.9-112.7l-127.6-378.8
					c-13-38.5-44.7-67-82.9-74.4l-376-73.3c-38.2-7.5-77.6,7.2-102.8,38.2L3944,2085.6C3918.8,2116.7,3911.1,2159.8,3924.1,2198.3z"
					/>
			</g>
			<g>
				<path class="st8" d="M4505.3,2770.4c-10.5,0-21-1.5-31.4-4.4l-390.8-112.6c-40.9-11.8-73-45.9-83.8-89.1l-102.6-411.9
					c-10.7-43.1,1.3-89.4,31.5-120.8l288.2-299.3c30.2-31.3,74.4-43.5,115.3-31.7l390.8,112.6c40.9,11.8,73,45.9,83.8,89.1
					l102.6,411.9c10.7,43.1-1.3,89.4-31.5,120.8l-288.2,299.3C4566.7,2757.7,4536.3,2770.4,4505.3,2770.4z M3900.3,2151.5
					l102.6,411.9c10.4,41.8,41.5,74.9,81.2,86.4l390.8,112.6c39.7,11.4,82.5-0.3,111.8-30.7l288.2-299.3
					c29.3-30.4,41-75.3,30.6-117.1l-102.6-411.9c-10.4-41.8-41.5-74.9-81.2-86.4l-390.8-112.6c-39.7-11.4-82.5,0.3-111.8,30.7
					l-288.2,299.3C3901.6,2064.8,3889.9,2109.6,3900.3,2151.5z"/>
			</g>
			<g>
				<path class="st8" d="M4476.1,2810.5c-14.6,0-29.3-2.7-43.4-8.1l-403.1-155.5c-42.2-16.3-73.2-55.3-80.9-101.9l-73.4-444.5
					c-7.7-46.6,9-94.3,43.5-124.6l329.7-289c34.5-30.3,82.2-39,124.4-22.7l403.1,155.5c42.2,16.3,73.2,55.3,80.9,101.9l73.4,444.5
					c7.7,46.6-9,94.3-43.5,124.6l-329.7,289C4534.1,2799.9,4505.3,2810.5,4476.1,2810.5z M3879.2,2099.8l73.4,444.5
					c7.5,45.1,37.5,83,78.4,98.8l403.1,155.5c40.9,15.8,87.2,7.4,120.7-22l329.7-289c33.5-29.4,49.7-75.6,42.2-120.8l-73.4-444.5
					c-7.5-45.1-37.5-83-78.4-98.8L4371.7,1668c-40.9-15.8-87.2-7.4-120.7,22l-329.7,289C3887.9,2008.4,3871.7,2054.7,3879.2,2099.8z
					"/>
			</g>
			<g>
				<path class="st8" d="M4442.5,2850.1c-19.2,0-38.5-4.3-56.4-13.1l-412.4-202c-43.2-21.2-72.6-65.3-76.8-115.2l-39.7-476.3
					c-4.2-49.9,17.5-98.7,56.5-127.4l372.7-274.3c39-28.7,90.1-33.4,133.3-12.3l412.4,202c43.2,21.2,72.6,65.3,76.8,115.2
					l39.7,476.3c4.2,49.9-17.5,98.7-56.5,127.4l-372.7,274.3C4496.6,2841.5,4469.6,2850.1,4442.5,2850.1z M3861.2,2043.3l39.7,476.3
					c4,48.4,32.6,91.2,74.4,111.7l412.4,202c41.9,20.5,91.4,16,129.3-11.9l372.7-274.3c37.9-27.9,58.9-75.2,54.8-123.6l-39.7-476.3
					c-4-48.4-32.6-91.2-74.4-111.7l-412.4-202c-41.9-20.5-91.4-16-129.3,11.9L3916,1919.7
					C3878.2,1947.5,3857.2,1994.9,3861.2,2043.3z"/>
			</g>
			<g>
				<path class="st8" d="M4404.4,2888.9c-24.4,0-48.7-6.5-70.5-19.7l-418.3-251.9c-43.8-26.4-71.1-75.7-71.3-128.8l-1.5-506.6
					c-0.2-53.1,26.9-102.6,70.5-129.3l416.8-254.7c43.7-26.7,98-26.9,141.8-0.5l418.3,251.9c43.8,26.4,71.1,75.7,71.3,128.8
					l1.5,506.6c0.2,53.1-26.9,102.6-70.5,129.3l-416.8,254.7C4453.8,2882.1,4429.1,2888.9,4404.4,2888.9z M4401.4,1582.3
					c-23.9,0-47.8,6.5-69.1,19.5l-416.8,254.7c-42.3,25.9-68.5,73.9-68.4,125.3l1.5,506.6c0.2,51.5,26.6,99.3,69.1,124.9
					l418.3,251.9c42.5,25.6,95.2,25.4,137.5-0.5l416.8-254.7c42.3-25.9,68.5-73.9,68.4-125.3l-1.5-506.6
					c-0.2-51.5-26.6-99.3-69.1-124.9l-418.3-251.9C4448.6,1588.6,4425,1582.3,4401.4,1582.3z"/>
			</g>
			<g>
				<path class="st8" d="M4361.6,2926.2c-30.1,0-60-9.4-85.5-27.9l-420.3-305.2c-44-32-68.7-86.6-64.3-142.7l41.4-535.1
					c4.3-56,37.1-105.8,85.4-129.9l461.7-229.9c48.4-24.1,105.7-19.2,149.8,12.8l420.3,305.2c44,32,68.7,86.6,64.3,142.7
					l-41.4,535.1c-4.3,56-37.1,105.8-85.4,129.9l-461.7,229.9C4405.5,2921.2,4383.5,2926.2,4361.6,2926.2z M3835.1,1915.5l2.3,0.2
					l-41.4,535.1c-4.2,54.3,19.7,107.4,62.4,138.3l420.3,305.2c42.7,31,98.3,35.7,145.2,12.4l461.7-229.9
					c46.9-23.3,78.6-71.6,82.8-125.9l41.4-535.1c4.2-54.3-19.7-107.4-62.4-138.4l-420.3-305.2c-42.7-31-98.3-35.7-145.2-12.4
					l-461.7,229.9c-46.9,23.3-78.6,71.6-82.8,125.9L3835.1,1915.5z"/>
			</g>
			<g>
				<path class="st8" d="M4314,2961.7c-36.4,0-72.5-13.1-101.4-38.1l-417.9-361.6c-43.8-37.9-65.2-97.9-55.8-156.7l89.1-561.1
					l2.4,0.4l-2.4-0.4c9.3-58.8,48.1-108.3,101.2-129.1l507-199.5c53.1-20.9,113.3-10.3,157,27.5l417.9,361.6
					c43.8,37.9,65.2,97.9,55.8,156.7l-89.1,561.1c-9.3,58.8-48.1,108.2-101.2,129.1l-507,199.5
					C4351.6,2958.2,4332.7,2961.7,4314,2961.7z M4491.8,1510c-18.2,0-36.5,3.4-54,10.2l-507,199.5c-51.5,20.3-89.1,68.2-98.1,125.2
					l-89.1,561.1c-9,57,11.7,115.2,54.1,151.9l417.9,361.6c42.4,36.7,100.8,47,152.3,26.7l507-199.5c51.5-20.3,89.1-68.2,98.2-125.2
					l89.1-561.1c9-57-11.7-115.2-54.1-151.9L4590.2,1547C4562.1,1522.7,4527.2,1510,4491.8,1510z"/>
			</g>
			<g>
				<path class="st8" d="M4261.4,2994.7c-43.5,0-86.2-17.7-118.1-50.4l-410.6-421c-43-44.1-60.5-109.5-45.6-170.7l141.7-584.1
					c14.8-61.2,60-109.8,117.8-126.9l552.3-163.1c57.8-17.1,120.5-0.3,163.5,43.8l410.6,421c43,44.1,60.5,109.5,45.7,170.7
					L4977,2698.1c-14.8,61.2-60,109.8-117.8,126.9l-552.3,163.1C4291.9,2992.5,4276.6,2994.7,4261.4,2994.7z M3831.3,1769.2l2.5,0.7
					L3692.1,2354c-14.4,59.3,2.6,122.7,44.3,165.5l410.6,421c41.7,42.8,102.4,59,158.5,42.5l552.3-163.1
					c56.1-16.6,99.9-63.7,114.3-123l141.7-584.1c14.4-59.3-2.6-122.7-44.3-165.5l-410.6-421c-41.7-42.8-102.4-59-158.5-42.5
					L3948,1646.8c-56.1,16.6-99.9,63.7-114.3,123L3831.3,1769.2z"/>
			</g>
			<g>
				<path class="st8" d="M4203.9,3024.7c-51.4,0-101.2-23.3-135.4-64.9l-397.8-483c-41.7-50.6-54.6-121.3-33.7-184.5l199.2-603.5
					c20.9-63.2,72.7-110.3,135.2-122.9l597-120.5c62.5-12.6,127.2,11,168.9,61.6l397.8,483c41.7,50.6,54.6,121.3,33.7,184.5
					l-199.2,603.5c-20.9,63.2-72.7,110.3-135.2,122.9l-597,120.5C4226.2,3023.6,4215,3024.7,4203.9,3024.7z M4601.9,1447.7
					c-10.8,0-21.7,1.1-32.5,3.2l-597,120.5c-60.6,12.2-110.9,57.9-131.1,119.2l-199.2,603.5c-20.2,61.3-7.7,129.8,32.7,178.9
					l397.8,483c40.4,49.1,103.2,71.9,163.8,59.7l597-120.5c60.6-12.2,110.9-57.9,131.1-119.2l199.2-603.5
					c20.2-61.3,7.7-129.8-32.7-178.9l-397.8-483C4700,1470.3,4651.7,1447.7,4601.9,1447.7z"/>
			</g>
			<g>
				<path class="st8" d="M4141.5,3050.9c-60.1,0-117.5-30.3-153.3-81.9l-379-547.3c-39.7-57.3-47.3-133.2-19.9-198l261.6-618.6
					c27.4-64.8,86.1-109.7,153.2-117.1l640.6-71.3c67.1-7.5,133.4,23.5,173.1,80.8l379,547.3c39.7,57.3,47.3,133.2,19.9,198
					l-261.6,618.6c-27.4,64.8-86.1,109.7-153.2,117.1l-640.6,71.3C4154.6,3050.6,4148,3050.9,4141.5,3050.9z M3853.3,1606.4l2.6,1.2
					l-261.6,618.6c-26.6,62.8-19.2,136.4,19.3,192l379,547.3c38.5,55.6,102.8,85.6,167.9,78.4l640.6-71.3
					c65.1-7.2,122-50.8,148.5-113.6l261.6-618.6c26.6-62.8,19.2-136.4-19.3-192l-379-547.3c-38.5-55.6-102.8-85.6-167.9-78.4
					l-640.6,71.3c-65.1,7.2-122,50.8-148.5,113.6L3853.3,1606.4z"/>
			</g>
			<g>
				<path class="st8" d="M4074.2,3072.9c-69.9,0-135.4-38.6-171.7-101.6l-353.8-613.4c-37.1-64.2-38.7-145-4.3-210.9l328.7-628.6
					l2.7,1.5l-2.7-1.5c34.4-65.8,100.2-107.7,171.7-109.3l682.5-15.2c71.5-1.6,138.9,37.3,175.9,101.6l353.8,613.4
					c37.1,64.2,38.7,145,4.3,210.9l-328.7,628.6c-34.4,65.8-100.2,107.7-171.7,109.3l-682.5,15.2
					C4077,3072.9,4075.6,3072.9,4074.2,3072.9z M4731.6,1400.1c-1.4,0-2.7,0-4.1,0l-682.5,15.2c-69.3,1.5-133.1,42.2-166.5,106
					L3549.8,2150c-33.4,63.8-31.8,142.2,4.1,204.5l353.8,613.4c35.9,62.3,101.2,100,170.6,98.5l682.5-15.2
					c69.3-1.5,133.1-42.2,166.5-106l328.7-628.6c33.4-63.8,31.8-142.2-4.1-204.5l-353.8-613.4
					C4862.9,1437.6,4799.3,1400.1,4731.6,1400.1z"/>
			</g>
			<g>
				<path class="st8" d="M4724.3,3137.7c-4.4,0-8.9-0.1-13.3-0.4l-721.9-47.9c-75.6-5-143.5-52.4-177.2-123.7l-321.5-680.9
					c-33.7-71.3-28.5-156.8,13.4-223.1l400.4-633c41.9-66.3,115-104.3,190.6-99.3l721.9,47.9c75.6,5,143.5,52.4,177.2,123.7
					l321.5,680.9c33.7,71.3,28.5,156.8-13.4,223.1l-400.4,633C4862.1,3100.3,4795,3137.7,4724.3,3137.7z M3906.9,1430.6l2.7,1.9
					l-400.4,633c-40.7,64.3-45.6,147.2-13,216.3l321.5,680.9c32.6,69.1,98.5,115.1,171.8,120l721.9,47.9
					c73.3,4.9,144.1-32,184.8-96.3l400.4-633c40.7-64.3,45.6-147.2,13-216.3L4988.1,1504c-32.6-69.1-98.5-115.1-171.8-120
					l-721.9-47.9c-73.3-4.9-144.1,32-184.8,96.3L3906.9,1430.6z"/>
			</g>
			<g>
				<path class="st8" d="M4684.3,3219.2c-10.9,0-21.9-0.8-32.9-2.5l-758.2-118.2c-79.4-12.4-147.1-68.8-176.6-147.3l-281.7-749
					c-29.5-78.4-16.8-168.2,33.1-234.3l476.5-630.8l2.7,2.2l-2.7-2.2c49.9-66.1,130.2-99.4,209.6-87l758.2,118.2
					c79.4,12.4,147.1,68.8,176.6,147.3l281.7,749.1c29.5,78.4,16.8,168.2-33.1,234.3l-476.5,630.8
					C4818.1,3186.6,4752.5,3219.2,4684.3,3219.2z M4121.4,1254.6c-66.1,0-129.7,31.6-171.4,86.9l-476.5,630.8
					c-48.4,64.1-60.7,151.1-32.1,227.2l281.7,749c28.6,76.1,94.2,130.8,171.2,142.8l758.2,118.2c77,12,154.9-20.3,203.3-84.4
					l476.5-630.8c48.4-64.1,60.7-151.1,32.1-227.2l-281.7-749.1c-28.6-76.1-94.2-130.8-171.2-142.8l-758.2-118.2
					C4142.7,1255.4,4132,1254.6,4121.4,1254.6z"/>
			</g>
			<g>
				<path class="st8" d="M4636.4,3301.6c-18.2,0-36.5-2.2-54.5-6.7L3791.3,3099c-82.8-20.5-149.4-86.4-173.9-172l-233.8-817.3
					c-24.5-85.6-3.5-179.2,54.8-244.3l556.7-621.4c58.3-65.1,146-92.8,228.8-72.3l790.6,195.9c82.8,20.5,149.4,86.4,173.9,172
					l233.8,817.3c24.5,85.6,3.5,179.2-54.8,244.3l-556.7,621.4C4765.1,3273.6,4701.5,3301.6,4636.4,3301.6z M3997.8,1246.6l2.6,2.6
					l-556.7,621.4c-56.5,63.1-76.9,153.9-53.2,236.9l233.8,817.3c23.7,83,88.4,146.9,168.7,166.8l790.6,195.9
					c80.3,19.9,165.3-7,221.8-70.1l556.7-621.4c56.5-63.1,76.9-153.9,53.2-236.9l-233.8-817.3c-23.8-83-88.4-146.9-168.7-166.8
					l-790.6-195.9c-80.3-19.9-165.3,7-221.8,70.1L3997.8,1246.6z"/>
			</g>
			<g>
				<path class="st8" d="M4580.1,3384.1c-26.3,0-52.7-4.3-78.3-13.1l-818.1-280.9c-85.7-29.4-150.5-105.3-169.1-197.9l-177.5-884.9
					c-18.6-92.7,11.5-189.5,78.6-252.8l640.6-604c67.1-63.3,162-84.3,247.7-54.9l818.1,280.9c85.7,29.4,150.5,105.3,169,197.9
					l177.5,884.9c18.6,92.7-11.5,189.5-78.6,252.8l-640.6,604C4702.4,3360.5,4641.7,3384.1,4580.1,3384.1z M4058.9,1153.5l2.6,3
					l-640.6,604c-65.1,61.3-94.3,155.3-76.2,245.1l177.5,884.9c18,89.9,80.8,163.4,163.9,192l818.1,280.9
					c83.1,28.5,175.1,8.1,240.2-53.2l640.6-604c65.1-61.3,94.3-155.3,76.2-245.1l-177.5-884.9c-18-89.9-80.8-163.4-163.9-192
					l-818.1-280.9c-83.1-28.5-175.1-8.1-240.2,53.2L4058.9,1153.5z"/>
			</g>
			<g>
				<path class="st8" d="M4515,3466.1c-35.3,0-70.8-7.3-104.2-22.2l-840-373.3c-88-39.1-149.9-125.3-161.7-224.9l-112.3-951
					c-11.8-99.6,28.3-199.1,104.5-259.6l727.7-577.7c76.2-60.5,178.2-73.8,266.2-34.7l840,373.3c88,39.1,149.9,125.3,161.7,224.9
					l112.3,951c11.8,99.6-28.3,199.1-104.5,259.6l-727.7,577.7C4629.7,3446.7,4572.6,3466.1,4515,3466.1z M4131.3,1060.9l2.4,3.4
					L3406.1,1642c-73.9,58.7-112.7,155.1-101.3,251.7l112.3,951c11.4,96.6,71.5,180.1,156.8,218l840,373.3
					c85.3,37.9,184.2,25,258.1-33.7l727.7-577.7c73.9-58.7,112.7-155.1,101.3-251.7l-112.3-951c-11.4-96.6-71.5-180.1-156.8-218
					l-840-373.3c-85.3-37.9-184.2-25-258.1,33.7L4131.3,1060.9z"/>
			</g>
			<g>
				<path class="st8" d="M4440.7,3546.5c-45.4,0-90.9-11.4-132.3-34.2l-855.3-472.9c-89.6-49.5-147.7-146.3-151.6-252.6
					l-37.9-1014.7c-4-106.3,46.7-207.5,132.3-264.3L4213.3,966l2.3,3.8l-2.3-3.8c85.6-56.7,194.4-61.2,284-11.7l855.3,472.9
					c89.6,49.5,147.7,146.3,151.6,252.6l37.9,1014.7c4,106.3-46.7,207.5-132.3,264.3l-817.4,541.8
					C4546.4,3531.1,4493.6,3546.5,4440.7,3546.5z M4365.1,929.1c-51.3,0-102.5,14.9-147.1,44.5l-817.4,541.8
					c-83,55-132.2,153.2-128.3,256.3l37.9,1014.7c3.9,103.1,60.2,196.9,147.1,244.9l855.3,472.9c86.9,48,192.4,43.7,275.4-11.4
					l817.4-541.8c83-55,132.2-153.2,128.3-256.3l-37.9-1014.7c-3.8-103.1-60.2-196.9-147.1-244.9l-855.3-472.9
					C4453.2,940.2,4409.1,929.1,4365.1,929.1z"/>
			</g>
			<g>
				<path class="st8" d="M4356.9,3624.6c-56.6,0-113.1-16.7-162.3-49.7l-863-579.4c-90.4-60.7-143.5-168.3-138.7-280.9l46.1-1075
					c4.8-112.6,67-214.8,162.2-266.7l909.1-495.5l2.1,4.3l-2.1-4.3c95.2-51.9,210.5-46.4,300.9,14.2l863,579.5
					c90.4,60.7,143.5,168.3,138.7,280.9l-46.1,1075c-4.8,112.6-67,214.8-162.2,266.7l-909.1,495.5
					C4452,3612.9,4404.4,3624.6,4356.9,3624.6z M4448.9,851.6c-46.1,0-92.3,11.4-134.4,34.3l-909.1,495.5
					c-92.3,50.3-152.6,149.4-157.3,258.6l-46.1,1075c-4.7,109.2,46.8,213.6,134.5,272.4l863,579.4c87.6,58.8,199.4,64.1,291.8,13.8
					l909.1-495.5c92.3-50.3,152.6-149.4,157.3-258.6l46.1-1075c4.7-109.2-46.8-213.5-134.5-272.4l-863-579.5
					C4558.6,867.8,4503.8,851.6,4448.9,851.6z"/>
			</g>
			<g>
				<path class="st8" d="M4263.2,3699.3c-69.1,0-137.7-23.5-194.2-68.8l-862-692.7c-90.3-72.5-137.3-191.2-122.6-309.6l139.9-1130.8
					c14.7-118.4,88.9-220.5,193.9-266.4l1001.9-438c104.9-45.9,226.2-29.3,316.5,43.2l862,692.7c90.3,72.5,137.3,191.2,122.6,309.6
					l-139.9,1130.8c-14.7,118.4-88.9,220.5-193.9,266.4l-1001.9,438C4346.3,3690.9,4304.6,3699.3,4263.2,3699.3z M4422.1,797.7
					l1.9,4.7l-1001.9,438c-101.8,44.5-173.8,143.5-188,258.3l-139.9,1130.8c-14.2,114.8,31.3,229.9,118.9,300.2l862,692.7
					c87.5,70.3,205.1,86.4,306.9,41.9l1001.9-438c101.8-44.5,173.8-143.5,188-258.3l139.9-1130.8c14.2-114.8-31.3-229.9-118.9-300.2
					l-862-692.7c-87.5-70.3-205.1-86.4-306.9-41.9L4422.1,797.7z"/>
			</g>
			<g>
				<path class="st8" d="M4159.6,3769.4c-83,0-164.7-32-227.7-92.2L3080.4,2865c-89.2-85.1-128.7-214.7-103.2-338.4L3221,1345.8
					c25.5-123.7,112.6-224.5,227.3-263.1l1095.1-368.6c114.7-38.6,241.3-9.7,330.5,75.3l851.4,812.2
					c89.2,85.1,128.7,214.7,103.2,338.4l-243.7,1180.8c-25.5,123.7-112.6,224.5-227.3,263.1l-1095.1,368.6
					C4228.7,3763.9,4194,3769.4,4159.6,3769.4z M4545,719.2l1.6,5.1L3451.4,1093c-111.2,37.4-195.7,135.2-220.4,255.1l-243.7,1180.8
					c-24.8,119.9,13.6,245.7,100.1,328.2l851.4,812.2c86.5,82.5,209.3,110.5,320.5,73l1095.1-368.6
					c111.2-37.4,195.7-135.2,220.4-255.1l243.7-1180.8c24.8-119.9-13.6-245.7-100-328.2l-851.4-812.2
					c-86.5-82.5-209.3-110.5-320.5-73L4545,719.2z"/>
			</g>
			<g>
				<path class="st8" d="M4045.8,3833.8c-98.4,0-194.4-42.7-262.8-120l-830.1-937.4c-86.9-98.2-117.7-238.8-80.2-367l357.6-1224
					c37.4-128.2,138-226.5,262.4-256.5l1187.6-286.6l1.2,5.6l-1.2-5.6c124.4-30,255.6,12.3,342.6,110.5l830.1,937.4
					c86.9,98.2,117.7,238.8,80.2,367l-357.6,1224c-37.4,128.2-138,226.5-262.4,256.5l-1187.6,286.6
					C4099.1,3830.7,4072.3,3833.8,4045.8,3833.8z M4760,644.2c-25.8,0-51.7,3-77.4,9.2L3495,940.1
					c-120.6,29.1-218.1,124.4-254.4,248.7l-357.6,1224c-36.3,124.3-6.5,260.7,77.8,355.9l830.1,937.4
					c84.3,95.2,211.6,136.3,332.2,107.1l1187.6-286.6c120.6-29.1,218.1-124.4,254.4-248.7l357.6-1224
					c36.3-124.3,6.5-260.7-77.8-355.9l-830.1-937.4C4948.5,685.6,4855.5,644.2,4760,644.2z"/>
			</g>
			<g>
				<path class="st8" d="M3921.8,3891.2c-115.6,0-226.8-55.7-299.2-152.7l-796.9-1067.6c-83.5-111.8-104-263.2-53.6-395L3253.7,1017
					c50.4-131.8,164.9-226.2,298.8-246.2l1278.4-191.3c133.9-20,268.9,37,352.4,148.8L5980,1795.7c83.5,111.8,104,263.2,53.6,395
					l-481.5,1258.9c-50.4,131.8-164.9,226.2-298.8,246.2L3975,3887.3C3957.2,3889.9,3939.4,3891.2,3921.8,3891.2z M4831.6,585.4
					l0.8,6L3554.1,782.7c-129.8,19.4-240.8,110.9-289.7,238.8l-481.5,1258.9c-48.9,127.9-29,274.6,51.9,383.1L3631.7,3731
					c70.2,94,178,148.1,290.1,148.1c17.1,0,34.4-1.3,51.6-3.8L5251.7,3684c129.8-19.4,240.9-110.9,289.8-238.8l481.5-1258.9
					c48.9-127.9,29-274.6-51.9-383.1L5174.1,735.6c-80.9-108.4-211.8-163.7-341.7-144.3L4831.6,585.4z"/>
			</g>
			<g>
				<path class="st8" d="M3787.8,3940.3c-134.7,0-262.1-71.6-336.6-190.8l-750.8-1201.9c-78.6-125.9-87.5-287.6-23-422.1
					l615.2-1284.2c64.4-134.5,193.3-223.4,336.4-232L4995.1,527c143.1-8.6,280.8,64.2,359.4,190.1l750.8,1201.9
					c78.6,125.9,87.5,287.6,23,422.1l-615.2,1284.2c-64.4,134.5-193.3,223.4-336.4,232l-1366.1,82.2
					C3803,3940.1,3795.4,3940.3,3787.8,3940.3z M5018,539.1c-7.4,0-14.8,0.2-22.2,0.7l-1366.1,82.2c-138.7,8.4-263.7,94.6-326.2,225
					l-615.2,1284.2c-62.5,130.4-53.9,287.3,22.3,409.3l750.8,1201.9c72.2,115.5,195.7,185,326.4,185c7.4,0,14.7-0.2,22.2-0.7
					l1366.1-82.3c138.7-8.4,263.7-94.6,326.2-225l615.2-1284.2c62.5-130.4,53.9-287.3-22.3-409.3L5344.3,724.2
					C5272.2,608.6,5148.6,539.1,5018,539.1z"/>
			</g>
			<g>
				<path class="st8" d="M5093.6,4020.8c-3.8,0-7.6-0.1-11.4-0.2l-1449.4-41.2c-151.8-4.3-291-94.1-363.4-234.4l-690.8-1339.5
					c-72.3-140.3-67.9-311.9,11.5-447.9l758.6-1298.3c79.5-136,223.2-217.7,374.9-213.5L5173,487.1c151.8,4.3,291,94.1,363.4,234.4
					L6227.2,2061c72.3,140.3,67.9,311.9-11.5,447.9L5457,3807.2C5379.6,3939.8,5241.1,4020.8,5093.6,4020.8z M3712.2,459.4
					c-143.1,0-277.3,78.6-352.5,207.1l-758.6,1298.3c-77,131.9-81.3,298.3-11.2,434.3l690.8,1339.5
					c70.2,136,205.2,223.1,352.4,227.3l1449.4,41.2c147.1,4.2,286.5-75.1,363.5-207l758.6-1298.3c77-131.9,81.3-298.3,11.2-434.3
					L5525.1,728c-70.2-136-205.2-223.1-352.4-227.3l-1449.4-41.2C3719.6,459.4,3715.9,459.4,3712.2,459.4z"/>
			</g>
			<g>
				<path class="st8" d="M5018.2,4187.2c-16.6,0-33.2-1-49.8-2.9l-1526.9-179.3c-159.9-18.8-299.3-126.7-363.8-281.6L2462,2244.3
					c-64.5-154.9-45.3-335.7,50.2-471.8l911.2-1299.8c95.4-136.1,254.1-209,414-190.3l1526.9,179.3
					c159.9,18.8,299.3,126.7,363.8,281.6l615.7,1479.1c64.5,154.9,45.3,335.7-50.2,471.8L5382.4,3994
					C5296.9,4115.9,5160.6,4187.1,5018.2,4187.2z M3787.5,293.9c-138.1,0-270.2,69-353.1,187.3L2523.2,1781
					c-92.5,132-111.2,307.3-48.7,457.5l615.7,1479.1c62.5,150.2,197.7,254.8,352.8,273L4969.9,4170
					c155.1,18.2,308.9-52.5,401.4-184.5l911.2-1299.8c92.5-132,111.2-307.3,48.7-457.5L5715.6,749
					c-62.5-150.2-197.7-254.8-352.8-273L3835.9,296.7C3819.7,294.8,3803.6,293.9,3787.5,293.9z"/>
			</g>
			<g>
				<path class="st8" d="M4926.9,4355.8c-30.8,0-61.7-3.1-92.5-9.5l-1597.1-332.4c-167.3-34.8-305.3-161.8-360.2-331.4L2352.6,2063
					c-54.9-169.6-19.3-358.7,93-493.5L3518.1,282.5c112.3-134.8,286-196.9,453.3-162.1l1597.1,332.4
					c167.3,34.8,305.3,161.8,360.2,331.4l524.6,1619.5c54.9,169.6,19.3,358.7-93,493.5L5287.7,4184.2
					C5196,4294.2,5063.5,4355.8,4926.9,4355.8z M3878.9,126.1c-132.4,0-261,59.7-349.9,166.4L2456.5,1579.6
					c-108.9,130.7-143.5,314.1-90.2,478.6l524.6,1619.5c53.3,164.5,187.1,287.6,349.3,321.4l1597.1,332.4
					c29.8,6.2,59.8,9.2,89.7,9.2c132.4,0,261-59.7,349.9-166.4l1072.5-1287.1c108.9-130.7,143.5-314.1,90.2-478.6L5914.9,789.1
					c-53.3-164.5-187.1-287.6-349.3-321.4L3968.5,135.3C3938.7,129.1,3908.7,126.1,3878.9,126.1z"/>
			</g>
			<g>
				<path class="st8" d="M4818.7,4525.4c-46.6,0-93.6-6.7-139.5-20.6l-1658.1-500.6c-173.7-52.4-308.6-199.5-352.2-383.7
					l-416.4-1759.2c-43.6-184.2,10.1-380.6,140.1-512.4L3634.2,90.5c130-131.8,318.7-181.1,492.4-128.7l1658.1,500.6
					c173.7,52.4,308.6,199.5,352.2,383.7l416.4,1759.2c43.6,184.2-10.1,380.6-140.1,512.4L5171.6,4376.2
					C5075.9,4473.1,4948.5,4525.4,4818.7,4525.4z M3987.1-42.7c-125.9,0-249.4,50.7-342.2,144.8L2403.2,1360.6
					c-126.1,127.8-178.2,318.2-135.9,496.9l416.4,1759.2c42.3,178.7,173.2,321.2,341.6,372.1l1658.1,500.6
					c168.4,50.9,351.3,3,477.4-124.8L6402.6,3106c126.1-127.8,178.2-318.2,135.9-496.9L6122,850
					c-42.3-178.7-173.2-321.2-341.6-372.1L4122.3-22.7C4077.8-36.1,4032.3-42.7,3987.1-42.7z"/>
			</g>
			<g>
				<path class="st8" d="M4692.7,4694.5c-64.4,0-129.1-12.1-190.9-36.8l-1708.3-684c-178.9-71.6-308.9-239.5-339.4-438.1
					L2163.8,1639c-30.4-198.6,42.9-400.9,191.4-527.9L3773.1-101.3c148.5-127,351.9-161.4,530.8-89.7l1708.3,684
					c178.9,71.6,308.9,239.5,339.4,438.1L6642,2827.6c30.4,198.6-42.9,400.9-191.4,527.9L5032.6,4568
					C4935.4,4651.1,4814.7,4694.5,4692.7,4694.5z M4113.1-210.8c-118.3,0-235.4,42.1-329.6,122.7L2365.5,1124.4
					c-144,123.1-215.1,319.3-185.6,511.9l290.4,1896.5c29.5,192.6,155.6,355.4,329.1,424.9l1708.3,684
					c59.9,24,122.7,35.7,185.1,35.7c118.3,0,235.4-42.1,329.6-122.7l1417.9-1212.5c144-123.1,215.1-319.3,185.6-511.9L6335.5,933.8
					c-29.5-192.6-155.6-355.4-329.1-424.9l-1708.3-684C4238.2-199.1,4175.5-210.8,4113.1-210.8z"/>
			</g>
			<g>
				<path class="st8" d="M4548.2,4861.4c-84.2,0-168.6-19.5-246.6-58.9l-1745.8-882.3c-182.8-92.4-305.9-281.9-321.1-494.4
					L2089,1396c-15.3-212.6,79.4-419.3,247-539.4L3936.1-290.9c167.6-120.2,385.3-137.4,568.1-45l1745.8,882.3
					c182.8,92.4,305.9,281.9,321.1,494.4l145.6,2029.7c15.3,212.6-79.4,419.3-247,539.4L4869.7,4757.5
					C4773.7,4826.4,4661.2,4861.4,4548.2,4861.4z M4257.6-376.7c-109.5,0-218.6,34-311.7,100.8L2345.7,871.5
					c-162.5,116.5-254.3,317-239.5,523.1l145.6,2029.7c14.8,206.1,134.1,389.9,311.4,479.5l1745.8,882.3
					c177.3,89.6,388.4,72.9,550.9-43.6l1600.1-1147.4c162.5-116.5,254.3-317,239.5-523.1l-145.6-2029.7
					c-14.8-206.1-134.1-389.9-311.4-479.5L4496.7-319.5C4421-357.8,4339.2-376.7,4257.6-376.7z"/>
			</g>
			<g>
				<path class="st8" d="M4384.4,5024.2c-106.2,0-212.4-29.2-306.6-87.6L2309.4,3841.4c-185.2-114.7-299.1-326.3-297.1-552.2
					l18.5-2156.8c1.9-225.9,119.4-435.3,306.5-546.5L4124.3-475.7c187.1-111.2,418.5-109,603.7,5.7L6496.4,625.3
					c185.2,114.7,299.1,326.3,297.1,552.2L6775,3334.3c-1.9,225.9-119.4,435.3-306.5,546.5L4681.5,4942.3
					C4589.6,4997,4487,5024.2,4384.4,5024.2z M4421.3-538.4c-99.4,0-198.9,26.4-288.1,79.4L2346.3,602.6
					c-181.5,107.8-295.4,310.9-297.3,529.9l-18.5,2156.8c-1.9,219,108.5,424.2,288.1,535.4l1768.4,1095.3
					c179.6,111.2,403.9,113.4,585.4,5.5L6459.5,3864c181.5-107.8,295.4-310.9,297.3-529.9l18.5-2156.8
					c1.9-219-108.5-424.2-288.1-535.4L4718.6-453.4C4627.3-510,4524.3-538.4,4421.3-538.4z"/>
			</g>
			<g>
				<path class="st8" d="M4200.1,5181.2c-19.8,0-39.6-1-59.4-2.9c-111.6-11-219-52.8-310.5-121L2055.9,3735.1
					c-91.5-68.2-164.5-160.8-211.3-267.9c-46.8-107.1-66-225.7-55.5-343l202.6-2275.7c10.4-117.3,50.3-230.1,115.1-326.2
					c64.9-96.1,153-172.9,254.9-222l1976.9-953.5c101.9-49.2,214.8-69.3,326.4-58.4c111.6,11,219,52.8,310.5,121L6749.9,731.6
					c91.5,68.2,164.5,160.8,211.3,267.9c46.8,107.1,66,225.7,55.5,343l-202.6,2275.7c-10.4,117.3-50.3,230.1-115.1,326.2
					c-64.9,96.1-153,172.9-254.9,222l-1976.9,953.5C4383.3,5160.3,4292,5181.2,4200.1,5181.2z M4605.1-693.9
					c-87.9,0-176.1,19.5-258.4,59.2L2369.8,318.7c-200.8,96.8-338.3,300.6-358.9,531.7l-202.6,2275.7
					c-20.6,231.1,78.6,458.1,258.8,592.4l1774.3,1322.2c106.4,79.3,232.5,119.9,359.3,119.9c87.9,0,176.1-19.5,258.4-59.2
					L6436,4147.9c200.8-96.8,338.3-300.6,358.9-531.7l202.6-2275.7c20.6-231.1-78.6-458.1-258.8-592.4L4964.3-574
					C4857.9-653.3,4731.8-693.9,4605.1-693.9z"/>
			</g>
			<g>
				<path class="st8" d="M3995.7,5329.5c-40,0-80-3.7-119.6-11.2c-117-22.1-226.8-76.3-317.6-156.8L1797.2,3599.1
					c-90.8-80.5-160.1-185.2-200.4-302.7c-40.3-117.5-50.5-244.5-29.5-367.4l407.1-2383.9c21-122.9,72.6-238.3,149.2-333.7
					c76.7-95.4,176.3-168.2,288-210.6L4580-820.6c111.8-42.4,232.7-53.1,349.6-31c117,22.1,226.8,76.3,317.6,156.8L7008.5,867.5
					c90.8,80.5,160.1,185.2,200.4,302.7c40.3,117.5,50.5,244.5,29.5,367.4l-407.1,2383.9c-21,122.9-72.6,238.3-149.2,333.7
					c-76.7,95.4-176.3,168.2-288,210.6l-2168.4,821.5C4151.8,5315.3,4073.8,5329.5,3995.7,5329.5z M4809.2-841.1
					c-74.8,0-150,13.4-222.2,40.7L2418.6,21.2c-220.2,83.4-382.7,285.7-424,527.8l-407.1,2383.9c-41.3,242.1,44.1,491.1,223,649.7
					L3571.8,5145c120.2,106.6,271.6,162.7,424.8,162.7c74.8,0,150-13.4,222.2-40.7l2168.4-821.5c220.2-83.4,382.7-285.7,424-527.8
					l407.1-2383.9c41.3-242.1-44.1-491.1-223-649.7L5234-678.3C5113.8-785,4962.4-841.1,4809.2-841.1z"/>
			</g>
			<g>
				<path class="st8" d="M3770.7,5467.1c-62.6,0-125.1-8.6-185.9-25.7c-121.6-34.2-233-101.8-322-195.3L1535.6,3431.3
					c-89-93.6-153.3-210.5-185.9-338.3c-32.6-127.8-32.6-262.9,0-390.7l632.2-2479c32.6-127.8,96.9-244.8,185.9-338.3
					c89-93.6,200.4-161.1,322-195.3l2359.3-664.3c121.6-34.2,250.2-34.2,371.8,0c121.6,34.2,233,101.8,322,195.3l1727.1,1814.8
					c89,93.6,153.3,210.6,185.9,338.3s32.6,262.9,0,390.7l-632.2,2479c-32.6,127.8-96.9,244.8-185.9,338.3s-200.4,161.1-322,195.3
					l-2359.3,664.3C3895.8,5458.5,3833.3,5467.1,3770.7,5467.1z M5034.2-977.4c-59.9,0-120.2,8.1-179.4,24.8L2495.5-288.4
					c-239.6,67.5-428.3,265.8-492.5,517.5l-632.2,2479c-64.2,251.8,4.9,522.7,180.3,707l1727.1,1814.8
					c175.4,184.3,433.2,256.9,672.8,189.4l2359.3-664.3c239.6-67.5,428.3-265.8,492.5-517.5l632.2-2479
					c64.2-251.8-4.9-522.7-180.3-707L5527.6-763.2C5395.5-902,5216.7-977.4,5034.2-977.4z"/>
			</g>
		</g>
	</g>
</g>
<path class="st9" d="M3074.7,2411.8c-795.5-54.3-1074.8-501.7-1880.8-437.5C387.9,2038.5,0,2592.1,0,2592.1v558.6h4298v-893.5
	C4298,2257.3,3889.1,2467.5,3074.7,2411.8z"/>
</svg>
