<?xml version="1.0" encoding="utf-8"?>
<!-- Generator: Adobe Illustrator 27.9.1, SVG Export Plug-In . SVG Version: 6.00 Build 0)  -->
<svg version="1.1" id="Layer_1" xmlns="http://www.w3.org/2000/svg" xmlns:xlink="http://www.w3.org/1999/xlink" x="0px" y="0px"
	 viewBox="0 0 334 250" style="enable-background:new 0 0 334 250;" xml:space="preserve">
<style type="text/css">
	.st0{fill:#FFFFFF;}
	.st1{fill:#FCB917;}
	.st2{fill:#FFF9E2;}
	.st3{fill:#EAA200;}
	.st4{fill:#EEF5F6;}
	.st5{fill:#27375D;}
</style>
<g>
	<g>
		<g>
			<path class="st0" d="M302.3,198.3H31.7V26c0-6,4.9-10.9,10.9-10.9h248.7c6,0,10.9,4.9,10.9,10.9V198.3z"/>
		</g>
		<g>
			<path class="st1" d="M291.4,15.1h-25.7c6,0,10.9,4.9,10.9,10.9v172.3h25.7V26C302.3,20,297.4,15.1,291.4,15.1z"/>
		</g>
		<g>
			<rect x="49.3" y="32.7" class="st0" width="235.4" height="148"/>
		</g>
		<g>
			<rect x="276.7" y="32.7" class="st1" width="8" height="148"/>
		</g>
		<g>
			<path class="st0" d="M296.6,234.9H37.4c-14.7,0-26.7-11.9-26.7-26.7l0,0c0-5.5,4.5-9.9,9.9-9.9h292.6c5.5,0,9.9,4.5,9.9,9.9l0,0
				C323.3,223,311.3,234.9,296.6,234.9z"/>
		</g>
		<g>
			<path class="st1" d="M313.3,198.3h-23.1c5.5,0,9.9,4.5,9.9,9.9l0,0c0,14.7-11.9,26.7-26.7,26.7h23.1c14.7,0,26.7-11.9,26.7-26.7
				l0,0C323.3,202.7,318.8,198.3,313.3,198.3z"/>
		</g>
		<g>
			<g>
				<path class="st1" d="M159.6,157.2H97.6c-4.1,0-7.4-3.3-7.4-7.4v-84c0-4.1,3.3-7.4,7.4-7.4h46.1c12.8,0,23.3,10.4,23.3,23.3v68.2
					C167,153.9,163.7,157.2,159.6,157.2z"/>
			</g>
			<g>
				<path class="st2" d="M236.4,157.2h-61.9c-4.1,0-7.4-3.3-7.4-7.4V81.6c0-12.8,10.4-23.3,23.3-23.3h46.1c4.1,0,7.4,3.3,7.4,7.4v84
					C243.8,153.9,240.5,157.2,236.4,157.2z"/>
			</g>
		</g>
		<g>
			<path class="st1" d="M202,216.9H132c-4.7,0-8.6-3.8-8.6-8.6v-10h87.2v10C210.6,213,206.8,216.9,202,216.9z"/>
		</g>
		<g>
			<path class="st3" d="M191.7,198.3v10c0,4.7-3.8,8.6-8.6,8.6H202c4.7,0,8.6-3.8,8.6-8.6v-10H191.7z"/>
		</g>
		<g>
			<path class="st4" d="M113.7,126.4V93.9c0-2,2.3-3.3,4-2.2l25,16.3c1.6,1,1.6,3.3,0,4.3l-25,16.3
				C115.9,129.7,113.7,128.5,113.7,126.4z"/>
		</g>
	</g>
	<g>
		<g>
			<path class="st5" d="M296.6,239.2H70.8c-2.4,0-4.3-1.9-4.3-4.3s1.9-4.3,4.3-4.3h225.8c12.3,0,22.4-10,22.4-22.4
				c0-3.1-2.5-5.7-5.7-5.7H20.7c-3.1,0-5.7,2.5-5.7,5.7c0,12.3,10,22.4,22.4,22.4h11.4c2.4,0,4.3,1.9,4.3,4.3s-1.9,4.3-4.3,4.3H37.4
				c-17.1,0-31-13.9-31-31c0-7.8,6.4-14.2,14.2-14.2h292.6c7.8,0,14.2,6.4,14.2,14.2C327.6,225.3,313.7,239.2,296.6,239.2z"/>
		</g>
		<g>
			<path class="st5" d="M302.3,202.6H31.7c-2.4,0-4.3-1.9-4.3-4.3V15.1c0-2.4,1.9-4.3,4.3-4.3h270.6c2.4,0,4.3,1.9,4.3,4.3v183.2
				C306.6,200.7,304.7,202.6,302.3,202.6z M36,194H298V19.4H36V194z"/>
		</g>
		<g>
			<g>
				<path class="st5" d="M167,161.5H90.2c-2.4,0-4.3-1.9-4.3-4.3V58.4c0-2.4,1.9-4.3,4.3-4.3H158c7.3,0,13.3,6,13.3,13.3v89.9
					C171.3,159.6,169.4,161.5,167,161.5z M94.5,153h68.2V67.4c0-2.6-2.1-4.7-4.7-4.7H94.5V153z"/>
			</g>
			<g>
				<path class="st5" d="M243.8,161.5H167c-2.4,0-4.3-1.9-4.3-4.3V67.4c0-7.3,6-13.3,13.3-13.3h67.8c2.4,0,4.3,1.9,4.3,4.3v22.8
					c0,2.4-1.9,4.3-4.3,4.3s-4.3-1.9-4.3-4.3V62.7H176c-2.6,0-4.7,2.1-4.7,4.7V153h68.2v-49.7c0-2.4,1.9-4.3,4.3-4.3
					s4.3,1.9,4.3,4.3v54C248.1,159.6,246.2,161.5,243.8,161.5z"/>
			</g>
			<g>
				<path class="st5" d="M225.9,80.6h-35.6c-2.4,0-4.3-1.9-4.3-4.3s1.9-4.3,4.3-4.3h35.6c2.4,0,4.3,1.9,4.3,4.3
					S228.3,80.6,225.9,80.6z"/>
			</g>
			<g>
				<path class="st5" d="M225.9,96.3h-35.6c-2.4,0-4.3-1.9-4.3-4.3s1.9-4.3,4.3-4.3h35.6c2.4,0,4.3,1.9,4.3,4.3
					S228.3,96.3,225.9,96.3z"/>
			</g>
			<g>
				<path class="st5" d="M225.9,112.1h-35.6c-2.4,0-4.3-1.9-4.3-4.3c0-2.4,1.9-4.3,4.3-4.3h35.6c2.4,0,4.3,1.9,4.3,4.3
					C230.2,110.2,228.3,112.1,225.9,112.1z"/>
			</g>
			<g>
				<path class="st5" d="M225.9,127.9h-35.6c-2.4,0-4.3-1.9-4.3-4.3s1.9-4.3,4.3-4.3h35.6c2.4,0,4.3,1.9,4.3,4.3
					S228.3,127.9,225.9,127.9z"/>
			</g>
			<g>
				<path class="st5" d="M200.4,143.6h-10.2c-2.4,0-4.3-1.9-4.3-4.3s1.9-4.3,4.3-4.3h10.2c2.4,0,4.3,1.9,4.3,4.3
					S202.8,143.6,200.4,143.6z"/>
			</g>
		</g>
		<g>
			<path class="st5" d="M284.7,185H49.3c-2.4,0-4.3-1.9-4.3-4.3v-148c0-2.4,1.9-4.3,4.3-4.3h235.4c2.4,0,4.3,1.9,4.3,4.3v148
				C289,183.1,287.1,185,284.7,185z M53.6,176.4h226.9V37H53.6V176.4z"/>
		</g>
		<g>
			<path class="st5" d="M210.6,221.2h-87.2c-2.4,0-4.3-1.9-4.3-4.3v-18.6c0-2.4,1.9-4.3,4.3-4.3h87.2c2.4,0,4.3,1.9,4.3,4.3v18.6
				C214.9,219.2,213,221.2,210.6,221.2z M127.7,212.6h78.6v-10h-78.6V212.6z"/>
		</g>
		<g>
			<path class="st5" d="M116.3,133.3c-1.1,0-2.3-0.3-3.3-0.8c-2.2-1.2-3.6-3.5-3.6-6V89.2c0-1.6,0.9-3,2.2-3.8
				c1.4-0.7,3.1-0.7,4.4,0.2l32.3,21c1.2,0.8,2,2.1,2,3.6c0,1.5-0.7,2.8-2,3.6L120,132.2C118.9,132.9,117.6,133.3,116.3,133.3z
				 M118,97.1v26.2l20.2-13.1L118,97.1z"/>
		</g>
	</g>
</g>
</svg>
