<?xml version="1.0" encoding="utf-8"?>
<!-- Generator: Adobe Illustrator 27.9.1, SVG Export Plug-In . SVG Version: 6.00 Build 0)  -->
<svg version="1.1" id="Layer_1" xmlns="http://www.w3.org/2000/svg" xmlns:xlink="http://www.w3.org/1999/xlink" x="0px" y="0px"
	 viewBox="0 0 250 250" style="enable-background:new 0 0 250 250;" xml:space="preserve">
<style type="text/css">
	.st0{clip-path:url(#SVGID_00000051356272432665031680000014615516011350335166_);}
	.st1{fill:#FFBB08;}
	.st2{fill:#27375D;}
</style>
<g id="g2657_00000102531837429153368410000012119959658580674956_">
	<g>
		<defs>
			<rect id="SVGID_1_" x="15" y="15" width="220" height="220"/>
		</defs>
		<clipPath id="SVGID_00000160870321848061056990000006171600713879508102_">
			<use xlink:href="#SVGID_1_"  style="overflow:visible;"/>
		</clipPath>
		
			<g id="g2659_00000159430417369847943570000000448930001456700336_" style="clip-path:url(#SVGID_00000160870321848061056990000006171600713879508102_);">
			<g id="g2665_00000117653313497904294710000003646443298670793651_" transform="translate(320.1416,476.8281)">
				<g id="path2667_00000165950619184714186780000003617337621656266933_">
					<path class="st1" d="M-195.1-379.6c-22.7,0-41.1-18.4-41.1-41.1c0-22.7,18.4-41.1,41.1-41.1c6,0,11.8,1.3,17.2,3.7
						c1.6,0.7,2.3,2.7,1.6,4.3c-0.7,1.6-2.7,2.3-4.3,1.6c-4.5-2.1-9.4-3.2-14.5-3.2c-19.1,0-34.7,15.6-34.7,34.7
						c0,19.1,15.6,34.7,34.7,34.7c19.1,0,34.7-15.6,34.7-34.7c0-8.9-3.4-17.3-9.4-23.8c-1.2-1.3-1.2-3.3,0.1-4.6
						c1.3-1.2,3.3-1.2,4.6,0.1c7.2,7.7,11.2,17.7,11.2,28.2C-154-398.1-172.5-379.6-195.1-379.6z"/>
				</g>
			</g>
			<g id="g2669_00000088099355928332115910000003062700515675518392_" transform="translate(504.4883,256.0117)">
				<g id="path2671_00000126310535850226751950000012123138331561093546_">
					<path class="st1" d="M-310.6-89.9c-22.7,0-41.1-18.4-41.1-41.1c0-22.7,18.4-41.1,41.1-41.1c22.7,0,41.1,18.4,41.1,41.1
						C-269.5-108.3-287.9-89.9-310.6-89.9z M-310.6-165.7c-19.1,0-34.7,15.6-34.7,34.7s15.6,34.7,34.7,34.7
						c19.1,0,34.7-15.6,34.7-34.7S-291.5-165.7-310.6-165.7z"/>
				</g>
			</g>
			<g id="g2673_00000160148456803888722480000016651792556502289313_" transform="translate(239.9683,432.3584)">
				<g id="path2675_00000056398657869630600470000017451053479613469068_">
					<path class="st2" d="M-121.9-379.9c-1.2,0-2.3-0.6-2.9-1.8c-0.4-0.8-2-1.7-4-1.7c-2.1,0-3.6,0.9-4,1.7
						c-0.8,1.6-2.7,2.2-4.3,1.4c-1.6-0.8-2.2-2.7-1.4-4.3c1.6-3.2,5.4-5.2,9.8-5.2c4.3,0,8.2,2,9.8,5.2c0.8,1.6,0.2,3.5-1.4,4.3
						C-120.9-380-121.4-379.9-121.9-379.9z"/>
				</g>
			</g>
			<g id="g2677_00000076600901298217934740000017460171840421103499_" transform="translate(304.0947,432.3584)">
				<g id="path2679_00000142869377729597101390000017556765977847009957_">
					<path class="st2" d="M-172.2-379.9c-0.5,0-1-0.1-1.4-0.3c-1.6-0.8-2.2-2.7-1.4-4.3c1.6-3.2,5.4-5.2,9.8-5.2
						c4.3,0,8.2,2,9.8,5.2c0.8,1.6,0.2,3.5-1.4,4.3c-1.6,0.8-3.5,0.2-4.3-1.4c-0.4-0.8-2-1.7-4-1.7c-2.1,0-3.6,0.9-4,1.7
						C-169.9-380.6-171-379.9-172.2-379.9z"/>
				</g>
			</g>
			<g id="g2681_00000172430106404462209020000005334495258763547567_" transform="translate(223.9365,390.1084)">
				<g id="path2683_00000060738331448592725680000015287222326340811689_">
					<path class="st2" d="M-98.9-313.6c-7.4,0-13.9-3-16.6-7.6c-0.9-1.5-0.4-3.5,1.2-4.4c1.5-0.9,3.5-0.4,4.4,1.2
						c1.2,2.1,5.2,4.4,11,4.4c5.8,0,9.8-2.3,11-4.4c0.9-1.5,2.9-2.1,4.4-1.2c1.5,0.9,2.1,2.9,1.2,4.4
						C-85.1-316.5-91.6-313.6-98.9-313.6z"/>
				</g>
			</g>
			<g id="g2685_00000116948571898315102780000003963437689545581699_" transform="translate(272.0317,111.728)">
				<g id="path2687_00000127043330090404028910000016422502328906976420_">
					<path class="st2" d="M-133.3,81.9c-4.3,0-8.2-2-9.8-5.2c-0.8-1.6-0.2-3.5,1.4-4.3c1.6-0.8,3.5-0.2,4.3,1.4c0.4,0.8,2,1.7,4,1.7
						c2.1,0,3.6-0.9,4-1.7c0.8-1.6,2.7-2.2,4.3-1.4c1.6,0.8,2.2,2.7,1.4,4.3C-125.1,79.9-128.9,81.9-133.3,81.9z"/>
				</g>
			</g>
			<g id="g2689_00000067940181637582832680000009189174172883946640_" transform="translate(207.9053,111.728)">
				<g id="path2691_00000173878660019007457640000008135423291334721206_">
					<path class="st2" d="M-96.7,81.9c-4.3,0-8.2-2-9.8-5.2c-0.8-1.6-0.2-3.5,1.4-4.3c1.6-0.8,3.5-0.2,4.3,1.4c0.4,0.8,2,1.7,4,1.7
						c2.1,0,3.6-0.9,4-1.7c0.8-1.6,2.7-2.2,4.3-1.4c1.6,0.8,2.2,2.7,1.4,4.3C-88.5,79.9-92.3,81.9-96.7,81.9z"/>
				</g>
			</g>
			<g id="g2693_00000100375885160554522310000018017646193473476236_" transform="translate(288.0625,55.6182)">
				<g id="path2695_00000109713661922308459310000011128288886768417449_">
					<path class="st2" d="M-149.3,158.7c-1.1,0-2.2-0.6-2.8-1.6c-1.2-2.1-5.2-4.4-11-4.4c-5.8,0-9.8,2.3-11,4.4
						c-0.9,1.5-2.9,2.1-4.4,1.2c-1.5-0.9-2.1-2.9-1.2-4.4c2.7-4.6,9.2-7.6,16.6-7.6c7.4,0,13.9,3,16.6,7.6c0.9,1.5,0.4,3.5-1.2,4.4
						C-148.2,158.6-148.7,158.7-149.3,158.7z"/>
				</g>
			</g>
			<g id="g2697_00000110468543180595611330000003672629296464019357_" transform="translate(183.8584,256.0117)">
				<g id="path2699_00000019672519215776976790000009204884104296600491_">
					<path class="st1" d="M-127.7-89.9c-22.7,0-41.1-18.4-41.1-41.1c0-22.7,18.4-41.1,41.1-41.1c22.7,0,41.1,18.4,41.1,41.1
						C-86.6-108.3-105.1-89.9-127.7-89.9z M-127.7-165.7c-19.1,0-34.7,15.6-34.7,34.7s15.6,34.7,34.7,34.7
						c19.1,0,34.7-15.6,34.7-34.7S-108.6-165.7-127.7-165.7z"/>
				</g>
			</g>
			<g id="g2701_00000024697916399127085500000017640746290587746701_" transform="translate(127.7476,215.9331)">
				<g id="path2703_00000133497319009879174150000011669986784752132485_">
					<path class="st2" d="M-57.9-70.5c-1.1,0-2.2-0.6-2.8-1.6c-1.2-2.1-5.2-4.4-11-4.4c-5.8,0-9.8,2.3-11,4.4
						c-0.9,1.5-2.9,2.1-4.4,1.2s-2.1-2.9-1.2-4.4c2.7-4.6,9.2-7.6,16.6-7.6c7.4,0,13.9,3,16.6,7.6c0.9,1.5,0.4,3.5-1.2,4.4
						C-56.7-70.6-57.3-70.5-57.9-70.5z"/>
				</g>
			</g>
			<g id="g2705_00000116204643367560002380000000003920662845227924_" transform="translate(55.6064,280.0591)">
				<g id="path2707_00000072253606976009712760000005581699818981662089_">
					<path class="st2" d="M-9.8-158.7c-0.5,0-1-0.1-1.4-0.3l-6.9-3.4c-1.6-0.8-2.2-2.7-1.4-4.3c0.8-1.6,2.7-2.2,4.3-1.4l6.9,3.4
						c1.6,0.8,2.2,2.7,1.4,4.3C-7.5-159.4-8.6-158.7-9.8-158.7z"/>
				</g>
			</g>
			<g id="g2709_00000071528088373297609450000004140711355862738586_" transform="translate(135.7637,280.0591)">
				<g id="path2711_00000074443636856687126590000009127791874073920148_">
					<path class="st2" d="M-69.3-158.7c-1.2,0-2.3-0.7-2.9-1.8c-0.8-1.6-0.2-3.5,1.4-4.3l6.9-3.4c1.6-0.8,3.5-0.2,4.3,1.4
						c0.8,1.6,0.2,3.5-1.4,4.3l-6.9,3.4C-68.3-158.8-68.8-158.7-69.3-158.7z"/>
				</g>
			</g>
			<g id="g2713_00000118393430937896154050000001087125303843949749_" transform="translate(392.2676,223.9487)">
				<g id="path2715_00000173137349999414937630000006034082725148276648_">
					<path class="st2" d="M-188-82h-20.7c-1.8,0-3.2-1.4-3.2-3.2c0-1.8,1.4-3.2,3.2-3.2h20.7c1.8,0,3.2,1.4,3.2,3.2
						C-184.8-83.4-186.3-82-188-82z"/>
				</g>
			</g>
			<g id="g2717_00000005238265150520950880000013300371805759090601_" transform="translate(384.252,272.0435)">
				<g id="path2719_00000080926402227074228320000007254025548689706131_">
					<path class="st2" d="M-204.1-147.3c-1.8,0-3.2-1.4-3.2-3.2v-3.4c0-1.8,1.4-3.2,3.2-3.2c1.8,0,3.2,1.4,3.2,3.2v3.4
						C-200.9-148.7-202.4-147.3-204.1-147.3z"/>
				</g>
			</g>
			<g id="g2721_00000052066597313813767090000003911555101147645881_" transform="translate(448.3779,272.0435)">
				<g id="path2723_00000013909111318137701880000000153494954966845827_">
					<path class="st2" d="M-240.7-147.3c-1.8,0-3.2-1.4-3.2-3.2v-3.4c0-1.8,1.4-3.2,3.2-3.2c1.8,0,3.2,1.4,3.2,3.2v3.4
						C-237.5-148.7-238.9-147.3-240.7-147.3z"/>
				</g>
			</g>
			<g id="g2725_00000036964219729715528030000012069717093162366894_" transform="translate(212.4873,172.3857)">
				<g id="path2727_00000121988532139816398270000017707795680161510846_">
					<path class="st1" d="M-87.4,62.6c-4.1,0-8.1-0.6-12.1-1.8c-10.5-3.2-19.1-10.4-24.2-20.1c-5.1-9.7-6.2-20.8-3-31.3
						c3.1-10.1,9.8-18.5,19-23.7c1.5-0.9,3.5-0.3,4.4,1.2c0.9,1.5,0.3,3.5-1.2,4.4c-7.7,4.4-13.4,11.5-16,20
						c-2.7,8.8-1.8,18.2,2.5,26.4c4.3,8.2,11.6,14.2,20.4,16.9c8.8,2.7,18.2,1.8,26.4-2.5c8.2-4.3,14.2-11.6,16.9-20.4
						C-48.7,13.4-59-6-77.3-11.6c-4.8-1.5-9.8-1.9-14.8-1.2c-1.8,0.2-3.4-1-3.6-2.8c-0.2-1.8,1-3.4,2.8-3.6
						c5.9-0.8,11.8-0.3,17.5,1.5c21.7,6.7,33.9,29.7,27.2,51.4c-3.2,10.5-10.4,19.1-20.1,24.2C-74.3,61-80.8,62.6-87.4,62.6z"/>
				</g>
			</g>
			<g id="g2729_00000021837288350526889510000005143758393347901063_" transform="translate(187.8662,155.8149)">
				<g id="path2731_00000105421809802895990330000001519646009316774303_">
					<path class="st1" d="M-92.1,15.5c-0.8,0-1.6-0.3-2.3-0.9l-13.8-13.8c-1.3-1.3-1.3-3.3,0-4.6c1.3-1.3,3.3-1.3,4.6,0L-89.9,10
						c1.3,1.3,1.3,3.3,0,4.6C-90.5,15.1-91.3,15.5-92.1,15.5z"/>
				</g>
			</g>
			<g id="g2733_00000175318456891075765430000003995836759700179873_" transform="translate(320.126,159.8228)">
				<g id="path2735_00000158751503803164088220000007971925365094577844_">
					<path class="st1" d="M-167.6,9.7c-0.8,0-1.6-0.3-2.3-0.9c-1.3-1.3-1.3-3.3,0-4.6l13.8-13.8c1.3-1.3,3.3-1.3,4.6,0
						c1.3,1.3,1.3,3.3,0,4.6l-13.8,13.8C-165.9,9.4-166.7,9.7-167.6,9.7z"/>
				</g>
			</g>
			<g id="g2737_00000145755601905954220960000005791145199001437877_" transform="translate(324.1338,356.2085)">
				<g id="path2739_00000093870988923876754420000005792426490541070464_">
					<path class="st1" d="M-156.1-257.3c-0.8,0-1.6-0.3-2.3-0.9l-13.8-13.8c-1.3-1.3-1.3-3.3,0-4.6c1.3-1.3,3.3-1.3,4.6,0l13.8,13.8
						c1.3,1.3,1.3,3.3,0,4.6C-154.4-257.6-155.3-257.3-156.1-257.3z"/>
				</g>
			</g>
			<g id="g2741_00000139292369854177759930000005140367423208085378_" transform="translate(191.874,352.2007)">
				<g id="path2743_00000122709621680089369500000009047185911535450813_">
					<path class="st1" d="M-108.2-251.5c-0.8,0-1.6-0.3-2.3-0.9c-1.3-1.3-1.3-3.3,0-4.6l13.8-13.8c1.3-1.3,3.3-1.3,4.6,0
						c1.3,1.3,1.3,3.3,0,4.6l-13.8,13.8C-106.6-251.9-107.4-251.5-108.2-251.5z"/>
				</g>
			</g>
		</g>
	</g>
</g>
</svg>
