<?xml version="1.0" encoding="utf-8"?>
<!-- Generator: Adobe Illustrator 27.9.0, SVG Export Plug-In . SVG Version: 6.00 Build 0)  -->
<svg version="1.1" id="Layer_1" xmlns="http://www.w3.org/2000/svg" xmlns:xlink="http://www.w3.org/1999/xlink" x="0px" y="0px"
	 viewBox="0 0 225 225" style="enable-background:new 0 0 225 225;" xml:space="preserve">
<style type="text/css">
	.st0{fill:#8D23A9;}
	.st1{fill:#FFFFFF;}
</style>
<g>
	<circle class="st0" cx="112.5" cy="112.5" r="100.1"/>
	<path class="st1" d="M161.5,51.2H99.9c-2.5,0-4.5,2-4.5,4.5v20.3c-8.1,2.1-15.4,6.7-20.8,13c-5.8,6.9-9,15.5-9,24.3v4.9
		c-3.8,0.6-6.6,3.8-6.6,7.6v13.3c0,4.3,3.6,7.7,8,7.7h4.1c0.7,2.6,3.1,4.5,6,4.5c3.4,0,6.2-2.7,6.2-5.9v-25.9c0-2.9-2.1-5.3-5-5.8
		c0.5-12,6.7-20.9,17.1-24.9v9.2c0,2.5,2,4.5,4.5,4.5h4v15.8c0,0.8,0.5,1.5,1.2,1.8c0.3,0.1,0.6,0.2,0.8,0.2c0.5,0,1-0.2,1.4-0.5
		l20-17.3h3.6c1.8,3.9,2.3,7.2,2.4,11.2c-2.8,0.5-5,2.9-5,5.8v25.9c0,3.3,2.8,5.9,6.2,5.9c0.6,0,1.3-0.1,1.8-0.3
		c-0.7,9.1-3.9,13.5-14.1,13.5h-6.3c-0.9-3-3.8-5.2-7.1-5.2h-5.9c-4.1,0-7.4,3.2-7.4,7.1c0,3.9,3.3,7.1,7.4,7.1h5.9
		c3.4,0,6.2-2.2,7.1-5.2h6.3c16.3,0,18.3-10.5,18.4-21.7h3.9c4.4,0,8-3.5,8-7.7v-13.3c0-3.8-2.9-7-6.6-7.6c0-5.4,0-10.3-1.6-15.7
		h17.2c2.5,0,4.5-2,4.5-4.5V55.7C166,53.2,164,51.2,161.5,51.2L161.5,51.2z M108.7,169.8h-5.9c-1.8,0-3.3-1.4-3.3-3.2
		s1.5-3.2,3.3-3.2h5.9c1.8,0,3.3,1.4,3.3,3.2S110.5,169.8,108.7,169.8z M63.1,139.2v-13.3c0-2.1,1.8-3.8,3.9-3.8H71V143H67
		C64.9,143,63.1,141.3,63.1,139.2L63.1,139.2z M79.2,119.6v25.9c0,1.1-0.9,2-2,2c-1.1,0-2-0.9-2-2v-25.9c0-1.1,0.9-2,2-2
		S79.2,118.5,79.2,119.6L79.2,119.6z M79.7,96.2c-3.4,5-5.3,11.3-5.5,18.2c-1.5,0.8-2.6,2.2-3,3.8h-1.4v-4.8
		c0-15.2,10.6-28.8,25.6-33.2v4.5C88.7,86.9,83.4,90.7,79.7,96.2L79.7,96.2z M134.4,147.5c-1.1,0-2-0.9-2-2v-25.9c0-1.1,0.9-2,2-2
		s2,0.9,2,2v25.8h0c0,0,0,0.1,0,0.1C136.4,146.6,135.5,147.5,134.4,147.5L134.4,147.5z M148.4,125.9v13.3c0,2.1-1.8,3.8-3.9,3.8
		h-3.9v-20.8h3.9C146.7,122.1,148.4,123.8,148.4,125.9L148.4,125.9z M141.8,118.2h-1.4c-0.4-1.6-1.5-3-3-3.8c0-4.1-0.4-7.8-2.1-11.8
		h4.7C141.8,107.9,141.8,112.5,141.8,118.2L141.8,118.2z M161.9,98.1c0,0.3-0.2,0.5-0.4,0.5h-35.1c-0.5,0-1,0.2-1.4,0.5L107.9,114
		v-13.4c0-1.1-0.9-2-2.1-2h-6c-0.1,0-0.4-0.2-0.4-0.5V55.7c0-0.3,0.2-0.5,0.4-0.5h61.7c0.1,0,0.4,0.2,0.4,0.5L161.9,98.1L161.9,98.1
		z M152.8,65.9c0,1.1-0.9,2-2.1,2h-40.5c-1.1,0-2.1-0.9-2.1-2s0.9-2,2.1-2h40.5C151.9,63.9,152.8,64.8,152.8,65.9z M152.8,76.9
		c0,1.1-0.9,2-2.1,2h-40.5c-1.1,0-2.1-0.9-2.1-2s0.9-2,2.1-2h40.5C151.9,74.9,152.8,75.8,152.8,76.9z M125,87.9c0,1.1-0.9,2-2.1,2
		h-12.7c-1.1,0-2.1-0.9-2.1-2s0.9-2,2.1-2h12.7C124,85.9,125,86.8,125,87.9z M94.6,132.5c0,1.1-0.9,2-2.1,2h-0.2
		c-1.1,0-2.1-0.9-2.1-2s0.9-2,2.1-2h0.2C93.7,130.6,94.6,131.4,94.6,132.5z M101.2,134.5c-1.1,0-2.1-0.9-2.1-2s0.9-2,2.1-2h0.2
		c1.1,0,2.1,0.9,2.1,2s-0.9,2-2.1,2H101.2z M110.1,134.5c-1.1,0-2.1-0.9-2.1-2s0.9-2,2.1-2h0.2c1.1,0,2.1,0.9,2.1,2s-0.9,2-2.1,2
		H110.1z M119,134.5c-1.1,0-2.1-0.9-2.1-2s0.9-2,2.1-2h0.2c1.1,0,2.1,0.9,2.1,2s-0.9,2-2.1,2H119z"/>
</g>
</svg>
