<?xml version="1.0" encoding="utf-8"?>
<!-- Generator: Adobe Illustrator 27.9.0, SVG Export Plug-In . SVG Version: 6.00 Build 0)  -->
<svg version="1.1" id="svg4011" xmlns:svg="http://www.w3.org/2000/svg"
	 xmlns="http://www.w3.org/2000/svg" xmlns:xlink="http://www.w3.org/1999/xlink" x="0px" y="0px" viewBox="0 0 207 400"
	 style="enable-background:new 0 0 207 400;" xml:space="preserve">
<style type="text/css">
	.st0{fill:#EEA886;}
	.st1{fill:#514E58;}
	.st2{fill:#232729;}
	.st3{fill:#81807E;}
	.st4{fill:#969696;}
	.st5{fill:#27375D;}
	.st6{fill:#A77860;}
	.st7{fill:#1B2C4C;}
	.st8{fill:#323657;}
	.st9{fill:#121E35;}
	.st10{fill:#D9C8C0;}
	.st11{fill:#3C4145;}
	.st12{fill:#FCF6E8;}
	.st13{fill:#DE9D7D;}
	.st14{fill:#8D8D8E;}
	.st15{fill:#E6A563;}
</style>
<g>
	<g>
		<g>
			<path class="st0" d="M164.1,83c0,0,2.3-4.6,3.1-5.6c0.8-1-1.2-3.6-2.9-0.9c-1.6,2.7-2.7,4.4-2.7,4.4L164.1,83z"/>
		</g>
	</g>
	<g>
		<g>
			<path class="st1" d="M166.7,87.6l9-19.9c0.6-1.3-0.2-2.8-1.7-3.2l-10.6-2.8c-1.3-0.3-2.7,0.3-3.2,1.5L153,83.9
				c-0.5,1.3,0.4,2.7,1.8,3l8.9,2.1C164.9,89.3,166.2,88.7,166.7,87.6z"/>
		</g>
	</g>
	<g>
		<g>
			<path class="st0" d="M169.8,86.1c0,0,1.1-1.7-1.8-4.9c-3.8-4.3-9.3-9.3-10.7-9.2c-2,0.1-1.8,1.6,0.9,3.9c2.6,2.3,3.5,3,3.5,3
				s-5.8-3.1-7.5-3c-1.7,0.1-2.6,1.6-1.7,2.3c0.9,0.7,3.1,1.8,3.1,1.8s-2.6-1-3.4-0.2c-0.5,0.6-1.1,1.6,1.1,3.1c0,0-2.5,1-0.6,3.1
				c1.9,2.1,2.1,3.4,1.5,5.9c-0.6,2.6,0.9,6.8,0.9,6.8l8.8-0.5c0,0,1.6-6.3,2.8-7.8C167.9,88.9,169.8,86.1,169.8,86.1z"/>
		</g>
	</g>
	<g>
		<g>
			<path class="st2" d="M112.5,366.3c0,0,4.4,6,10.5,7.3c6.1,1.3,12.1,3.4,12.2,6.9c0,3.6-17.7,5.7-24.6,2.1
				c-10.4-5.3-11.5-3.7-12.6-6.4c-1.2-2.7,1.4-9.8,1.3-10.7C99.1,364.5,112.5,366.3,112.5,366.3z"/>
		</g>
	</g>
	<g>
		<g>
			<path class="st3" d="M111.8,363.4c0,0,0.8,2.9,0.7,3c-0.1,0.1-13.8,1.6-13.3-0.8c0.3-1.9,0.8-3.9,0.8-3.9L111.8,363.4z"/>
		</g>
	</g>
	<g>
		<g>
			<path class="st2" d="M79,366.7c0,0,3.1,5.7,8.4,7.7c5.7,2.1,10.2,4.5,10.1,8c-0.1,3.5-13.9,7-23.9,0.3c-6.3-4.2-8.3-4.2-9.3-6.9
				c-1-2.6,1.8-9.5,1.7-10.3C66,364.4,79,366.7,79,366.7z"/>
		</g>
	</g>
	<g>
		<g>
			<path class="st3" d="M79.2,363.7c0,0,0,2.9-0.2,3c-0.1,0.1-13.3,1.1-13-1.2c0.3-1.8,1.3-4,1.3-4L79.2,363.7z"/>
		</g>
	</g>
	<g>
		<g>
			<path class="st4" d="M127.5,188.3c0,0,8.1,41.7,10.9,56.8c2.4,12.9,4.3,32.4,3.1,41.7c-1.4,11.5-27.1,73.4-26.4,76.8
				c0.7,3.4-19.3,1.5-19.3,1.5s19.7-73.2,17-85.6c-2-9.2-12.8-64.7-15.5-61.6c-2.7,3.1-6,57.6-8,66.7c-2,9-8.1,80.5-8.1,80.5
				s-13.6,1.9-17.2-1c0,0-1.7-61-0.4-78c0.5-6.5-8.2-77.5,2.9-106.1C72.6,165,127.5,188.3,127.5,188.3z"/>
		</g>
	</g>
	<g>
		<g>
			<g>
				<path class="st5" d="M31.1,144.5c0,0.7,1.4,3.5,3.7,7.5c3.3-6.2,6-11.2,6.8-13.1c2.8-6.1,17.3-20.2,17.3-20.2s0,0,0,0
					c0,0,0,0,0,0c0,0,0,0,0,0c0,0,0,0,0,0.1c0,0,0,0.1,0,0.1c0,0,0,0,0,0.1c0,0,0,0,0,0.1c0.8,2.7,5.6,19.7,5.8,28
					C65.1,156.3,66,182,66,182s28.8,5.8,61.6,6.3c0,0,0.3-7.2,0.5-17.9c0.1-4.5-0.8-12.9-0.6-20.8c0,0,0-0.1,0-0.1
					c0-0.1,0-0.2,0-0.3c0,0,0-0.1,0-0.1v0c0.2-4.3-0.3-8.6,0.6-11.7l0.7-4.1c1.9,6.1,12,16.9,12,16.9c16.1,19.3,22.9-48.5,26.2-53.1
					l-15-3.8l-7.6,28.2l-3.5-9.3v0l-3.7-9.9c-0.4-0.3-4.9-14.1-8.5-15.7c-3.7-1.6-12.9-5.4-16.9-7.4c-2-1-4-2-5.7-2.7l-0.3-0.1l0,0
					c-2.8-1.2-4.6-1.9-4.6-1.9s0,0,0,0c-0.1,0-0.5,0-1.2-0.1C96,73.9,84,72.9,80,72.7c-0.3,0-0.6,0-0.8,0c-0.2,0-0.3,0-0.4,0
					c-0.5,0-3,0.8-6.2,2h0c-0.1,0-0.2,0.1-0.4,0.1c-0.2,0.1-0.3,0.1-0.5,0.2c-0.3,0.1-0.6,0.2-0.9,0.3c-0.6,0.2-1.2,0.4-1.8,0.6
					c-0.2,0.1-0.4,0.2-0.6,0.2c-6.5,2.4-13.8,5.6-15.7,6.5c-3.9,1.8-5.5,5.1-9,14.9c-5.4,16.1-12.3,40.7-12.6,46.7
					C31.1,144.3,31.1,144.4,31.1,144.5z"/>
			</g>
		</g>
	</g>
	<g>
		<g>
			<path class="st0" d="M80.8,70.9c0.2,8,15.6,12.3,15.6,12.3s6.4-8.1,4.9-8.9c-0.6-0.3-0.8-1.5-0.9-2.9c-0.1-1.3,0-2.7,0.1-3.6
				c0-0.6,0.1-0.9,0.1-0.9s-2.2-2.3-5-5.1c-4.9-4.8-11.6-11-11.6-8.6c0,0.1,0,0.3,0.1,0.5C85.1,59.3,80.8,70.9,80.8,70.9z"/>
		</g>
	</g>
	<g>
		<g>
			<path class="st6" d="M86.7,59.3C86.7,59.3,86.7,59.3,86.7,59.3c0,0,0.7,1,1.8,2.4c2.4,3,6.8,7.9,11.8,9.8c-0.1-1.3,0-2.7,0.1-3.6
				c0.5,0,1-0.1,1.5-0.2c-1.4-2.4-3.4-4.9-3.4-4.9l-3.1-0.9L86.7,59.3z"/>
		</g>
	</g>
	<g>
		<g>
			<path class="st0" d="M83.8,53.4c1.3,2.9,2.6,5,3,5.8c0,0,0,0,0,0c0.2,0.5,0.9,1.4,1.8,2.4c2.5,2.7,7.3,6.3,11.9,6.2
				c0.5,0,1-0.1,1.5-0.2c1.9-0.4,4.1-1.3,5.3-3.7c9.6-18.8,2.7-34.2,2.7-34.2s-26.3-7.4-30.4,0.5C76.6,35.9,80.6,46.6,83.8,53.4z"/>
		</g>
	</g>
	<g>
		<g>
			<path class="st7" d="M109.9,29.8c0,0,2.4-0.1,3-4.8c0.6-4.6-0.6-5.8-0.6-5.8s-10.9-4.5-14.8-5.1c-3.9-0.6-13.5-1.2-15.7,1.4
				c0,0-5.5-1.3-6.9,7.8c-2.4,14.4,8,28.3,8,28.3s-0.1-9.4,2-10.6c2.1-1.2,3.9,1.7,3.9,1.7l4.2,0.8c0,0-6.4-13.9,1.3-14.4
				C102.1,28.6,105.5,30.6,109.9,29.8z"/>
		</g>
	</g>
	<g>
		<g>
			<path class="st0" d="M88.7,39c-0.4-4.1-7.9-5.7-7.4-1.4c0.5,4.3,4.2,8.5,5.9,8.4C88.9,45.8,89,42.1,88.7,39z"/>
		</g>
	</g>
	<g>
		<g>
			<path class="st8" d="M95.7,83.2c0,0-1.8,6.6-1.1,8.5c0,0,3.9,1.3,6.8-0.3C101.4,91.4,99.4,86.7,95.7,83.2z"/>
		</g>
	</g>
	<g>
		<g>
			<path class="st9" d="M105.3,91.2c0,0-5.6,4-16.9,0.7l7.4-8.7L105.3,91.2z"/>
		</g>
	</g>
	<g>
		<g>
			<path class="st10" d="M102.4,89.9c0,0-3.7,2.6-11.1,0.5l4.4-7.1L102.4,89.9z"/>
		</g>
	</g>
	<g>
		<g>
			<path class="st11" d="M71.7,191.6c0,0-3.4,3.9-8.9,6.1l-18.4-30.5l9.5-17C54,150.2,71.3,188.6,71.7,191.6z"/>
		</g>
	</g>
	<g>
		<g>
			<path class="st12" d="M72.1,74.7l6.7-3.8c0,0,0.2,3.4,16.9,12.3L91,95.6L72.1,74.7z"/>
		</g>
	</g>
	<g>
		<g>
			<path class="st12" d="M100.2,72.6c0,0-0.3,3.7-4.4,10.6l9.3,11.1l0.7-18L100.2,72.6z"/>
		</g>
	</g>
	<g>
		<path class="st13" d="M67.3,187.2c0,0,2.2,5,5.1,5.8c2.9,0.8,5.6,2.4,6.9,4.2c1.3,1.9-14.1,7.1-14.1,7.1s-6.3-9.1-5.8-13.1
			C59.9,187.2,67.3,187.2,67.3,187.2z"/>
	</g>
	<g>
		<path class="st5" d="M59.1,119.1c0,0-9.5,12.8-8.1,25.1l22.3,46.7c0,0-7.1,5.6-13.1,7.9c0,0-26.1-46.8-29.2-54.3
			C31.1,144.5,41.4,116.2,59.1,119.1z"/>
	</g>
	<g>
		<polygon class="st14" points="80.6,197 60.5,206.2 61.2,213.6 82.7,200.8 		"/>
	</g>
	<g>
		<path class="st4" d="M81.7,365.2c0,0-11.8,2.4-17.9-1l-0.4-5.6c0,0,9.4,1.7,19.3,0.7L81.7,365.2z"/>
	</g>
	<g>
		<path class="st4" d="M115.7,364.2c0,0-4.3,3.6-20.3,0.9l1.7-6.6c0,0,10.2,2.3,19.8,0L115.7,364.2z"/>
	</g>
	<g>
		<path class="st15" d="M140.7,112.1c0,2.7,0.9,21,0.9,21l2.6-11.7L140.7,112.1z"/>
	</g>
</g>
</svg>
