<?xml version="1.0" encoding="utf-8"?>
<!-- Generator: Adobe Illustrator 27.9.1, SVG Export Plug-In . SVG Version: 6.00 Build 0)  -->
<svg version="1.1" id="Capa_1" xmlns="http://www.w3.org/2000/svg" xmlns:xlink="http://www.w3.org/1999/xlink" x="0px" y="0px"
	 viewBox="0 0 450 450" style="enable-background:new 0 0 450 450;" xml:space="preserve">
<style type="text/css">
	.st0{fill:#FFBB08;}
	.st1{fill:#27375D;}
	.st2{fill:#FFFFFF;}
	.st3{fill:#FC0303;}
</style>
<g>
	<path class="st0" d="M325.3,286.8h-36.5c-29.2,0-53-23.9-53-53v-49.3c0-39.2,32.1-71.2,71.2-71.2h0c39.2,0,71.2,32.1,71.2,71.2
		v49.3C378.4,262.9,354.5,286.8,325.3,286.8z"/>
	<g>
		<g>
			<path class="st1" d="M83.2,306.3c-3.2,0-5.8-2.6-5.8-5.8V185.2c0-3.2,2.6-5.8,5.8-5.8c3.2,0,5.8,2.6,5.8,5.8v115.3
				C89,303.7,86.4,306.3,83.2,306.3z"/>
		</g>
		<g>
			<path class="st1" d="M128,235.3c-3.2,0-5.8-2.6-5.8-5.8V89c0-9.1-7.4-16.6-16.6-16.6c-4.4,0-8.6,1.7-11.7,4.9
				C90.7,80.4,89,84.6,89,89v69c0,3.2-2.6,5.8-5.8,5.8c-3.2,0-5.8-2.6-5.8-5.8V89c0-7.5,2.9-14.6,8.3-20c5.3-5.3,12.4-8.3,20-8.3
				c15.6,0,28.2,12.7,28.2,28.2v140.5C133.8,232.7,131.2,235.3,128,235.3z"/>
		</g>
		<g>
			<path class="st1" d="M151.9,61c-3.2,0-5.8-2.6-5.8-5.8V37.8h-16.2c-3.2,0-5.8-2.6-5.8-5.8s2.6-5.8,5.8-5.8h22
				c3.2,0,5.8,2.6,5.8,5.8v23.2C157.7,58.4,155.1,61,151.9,61z"/>
		</g>
		<g>
			<path class="st1" d="M151.9,125h-22.7c-3.2,0-5.8-2.6-5.8-5.8c0-3.2,2.6-5.8,5.8-5.8h16.9V96c0-3.2,2.6-5.8,5.8-5.8
				s5.8,2.6,5.8,5.8v23.2C157.7,122.4,155.1,125,151.9,125z"/>
		</g>
		<g>
			<path class="st1" d="M59.3,61c-3.2,0-5.8-2.6-5.8-5.8V32c0-3.2,2.6-5.8,5.8-5.8h22c3.2,0,5.8,2.6,5.8,5.8s-2.6,5.8-5.8,5.8H65.1
				v17.3C65.1,58.4,62.5,61,59.3,61z"/>
		</g>
		<g>
			<path class="st1" d="M81.2,125H59.3c-3.2,0-5.8-2.6-5.8-5.8V96c0-3.2,2.6-5.8,5.8-5.8s5.8,2.6,5.8,5.8v17.3h16.1
				c3.2,0,5.8,2.6,5.8,5.8C87,122.4,84.4,125,81.2,125z"/>
		</g>
		<g>
			<path class="st1" d="M233.7,423.8c-3.2,0-5.8-2.6-5.8-5.8v-9.6c-0.1-20.2,5.3-40.1,15.7-57.4c7.4-12.5,11.9-26.1,13.5-40.5
				c0.3-3.2,3.2-5.5,6.4-5.2c3.2,0.3,5.5,3.2,5.2,6.4c-1.7,16.1-6.8,31.3-15,45.2c-9.2,15.6-14.1,33.4-14,51.5v9.6
				C239.5,421.2,236.9,423.8,233.7,423.8z"/>
		</g>
		<g>
			<path class="st1" d="M84.2,423.8c-3.2,0-5.8-2.6-5.8-5.8v-18.4c0-18.6-6.9-36.4-19.5-50.1C46.8,336.3,40.1,319,40.1,301v-39.8
				c0-13.9,6.6-27.3,17.6-35.7c0.8-0.6,1.7-1.2,2.2-1.5l16.6-10.6c2.7-1.7,6.3-0.9,8,1.8c1.7,2.7,0.9,6.3-1.8,8l-16.6,10.6
				c-0.6,0.4-1,0.7-1.4,0.9c-8.2,6.3-13.1,16.2-13.1,26.5V301c0,15.1,5.6,29.5,15.8,40.7c14.5,15.9,22.5,36.4,22.5,57.9V418
				C90.1,421.2,87.4,423.8,84.2,423.8z"/>
		</g>
		<g>
			<path class="st1" d="M174,250c-3.2,0-5.8-2.6-5.8-5.8v-64c0-15.9,12.9-28.8,28.8-28.8c4.3,0,8.5,0.9,12.4,2.8
				c2.9,1.4,4.1,4.9,2.8,7.8c-1.4,2.9-4.9,4.1-7.8,2.8c-2.3-1.1-4.8-1.7-7.4-1.7c-9.5,0-17.2,7.7-17.2,17.2v64
				C179.8,247.4,177.2,250,174,250z"/>
		</g>
		<g>
			<path class="st1" d="M174,186c-3.2,0-5.8-2.6-5.8-5.8v-14.7c0-9.5-7.7-17.2-17.2-17.2c-9.5,0-17.2,7.7-17.2,17.2
				c0,3.2-2.6,5.8-5.8,5.8c-3.2,0-5.8-2.6-5.8-5.8c0-15.9,12.9-28.8,28.8-28.8c15.9,0,28.8,12.9,28.8,28.8v14.7
				C179.8,183.4,177.2,186,174,186z"/>
		</g>
		<g>
			<path class="st1" d="M327.9,314.8H216.4c-7.7,0-14-6.3-14-14v-16c0-3.2,2.6-5.8,5.8-5.8s5.8,2.6,5.8,5.8v16
				c0,1.3,1.1,2.4,2.4,2.4h111.6c3.2,0,5.8,2.6,5.8,5.8S331.2,314.8,327.9,314.8z"/>
		</g>
		<g>
			<path class="st1" d="M208.2,263.4c-3.2,0-5.8-2.6-5.8-5.8V99.2c0-7.7,6.3-14,14-14h179.5c7.7,0,14,6.3,14,14v16.1
				c0,3.2-2.6,5.8-5.8,5.8c-3.2,0-5.8-2.6-5.8-5.8V99.2c0-1.3-1.1-2.4-2.4-2.4H216.4c-1.3,0-2.4,1.1-2.4,2.4v158.4
				C214,260.8,211.4,263.4,208.2,263.4z"/>
		</g>
		<g>
			<path class="st1" d="M395.9,314.8h-40.8c-3.2,0-5.8-2.6-5.8-5.8s2.6-5.8,5.8-5.8h40.8c1.3,0,2.4-1.1,2.4-2.4V142.5
				c0-3.2,2.6-5.8,5.8-5.8c3.2,0,5.8,2.6,5.8,5.8v158.3C409.9,308.5,403.6,314.8,395.9,314.8z"/>
		</g>
		<g>
			<path class="st1" d="M277.1,279.8c-13.9,0-27.8-5.3-38.4-15.9c-2.3-2.3-2.3-6,0-8.2c2.3-2.3,6-2.3,8.2,0
				c16.6,16.6,43.6,16.6,60.1,0.1c16-16,16.6-41.7,1.4-58.5c-2.2-2.4-2-6.1,0.4-8.2c2.4-2.2,6.1-2,8.2,0.4
				c19.4,21.4,18.6,54.2-1.8,74.6C304.8,274.5,290.9,279.8,277.1,279.8z"/>
		</g>
		<g>
			<path class="st1" d="M365.4,270.7c-0.8,0-1.6-0.2-2.4-0.5c-2.9-1.3-4.3-4.7-3-7.7c15.3-34.6,7.8-74.2-19-101.1
				c-8-8-18.7-12.5-30.1-12.5c0,0,0,0,0,0c-11.3,0-22,4.4-30,12.4c-16.6,16.6-16.5,43.5,0.1,60.1c2.3,2.3,2.3,6,0,8.2
				c-2.3,2.3-6,2.3-8.2,0c-21.1-21.1-21.2-55.5-0.1-76.6c10.2-10.2,23.8-15.8,38.2-15.8c0,0,0,0,0.1,0c14.5,0,28.1,5.7,38.3,15.9
				c15,14.9,24.8,33.8,28.5,54.5c3.6,20.2,1.2,40.8-7.1,59.5C369.8,269.4,367.7,270.7,365.4,270.7z"/>
		</g>
		<g>
			<path class="st1" d="M324,286.8c-1.6,0-3.3-0.7-4.4-2c-2.1-2.4-1.8-6.1,0.7-8.2c1.4-1.2,2.7-2.4,3.9-3.6
				c10.8-10.8,17.4-24.6,19.1-39.7c0.4-3.2,3.2-5.5,6.4-5.2c3.2,0.4,5.5,3.2,5.2,6.4c-1.9,17.6-9.9,34.2-22.4,46.7
				c-1.5,1.5-3,2.9-4.6,4.3C326.7,286.3,325.4,286.8,324,286.8z"/>
		</g>
		<g>
			<path class="st1" d="M277,255.6c-7.7,0-15.4-2.9-21.2-8.8c-30.6-30.6-30.6-80.3-0.1-110.8c30.5-30.5,80.2-30.5,110.8,0.1
				c2.3,2.3,2.3,6,0,8.2c-2.3,2.3-6,2.3-8.2,0c-26-26-68.3-26.1-94.3-0.1c-26,26-25.9,68.3,0.1,94.3c7.2,7.2,18.8,7.2,25.9,0
				c7.1-7.1,7.1-18.8,0-25.9c-5.7-5.7-8.8-13.2-8.8-21.2c0-8,3.1-15.5,8.8-21.2c5.7-5.7,13.2-8.8,21.2-8.8c0,0,0,0,0,0
				c8,0,15.5,3.1,21.2,8.8c9,9,15.8,20.2,19.5,32.2c1,3.1-0.8,6.3-3.8,7.3c-3.1,1-6.3-0.8-7.3-3.8c-3.2-10.3-8.9-19.8-16.6-27.4
				c-3.5-3.5-8.1-5.4-13-5.4c0,0,0,0,0,0c-4.9,0-9.5,1.9-12.9,5.4c-3.5,3.5-5.4,8.1-5.4,13c0,4.9,1.9,9.5,5.4,13
				c11.7,11.7,11.7,30.7,0,42.4C292.4,252.7,284.7,255.6,277,255.6z"/>
		</g>
	</g>
	<polygon class="st2" points="96.3,72.1 86.5,60 87.6,55.9 91.4,54.8 106.2,66.6 119.9,56.3 123.2,55.6 125.1,61.3 113.5,72.1 
		114.2,77.4 124.5,87.9 123.6,93.5 116.5,92.7 105.3,82.3 93.2,92.2 87,92.3 88.2,82.7 97.7,73.8 	"/>
	<g>
		<path class="st3" d="M105.8,118c-24.6,0-44.5-19.6-44.5-43.7c0-24.1,20-43.7,44.5-43.7c24.6,0,44.5,19.6,44.5,43.7
			C150.4,98.4,130.4,118,105.8,118L105.8,118z M105.8,37.3c-20.8,0-37.8,16.6-37.8,37.1c0,20.4,16.9,37.1,37.8,37.1
			s37.8-16.6,37.8-37.1C143.6,53.9,126.7,37.3,105.8,37.3L105.8,37.3z"/>
		<path class="st3" d="M91.9,96.1c-2.1,0-4.3-0.8-5.9-2.4c-3.3-3.2-3.3-8.4,0-11.6l8-7.9l-8-7.9c-1.6-1.5-2.4-3.6-2.4-5.8
			c0-2.2,0.9-4.2,2.4-5.8c3.1-3.1,8.6-3.1,11.8,0l8,7.9l8-7.9c3.1-3.1,8.6-3.1,11.8,0c3.3,3.2,3.3,8.4,0,11.6l-8,7.9l8,7.9
			c3.3,3.2,3.3,8.4,0,11.6c-3.3,3.2-8.5,3.2-11.8,0l-8-7.9l-8,7.9C96.2,95.4,94.1,96.1,91.9,96.1L91.9,96.1z M89.8,57.3
			c-0.2,0-0.6,0.1-0.9,0.4c-0.3,0.3-0.4,0.6-0.4,0.9c0,0.2,0.1,0.6,0.4,0.9l12.2,12c0.8,0.8,1.2,1.8,1.2,2.9c0,1.1-0.4,2.1-1.2,2.9
			l-12.2,12c-0.5,0.5-0.5,1.3,0,1.8c0.5,0.5,1.3,0.5,1.8,0l12.2-12c1.6-1.6,4.3-1.6,5.9,0L121,91c0.5,0.5,1.3,0.5,1.8,0
			c0.5-0.5,0.5-1.3,0-1.8l-12.2-12c-0.8-0.8-1.2-1.8-1.2-2.9s0.4-2.1,1.2-2.9l12.2-12c0.5-0.5,0.5-1.3,0-1.8c-0.6-0.6-1.2-0.6-1.8,0
			l-12.2,12c-1.6,1.6-4.3,1.6-5.9,0l-12.2-12C90.4,57.4,90,57.3,89.8,57.3L89.8,57.3z"/>
	</g>
</g>
</svg>
