<?xml version="1.0" encoding="utf-8"?>
<!-- Generator: Adobe Illustrator 27.9.1, SVG Export Plug-In . SVG Version: 6.00 Build 0)  -->
<svg version="1.1" id="Layer_1" xmlns="http://www.w3.org/2000/svg" xmlns:xlink="http://www.w3.org/1999/xlink" x="0px" y="0px"
	 viewBox="0 0 429 451" style="enable-background:new 0 0 429 451;" xml:space="preserve">
<style type="text/css">
	.st0{fill-rule:evenodd;clip-rule:evenodd;fill:#F6B446;}
	.st1{fill-rule:evenodd;clip-rule:evenodd;fill:#FFBB08;}
	.st2{fill:#F0D4C9;}
	.st3{fill-rule:evenodd;clip-rule:evenodd;fill:#FFFCFA;}
	.st4{fill-rule:evenodd;clip-rule:evenodd;fill:#0E9669;}
	.st5{fill-rule:evenodd;clip-rule:evenodd;fill:#F0D4C9;}
	.st6{fill-rule:evenodd;clip-rule:evenodd;fill:#36A5FF;}
	.st7{fill:#2E7296;}
	.st8{fill:#FFFCFA;}
	.st9{fill-rule:evenodd;clip-rule:evenodd;fill:#E8B45A;}
	.st10{fill:#E59F03;}
	.st11{fill-rule:evenodd;clip-rule:evenodd;fill:#FCF6E8;}
	.st12{fill-rule:evenodd;clip-rule:evenodd;fill:#24A8C9;}
	.st13{fill-rule:evenodd;clip-rule:evenodd;fill:#FFFFFF;}
	.st14{fill:#D4D2D3;}
	.st15{fill:#27375D;}
</style>
<g>
	<g>
		<path class="st0" d="M132.7,338.2c0.3,3.4-1,3.6-3.4,3.6h-77c-2.3,0-3.6-0.1-3.4-3.6C53.3,287.5,128.5,287.5,132.7,338.2z"/>
		<path class="st1" d="M123.3,341.7H52.4c-2.3,0-3.6-0.1-3.4-3.6c2-24,20-36.7,38.8-37.9c18.8,1.2,36.8,13.9,38.8,37.9
			C127,341.6,125.6,341.7,123.3,341.7z"/>
		<circle class="st2" cx="90.9" cy="276.3" r="23.5"/>
		<path class="st3" d="M87.9,299.5c-11.5-1.5-20.4-11.3-20.4-23.3c0-11.9,8.9-21.8,20.4-23.3c11.5,1.5,20.4,11.3,20.4,23.3
			C108.3,288.2,99.4,298.1,87.9,299.5z"/>
	</g>
	<g>
		<path class="st4" d="M256.3,105.3c0.3,3.4-1,3.6-3.4,3.6h-77c-2.3,0-3.6-0.1-3.4-3.6C176.9,54.7,252.1,54.7,256.3,105.3
			L256.3,105.3z"/>
		<path class="st1" d="M246.9,108.9H176c-2.3,0-3.6-0.1-3.4-3.6c2-24,20-36.7,38.8-37.9c18.8,1.2,36.8,13.9,38.8,37.9
			C250.5,108.8,249.2,108.9,246.9,108.9z"/>
		<path class="st5" d="M214.5,66.9c12.9,0,23.5-10.5,23.5-23.5S227.4,20,214.5,20S191,30.5,191,43.5S201.6,66.9,214.5,66.9
			L214.5,66.9z"/>
		<path class="st3" d="M211.4,66.7C199.9,65.2,191,55.4,191,43.5s8.9-21.8,20.4-23.3c11.5,1.5,20.4,11.3,20.4,23.3
			S223,65.2,211.4,66.7z"/>
	</g>
	<g>
		<path class="st6" d="M379.9,338.3c0.3,3.4-1,3.6-3.4,3.6h-77c-2.3,0-3.6-0.1-3.4-3.6C300.5,287.6,375.7,287.6,379.9,338.3
			L379.9,338.3z"/>
		<path class="st1" d="M370.5,341.8h-70.9c-2.3,0-3.6-0.1-3.4-3.6c2-24,20-36.7,38.8-37.9c18.8,1.2,36.8,13.9,38.8,37.9
			C374.2,341.7,372.8,341.8,370.5,341.8L370.5,341.8z"/>
		<circle class="st2" cx="338.1" cy="276.4" r="23.5"/>
		<path class="st3" d="M335.1,299.6c-11.5-1.5-20.4-11.3-20.4-23.3s8.9-21.8,20.4-23.3c11.5,1.5,20.4,11.3,20.4,23.3
			S346.6,298.1,335.1,299.6z"/>
	</g>
	<g>
		<path class="st7" d="M194.4,304h40.2v41.5h-40.2V304z"/>
		<path class="st8" d="M194.4,304h34.3v41.5h-34.3V304z"/>
		<path class="st9" d="M186.1,353.7v54.6c0,12.5,12.8,22.7,28.5,22.7s28.5-10.2,28.5-22.7v-54.6c0-8.8-1.9-8.2-8.7-8.2h-40.6
			C187.3,345.5,186.1,345.7,186.1,353.7L186.1,353.7z"/>
		<path class="st1" d="M186.1,353.7v54.6c0,11.6,10.9,21.2,25,22.6c14.1-1.4,25.1-11,25.1-22.6v-54.6c0-7-1.2-8.1-5.1-8.2h-37.3
			C187.3,345.5,186.1,345.7,186.1,353.7L186.1,353.7z"/>
		<circle class="st10" cx="214.6" cy="216.8" r="89.3"/>
		<path class="st11" d="M147.8,157.5c-14,15.8-22.6,36.6-22.6,59.4c0,49.4,40,89.4,89.4,89.4c22.8,0,43.6-8.5,59.4-22.6
			c14-15.8,22.6-36.6,22.6-59.4c0-49.4-40-89.4-89.4-89.4C184.4,135,163.6,143.5,147.8,157.5z"/>
		<circle class="st2" cx="214.5" cy="216.9" r="61.8"/>
		<path class="st3" d="M214.6,155c-16,0-30.5,6.1-41.5,16c-9.9,11-16,25.5-16,41.5c0,34.2,27.7,61.9,61.9,61.9
			c16,0,30.5-6.1,41.5-16c9.9-11,16-25.5,16-41.5C276.4,182.7,248.7,155,214.6,155L214.6,155z"/>
	</g>
	<path class="st12" d="M170.8,216.8c21.6-28.1,65.8-28.1,87.5,0c1.8,2.4,0.9,4.7,0.2,5.6c-21.6,28.4-66.3,28.4-87.9,0
		C169.9,221.5,169,219.2,170.8,216.8L170.8,216.8z"/>
	<path class="st13" d="M170.8,216.8c10.2-13.2,25.3-20.2,40.8-21c15.5,0.8,30.6,7.8,40.8,21c1.8,2.4,0.9,4.7,0.2,5.6
		c-10.2,13.4-25.4,20.5-41,21.2c-15.6-0.8-30.8-7.9-41-21.2C169.9,221.5,169,219.2,170.8,216.8L170.8,216.8z"/>
	<ellipse class="st14" cx="214.5" cy="219.7" rx="19.8" ry="19.6"/>
	<path class="st13" d="M213.2,239.3c10.3-0.7,18.4-9.2,18.4-19.6s-8.1-18.9-18.4-19.6c-10.3,0.7-18.4,9.2-18.4,19.6
		S202.9,238.6,213.2,239.3z"/>
	<path class="st15" d="M263,213.3C263,213.2,263,213.2,263,213.3c-11.5-14.9-29.2-23.5-48.5-23.5s-37,8.5-48.5,23.4
		c0,0,0,0.1-0.1,0.1c-3.4,4.5-2.4,9.8-0.2,12.7c11.4,15.1,29.2,23.7,48.7,23.7s37.3-8.6,48.7-23.7C265.5,223,266.4,217.8,263,213.3
		L263,213.3z M214.5,233.2c-7.5,0-13.6-6-13.6-13.5c0-7.4,6.1-13.5,13.6-13.5c7.5,0,13.6,6,13.6,13.5S222,233.2,214.5,233.2z
		 M176.1,219.7c4.5-5.6,10.1-10,16.4-13c-2.3,3.8-3.6,8.3-3.6,13c0,4.8,1.3,9.2,3.6,13C186.2,229.7,180.6,225.3,176.1,219.7
		L176.1,219.7z M236.5,232.8c2.3-3.8,3.6-8.3,3.6-13c0-4.8-1.3-9.2-3.6-13c6.3,3.1,11.9,7.5,16.4,13
		C248.4,225.3,242.8,229.7,236.5,232.8L236.5,232.8z M214.5,148.5c-39.3,0-71.2,31.9-71.2,71.2s31.9,71.2,71.2,71.2
		s71.2-31.9,71.2-71.2S253.7,148.5,214.5,148.5z M214.5,278.9c-32.6,0-59.2-26.6-59.2-59.2s26.6-59.2,59.2-59.2s59.2,26.6,59.2,59.2
		S247.1,278.9,214.5,278.9z M356.7,295.9c5.8-5.3,9.5-13,9.5-21.5c0-8.3-3.5-15.8-9.1-21.1c2.6-10.9,3.9-22.2,3.9-33.5
		c0-33.5-11-65-31.8-91.1c-19.7-24.8-47.3-42.8-77.8-50.7c-4.6-5.6-10.4-10.1-17.1-13.1c5.8-5.3,9.5-13,9.5-21.5
		c0-16.1-13.1-29.2-29.2-29.2s-29.2,13.1-29.2,29.2c0,8.5,3.7,16.2,9.5,21.5c-6.6,3-12.5,7.5-17,13.1c-30.6,7.9-58.2,25.8-78,50.7
		C79,154.7,68,186.2,68,219.7c0,11.3,1.3,22.6,3.9,33.5c-5.6,5.3-9,12.8-9,21.1c0,8.5,3.7,16.2,9.5,21.5
		c-16.4,7.5-27.9,24.1-27.9,43.3c0,3.3,2.7,6,6,6h83.2c1.2,0,2.4-0.4,3.4-1c13.1,8.2,27.2,14.1,42.1,17.8v45.6
		c0,16.2,15.9,29.5,35.4,29.5c9.2,0,17.9-2.9,24.5-8.2c7-5.6,10.9-13.2,10.9-21.3v-45.6c14.9-3.7,29-9.7,42-17.8
		c1,0.7,2.2,1.1,3.4,1.1h83.2c3.3,0,6-2.7,6-6C384.5,320,373.1,303.4,356.7,295.9L356.7,295.9z M336.9,291.6
		C336.9,291.6,336.9,291.6,336.9,291.6c-9.5,0-17.2-7.7-17.2-17.2s7.7-17.2,17.2-17.2s17.2,7.7,17.2,17.2
		C354.2,283.9,346.5,291.6,336.9,291.6C337,291.6,337,291.6,336.9,291.6L336.9,291.6z M197.3,43.2c0-9.5,7.7-17.2,17.2-17.2
		c9.5,0,17.2,7.7,17.2,17.2s-7.7,17.2-17.2,17.2c0,0,0,0,0,0s0,0,0,0C205,60.5,197.3,52.7,197.3,43.2z M214.5,72.5L214.5,72.5
		C214.5,72.5,214.6,72.5,214.5,72.5c17.6,0,32.3,12.8,35.1,29.6h-70.2C182.3,85.3,196.9,72.5,214.5,72.5L214.5,72.5z M74.8,274.3
		c0-9.5,7.7-17.2,17.2-17.2s17.2,7.7,17.2,17.2s-7.7,17.2-17.2,17.2c0,0,0,0,0,0c0,0,0,0,0,0C82.5,291.5,74.8,283.8,74.8,274.3
		L74.8,274.3z M57,333.1c2.9-16.8,17.5-29.6,35.1-29.6h0c0,0,0,0,0,0c17.6,0,32.2,12.8,35.1,29.6H57L57,333.1z M214.5,306
		c-47.5,0-86.2-38.7-86.2-86.2s38.7-86.2,86.2-86.2s86.2,38.7,86.2,86.2S262,306,214.5,306L214.5,306z M214.5,317.9
		c5,0,10-0.4,14.8-1.1v20h-29.5v-19.9C204.6,317.6,209.5,317.9,214.5,317.9L214.5,317.9z M237.9,407.5c0,4.4-2.3,8.6-6.4,11.9
		c-4.5,3.6-10.6,5.6-17,5.6c-12.7,0-23.4-8-23.4-17.5v-56.3c0-1.1,0-1.9,0.1-2.5c0.5,0,1.1,0,1.6,0l43.2,0c0.5,0,1.2,0,1.8,0
		c0,0.6,0.1,1.4,0.1,2.5V407.5L237.9,407.5z M241.3,337.1v-22.9c41.2-11.7,71.4-49.6,71.4-94.5c0-54.1-44.1-98.2-98.2-98.2
		s-98.2,44.1-98.2,98.2c0,44.9,30.3,82.9,71.5,94.5V337c-1.9,0.3-3.8,1-5.4,2.6c-2.6,2.6-3.1,6.2-3.2,9.9
		c-14.4-3.9-27.9-10.1-40.2-18.5c-2.7-15.7-13.1-28.8-27.1-35.2c5.8-5.3,9.5-13,9.5-21.5c0-16.1-13.1-29.2-29.2-29.2
		c-3.3,0-6.4,0.6-9.4,1.6c-1.8-8.8-2.7-17.8-2.7-26.9c0-57.6,36.2-108,89.5-126.8c-1.6,4.8-2.5,9.8-2.5,15.1c0,3.3,2.7,6,6,6h83.2
		c3.3,0,6-2.7,6-6c0-5.3-0.9-10.3-2.5-15.1c53.2,18.9,89.3,69.2,89.3,126.7c0,9.1-0.9,18.1-2.7,26.9c-2.9-1-6.1-1.5-9.3-1.5
		c-16.1,0-29.2,13.1-29.2,29.2c0,8.5,3.7,16.2,9.5,21.5c-14,6.4-24.4,19.4-27.1,35.1c-12.4,8.4-25.8,14.6-40.2,18.5
		c-0.1-3.8-0.6-7.4-3.3-10C245,338.1,243.2,337.4,241.3,337.1L241.3,337.1z M301.9,333.2c2.9-16.8,17.5-29.6,35.1-29.6h0
		c0,0,0,0,0,0c17.6,0,32.2,12.8,35.1,29.6H301.9L301.9,333.2z"/>
</g>
</svg>
