<?xml version="1.0" encoding="utf-8"?>
<!-- Generator: Adobe Illustrator 27.9.0, SVG Export Plug-In . SVG Version: 6.00 Build 0)  -->
<svg version="1.1" id="svg4011" xmlns:svg="http://www.w3.org/2000/svg"
	 xmlns="http://www.w3.org/2000/svg" xmlns:xlink="http://www.w3.org/1999/xlink" x="0px" y="0px" viewBox="0 0 207 246.8"
	 style="enable-background:new 0 0 207 246.8;" xml:space="preserve">
<style type="text/css">
	.st0{fill:#0B1238;}
	.st1{fill:#969696;}
	.st2{fill:#F5B29C;}
	.st3{fill:#27375D;}
	.st4{fill:#B9B3C0;}
	.st5{fill:#FFFFFF;}
	.st6{fill:#505B7A;}
	.st7{fill:#172744;}
	.st8{fill:#848484;}
</style>
<g>
	<path class="st0" d="M86.4,40.6c-4,1.3-12.1,7.7-9.4,13.1c1.2,2.5,3.6,0,5.3,1.3c1.5,1.2-1.5,3-2.2,4.3c-3.5,5.6-0.1,8.9,4.9,11
		c5.2,2.2,6-0.1,10.3-1.9c6.1-2.4,12.4-0.8,18.7,0.2c5.6,0.9,11.4,2.5,17.1,2.3c5.2-0.2,4.9-2.1,4.1-6.5c-0.1-0.6-0.8-1.1-1.2-1.4
		c8.8,1.1,12.1-10.1,8.7-16.7c-5.3-10.4-17.5-11.5-24.3-20.1L86.4,40.6z"/>
	<path class="st1" d="M54,172c39.8,7.2,62.3,6.8,82.6,2.5c20.2-4.2,38.5-4.6,44.1,7.6c5.5,12.2-21.7,30.4-50.6,27.8
		c-18-0.2-75.7-3.7-87-10.5C23.4,187.6,14.1,164.9,54,172z"/>
	<path class="st2" d="M114.9,59.2c1.8,3.3-0.7,10.7,0.7,14.1c1.6,3.7,4.6,7.4,7.8,9.5c3.2,2.1,7,4.6,4.6,8.3
		c-2.9,4.3-24.7,18.8-29.6,16.2c-8.7-4.5-17.1-16.7-4.4-24.7c3.3-2.1,4.9-6,6-9.7c1-3.5-0.6-12.4,1.9-14.3c1.3-1,10.4-1.4,11.8-0.7
		C114.2,58.3,114.6,58.7,114.9,59.2z"/>
	<path class="st3" d="M125.3,85.7c0,0-8.6,4.4-13.1,5.4c-4.2,0.9-8.6,0.8-12.8-0.3c-4.3-1.1-9.6-6.1-8-6.1c1.6,0-27.1-3.6-32.4,11.7
		c-5.4,15.3-11.2,49.8-13.3,58.6c-0.8,3.3-2.7,7.2-3,10.6c-0.6,6.9-0.8,5.6,5.2,9.2c6.4,3.7,13.5,2.2,20.2,4.4
		c6.3,2.1,19.8,0.3,19.8,0.3s24.7,5.4,37,1.6c11.4-3.6,40.5-0.1,37.6-17.9c-3-18.6-9.8-36.3-10.4-55.3
		C151.6,92.2,125.3,85.7,125.3,85.7z"/>
	<path class="st4" d="M116.5,75.1c-0.3-0.6-0.6-1.1-0.9-1.7c-1.5-3.4,1-10.9-0.7-14.1c-0.3-0.5-0.6-0.9-1.1-1.2
		c-1.4-0.8-10.6-0.3-11.8,0.7C99.4,60.6,101,69.5,100,73c-0.2,0.6-0.4,1.3-0.6,1.9C104.3,78.6,111.3,79.2,116.5,75.1z"/>
	<path class="st2" d="M92.9,62.3c-0.4-0.8-0.6-1.6-0.9-2.5c-2.9-10.8,3.4-24.6,10.8-32.1c4.9-5,13.7-7.4,19.8-3.1
		c6.6,4.7,2.9,13.4,2.4,20.4c-0.8,11.2,2.1,16-7.2,24C109.5,76.2,97,71.9,92.9,62.3z"/>
	<path class="st0" d="M125.9,47.5c-3-8.8-9.2-17.2-18.7-10c-4.1,3.1-7.3,9.9-12.4,11.4c-7.1,2.1-8.4-3.6-7.3-9.4
		c2.3-12.6,11.7-25.8,25.5-23.7c12.6,2,21.6,19.5,13.5,30.5L125.9,47.5z"/>
	<path class="st2" d="M64.3,161.5c-1.8,0-3.9,1.5-5.3,2.5c1.9,2.6,2.2,7,4.2,9.3c1.5,1.7,0.6,1.4,3.1,0c2.1-1.2,3.4-2.3,5.8-2.9
		c3.1-0.8,6.3-1.8,9.5-2c3-0.2,5.5,0.9,8.2,1c-2.2-2.4-4.9-3.5-8.1-3.2c3.2,0.7,6.6-0.1,9.9,0.4c2.2,0.3,4.1,2,6.3,2.1
		c-0.4-3.3-8.3-5.9-11.3-6c3.7-1.5,8,0,11.3,1c-1.7-5.1-10.6-7.5-15.2-8.1c-6.8-1-14.4,1.3-18.8,6.4L64.3,161.5z"/>
	<path class="st2" d="M144.8,164.7c1.8,0,3.9,1.5,5.3,2.5c-1.9,2.6-2.2,7-4.2,9.3c-1.5,1.7-0.6,1.4-3.1,0c-2.1-1.2-3.4-2.3-5.8-2.9
		c-3.1-0.8-6.3-1.8-9.5-2c-3-0.2-5.5,0.9-8.2,1c2.2-2.4,4.9-3.5,8.1-3.2c-3.2,0.7-6.6-0.1-9.9,0.4c-2.2,0.3-4.1,2-6.3,2.1
		c0.4-3.3,8.3-5.9,11.3-6c-3.7-1.5-8,0-11.3,1c1.7-5.1,10.6-7.5,15.2-8.1c6.8-1,14.4,1.3,18.7,6.4L144.8,164.7z"/>
	<path class="st5" d="M104.6,184.6h34.2l10.7-46.4c0.4-2,0-4.1-1.1-5.8c-1.2-1.6-3-2.6-4.9-2.6H65.7c-1.9,0-3.7,0.9-4.9,2.6
		c-1.2,1.6-1.6,3.8-1.1,5.8l10.7,46.4H104.6z"/>
	<path class="st6" d="M96.7,158.5c0,2.7,3.5,4.8,7.9,4.8c4.3,0,7.9-2.2,7.9-4.8c0-2.7-3.5-4.8-7.9-4.8
		C100.2,153.6,96.7,155.8,96.7,158.5z"/>
	<path class="st2" d="M124,199.4l27.6,5.8c0,0,2.2,14.6-2.7,21.7c-4.8,7.1-2-10.7-8.9-12.8c-6.9-2.1-16.1-4.2-16.1-4.2V199.4z"/>
	<path class="st7" d="M144.6,220.9c2,6.2,1.6,14.4,5.3,8.8c5.3-8,2.9-24.4,2.9-24.4l-6.4-1.4C146.4,203.9,150.8,213.7,144.6,220.9z"
		/>
	<path class="st8" d="M32.3,171.1c15.7-4.8,90.7,27.3,98.6,29.7c-0.4,4.5,0.6,6.8,0,11.4c-0.9-0.1-59.1,3.5-79.4-5.1
		C31.1,198.4,16.6,175.9,32.3,171.1z"/>
</g>
</svg>
