<?xml version="1.0" encoding="utf-8"?>
<!-- Generator: Adobe Illustrator 27.9.0, SVG Export Plug-In . SVG Version: 6.00 Build 0)  -->
<svg version="1.1" id="svg4011" xmlns:svg="http://www.w3.org/2000/svg"
	 xmlns="http://www.w3.org/2000/svg" xmlns:xlink="http://www.w3.org/1999/xlink" x="0px" y="0px" viewBox="0 0 220 220"
	 style="enable-background:new 0 0 220 220;" xml:space="preserve">
<style type="text/css">
	.st0{fill:#FCF7ED;}
	.st1{fill:#26375D;}
	.st2{fill:#FAB716;}
	.st3{fill:#EFA90C;}
	.st4{fill:#F2F2F2;}
	.st5{fill:#FFFFFF;}
	.st6{fill:#6A647F;}
</style>
<g>
	<polygon class="st0" points="136.4,191.1 132.3,191.1 132.3,194.8 133,195.5 198.6,195.2 198.6,191.1 194.2,190.8 194,144.9 
		181.1,144.2 180.4,144.2 179.7,137.7 175,137.2 173.8,133.1 157.4,132.5 156.6,133.5 156.4,137 151.2,137.6 150.9,144.3 
		136.6,144.7 	"/>
	<g>
		<path id="_x31_7_00000016761686165051148980000005119500269369946526_" class="st1" d="M43.8,108.3c-1.5,0-2.6-1.2-2.6-2.6
			c0-1.5,1.2-2.6,2.6-2.6h27.7c1.5,0,2.6,1.2,2.6,2.6c0,1.5-1.2,2.6-2.6,2.6H43.8z"/>
		<path id="_x31_6_00000043454854052354642660000004763103481324266888_" class="st1" d="M65.7,116.2c-1,1.1-2.6,1.2-3.7,0.2
			c-1.1-1-1.2-2.6-0.2-3.7l6.2-7l-6.2-7c-1-1.1-0.9-2.8,0.2-3.7c1.1-1,2.8-0.9,3.7,0.2l7.8,8.7c0.9,1,0.9,2.5,0,3.5L65.7,116.2z"/>
		<path id="_x31_5_00000173133482700328155840000012087472883632596888_" class="st1" d="M177.3,103.1c1.5,0,2.6,1.2,2.6,2.6
			c0,1.5-1.2,2.6-2.6,2.6h-27.7c-1.5,0-2.6-1.2-2.6-2.6c0-1.5,1.2-2.6,2.6-2.6H177.3z"/>
		<path id="_x31_4_00000031193449253664705900000002858276806443164840_" class="st1" d="M159.3,112.7c1,1.1,0.9,2.8-0.2,3.7
			c-1.1,1-2.8,0.9-3.7-0.2l-7.8-8.7c-0.9-1-0.9-2.5,0-3.5l7.8-8.7c1-1.1,2.6-1.2,3.7-0.2c1.1,1,1.2,2.6,0.2,3.7l-6.2,7L159.3,112.7z
			"/>
		<path id="_x31_3_00000011728140997413078980000002773737976857229478_" class="st1" d="M113.2,169.2c0,1.5-1.2,2.6-2.6,2.6
			c-1.5,0-2.6-1.2-2.6-2.6v-27.7c0-1.5,1.2-2.6,2.6-2.6c1.5,0,2.6,1.2,2.6,2.6V169.2z"/>
		<path id="_x31_2_00000042719836825559301070000012041509887827239557_" class="st1" d="M121.1,147.3c1.1,1,1.2,2.6,0.2,3.7
			c-1,1.1-2.6,1.2-3.7,0.2l-7-6.2l-7,6.2c-1.1,1-2.8,0.9-3.7-0.2c-1-1.1-0.9-2.8,0.2-3.7l8.7-7.8c1-0.9,2.5-0.9,3.5,0L121.1,147.3z"
			/>
		<path id="_x31_1_00000166650114544621127540000000331534442738657725_" class="st1" d="M107.9,42.2c0-1.5,1.2-2.6,2.6-2.6
			c1.5,0,2.6,1.2,2.6,2.6v27.7c0,1.5-1.2,2.6-2.6,2.6c-1.5,0-2.6-1.2-2.6-2.6L107.9,42.2z"/>
		<path id="_x31_0_00000031920265344857927140000003893443774784211590_" class="st1" d="M117.6,60.1c1.1-1,2.8-0.9,3.7,0.2
			c1,1.1,0.9,2.8-0.2,3.7l-8.8,7.8c-1,0.9-2.5,0.9-3.5,0l-8.7-7.8c-1.1-1-1.2-2.6-0.2-3.7c1-1.1,2.6-1.2,3.7-0.2l7,6.2L117.6,60.1z"
			/>
		<path id="_x39__00000142141349139787944250000005809000150176096657_" class="st1" d="M96.3,83h28.5c2.3,0,4.4,0.9,5.9,2.5l0,0
			c1.5,1.5,2.5,3.6,2.5,5.9v28.5c0,2.3-1,4.4-2.5,5.9l0,0l0,0l0,0c-1.5,1.5-3.6,2.5-5.9,2.5H96.3c-2.3,0-4.4-0.9-5.9-2.5
			c-0.1-0.1-0.1-0.1-0.2-0.2c-1.4-1.5-2.3-3.5-2.3-5.8V91.5c0-2.3,0.9-4.4,2.5-5.9C91.9,84,94,83,96.3,83L96.3,83z M124.8,88.3H96.3
			c-0.9,0-1.6,0.4-2.2,0.9c-0.6,0.6-0.9,1.4-0.9,2.2v28.5c0,0.8,0.3,1.6,0.8,2.1c0,0,0.1,0.1,0.1,0.1c0.6,0.6,1.4,0.9,2.2,0.9h28.5
			c0.9,0,1.7-0.3,2.2-0.9l0,0c0.6-0.6,0.9-1.3,0.9-2.2V91.5c0-0.9-0.3-1.6-0.9-2.2C126.5,88.7,125.7,88.3,124.8,88.3L124.8,88.3z"/>
		<path id="_x32__00000048483686031679027790000003260665015792187545_" class="st1" d="M107.9,96.6c0-1.5,1.2-2.6,2.6-2.6
			c1.5,0,2.6,1.2,2.6,2.6v18.1c0,1.5-1.2,2.6-2.6,2.6c-1.5,0-2.6-1.2-2.6-2.6L107.9,96.6z"/>
		<path id="_x31__00000052803898867796546540000018031458074680197275_" class="st1" d="M119.6,103.1c1.5,0,2.6,1.2,2.6,2.6
			c0,1.5-1.2,2.6-2.6,2.6h-18.1c-1.5,0-2.6-1.2-2.6-2.6c0-1.5,1.2-2.6,2.6-2.6H119.6z"/>
		<g>
			<path class="st2" d="M78.2,47.4l0.3,4.2h-6.8l0.3-4.2H78.2z"/>
			<path class="st2" d="M62.6,43.3l0.4,4.2H56l0.4-4.2H62.6z"/>
			<path class="st0" d="M78.5,51.6l0.8,12.5h-8.3l0.8-12.5H78.5z"/>
			<path class="st0" d="M63.1,47.4l1.7,16.6h-4.8c0.4-0.5,0.6-1.1,0.6-1.8c0-0.8-0.4-1.6-1-2.2l-4.5-3.8l0.9-8.9H63.1z"/>
			<path class="st0" d="M57.7,65.1c0.9,0,1.7-0.4,2.2-1h23.5v4.2H54.3v-4.9l1.3,1.1c0.5,0.4,1.2,0.7,1.9,0.7H57.7z"/>
			<path class="st0" d="M81.3,68.2v18.7h-4.2V76.5h-6.2v10.4h-6.2V76.5h-6.2v10.4h-4.2V68.2H81.3z"/>
			<path class="st0" d="M59.9,64.1c-0.5,0.6-1.3,1-2.2,1h-0.3c-0.7,0-1.3-0.2-1.9-0.7l-1.3-1.1L40.8,51.6L27.3,63.3L26,64.4
				c-0.5,0.4-1.2,0.7-1.9,0.7h-0.3c-0.8,0-1.5-0.3-2-0.8c-0.5-0.5-0.8-1.2-0.8-2c0-0.8,0.4-1.6,1-2.2l18.7-15.8l14.3,12l4.5,3.8
				c0.6,0.5,1,1.3,1,2.2C60.6,62.9,60.3,63.6,59.9,64.1z"/>
			<path class="st0" d="M40.8,51.6l13.5,11.7v23.6h-4.2V70.3H31.5v16.6h-4.2V63.3L40.8,51.6z"/>
			<path class="st2" d="M70.9,76.5h6.2v10.4h-6.2V76.5z"/>
			<path class="st2" d="M58.5,76.5h6.2v10.4h-6.2V76.5z"/>
			<path class="st2" d="M31.5,74.5h18.7v4.2H31.5V74.5z"/>
			<path class="st2" d="M31.5,78.6h18.7v4.2H31.5V78.6z"/>
			<path class="st2" d="M31.5,82.8h18.7v4.2H31.5V82.8z"/>
			<path class="st2" d="M31.5,70.3h18.7v4.2H31.5V70.3z"/>
			<path class="st0" d="M37.7,59.9h6.2v6.2h-6.2V59.9z"/>
			<path class="st1" d="M36.7,67.2H45v-8.3h-8.3V67.2z M38.7,61h4.2v4.2h-4.2V61z"/>
			<path class="st1" d="M84.5,63h-4.2l-1-16.6H71L70,63h-4.3l-2.1-20.8h-8.1l-1.2,12L40.8,43L21.4,59.3c-0.9,0.7-1.4,1.8-1.4,3
				c0,2.1,1.7,3.9,3.9,3.9h0.3c0.8,0,1.5-0.2,2.1-0.6V88h56.1V69.3h2.1V63z M77.2,48.5l0.1,2.1h-4.5l0.1-2.1H77.2z M72.7,52.6h4.8
				L78.2,63h-6.1L72.7,52.6z M61.7,44.3l0.2,2.1h-4.8l0.2-2.1H61.7z M56.9,48.5h5.2L63.6,63h-2c0-0.2,0.1-0.5,0.1-0.8
				c0-1.1-0.5-2.2-1.4-3l-4-3.4L56.9,48.5z M24.2,64.1h-0.3c-1,0-1.8-0.8-1.8-1.8c0-0.5,0.2-1,0.6-1.4l18.1-15.2l18.1,15.2
				c0.4,0.3,0.6,0.8,0.6,1.4c0,1-0.8,1.8-1.8,1.8h-0.3c-0.4,0-0.9-0.2-1.2-0.4L40.8,50.2L25.4,63.6C25,63.9,24.6,64.1,24.2,64.1z
				 M49.1,73.4H32.5v-2.1h16.6V73.4z M32.5,75.5h16.6v2.1H32.5V75.5z M32.5,79.7h16.6v2.1H32.5V79.7z M32.5,83.8h16.6v2.1H32.5V83.8
				z M51.2,85.9V69.3H30.4v16.6h-2.1V63.8L40.8,53l12.5,10.8v22.1H51.2z M63.7,85.9h-4.2v-8.3h4.2V85.9z M76.1,85.9H72v-8.3h4.2
				V85.9z M80.3,85.9h-2.1V75.5h-8.3v10.4h-4.2V75.5h-8.3v10.4h-2.1V69.3h24.9V85.9z M82.4,67.2h-27v-1.7c0.6,0.4,1.3,0.6,2.1,0.6
				h0.3c1,0,1.9-0.4,2.6-1h22V67.2z"/>
			<path class="st1" d="M61.6,40.2h2.1c0-1,0.3-1.5,0.8-2.1c0.6-0.7,1.2-1.7,1.2-3.4c0-1.7-0.7-2.7-1.2-3.4
				c-0.5-0.6-0.8-1.1-0.8-2.1c0-1,0.3-1.5,0.8-2.1c0.6-0.7,1.2-1.7,1.2-3.4h-2.1c0,1-0.3,1.5-0.8,2.1c-0.6,0.7-1.2,1.7-1.2,3.4
				c0,1.7,0.7,2.7,1.2,3.4c0.5,0.6,0.8,1.1,0.8,2.1s-0.3,1.5-0.8,2.1C62.3,37.5,61.6,38.4,61.6,40.2z"/>
			<path class="st1" d="M55.4,40.2h2.1c0-1,0.3-1.5,0.8-2.1c0.6-0.7,1.2-1.7,1.2-3.4c0-1.7-0.7-2.7-1.2-3.4
				c-0.5-0.6-0.8-1.1-0.8-2.1c0-1,0.3-1.5,0.8-2.1c0.6-0.7,1.2-1.7,1.2-3.4h-2.1c0,1-0.3,1.5-0.8,2.1c-0.6,0.7-1.2,1.7-1.2,3.4
				c0,1.7,0.7,2.7,1.2,3.4c0.5,0.6,0.8,1.1,0.8,2.1s-0.3,1.5-0.8,2.1C56.1,37.5,55.4,38.4,55.4,40.2z"/>
			<path class="st1" d="M77.2,44.3h2.1c0-1,0.3-1.5,0.8-2.1c0.6-0.7,1.2-1.7,1.2-3.4c0-1.7-0.7-2.7-1.2-3.4
				c-0.5-0.6-0.8-1.1-0.8-2.1s0.3-1.5,0.8-2.1c0.6-0.7,1.2-1.7,1.2-3.4h-2.1c0,1-0.3,1.5-0.8,2.1c-0.6,0.7-1.2,1.7-1.2,3.4
				c0,1.7,0.7,2.7,1.2,3.4c0.5,0.6,0.8,1.1,0.8,2.1s-0.3,1.5-0.8,2.1C77.9,41.7,77.2,42.6,77.2,44.3z"/>
			<path class="st1" d="M72,42.3h2.1c0-1,0.3-1.5,0.8-2.1c0.6-0.7,1.2-1.7,1.2-3.4c0-1.7-0.7-2.7-1.2-3.4c-0.5-0.6-0.8-1.1-0.8-2.1
				c0-1,0.3-1.5,0.8-2.1c0.6-0.7,1.2-1.7,1.2-3.4h-2.1c0,1-0.3,1.5-0.8,2.1c-0.6,0.7-1.2,1.7-1.2,3.4c0,1.7,0.7,2.7,1.2,3.4
				c0.5,0.6,0.8,1.1,0.8,2.1s-0.3,1.5-0.8,2.1C72.7,39.6,72,40.5,72,42.3z"/>
			<path class="st1" d="M57.4,71.3h8.3v2.1h-8.3V71.3z"/>
			<path class="st1" d="M69.9,71.3h8.3v2.1h-8.3V71.3z"/>
		</g>
		<g>
			<rect x="148.4" y="43.2" class="st0" width="46.2" height="39.6"/>
			<rect x="188.8" y="43.2" class="st2" width="5.9" height="39.6"/>
			<path class="st0" d="M194.8,43.2h-46.6v-6.5c0-0.5,0.4-0.9,0.9-0.9h44.7c0.5,0,0.9,0.4,0.9,0.9L194.8,43.2L194.8,43.2z"/>
			<path class="st2" d="M193.9,35.8H189v4.9h5.9v-4C194.8,36.2,194.4,35.8,193.9,35.8z"/>
			<path class="st3" d="M148.4,55L148.4,55c-2.1,0-3.9-1.7-3.9-3.9V48h7.7v3.1C152.3,53.3,150.6,55,148.4,55z"/>
			<path class="st4" d="M156.1,55L156.1,55c-2.1,0-3.9-1.7-3.9-3.9V48h7.7v3.1C160,53.3,158.3,55,156.1,55z"/>
			<path class="st3" d="M163.8,55L163.8,55c-2.1,0-3.9-1.7-3.9-3.9V48h7.7v3.1C167.7,53.3,166,55,163.8,55z"/>
			<path class="st4" d="M171.5,55L171.5,55c-2.1,0-3.9-1.7-3.9-3.9V48h7.7v3.1C175.4,53.3,173.7,55,171.5,55z"/>
			<path class="st3" d="M179.2,55L179.2,55c-2.1,0-3.9-1.7-3.9-3.9V48h7.7v3.1C183.1,53.3,181.4,55,179.2,55z"/>
			<path class="st4" d="M187,55L187,55c-2.1,0-3.9-1.7-3.9-3.9V48h7.7v3.1C190.8,53.3,189.1,55,187,55z"/>
			<path class="st3" d="M194.7,55L194.7,55c-2.1,0-3.9-1.7-3.9-3.9V48h7.7v3.1C198.5,53.3,196.8,55,194.7,55z"/>
			<polygon class="st2" points="152.3,48 144.6,48 148.3,40.7 154.9,40.7 			"/>
			<polygon class="st5" points="160,48 152.3,48 154.9,40.7 161.6,40.7 			"/>
			<polygon class="st2" points="167.7,48 160,48 161.6,40.7 168.2,40.7 			"/>
			<polygon class="st5" points="175.4,48 167.7,48 168.2,40.7 174.9,40.7 			"/>
			<polygon class="st2" points="183.1,48 175.4,48 174.9,40.7 181.5,40.7 			"/>
			<polygon class="st5" points="190.8,48 183.1,48 181.5,40.7 188.2,40.7 			"/>
			<polygon class="st2" points="198.5,48 190.8,48 188.2,40.7 194.8,40.7 			"/>
			<path class="st0" d="M196.8,79.2h-50.5c-1,0-1.8,0.8-1.8,1.8v2.6c0,0.3,0.2,0.5,0.5,0.5h53c0.3,0,0.5-0.2,0.5-0.5V81
				C198.6,80,197.8,79.2,196.8,79.2z"/>
			<path class="st2" d="M196.8,79.2h-4.1V84h5.4c0.3,0,0.5-0.2,0.5-0.5V81C198.6,80,197.8,79.2,196.8,79.2z"/>
			<path class="st0" d="M190.1,74h-23.7c-0.4,0-0.7-0.3-0.7-0.7V60.3c0-0.4,0.3-0.7,0.7-0.7h23.7c0.4,0,0.7,0.3,0.7,0.7v13.1
				C190.8,73.7,190.5,74,190.1,74z"/>
			<path class="st3" d="M190.1,59.6h-5.2V74h5.2c0.4,0,0.7-0.3,0.7-0.7V60.3C190.8,59.9,190.5,59.6,190.1,59.6z"/>
			<path class="st0" d="M162.3,79.2h-10.8V60.3c0-0.4,0.3-0.7,0.7-0.7h9.4c0.4,0,0.7,0.3,0.7,0.7V79.2L162.3,79.2z"/>
			<path class="st3" d="M161.6,59.6h-5.2v19.6h5.9V60.3C162.3,59.9,162,59.6,161.6,59.6z"/>
			<path class="st1" d="M159.3,70.6c0.5,0,0.8-0.4,0.8-0.8v-1.5c0-0.5-0.4-0.8-0.8-0.8s-0.8,0.4-0.8,0.8v1.5
				C158.5,70.3,158.9,70.6,159.3,70.6z"/>
			<path class="st1" d="M196.8,78.4h-1.3V55.8c2.2-0.4,3.9-2.3,3.9-4.6V48c0,0,0,0,0,0c0,0,0,0,0,0c0,0,0-0.1,0-0.1c0,0,0,0,0,0
				c0,0,0-0.1,0-0.1c0,0,0,0,0,0c0,0,0,0,0-0.1c0,0,0,0,0,0l-3.6-7.2v-3.7c0-1-0.8-1.8-1.8-1.8h-37.1c-0.5,0-0.8,0.4-0.8,0.8
				s0.4,0.8,0.8,0.8h37.1c0.1,0,0.1,0.1,0.1,0.1v3.1h-44.9v-3.1c0-0.1,0.1-0.1,0.1-0.1h3.8c0.5,0,0.8-0.4,0.8-0.8S153.5,35,153,35
				h-3.8c-1,0-1.8,0.8-1.8,1.8v3.7l-3.6,7.2c0,0,0,0,0,0c0,0,0,0,0,0.1c0,0,0,0,0,0c0,0,0,0.1,0,0.1c0,0,0,0,0,0c0,0,0,0.1,0,0.1
				c0,0,0,0,0,0c0,0,0,0,0,0v3.1c0,2.3,1.7,4.2,3.9,4.6v22.6h-1.3c-1.4,0-2.6,1.2-2.6,2.6v2.6c0,0.7,0.6,1.3,1.3,1.3h53
				c0.7,0,1.3-0.6,1.3-1.3V81C199.4,79.5,198.2,78.4,196.8,78.4z M197.7,51.2c0,1.7-1.4,3-3,3s-3-1.4-3-3v-2.3h6.1V51.2L197.7,51.2z
				 M194.3,41.5l2.9,5.7h-5.8l-2-5.7H194.3z M187.6,41.5l2,5.7h-5.9l-1.2-5.7H187.6z M190,48.8v2.3c0,1.7-1.4,3-3,3s-3-1.4-3-3v-2.3
				H190z M180.9,41.5l1.2,5.7h-5.9l-0.4-5.7H180.9z M182.3,48.8v2.3c0,1.7-1.4,3-3,3s-3-1.4-3-3v-2.3H182.3z M169,41.5h5.1l0.4,5.7
				h-6L169,41.5z M168.5,48.8h6.1v2.3c0,1.7-1.4,3-3,3s-3-1.4-3-3V48.8z M171.5,55.8c1.6,0,3-0.8,3.9-2c0.8,1.2,2.3,2,3.9,2
				c1.6,0,3-0.8,3.9-2c0.8,1.2,2.3,2,3.9,2c1.6,0,3-0.8,3.9-2c0.7,1,1.8,1.7,3,2v22.6h-30.7V60.3c0-0.8-0.7-1.5-1.5-1.5h-9.4
				c-0.8,0-1.5,0.7-1.5,1.5v18.1h-1.5V55.8c1.3-0.2,2.3-0.9,3-2c0.8,1.2,2.3,2,3.9,2c1.6,0,3-0.8,3.9-2c0.8,1.2,2.3,2,3.9,2
				c1.6,0,3-0.8,3.9-2C168.5,55,169.9,55.8,171.5,55.8z M161.5,60.4v18h-9.2v-18H161.5z M153.1,51.2v-2.3h6.1v2.3c0,1.7-1.4,3-3,3
				C154.5,54.2,153.1,52.8,153.1,51.2z M162.2,41.5h5.1l-0.4,5.7H161L162.2,41.5z M160.8,48.8h6.1v2.3c0,1.7-1.4,3-3,3s-3-1.4-3-3
				V48.8L160.8,48.8z M160.6,41.5l-1.2,5.7h-5.9l2-5.7H160.6z M148.8,41.5h5l-2,5.7h-5.8L148.8,41.5z M145.4,51.2v-2.3h6.1v2.3
				c0,1.7-1.4,3-3,3S145.4,52.8,145.4,51.2z M197.7,83.2h-52.4V81c0-0.5,0.4-0.9,0.9-0.9h50.5c0.5,0,0.9,0.4,0.9,0.9L197.7,83.2
				L197.7,83.2z"/>
			<path class="st1" d="M164.9,60.3v13.1c0,0.8,0.7,1.5,1.5,1.5h23.7c0.8,0,1.5-0.7,1.5-1.5V60.3c0-0.8-0.7-1.5-1.5-1.5h-10
				c-0.5,0-0.8,0.4-0.8,0.8s0.4,0.8,0.8,0.8h9.9v12.8h-23.5V60.4h9.8c0.5,0,0.8-0.4,0.8-0.8s-0.4-0.8-0.8-0.8h-9.9
				C165.5,58.7,164.9,59.4,164.9,60.3z"/>
		</g>
		<g>
			<g id="g4021_00000160166278026697857850000006773352164591474104_">
				<g id="g4027_00000083084208561672470660000009643676314309439122_" transform="translate(382.9893,504.5)">
					<g id="path4029_00000100364688235404444290000013529431772602214079_">
						<path class="st0" d="M-313-377.9h-33.8c-3,0-5.4,2.4-5.4,5.4v15.8h44.6v-15.8C-307.6-375.5-310-377.9-313-377.9"/>
					</g>
				</g>
				<g id="g4031_00000163767898375523390730000001432840825155786414_" transform="translate(398.4297,383.1187)">
					<g id="path4033_00000151539539886794892970000018287436651215664557_">
						<path class="st0" d="M-326.4-240.4h-37.9c-3.9,0-7.1,3.2-7.1,7.1v38h52.2v-38C-319.2-237.2-322.4-240.4-326.4-240.4"/>
					</g>
				</g>
				<g id="g4035_00000019669289886867047880000005029145991012734861_" transform="translate(281.0503,194.5083)">
					<g id="path4037_00000053512485131461601980000001940101985590785411_">
						<path class="st6" d="M-224.6-26.6h-6.7c-1.8,0-3.3,1.5-3.3,3.3v16.7h13.3v-16.7C-221.3-25.1-222.8-26.6-224.6-26.6"/>
					</g>
				</g>
				<g id="g4039_00000036218095786502864860000014712479844496020410_" transform="translate(143.8418,194.5083)">
					<g id="path4041_00000004534001095851880240000001356106884432035251_">
						<path class="st3" d="M-105.7-26.6h-2.9c-1.3,0-2.4,1.1-2.4,2.4v5.8c0,1.3,1.1,2.4,2.4,2.4h2.9c1.3,0,2.4-1.1,2.4-2.4v-5.8
							C-103.2-25.6-104.3-26.6-105.7-26.6"/>
					</g>
				</g>
				<g id="g4043_00000145764004486153059080000006605868854562245513_" transform="translate(143.8418,325.1367)">
					<g id="path4045_00000121260381284174063960000017711591654467624113_">
						<path class="st3" d="M-105.7-174.7h-2.9c-1.3,0-2.4,1.1-2.4,2.4v5.8c0,1.3,1.1,2.4,2.4,2.4h2.9c1.3,0,2.4-1.1,2.4-2.4v-5.8
							C-103.2-173.6-104.3-174.7-105.7-174.7"/>
					</g>
				</g>
				<g id="g4047_00000044157735562084589040000009530786565802625212_" transform="translate(266.9043,325.1367)">
					<g id="path4049_00000088125922712021244750000012838213683651283090_">
						<path class="st3" d="M-212.3-174.7h-2.9c-1.3,0-2.4,1.1-2.4,2.4v5.8c0,1.3,1.1,2.4,2.4,2.4h2.9c1.3,0,2.4-1.1,2.4-2.4v-5.8
							C-209.9-173.6-211-174.7-212.3-174.7"/>
					</g>
				</g>
				<g id="g4051_00000043452937768724092440000009110260511583228585_" transform="translate(368.1582,194.5083)">
					<g id="path4053_00000101783043025267374610000003311941429995755447_">
						<path class="st3" d="M-300.1-26.6h2.9c1.3,0,2.4,1.1,2.4,2.4v5.8c0,1.3-1.1,2.4-2.4,2.4h-2.9c-1.3,0-2.4-1.1-2.4-2.4v-5.8
							C-302.5-25.6-301.4-26.6-300.1-26.6"/>
					</g>
				</g>
				<g id="g4055_00000165231993459755995050000015697942444745367450_" transform="translate(368.1582,325.1367)">
					<g id="path4057_00000163039409371618462250000003438962380352286862_">
						<path class="st3" d="M-300.1-174.7h2.9c1.3,0,2.4,1.1,2.4,2.4v5.8c0,1.3-1.1,2.4-2.4,2.4h-2.9c-1.3,0-2.4-1.1-2.4-2.4v-5.8
							C-302.5-173.6-301.4-174.7-300.1-174.7"/>
					</g>
				</g>
				<g id="g4059_00000016755167980478315250000007661927760698873729_" transform="translate(448.4971,73.9473)">
					<g id="path4061_00000085241094651564055480000018091219083836523951_">
						<path class="st0" d="M-369.8,110H-421c-2.2,0-4.1,1.8-4.1,4.1v2.5c0,1.2,1,2.3,2.3,2.3h54.9c1.2,0,2.3-1,2.3-2.3V114
							C-365.7,111.8-367.5,110-369.8,110"/>
					</g>
				</g>
				<g id="g4063_00000147914274562857607400000004056659950875858304_" transform="translate(81.4424,226.3813)">
					<g id="path4065_00000098914021764489501380000009132019347336153993_">
						<path class="st3" d="M-51.6-62.8c0-7.6,1.9-14.7,5.3-20.9h-1c-3.9,0-7.1,3.2-7.1,7.1v38h10.2C-48.9-45.4-51.6-53.8-51.6-62.8"
							/>
					</g>
				</g>
				<g id="g4067_00000020391558222346439340000003208848385771126156_" transform="translate(118.7729,73.9473)">
					<g id="path4069_00000048501690573558405780000002281548377765234347_">
						<path class="st3" d="M-83.9,110h-7.4c-2.2,0-4.1,1.8-4.1,4.1v2.5c0,1.2,1,2.3,2.3,2.3h15.3C-80.2,116.1-82.2,113.2-83.9,110"
							/>
					</g>
				</g>
				<g id="g4071_00000090996984312256047320000004371025603801472442_" transform="translate(123.2822,295.5166)">
					<g id="path4073_00000026870966611664201500000011138136072862343854_">
						<path class="st0" d="M-87.8-141.1c0-1.3-0.1-2.7,0.2-3.9H-88c-1.3,0-2.4,1.1-2.4,2.4v5.8c0,1.3,1.1,2.4,2.4,2.4h2.9
							c0.5,0,1.1-0.2,1.5-0.5C-86.1-135.9-87.8-138.3-87.8-141.1L-87.8-141.1z"/>
					</g>
				</g>
				<g id="g4075_00000041277737905866155550000009445804779111648167_" transform="translate(246.3452,295.5166)">
					<g id="path4077_00000169553493739110469810000012086566499557065404_">
						<path class="st0" d="M-194.5-141.1c0-1.3-0.1-2.7,0.2-3.9h-0.3c-1.3,0-2.4,1.1-2.4,2.4v5.8c0,1.3,1.1,2.4,2.4,2.4h2.9
							c0.5,0,1.1-0.2,1.5-0.5C-192.8-135.9-194.5-138.3-194.5-141.1L-194.5-141.1z"/>
					</g>
				</g>
				<g id="g4079_00000163789788964695383850000009819753910356202677_" transform="translate(369.4082,295.5166)">
					<g id="path4081_00000129185609927170387120000010012896455854267526_">
						<path class="st0" d="M-301.2-141.1c0-1.3-0.1-2.7,0.2-3.9h-0.3c-1.3,0-2.4,1.1-2.4,2.4v5.8c0,1.3,1.1,2.4,2.4,2.4h2.9
							c0.5,0,1.1-0.2,1.5-0.5C-299.5-135.9-301.2-138.3-301.2-141.1L-301.2-141.1z"/>
					</g>
				</g>
				<g id="g4083_00000181070318949762992270000018316201787263099269_" transform="translate(123.2822,164.8877)">
					<g id="path4085_00000079466875127433637690000003900573787939738519_">
						<path class="st0" d="M-87.8,6.9c0-1.3-0.1-2.7,0.2-3.9H-88c-1.3,0-2.4,1.1-2.4,2.4v5.8c0,1.3,1.1,2.4,2.4,2.4h2.9
							c0.5,0,1.1-0.2,1.5-0.5C-86.1,12.2-87.8,9.7-87.8,6.9L-87.8,6.9z"/>
					</g>
				</g>
				<g id="g4087_00000137825997286384205940000003256052959457764277_" transform="translate(369.4082,164.8877)">
					<g id="path4089_00000075880757464320506880000014100321609539122348_">
						<path class="st0" d="M-301.2,6.9c0-1.3-0.1-2.7,0.2-3.9h-0.3c-1.3,0-2.4,1.1-2.4,2.4v5.8c0,1.3,1.1,2.4,2.4,2.4h2.9
							c0.5,0,1.1-0.2,1.5-0.5C-299.5,12.2-301.2,9.7-301.2,6.9L-301.2,6.9z"/>
					</g>
				</g>
				<g id="g4091_00000075850782332955683920000013655655780286819971_" transform="translate(143.8418,194.5083)">
					<g id="path4093_00000045592379691411577370000003345746975027678390_">
						<path class="st1" d="M-105.7-15h-2.9c-1.9,0-3.4-1.5-3.4-3.4v-5.8c0-1.9,1.5-3.4,3.4-3.4h2.9c1.9,0,3.4,1.5,3.4,3.4v5.8
							C-102.2-16.5-103.8-15-105.7-15z M-108.6-25.6c-0.8,0-1.4,0.6-1.4,1.4v5.8c0,0.8,0.6,1.4,1.4,1.4h2.9c0.8,0,1.4-0.6,1.4-1.4
							v-5.8c0-0.8-0.6-1.4-1.4-1.4H-108.6z"/>
					</g>
				</g>
				<g id="g4095_00000054250344530497178390000000173195112592459942_" transform="translate(143.8418,325.1372)">
					<g id="path4097_00000026154419607745501360000012966181430580171696_">
						<path class="st1" d="M-105.7-163h-2.9c-1.9,0-3.4-1.5-3.4-3.4v-5.8c0-1.9,1.5-3.4,3.4-3.4h2.9c1.9,0,3.4,1.5,3.4,3.4v5.8
							C-102.2-164.5-103.8-163-105.7-163z M-108.6-173.7c-0.8,0-1.4,0.6-1.4,1.4v5.8c0,0.8,0.6,1.4,1.4,1.4h2.9
							c0.8,0,1.4-0.6,1.4-1.4v-5.8c0-0.8-0.6-1.4-1.4-1.4H-108.6z"/>
					</g>
				</g>
				<g id="g4099_00000049921330296545690410000004232826931056999305_" transform="translate(266.9043,325.1372)">
					<g id="path4101_00000169551639418319945110000008118682085137863096_">
						<path class="st1" d="M-212.3-163h-2.9c-1.9,0-3.4-1.5-3.4-3.4v-5.8c0-1.9,1.5-3.4,3.4-3.4h2.9c1.9,0,3.4,1.5,3.4,3.4v5.8
							C-208.9-164.5-210.4-163-212.3-163z M-215.2-173.7c-0.8,0-1.4,0.6-1.4,1.4v5.8c0,0.8,0.6,1.4,1.4,1.4h2.9
							c0.8,0,1.4-0.6,1.4-1.4v-5.8c0-0.8-0.6-1.4-1.4-1.4H-215.2z"/>
					</g>
				</g>
				<g id="g4103_00000102541830092057301580000008804903184403546814_" transform="translate(368.1582,194.5083)">
					<g id="path4105_00000127746424014401244850000017594261608454755507_">
						<path class="st1" d="M-297.2-15h-2.9c-1.9,0-3.4-1.5-3.4-3.4v-5.8c0-1.9,1.5-3.4,3.4-3.4h2.9c1.9,0,3.4,1.5,3.4,3.4v5.8
							C-293.8-16.5-295.3-15-297.2-15z M-300.1-25.6c-0.8,0-1.4,0.6-1.4,1.4v5.8c0,0.8,0.6,1.4,1.4,1.4h2.9c0.8,0,1.4-0.6,1.4-1.4
							v-5.8c0-0.8-0.6-1.4-1.4-1.4H-300.1z"/>
					</g>
				</g>
				<g id="g4107_00000090285145073811741750000006549903908305961124_" transform="translate(368.1582,325.1372)">
					<g id="path4109_00000127736734248552214700000014788153690705291184_">
						<path class="st1" d="M-297.2-163h-2.9c-1.9,0-3.4-1.5-3.4-3.4v-5.8c0-1.9,1.5-3.4,3.4-3.4h2.9c1.9,0,3.4,1.5,3.4,3.4v5.8
							C-293.8-164.5-295.3-163-297.2-163z M-300.1-173.7c-0.8,0-1.4,0.6-1.4,1.4v5.8c0,0.8,0.6,1.4,1.4,1.4h2.9
							c0.8,0,1.4-0.6,1.4-1.4v-5.8c0-0.8-0.6-1.4-1.4-1.4H-300.1z"/>
					</g>
				</g>
				<g>
					<g id="g4111_00000065032905629629874530000006316855881693563789_" transform="translate(368.2383,471.9995)">
						<g id="path4113_00000057826391926614320170000006059653651870126749_">
							<path class="st1" d="M-302.4-333.4c-0.7,0-0.7,0-0.8,0c-0.4-0.1-0.7-0.4-0.7-0.8v-6.1c0-0.4,0.4-0.8,0.8-0.8
								c0.4,0,0.8,0.4,0.8,0.8v5.3c0.4,0,0.9,0,1.3,0c0,0,0,0,0,0c0.4,0,0.8,0.4,0.8,0.8c0,0.4-0.4,0.8-0.8,0.8
								C-301.6-333.4-302-333.4-302.4-333.4z"/>
						</g>
					</g>
					<g id="g4115_00000046337723653970678660000010762034549590591916_" transform="translate(123.8496,471.9995)">
						<g id="path4117_00000138556992811894266680000011397557688682152079_">
							<path class="st1" d="M-85-333.4c-0.4,0-0.8-0.4-0.8-0.8v-6.1c0-0.4,0.4-0.8,0.8-0.8c0.4,0,0.8,0.4,0.8,0.8v6.1
								C-84.2-333.8-84.5-333.4-85-333.4z"/>
						</g>
					</g>
					<g id="g4119_00000111875305047927808880000018443388789635667097_" transform="translate(163.2002,471.9995)">
						<g id="path4121_00000030466782901959548550000002628504617373545119_">
							<path class="st1" d="M-120.1-333.4c-0.4,0-0.8-0.4-0.8-0.8v-6.1c0-0.4,0.4-0.8,0.8-0.8s0.8,0.4,0.8,0.8v6.1
								C-119.3-333.8-119.6-333.4-120.1-333.4z"/>
						</g>
					</g>
					<g id="g4123_00000137824113717970465790000000934401852934297748_" transform="translate(123.8496,444.5425)">
						<g id="path4125_00000051372020965250824230000013272734761122011318_">
							<path class="st1" d="M-80.7-309.1H-85c-0.4,0-0.8-0.4-0.8-0.8s0.4-0.8,0.8-0.8h4.2c0.4,0,0.8,0.4,0.8,0.8
								S-80.3-309.1-80.7-309.1z"/>
						</g>
					</g>
					<g id="g4127_00000072992778345275410170000013737383748552369292_" transform="translate(341.4658,471.4805)">
						<g id="path4129_00000118390004735277080970000014724766600282671285_">
							<path class="st1" d="M-279.1-332.9h-2.6c-0.4,0-0.8-0.4-0.8-0.8v-6.1c0-0.4,0.4-0.8,0.8-0.8h2.6c0.4,0,0.8,0.4,0.8,0.8
								s-0.4,0.8-0.8,0.8h-1.8v4.5h1.8c0.4,0,0.8,0.4,0.8,0.8S-278.7-332.9-279.1-332.9z"/>
						</g>
					</g>
					<g id="g4131_00000096760183742313087540000009477981599411473053_" transform="translate(339.7153,443.3076)">
						<g id="path4133_00000051353068026744423330000002808296967383969965_">
							<path class="st1" d="M-277.6-307.8h-2.4c-0.4,0-0.8-0.4-0.8-0.8s0.4-0.8,0.8-0.8h2.4c0.4,0,0.8,0.4,0.8,0.8
								S-277.1-307.8-277.6-307.8z"/>
						</g>
					</g>
					<g id="g4135_00000106120157658098400490000003371611996162207900_" transform="translate(260.2593,471.9995)">
						<g id="path4137_00000128451562959197801320000004662155030914698388_">
							<path class="st1" d="M-203.3-339.5h-3.4c-0.4,0-0.8-0.4-0.8-0.8c0-0.4,0.4-0.8,0.8-0.8h3.4c0.4,0,0.8,0.4,0.8,0.8
								C-202.5-339.9-202.8-339.5-203.3-339.5z"/>
						</g>
					</g>
					<g id="g4139_00000010282301981356364200000007812373364945972105_" transform="translate(275.8979,470.1836)">
						<g id="path4141_00000150823632205854336230000010910738915330510503_">
							<path class="st1" d="M-220.6-331.6c-0.4,0-0.8-0.4-0.8-0.8v-5.9c0-0.4,0.4-0.8,0.8-0.8s0.8,0.4,0.8,0.8v5.9
								C-219.8-332-220.2-331.6-220.6-331.6z"/>
						</g>
					</g>
					<g id="g4143_00000019678993919822987750000000208172720920704939_" transform="translate(243.7129,443.5669)">
						<g id="path4145_00000083074565097940376040000016505224167899151248_">
							<path class="st1" d="M-195-305c-2.1,0-3.9-1.7-3.9-3.9c0-2.1,1.7-3.9,3.9-3.9c2.1,0,3.9,1.7,3.9,3.9
								C-191.1-306.7-192.8-305-195-305z M-195-311.1c-1.2,0-2.3,1-2.3,2.3c0,1.2,1,2.3,2.3,2.3c1.2,0,2.3-1,2.3-2.3
								C-192.7-310.1-193.7-311.1-195-311.1z"/>
						</g>
					</g>
				</g>
				<g id="g4147_00000051351372739605415770000004576010138195206280_" transform="translate(113.5703,383.1187)">
					<g id="path4149_00000134963110332814662170000013524074117390130312_">
						<path class="st1" d="M-38.2-238.5c-0.2,0-0.3,0-0.5-0.1c-0.9-0.5-1.9-0.7-2.9-0.7h-37.9c-1,0-2,0.2-2.9,0.7
							c-0.3,0.2-0.7,0.2-1,0c-0.3-0.2-0.5-0.5-0.5-0.9v-11.6c0-3.5,2.9-6.4,6.4-6.4h33.8c3.5,0,6.4,2.9,6.4,6.4v11.6
							c0,0.4-0.2,0.7-0.5,0.9C-37.8-238.6-38-238.5-38.2-238.5z M-79.4-241.4h37.9c0.8,0,1.6,0.1,2.3,0.3v-10.1c0-2.4-2-4.4-4.4-4.4
							h-33.8c-2.4,0-4.4,2-4.4,4.4v10.1C-81-241.2-80.2-241.4-79.4-241.4z"/>
					</g>
				</g>
				<g id="g4151_00000171700846103325746430000005268324784892607906_" transform="translate(59.9644,146.6641)">
					<g id="path4153_00000126322193084456489860000014361267345786465182_">
						<path class="st1" d="M19.3,38.3c0,0-0.1,0-0.1,0c-0.1,0-0.2,0-0.4,0h-51.3c-0.1,0-0.2,0-0.4,0c-0.3,0-0.6-0.1-0.8-0.2
							c-0.2-0.2-0.3-0.5-0.3-0.7v-9.7c0-0.6,0.4-1,1-1c0.6,0,1,0.4,1,1v8.7h50.2V13.4c0-0.6,0.4-1,1-1c0.6,0,1,0.4,1,1v23.9
							c0,0.3-0.1,0.6-0.3,0.7C19.7,38.2,19.5,38.3,19.3,38.3z"/>
					</g>
				</g>
				<g id="g4155_00000065772641327505954230000004872845251023371179_" transform="translate(452.0356,283.5322)">
					<g id="path4157_00000054230168037172709140000018103955609877909633_">
						<path class="st1" d="M-425-112.3c-0.6,0-1-0.4-1-1v-20.3c0-4.5,3.6-8.1,8.1-8.1h37.9c4.5,0,8.1,3.6,8.1,8.1v6.1
							c0,0.6-0.4,1-1,1s-1-0.4-1-1v-6.1c0-3.4-2.8-6.1-6.1-6.1h-37.9c-3.4,0-6.1,2.8-6.1,6.1v20.3C-424-112.7-424.5-112.3-425-112.3
							z"/>
					</g>
				</g>
				<g id="g4159_00000096042118930966030150000015532766474744854458_" transform="translate(306.0903,73.9473)">
					<g id="path4161_00000163053947916163088210000003673839368344209282_">
						<path class="st1" d="M-246.3,111h-13.3c-0.6,0-1-0.4-1-1V97.3c0-2.4,1.9-4.3,4.3-4.3h6.7c2.4,0,4.3,1.9,4.3,4.3V110
							C-245.3,110.5-245.8,111-246.3,111z M-258.6,109h11.3V97.3c0-1.3-1-2.3-2.3-2.3h-6.7c-1.3,0-2.3,1-2.3,2.3V109z"/>
					</g>
				</g>
				<g id="g4163_00000005230662080310119840000002535898310439511477_" transform="translate(448.4971,73.9473)">
					<g id="path4165_00000061433868003013446490000004839836355726172546_">
						<path class="st1" d="M-367.9,119.8h-54.9c-1.8,0-3.3-1.5-3.3-3.3V114c0-2.8,2.3-5.1,5.1-5.1h51.3c2.8,0,5.1,2.3,5.1,5.1v2.5
							C-364.7,118.4-366.1,119.8-367.9,119.8z M-421,111c-1.7,0-3.1,1.4-3.1,3.1v2.5c0,0.7,0.6,1.3,1.3,1.3h54.9
							c0.7,0,1.3-0.6,1.3-1.3V114c0-1.7-1.4-3.1-3.1-3.1H-421z"/>
					</g>
				</g>
			</g>
		</g>
		<path class="st1" d="M197.7,190h-2.5v-44.3c0-1.2-1-2.2-2.2-2.2h-12v-4.7c0-1.2-1-2.2-2.2-2.2h-3.4v-2.5c0-1.2-1-2.2-2.2-2.2h-6.7
			v-3.5c0-0.5-0.4-0.8-0.8-0.8s-0.8,0.4-0.8,0.8v3.5H158c-1.2,0-2.2,1-2.2,2.2v2.5h-3.4c-1.2,0-2.2,1-2.2,2.2v4.7h-12
			c-1.2,0-2.2,1-2.2,2.2V190h-2.5c-1.2,0-2.2,1-2.2,2.2v1.9c0,1.2,1,2.2,2.2,2.2h64.4c1.2,0,2.2-1,2.2-2.2v-1.9
			C200,191,198.9,190,197.7,190z M193,145.2c0.3,0,0.6,0.3,0.6,0.6V190H181v-44.8H193z M157.4,134.1c0-0.3,0.3-0.6,0.6-0.6h15
			c0.3,0,0.6,0.3,0.6,0.6v2.5h-16.2V134.1z M152.3,138.3h26.4c0.3,0,0.6,0.3,0.6,0.6V190h-3.2v-14.7c0-0.5-0.4-0.8-0.8-0.8h-19.5
			c-0.5,0-0.8,0.4-0.8,0.8V190h-3.2v-51.2C151.8,138.5,152,138.3,152.3,138.3L152.3,138.3z M156.6,190v-13.8h8.1V190H156.6z
			 M166.4,176.2h8.1V190h-8.1V176.2z M137.5,145.8c0-0.3,0.3-0.6,0.6-0.6h12V190h-12.6V145.8z M198.3,194.2c0,0.3-0.3,0.6-0.6,0.6
			h-64.4c-0.3,0-0.6-0.3-0.6-0.6v-1.9c0-0.3,0.3-0.6,0.6-0.6h64.4c0.3,0,0.6,0.3,0.6,0.6V194.2z M146.2,159h-4.9
			c-0.5,0-0.8,0.4-0.8,0.8v4.9c0,0.5,0.4,0.8,0.8,0.8h4.9c0.5,0,0.8-0.4,0.8-0.8v-4.9C147,159.4,146.7,159,146.2,159z M145.4,163.9
			h-3.2v-3.2h3.2V163.9z M146.2,180.3h-4.9c-0.5,0-0.8,0.4-0.8,0.8v4.9c0,0.5,0.4,0.8,0.8,0.8h4.9c0.5,0,0.8-0.4,0.8-0.8v-4.9
			C147,180.7,146.7,180.3,146.2,180.3z M145.4,185.2h-3.2V182h3.2V185.2z M146.2,169.7h-4.9c-0.5,0-0.8,0.4-0.8,0.8v4.9
			c0,0.5,0.4,0.8,0.8,0.8h4.9c0.5,0,0.8-0.4,0.8-0.8v-4.9C147,170.1,146.7,169.7,146.2,169.7z M145.4,174.5h-3.2v-3.2h3.2V174.5z
			 M146.2,148.4h-4.9c-0.5,0-0.8,0.4-0.8,0.8v4.9c0,0.5,0.4,0.8,0.8,0.8h4.9c0.5,0,0.8-0.4,0.8-0.8v-4.9
			C147,148.8,146.7,148.4,146.2,148.4z M145.4,153.2h-3.2v-3.2h3.2V153.2z M184.8,176.2h4.9c0.5,0,0.8-0.4,0.8-0.8v-4.9
			c0-0.5-0.4-0.8-0.8-0.8h-4.9c-0.5,0-0.8,0.4-0.8,0.8v4.9C184,175.8,184.4,176.2,184.8,176.2z M185.7,171.4h3.2v3.2h-3.2V171.4z
			 M184.8,165.6h4.9c0.5,0,0.8-0.4,0.8-0.8v-4.9c0-0.5-0.4-0.8-0.8-0.8h-4.9c-0.5,0-0.8,0.4-0.8,0.8v4.9
			C184,165.2,184.4,165.6,184.8,165.6z M185.7,160.7h3.2v3.2h-3.2V160.7z M184.8,154.9h4.9c0.5,0,0.8-0.4,0.8-0.8v-4.9
			c0-0.5-0.4-0.8-0.8-0.8h-4.9c-0.5,0-0.8,0.4-0.8,0.8v4.9C184,154.5,184.4,154.9,184.8,154.9z M185.7,150.1h3.2v3.2h-3.2V150.1z
			 M184.8,186.9h4.9c0.5,0,0.8-0.4,0.8-0.8v-4.9c0-0.5-0.4-0.8-0.8-0.8h-4.9c-0.5,0-0.8,0.4-0.8,0.8v4.9
			C184,186.5,184.4,186.9,184.8,186.9z M185.7,182h3.2v3.2h-3.2V182z M155.8,169.2h19.5c0.5,0,0.8-0.4,0.8-0.8v-4.7
			c0-0.5-0.4-0.8-0.8-0.8h-19.5c-0.5,0-0.8,0.4-0.8,0.8v4.7C154.9,168.8,155.3,169.2,155.8,169.2L155.8,169.2z M156.6,164.5h17.8v3
			h-17.8V164.5z M155.8,147.9h19.5c0.5,0,0.8-0.4,0.8-0.8v-4.7c0-0.5-0.4-0.8-0.8-0.8h-19.5c-0.5,0-0.8,0.4-0.8,0.8v4.7
			C154.9,147.5,155.3,147.9,155.8,147.9L155.8,147.9z M156.6,143.2h17.8v3h-17.8V143.2z M155.8,158.5h19.5c0.5,0,0.8-0.4,0.8-0.8
			V153c0-0.5-0.4-0.8-0.8-0.8h-19.5c-0.5,0-0.8,0.4-0.8,0.8v4.7C154.9,158.2,155.3,158.5,155.8,158.5L155.8,158.5z M156.6,153.8
			h17.8v3h-17.8V153.8z"/>
	</g>
	<rect x="156.6" y="143.2" class="st3" width="17.8" height="3.2"/>
	<rect x="156.6" y="153.7" class="st3" width="17.8" height="3.2"/>
	<rect x="156.6" y="164.3" class="st3" width="17.8" height="3.2"/>
</g>
</svg>
