<?xml version="1.0" encoding="utf-8"?>
<!-- Generator: Adobe Illustrator 27.9.0, SVG Export Plug-In . SVG Version: 6.00 Build 0)  -->
<svg version="1.1" id="svg4011" xmlns:svg="http://www.w3.org/2000/svg"
	 xmlns="http://www.w3.org/2000/svg" xmlns:xlink="http://www.w3.org/1999/xlink" x="0px" y="0px" viewBox="0 0 220 220"
	 style="enable-background:new 0 0 220 220;" xml:space="preserve">
<style type="text/css">
	.st0{fill-rule:evenodd;clip-rule:evenodd;fill:#FAB716;}
	.st1{fill-rule:evenodd;clip-rule:evenodd;fill:#FCF7ED;}
	.st2{fill-rule:evenodd;clip-rule:evenodd;fill:#EBF1FC;}
	.st3{fill-rule:evenodd;clip-rule:evenodd;fill:#26375D;}
</style>
<g>
	<g>
		<g>
			<path class="st0" d="M77.7,165.5h41.9c3-19.1,24.6-26.6,24.6-56.2h-14.3c-2.5,0-4,2.8-2.6,4.9c0.7,1.1,1.1,2.4,1.1,3.8
				c0,3.9-3.2,7-7,7c-3.9,0-7-3.2-7-7c0-1.4,0.4-2.7,1.1-3.8c1.4-2.1-0.1-4.9-2.6-4.9H98.6V96.1c0-2.5-2.8-4-4.9-2.6
				c-1.1,0.7-2.4,1.1-3.8,1.1c-3.9,0-7-3.2-7-7c0-3.9,3.2-7,7-7c1.4,0,2.7,0.4,3.8,1.1c2.1,1.4,4.9-0.1,4.9-2.6V65.8
				C73.4,66.1,53,85.5,53,109.3C53,138.9,74.7,146.4,77.7,165.5L77.7,165.5z"/>
			<path class="st0" d="M118,185.5c-1,9.6-9.3,17.2-19.4,17.2c-10.2,0-18.6-7.6-19.4-17.3L76.3,172h44.5L118,185.5z"/>
			<path class="st0" d="M76.3,158.6h44.5c3.7,0,6.7,3,6.7,6.7s-3,6.7-6.7,6.7c3.7,0,6.7,3,6.7,6.7s-3,6.7-6.7,6.7H76.3
				c-3.7,0-6.7-3-6.7-6.7s3-6.7,6.7-6.7c-3.7,0-6.7-3-6.7-6.7S72.6,158.6,76.3,158.6z"/>
		</g>
		<path class="st1" d="M178.2,22.1l11.3,11.3c5.5,9.6,2.2,21.9-7.4,27.5L154,77.2l-25.2-2l12.6-40c0.8-2.5,3-4.2,5.7-4.3
			C156.5,30.7,165.7,29.3,178.2,22.1z"/>
		<path class="st0" d="M167.5,84.2c0-23.8-20.3-43.1-45.6-43.5V54c0,2.5-2.8,4-4.9,2.6c-1.1-0.7-2.4-1.1-3.8-1.1c-3.9,0-7,3.2-7,7
			c0,3.9,3.2,7,7,7c1.4,0,2.7-0.4,3.8-1.1c2.1-1.4,4.9,0.1,4.9,2.6v13.2h14.2c2.5,0,4,2.8,2.6,4.9c-0.7,1.1-1.1,2.4-1.1,3.8
			c0,3.9,3.2,7,7,7c3.9,0,7-3.2,7-7c0-1.4-0.4-2.7-1.1-3.8c-1.4-2.1,0.1-4.9,2.6-4.9L167.5,84.2z"/>
		<path class="st2" d="M155.1,45.3c10.5,0.7,15.7,1,15.7,1L160,65.1c-1.9,3.4-6.3,4.5-9.6,2.6c-3.4-1.9-4.5-6.3-2.6-9.6L155.1,45.3z
			"/>
		<path class="st2" d="M191.3,51.9l-16.7-28.9c-0.7-1.1-0.3-2.6,0.9-3.3l3.8-2.2c1.1-0.7,2.6-0.3,3.3,0.9l16.7,28.9
			c0.7,1.1,0.3,2.6-0.9,3.3l-3.8,2.2C193.5,53.5,192,53.1,191.3,51.9z"/>
	</g>
	<path class="st3" d="M193.6,50.1L177.4,22l3-1.7l16.2,28.1L193.6,50.1z M180.7,58.5c3-1.7,5.3-4.3,6.8-7.4L174,27.6
		c-10,4.8-18,6-26.8,6.2c-1.4,0-2.6,0.9-3,2.3l-2,6.3c3,1.3,5.9,3,8.6,4.9l1.9-3.3c0.8-1.4,2.5-1.8,3.9-1c1.4,0.8,1.8,2.5,1,3.9
		l-7.3,12.7c-0.6,1-0.7,2.1-0.4,3.2c0.3,1.1,1,2,1.9,2.6c2,1.2,4.6,0.5,5.8-1.5l10.8-18.7c0.8-1.4,2.5-1.8,3.9-1
		c1.4,0.8,1.8,2.5,1.1,3.9l-8.6,14.9c0.7,1.3,1.4,2.6,2,4L180.7,58.5z M153.3,81.4c-2.2,0-4.2,1.2-5.3,3.1c-1.1,1.9-1,4.3,0.2,6.1
		c0.4,0.7,0.7,1.5,0.7,2.3c0,2.3-1.9,4.2-4.2,4.2s-4.2-1.9-4.2-4.2c0-0.8,0.2-1.6,0.7-2.3c1.2-1.8,1.3-4.2,0.3-6.1
		c-1.1-1.9-3.1-3.1-5.3-3.1h-11.4V71c0-2.2-1.2-4.2-3.1-5.3c-1.9-1-4.3-0.9-6.1,0.3c-0.7,0.4-1.5,0.7-2.3,0.7
		c-2.3,0-4.2-1.9-4.2-4.2c0-2.3,1.9-4.2,4.2-4.2c0.8,0,1.6,0.2,2.3,0.7c1.8,1.2,4.2,1.3,6.1,0.3c1.9-1,3.1-3.1,3.1-5.3V43.7
		c8.4,0.6,16.4,3.6,23.1,8.4l-2.6,4.4c-1.3,2.3-1.7,4.9-1,7.5c0.7,2.6,2.3,4.7,4.6,6c1.6,0.9,3.3,1.3,4.9,1.3c2.7,0,5.4-1.1,7.3-3.2
		c1.9,4.2,3.1,8.6,3.4,13.2L153.3,81.4L153.3,81.4z M201.7,46L185,17.1c-1.4-2.5-4.6-3.4-7.1-1.9l-3.8,2.2c-1.9,1.1-2.8,3.1-2.6,5.1
		c-9.1,4.4-16.4,5.4-24.5,5.6c-3.9,0.1-7.1,2.6-8.3,6.3l-1.9,6c-4.8-1.5-9.8-2.3-14.9-2.4c-0.7,0-1.5,0.3-2,0.8
		c-0.6,0.5-0.9,1.3-0.9,2V54c0,0.1,0,0.2-0.2,0.3c-0.2,0.1-0.3,0-0.3,0c-1.6-1-3.5-1.6-5.4-1.6c-5.4,0-9.9,4.4-9.9,9.9
		c0,5.4,4.4,9.9,9.9,9.9c1.9,0,3.8-0.6,5.4-1.6c0,0,0.2-0.1,0.3,0c0.2,0.1,0.2,0.2,0.2,0.3v13.2c0,1.6,1.3,2.8,2.9,2.8h14.2
		c0.1,0,0.2,0,0.3,0.2c0.1,0.2,0,0.3,0,0.3c-1.1,1.6-1.6,3.5-1.6,5.4c0,5.4,4.4,9.9,9.9,9.9c5.4,0,9.9-4.4,9.9-9.9
		c0-1.9-0.6-3.8-1.6-5.4c0,0-0.1-0.2,0-0.3c0.1-0.2,0.2-0.2,0.3-0.2h14.2c1.6,0,2.8-1.3,2.8-2.8c0-4.1-0.6-8.3-1.7-12.2l14.9-8.6
		c3.3-1.9,6-4.6,8-7.8c0.6,0.2,1.2,0.3,1.9,0.3c0.9,0,1.8-0.2,2.6-0.7l3.8-2.2c1.2-0.7,2.1-1.8,2.4-3.2
		C202.6,48.6,202.4,47.2,201.7,46L201.7,46z M169,152c-0.5,0.9-1.5,1.4-2.5,1.4c-0.5,0-1-0.1-1.4-0.4l-11.9-6.8
		c-1.4-0.8-1.8-2.5-1.1-3.9c0.8-1.4,2.5-1.8,3.9-1l11.9,6.8C169.3,148.9,169.8,150.6,169,152L169,152z M179.9,111.4
		c0,1.6-1.3,2.8-2.8,2.8h-13.7c-1.6,0-2.8-1.3-2.8-2.8s1.3-2.8,2.8-2.8H177C178.6,108.6,179.9,109.8,179.9,111.4z M45.2,142.3
		c0.8,1.4,0.3,3.1-1,3.9L32.3,153c-0.4,0.3-0.9,0.4-1.4,0.4c-1,0-1.9-0.5-2.5-1.4c-0.8-1.4-0.3-3.1,1-3.9l11.9-6.8
		C42.7,140.5,44.4,140.9,45.2,142.3z M34.1,114.2H20.4c-1.6,0-2.8-1.3-2.8-2.8s1.3-2.8,2.8-2.8h13.7c1.6,0,2.9,1.3,2.9,2.8
		S35.7,114.2,34.1,114.2z M45.2,80.5c-0.5,0.9-1.5,1.4-2.5,1.4c-0.5,0-1-0.1-1.4-0.4l-11.9-6.8c-1.4-0.8-1.8-2.5-1-3.9
		c0.8-1.4,2.5-1.8,3.9-1l11.9,6.8C45.6,77.4,46,79.2,45.2,80.5L45.2,80.5z M57.1,45c-0.8-1.4-0.3-3.1,1-3.9c1.4-0.8,3.1-0.3,3.9,1
		L68.9,54c0.8,1.4,0.3,3.1-1,3.9c-0.4,0.3-0.9,0.4-1.4,0.4c-1,0-1.9-0.5-2.5-1.4L57.1,45z M95.9,46.8V33.1c0-1.6,1.3-2.8,2.8-2.8
		c1.6,0,2.8,1.3,2.8,2.8v13.7c0,1.6-1.3,2.8-2.8,2.8S95.9,48.4,95.9,46.8z M127.8,143.5c6.3-8.3,12.7-16.8,13.4-31.4h-11.3
		c-0.1,0-0.2,0-0.3,0.2c-0.1,0.2,0,0.3,0,0.3c1.1,1.6,1.6,3.5,1.6,5.4c0,5.4-4.4,9.9-9.9,9.9c-5.4,0-9.9-4.4-9.9-9.9
		c0-1.9,0.6-3.8,1.6-5.4c0,0,0.1-0.2,0-0.3c-0.1-0.2-0.2-0.2-0.3-0.2H98.6c-1.6,0-2.8-1.3-2.8-2.8V96.1c0-0.1,0-0.2-0.2-0.3
		c-0.2-0.1-0.3,0-0.3,0c-1.6,1-3.5,1.6-5.4,1.6c-5.4,0-9.9-4.4-9.9-9.9c0-5.4,4.4-9.9,9.9-9.9c1.9,0,3.8,0.6,5.4,1.6
		c0.1,0,0.2,0.1,0.3,0c0.2-0.1,0.2-0.2,0.2-0.3V68.8c-22.2,1.7-39.9,19.3-39.9,40.5c0,16.3,6.9,25.4,13.5,34.2c3,4,6,7.9,8.1,12.3
		h42.3C121.8,151.4,124.7,147.5,127.8,143.5L127.8,143.5z M120.8,169.1H76.3c-2.1,0-3.9-1.7-3.9-3.9s1.7-3.9,3.9-3.9h44.5
		c2.1,0,3.9,1.7,3.9,3.9S122.9,169.1,120.8,169.1z M120.8,182.5H76.3c-2.1,0-3.9-1.7-3.9-3.9c0-2.1,1.7-3.9,3.9-3.9h44.5
		c2.1,0,3.9,1.7,3.9,3.9C124.7,180.8,122.9,182.5,120.8,182.5z M98.6,199.9c-7.5,0-14-4.9-16-11.7h32.1
		C112.6,195,106.2,199.9,98.6,199.9L98.6,199.9z M144.1,106.4c1.6,0,2.8,1.3,2.8,2.8c0,18.2-7.8,28.5-14.7,37.6
		c-2.5,3.4-5,6.6-6.9,10.1c2.9,1.6,4.9,4.7,4.9,8.3c0,2.6-1.1,5-2.7,6.7c1.7,1.7,2.7,4.1,2.7,6.7c0,5.3-4.3,9.5-9.5,9.5h-0.4
		c-2.1,10-11.1,17.3-21.9,17.3c-5.6,0-11-2-15.1-5.7c-3.5-3.1-5.8-7.2-6.8-11.6h-0.4c-5.3,0-9.5-4.3-9.5-9.5c0-2.6,1.1-5,2.7-6.7
		c-1.7-1.7-2.7-4.1-2.7-6.7c0-3.6,2-6.7,4.9-8.3c-1.9-3.4-4.3-6.7-6.9-10.1c-6.9-9.1-14.7-19.4-14.7-37.6c0-12.3,5-23.9,14.2-32.6
		C73.5,68,85.6,63.1,98.5,63c0.7,0,1.5,0.3,2,0.8c0.5,0.5,0.8,1.3,0.8,2V79c0,2.2-1.2,4.2-3.1,5.3c-1.9,1-4.3,0.9-6.1-0.3
		c-0.7-0.4-1.5-0.7-2.3-0.7c-2.3,0-4.2,1.9-4.2,4.2s1.9,4.2,4.2,4.2c0.8,0,1.6-0.2,2.3-0.7c1.8-1.2,4.2-1.3,6.1-0.3
		c1.9,1,3.1,3.1,3.1,5.3v10.4h11.4c2.2,0,4.2,1.2,5.3,3.1c1.1,1.9,0.9,4.3-0.2,6.1c-0.4,0.7-0.7,1.5-0.7,2.3c0,2.3,1.9,4.2,4.2,4.2
		s4.2-1.9,4.2-4.2c0-0.8-0.2-1.6-0.7-2.3c-1.2-1.8-1.3-4.2-0.3-6.1c1-1.9,3.1-3.1,5.3-3.1H144.1z"/>
</g>
</svg>
