<?xml version="1.0" encoding="utf-8"?>
<!-- Generator: Adobe Illustrator 27.9.0, SVG Export Plug-In . SVG Version: 6.00 Build 0)  -->
<svg version="1.1" id="svg4011" xmlns:svg="http://www.w3.org/2000/svg"
	 xmlns="http://www.w3.org/2000/svg" xmlns:xlink="http://www.w3.org/1999/xlink" x="0px" y="0px" viewBox="0 0 220 220"
	 style="enable-background:new 0 0 220 220;" xml:space="preserve">
<style type="text/css">
	.st0{fill:#FCF7ED;}
	.st1{fill:#FAB716;}
	.st2{fill:#26375D;}
</style>
<g>
	<g>
		<path class="st0" d="M139.7,68.1h27.9v20.9c0,7.7-6.2,14-14,14c-7.7,0-14-6.2-14-14C139.7,87.2,139.7,73.4,139.7,68.1z"/>
	</g>
	<g>
		<path class="st0" d="M108.3,165.8v-20.9H171v20.9C167.6,165.8,111.7,165.8,108.3,165.8z"/>
	</g>
	<g>
		<path class="st0" d="M108.3,144.9V124H171v20.9C167.6,144.9,111.7,144.9,108.3,144.9z"/>
	</g>
	<g>
		<path class="st0" d="M185,124v59.3h-14c0-2.9,0-57,0-59.3H185z"/>
	</g>
	<g>
		<path class="st0" d="M35,124h14v59.3H35V124z"/>
	</g>
	<g>
		<path class="st0" d="M195.5,103V124c-24.9,0-151,0-170.9,0V103H195.5z"/>
	</g>
	<g>
		<path class="st1" d="M193.7,104.8H26.3V124c0.6,0,1.2,0,1.9,0v-11.9h163.6V124c0.7,0,1.4,0,1.9,0V104.8z"/>
	</g>
	<g>
		<path class="st0" d="M66.4,85.6h17.4V103H66.4V85.6z"/>
	</g>
	<g>
		<path class="st0" d="M38.5,71.6V36.7h73.3v48.8c-4,0-71.8,0-73.3,0V71.6z"/>
	</g>
	<g>
		<path class="st2" d="M195.5,125.7H185c-1,0-1.7-0.8-1.7-1.7s0.8-1.7,1.7-1.7h8.7v-17.4H83.8c-1,0-1.7-0.8-1.7-1.7s0.8-1.7,1.7-1.7
			h111.6c1,0,1.7,0.8,1.7,1.7V124C197.2,124.9,196.4,125.7,195.5,125.7z"/>
	</g>
	<g>
		<path class="st2" d="M35,125.7H24.5c-1,0-1.7-0.8-1.7-1.7V103c0-1,0.8-1.7,1.7-1.7h41.9c1,0,1.7,0.8,1.7,1.7s-0.8,1.7-1.7,1.7
			H26.3v17.4H35c1,0,1.7,0.8,1.7,1.7S36,125.7,35,125.7z"/>
	</g>
	<g>
		<path class="st2" d="M108.3,125.7H49c-1,0-1.7-0.8-1.7-1.7s0.8-1.7,1.7-1.7h59.3c1,0,1.7,0.8,1.7,1.7S109.2,125.7,108.3,125.7z"/>
	</g>
	<g>
		<path class="st2" d="M49,185c-1,0-1.7-0.8-1.7-1.7v-57.6H36.7v57.6c0,1-0.8,1.7-1.7,1.7s-1.7-0.8-1.7-1.7V124c0-1,0.8-1.7,1.7-1.7
			h14c1,0,1.7,0.8,1.7,1.7v59.3C50.7,184.2,49.9,185,49,185z"/>
	</g>
	<g>
		<path class="st2" d="M185,185c-1,0-1.7-0.8-1.7-1.7v-57.6H171c-1,0-1.7-0.8-1.7-1.7s0.8-1.7,1.7-1.7h14c1,0,1.7,0.8,1.7,1.7v59.3
			C186.7,184.2,186,185,185,185z"/>
	</g>
	<g>
		<path class="st2" d="M171,185c-1,0-1.7-0.8-1.7-1.7v-17.4c0-1,0.8-1.7,1.7-1.7s1.7,0.8,1.7,1.7v17.4C172.8,184.2,172,185,171,185z
			"/>
	</g>
	<g>
		<path class="st2" d="M171,146.6c-1,0-1.7-0.8-1.7-1.7v-19.2H110v19.2c0,1-0.8,1.7-1.7,1.7s-1.7-0.8-1.7-1.7V124
			c0-1,0.8-1.7,1.7-1.7H171c1,0,1.7,0.8,1.7,1.7v20.9C172.8,145.8,172,146.6,171,146.6z"/>
	</g>
	<g>
		<path class="st2" d="M171,167.6h-62.8c-1,0-1.7-0.8-1.7-1.7v-20.9c0-1,0.8-1.7,1.7-1.7H171c1,0,1.7,0.8,1.7,1.7v20.9
			C172.8,166.8,172,167.6,171,167.6z M110,164.1h59.3v-17.4H110V164.1z"/>
	</g>
	<g>
		<path class="st2" d="M139.7,146.6c-1,0-1.7-0.8-1.7-1.7v-7c0-1,0.8-1.7,1.7-1.7s1.7,0.8,1.7,1.7v7
			C141.4,145.8,140.6,146.6,139.7,146.6z"/>
	</g>
	<g>
		<path class="st2" d="M139.7,167.6c-1,0-1.7-0.8-1.7-1.7v-7c0-1,0.8-1.7,1.7-1.7s1.7,0.8,1.7,1.7v7
			C141.4,166.8,140.6,167.6,139.7,167.6z"/>
	</g>
	<g>
		<path class="st2" d="M111.7,87.3H83.8c-1,0-1.7-0.8-1.7-1.7s0.8-1.7,1.7-1.7H110V38.5H40.2v45.3h26.2c1,0,1.7,0.8,1.7,1.7
			s-0.8,1.7-1.7,1.7H38.5c-1,0-1.7-0.8-1.7-1.7V36.7c0-1,0.8-1.7,1.7-1.7h73.3c1,0,1.7,0.8,1.7,1.7v48.8
			C113.5,86.5,112.7,87.3,111.7,87.3z"/>
	</g>
	<g>
		<path class="st2" d="M83.8,104.8H66.4c-1,0-1.7-0.8-1.7-1.7V85.6c0-1,0.8-1.7,1.7-1.7h17.4c1,0,1.7,0.8,1.7,1.7V103
			C85.6,104,84.8,104.8,83.8,104.8z M68.1,101.3h14v-14h-14V101.3z"/>
	</g>
	<g>
		<path class="st2" d="M153.6,104.8c-8.7,0-15.7-7-15.7-15.7V68.1c0-1,0.8-1.7,1.7-1.7h27.9c1,0,1.7,0.8,1.7,1.7v7
			c0,1-0.8,1.7-1.7,1.7s-1.7-0.8-1.7-1.7v-5.2h-24.4v19.2c0,6.7,5.5,12.2,12.2,12.2c6.7,0,12.2-5.5,12.2-12.2c0-1,0.8-1.7,1.7-1.7
			s1.7,0.8,1.7,1.7C169.3,97.7,162.3,104.8,153.6,104.8z"/>
	</g>
	<g>
		<path class="st2" d="M167.6,90.8c-1,0-1.7-0.8-1.7-1.7v-14c0-1,0.8-1.7,1.7-1.7H178c1,0,1.7,0.8,1.7,1.7v3.5
			C179.8,85.3,174.3,90.8,167.6,90.8z M169.3,76.9v10.3c4-0.8,7-4.3,7-8.5v-1.7H169.3z"/>
	</g>
	<g>
		<path class="st2" d="M153.6,83.8h-14c-1,0-1.7-0.8-1.7-1.7s0.8-1.7,1.7-1.7h14c1,0,1.7,0.8,1.7,1.7S154.6,83.8,153.6,83.8z"/>
	</g>
	<g>
		<path class="st2" d="M150.1,69.9c-1,0-1.7-0.8-1.7-1.7c0-2.9-1.1-4.2-2.4-5.9c-1.5-1.9-3.2-4-3.2-8.1s1.7-6.2,3.2-8.1
			c1.3-1.7,2.4-3,2.4-5.9c0-1,0.8-1.7,1.7-1.7s1.7,0.8,1.7,1.7c0,4.1-1.7,6.2-3.2,8.1c-1.3,1.7-2.4,3-2.4,5.9s1.1,4.2,2.4,5.9
			c1.5,1.9,3.2,4,3.2,8.1C151.9,69.1,151.1,69.9,150.1,69.9z"/>
	</g>
	<g>
		<path class="st2" d="M162.7,69.9c-1,0-1.7-0.8-1.7-1.7c0-2.9-1.1-4.2-2.4-5.9c-1.5-1.9-3.2-4-3.2-8.1c0-1,0.8-1.7,1.7-1.7
			s1.7,0.8,1.7,1.7c0,2.9,1.1,4.2,2.4,5.9c1.5,1.9,3.2,4,3.2,8.1C164.4,69.1,163.6,69.9,162.7,69.9z"/>
	</g>
	<g>
		<path class="st2" d="M94.3,73.4H38.5c-1,0-1.7-0.8-1.7-1.7s0.8-1.7,1.7-1.7h55.8c1,0,1.7,0.8,1.7,1.7S95.3,73.4,94.3,73.4z"/>
	</g>
	<g>
		<path class="st2" d="M195.5,185H24.5c-1,0-1.7-0.8-1.7-1.7s0.8-1.7,1.7-1.7h170.9c1,0,1.7,0.8,1.7,1.7S196.4,185,195.5,185z"/>
	</g>
</g>
</svg>
