<?xml version="1.0" encoding="utf-8"?>
<!-- Generator: Adobe Illustrator 27.9.0, SVG Export Plug-In . SVG Version: 6.00 Build 0)  -->
<svg version="1.1" id="svg4011" xmlns:svg="http://www.w3.org/2000/svg"
	 xmlns="http://www.w3.org/2000/svg" xmlns:xlink="http://www.w3.org/1999/xlink" x="0px" y="0px" viewBox="0 0 220 220"
	 style="enable-background:new 0 0 220 220;" xml:space="preserve">
<style type="text/css">
	.st0{fill-rule:evenodd;clip-rule:evenodd;fill:#FFDC00;}
	.st1{fill-rule:evenodd;clip-rule:evenodd;fill:#FEC108;}
	.st2{fill:#26375D;}
	.st3{fill-rule:evenodd;clip-rule:evenodd;fill:#26375D;}
	.st4{fill:#FCF7ED;}
	.st5{fill:#FAB716;}
	.st6{fill:#FFB655;}
</style>
<g>
	<g>
		<path id="Path_00000005226502594958269310000011753502604055522475_" class="st0" d="M178.7,109.5c0-1.5-1.2-2.7-2.7-2.7
			c1.5,0,2.7-1.2,2.7-2.7s-1.2-2.7-2.7-2.7h-16.4c-1.5,0-2.7,1.2-2.7,2.7s1.2,2.7,2.7,2.7c-1.5,0-2.7,1.2-2.7,2.7
			c0,1.5,1.2,2.7,2.7,2.7c-1.5,0-2.7,1.2-2.7,2.7c0,1.5,1.2,2.7,2.7,2.7c-1.5,0-2.7,1.2-2.7,2.7c0,1.5,1.2,2.7,2.7,2.7
			c-1.5,0-2.7,1.2-2.7,2.7c0,1.5,1.2,2.7,2.7,2.7H176c1.5,0,2.7-1.2,2.7-2.7c0-1.5-1.2-2.7-2.7-2.7c1.5,0,2.7-1.2,2.7-2.7
			c0-1.5-1.2-2.7-2.7-2.7c1.5,0,2.7-1.2,2.7-2.7c0-1.5-1.2-2.7-2.7-2.7C177.5,112.3,178.7,111,178.7,109.5z"/>
		<path id="Path_00000162334824692203224440000015395670287522214053_" class="st1" d="M178.7,109.5c0-1.5-1.2-2.7-2.7-2.7
			c1.5,0,2.7-1.2,2.7-2.7s-1.2-2.7-2.7-2.7h-4.1c1.5,0,2.7,1.2,2.7,2.7s-1.2,2.7-2.7,2.7c1.5,0,2.7,1.2,2.7,2.7
			c0,1.5-1.2,2.7-2.7,2.7c1.5,0,2.7,1.2,2.7,2.7c0,1.5-1.2,2.7-2.7,2.7c1.5,0,2.7,1.2,2.7,2.7c0,1.5-1.2,2.7-2.7,2.7
			c1.5,0,2.7,1.2,2.7,2.7c0,1.5-1.2,2.7-2.7,2.7h4.1c1.5,0,2.7-1.2,2.7-2.7c0-1.5-1.2-2.7-2.7-2.7c1.5,0,2.7-1.2,2.7-2.7
			c0-1.5-1.2-2.7-2.7-2.7c1.5,0,2.7-1.2,2.7-2.7c0-1.5-1.2-2.7-2.7-2.7C177.5,112.3,178.7,111,178.7,109.5z"/>
		<circle id="Oval_00000091720972296942393260000007986056445768891056_" class="st0" cx="167.8" cy="89.1" r="12.3"/>
		<path id="Path_00000126301144023402994400000001265756700180446908_" class="st1" d="M167.8,76.8c-0.7,0-1.4,0.1-2,0.2
			c5.9,1,10.2,6.1,10.2,12.1s-4.3,11.1-10.2,12.1c4.6,0.8,9.2-1.1,12-4.8s3.2-8.7,1.1-12.9C176.7,79.4,172.4,76.7,167.8,76.8
			L167.8,76.8z"/>
		<path id="Shape_00000091002630426396529650000009304960053063468425_" class="st2" d="M167.8,75.4c-5.9,0-11.1,3.8-13,9.3
			c-1.9,5.6,0.1,11.7,4.8,15.2h0c-1.6,0-3.1,0.9-3.7,2.4c-0.7,1.5-0.4,3.2,0.7,4.4c-1.4,1.5-1.4,3.9,0,5.5c-1.4,1.5-1.4,3.9,0,5.5
			c-1.4,1.5-1.4,3.9,0,5.5c-1.1,1.2-1.4,2.9-0.7,4.4c0.7,1.5,2.1,2.4,3.7,2.4H176c1.6,0,3.1-0.9,3.7-2.4c0.7-1.5,0.4-3.2-0.7-4.4
			c1.4-1.5,1.4-3.9,0-5.5c1.4-1.5,1.4-3.9,0-5.5c1.4-1.5,1.4-3.9,0-5.5c1.1-1.2,1.4-2.9,0.7-4.4c-0.7-1.5-2.1-2.4-3.7-2.4h0
			c4.7-3.5,6.7-9.7,4.8-15.2S173.7,75.4,167.8,75.4L167.8,75.4z M177.3,109.5c0,0.8-0.6,1.4-1.4,1.4h-16.4c-0.8,0-1.4-0.6-1.4-1.4
			s0.6-1.4,1.4-1.4H176C176.7,108.2,177.3,108.8,177.3,109.5z M177.3,115c0,0.8-0.6,1.4-1.4,1.4h-16.4c-0.8,0-1.4-0.6-1.4-1.4
			c0-0.8,0.6-1.4,1.4-1.4H176C176.7,113.6,177.3,114.2,177.3,115z M177.3,120.5c0,0.8-0.6,1.4-1.4,1.4h-16.4c-0.8,0-1.4-0.6-1.4-1.4
			c0-0.8,0.6-1.4,1.4-1.4H176C176.7,119.1,177.3,119.7,177.3,120.5z M176,127.3h-16.4c-0.8,0-1.4-0.6-1.4-1.4s0.6-1.4,1.4-1.4H176
			c0.8,0,1.4,0.6,1.4,1.4S176.7,127.3,176,127.3z M176,102.7c0.8,0,1.4,0.6,1.4,1.4s-0.6,1.4-1.4,1.4h-16.4c-0.8,0-1.4-0.6-1.4-1.4
			s0.6-1.4,1.4-1.4H176z M167.8,100c-6,0-10.9-4.9-10.9-10.9c0-6,4.9-10.9,10.9-10.9s10.9,4.9,10.9,10.9
			C178.7,95.1,173.8,100,167.8,100z"/>
		<path id="Path_00000043431151955076699740000014642953967660643204_" class="st3" d="M167.8,87.7c-0.7,0-1.2-0.5-1.3-1.1
			c-0.1-0.7,0.3-1.3,0.9-1.5c0.6-0.2,1.3,0,1.6,0.6c0.4,0.6,1.2,0.8,1.8,0.5s0.9-1.2,0.5-1.8c-0.5-0.8-1.3-1.5-2.2-1.8v-0.3
			c0-0.8-0.6-1.4-1.4-1.4s-1.4,0.6-1.4,1.4v0.3c-1.9,0.7-3,2.6-2.7,4.5c0.3,2,2,3.4,4,3.4c0.7,0,1.2,0.5,1.3,1.1s-0.3,1.3-0.9,1.5
			c-0.6,0.2-1.3,0-1.6-0.6c-0.4-0.6-1.2-0.8-1.8-0.5c-0.6,0.4-0.9,1.2-0.5,1.8c0.5,0.8,1.3,1.5,2.2,1.8v0.3c0,0.8,0.6,1.4,1.4,1.4
			s1.4-0.6,1.4-1.4v-0.3c1.9-0.7,3-2.6,2.7-4.5S169.8,87.7,167.8,87.7L167.8,87.7z"/>
	</g>
	<g>
		<g id="path1415_00000085930110937786759540000006607896143956795029_">
			<path class="st4" d="M117,168.7H103V59.6H117V168.7z"/>
		</g>
		<g id="g1425_00000086686693001787431680000001261987042310448802_" transform="translate(268.105,504.5)">
			<g id="path1427_00000024684531648626080080000011025915019265748865_">
				<path class="st4" d="M-153.7-484.2h-8.7c-1,1-1.6,1.6-2.7,2.7v7.3h14.1v-7.3C-152.1-482.5-152.7-483.1-153.7-484.2"/>
			</g>
		</g>
		<g id="g1429_00000147918237926859067090000001686150142613886595_" transform="translate(298.5479,93.4043)">
			<g id="path1431_00000145779847538306473880000008720539441873563316_">
				<path class="st4" d="M-173.2,75.3h-30.7l-5.6,5.6v8.1h41.9v-8.1L-173.2,75.3z"/>
			</g>
		</g>
		<g id="g1433_00000058584154848596151100000016869932861816681881_" transform="translate(351.6011,55.5)">
			<g id="path1435_00000126303126834003571190000018116282867091796617_">
				<path class="st4" d="M-207.1,126.8h-69l-7.4,7.4v10h83.7v-10L-207.1,126.8z"/>
			</g>
		</g>
		<g id="g1437_00000094584302916271064350000017887946209930149797_" transform="translate(296.5,436.3154)">
			<g id="path1439_00000002360985405948223250000018090959143470672014_">
				<path class="st4" d="M-171.9-391.4c0,8.1-6.5,14.6-14.6,14.6s-14.6-6.5-14.6-14.6s6.5-14.6,14.6-14.6S-171.9-399.4-171.9-391.4"
					/>
			</g>
		</g>
		<g id="g1441_00000139279199741034624240000002633177804479051907_" transform="translate(271.8159,436.3154)">
			<g id="path1443_00000152227229075089003220000009777551976526882476_">
				<path class="st4" d="M-156.1-391.4c0,3.2-2.6,5.7-5.7,5.7s-5.7-2.6-5.7-5.7s2.6-5.7,5.7-5.7S-156.1-394.5-156.1-391.4"/>
			</g>
		</g>
		<g id="g1445_00000050660409748604726370000005579088442760056242_" transform="translate(449.4453,421.0654)">
			<g id="path1447_00000095301825709074309260000012329024376895413939_">
				<path class="st4" d="M-269.6-370.6h-55.2v-11h55.2c0.9,0.9,1.5,1.5,2.4,2.4v6.2L-269.6-370.6z"/>
			</g>
		</g>
		<g id="g1449_00000099657970171515946250000006456470987284100781_" transform="translate(215.7617,421.0654)">
			<g id="path1451_00000045578859341838155860000015381752590737510573_">
				<path class="st4" d="M-120.3-370.6h-55.3l-2.4-2.4v-6.2c0.9-0.9,1.5-1.5,2.4-2.4h55.3V-370.6z"/>
			</g>
		</g>
		<g id="g1453_00000025408380244664771880000011756482857239426202_" transform="translate(158.1055,194.5)">
			<g id="path1455_00000091732458711769982160000009197789392957325954_">
				<path class="st4" d="M-83.4-62.3h-43.9l-10.5-10.5v-8H-73v8C-77-68.7-79.3-66.4-83.4-62.3"/>
			</g>
		</g>
		<g id="g1457_00000045585765779369503410000013658901238505315727_" transform="translate(120.5313,321.8257)">
			<g id="path1459_00000109025698594227052700000016385157942765405621_">
				<path class="st4" d="M-59.4-235.6v7l-5.3,5.3h-6.2l-5.3-5.3v-7c0-4.6,3.8-8.4,8.4-8.4C-63.2-244-59.4-240.2-59.4-235.6"/>
			</g>
		</g>
		<g id="g1461_00000019660914879375542110000011905684882632518324_" transform="translate(142.396,246.2749)">
			<g id="path1463_00000103979303709093850180000015365170575500177804_">
				<path class="st4" d="M-73.4-132.8v-11.7l-3.3-3.3h-26c-1.3,1.3-2,2-3.3,3.3v11.7H-73.4z"/>
			</g>
		</g>
		<g id="g1465_00000005981978803159994810000006247646864977835711_" transform="translate(353.8945,194.5)">
			<g id="path1467_00000024686341164964033010000000359965101252080828_">
				<path class="st4" d="M-208.6-62.3h43.9l10.5-10.5v-8H-219v8C-215-68.7-212.7-66.4-208.6-62.3"/>
			</g>
		</g>
		<g id="path1477_00000091727917017664220720000007613636386431702453_">
			<path class="st5" d="M103,168.7h7.2V59.6H103V168.7z"/>
		</g>
		<g id="g1479_00000142178267434813326970000001981316749526858142_" transform="translate(263.895,504.5)">
			<g id="path1481_00000173865824241864931990000007046639881578251913_">
				<path class="st5" d="M-151-484.2h-7.2c-1,1-1.6,1.6-2.7,2.7v7.3h7.2v-7.3L-151-484.2z"/>
			</g>
		</g>
		<g id="g1483_00000128472224125050541360000015147670891695042219_" transform="translate(243.4521,93.4043)">
			<g id="path1485_00000131345442099288346190000017951172269387578557_">
				<path class="st6" d="M-138,75.3h-10.8l-5.6,5.6v8.1h10.8v-8.1L-138,75.3z"/>
			</g>
		</g>
		<g id="g1487_00000010303325901099271180000018137981393511172031_" transform="translate(190.3989,55.5)">
			<g id="path1489_00000030450275519434216470000007651809312618632618_">
				<path class="st5" d="M-104.1,126.8h-10.8l-7.4,7.4v10h10.8v-10L-104.1,126.8z"/>
			</g>
		</g>
		<g id="g1491_00000169534863587764941690000002218847312959369865_" transform="translate(245.5,436.3154)">
			<g id="path1493_00000064319131772922119670000007138523028099016080_">
				<path class="st5" d="M-139.3-391.4c0-6.2,3.8-11.4,9.2-13.6c-1.7-0.7-3.5-1-5.4-1c-8.1,0-14.6,6.5-14.6,14.6s6.5,14.6,14.6,14.6
					c1.9,0,3.7-0.4,5.4-1C-135.5-379.9-139.3-385.2-139.3-391.4"/>
			</g>
		</g>
		<g id="path1495_00000150085373239159202840000004977930813929847733_">
			<path class="st5" d="M124.6,50.4h10.8v-11h-10.8V50.4z"/>
		</g>
		<g id="g1497_00000161633450492275194040000000708683656523443865_" transform="translate(85.9058,444.9165)">
			<g id="path1499_00000121246755946699892950000003878693148412388738_">
				<path class="st5" d="M-37.3-403.1l2.4-2.4h-10.8l-2.4,2.4v6.2l2.4,2.4h10.8l-2.4-2.4V-403.1z"/>
			</g>
		</g>
		<g id="g1501_00000145737230734056348960000004970715064487784086_" transform="translate(37.5,223.4985)">
			<g id="path1503_00000037684946886651747110000008110483731282393232_">
				<path class="st5" d="M-6.3-101.8v-8h-10.8v8l10.5,10.5H4.1L-6.3-101.8z"/>
			</g>
		</g>
		<g id="g1505_00000081619820393819193610000004159732421856338609_" transform="translate(104.0723,302.3706)">
			<g id="path1507_00000056388790122176608810000009793279283762133913_">
				<path class="st5" d="M-48.9-209.1v-7c0-2.6,1.2-4.9,3-6.4c-1.5-1.2-3.3-2-5.4-2c-4.6,0-8.4,3.8-8.4,8.4v7
					c2.1,2.1,3.2,3.2,5.3,5.3h6.2c0.9-0.9,1.6-1.6,2.3-2.3L-48.9-209.1z"/>
			</g>
		</g>
		<g id="g1509_00000115483225332272959570000000772783993815124911_" transform="translate(91.2729,287.7832)">
			<g id="path1511_00000034807044410111150040000002033986775581381768_">
				<path class="st5" d="M-40.7-189.3h-10.8c-1.3,1.3-2,2-3.3,3.3v11.7H-44V-186C-42.7-187.3-42-188-40.7-189.3"/>
			</g>
		</g>
		<g id="g1513_00000126282665991382807410000007359355989542577806_" transform="translate(354.8965,245.6372)">
			<g id="path1515_00000133531203746374332570000006233305109377516950_">
				<path class="st5" d="M-209.2-131.9H-220v8c4.1,4.1,6.4,6.4,10.5,10.5h10.8l-10.5-10.5V-131.9z"/>
			</g>
		</g>
		<g id="g1525_00000106834405826520531770000003628974842779827632_" transform="translate(236.5,113.4043)">
			<g id="path1527_00000016782337989263446060000000621115514631663000_">
				<polygon class="st2" points="-117.8,48 -121.1,48 -121.1,-52.2 -131.9,-52.2 -131.9,48 -135.2,48 -135.2,-55.5 -117.8,-55.5 
									"/>
			</g>
		</g>
		<g id="g1529_00000018198107214714269000000007389185326722018970_" transform="translate(268.105,504.5)">
			<g id="path1531_00000147189706741571706770000011081949718944777150_">
				<path class="st2" d="M-149.4-472.5h-17.3v-9.6l3.6-3.6h10.1l3.6,3.6V-472.5z M-163.5-475.8h10.8v-5l-1.7-1.7h-7.4l-1.7,1.7
					V-475.8z"/>
			</g>
		</g>
		<g id="g1533_00000013171745181713160260000001686397761796999079_" transform="translate(298.5479,93.4043)">
			<g id="path1535_00000006707064977478647770000012671229686903906956_">
				<path class="st2" d="M-166,90.6h-45.1V80.2l6.5-6.5h32l6.5,6.5V90.6z M-207.9,87.3h38.6v-5.8l-4.6-4.6h-29.4l-4.6,4.6V87.3z"/>
			</g>
		</g>
		<g id="g1537_00000100362487785492524810000012969569572957965740_" transform="translate(351.6011,55.5)">
			<g id="path1539_00000149383123473584334240000016654329643753598396_">
				<path class="st2" d="M-198.1,145.8h-87v-12.3l8.3-8.3h70.3l8.3,8.3V145.8z M-281.8,142.5h80.5v-7.7l-6.4-6.4h-67.6l-6.4,6.4
					V142.5z"/>
			</g>
		</g>
		<g id="g1541_00000179621979661344879550000008896647001670062518_" transform="translate(296.5,436.3154)">
			<g id="path1543_00000076561534055400678180000002442449663032987794_">
				<path class="st2" d="M-186.5-375.1c-9,0-16.2-7.3-16.2-16.2c0-9,7.3-16.2,16.2-16.2s16.2,7.3,16.2,16.2
					C-170.3-382.4-177.5-375.1-186.5-375.1z M-186.5-404.4c-7.2,0-13,5.8-13,13c0,7.2,5.8,13,13,13s13-5.8,13-13
					C-173.5-398.5-179.3-404.4-186.5-404.4z"/>
			</g>
		</g>
		<g id="g1545_00000083053910226786503780000001636584880773003408_" transform="translate(271.8159,436.3154)">
			<g id="path1547_00000001636458183446873870000013979728244235448253_">
				<path class="st2" d="M-161.8-384c-4,0-7.3-3.3-7.3-7.3c0-4,3.3-7.3,7.3-7.3s7.3,3.3,7.3,7.3C-154.5-387.3-157.8-384-161.8-384z
					 M-161.8-395.5c-2.3,0-4.1,1.8-4.1,4.1c0,2.3,1.8,4.1,4.1,4.1s4.1-1.8,4.1-4.1C-157.7-393.6-159.6-395.5-161.8-395.5z"/>
			</g>
		</g>
		<g id="g1549_00000105405233888648291780000005366496846924616843_" transform="translate(316.4434,451.5654)">
			<g id="path1551_00000137846765179586964370000013167191419631570826_">
				<polygon class="st2" points="-136,-399.5 -184.6,-399.5 -184.6,-402.7 -137.3,-402.7 -135.9,-404.2 -135.9,-409.1 
					-137.3,-410.5 -184.6,-410.5 -184.6,-413.7 -136,-413.7 -132.6,-410.4 -132.6,-402.8 				"/>
			</g>
		</g>
		<g id="g1553_00000038381788359709788030000008591635013625648564_" transform="translate(195.7617,421.0654)">
			<g id="path1555_00000027573449832767655090000011888610747022736291_">
				<polygon class="st2" points="-107.5,-369 -156.2,-369 -159.6,-372.3 -159.6,-379.9 -156.2,-383.2 -107.5,-383.2 -107.5,-380 
					-154.9,-380 -156.3,-378.6 -156.3,-373.7 -154.9,-372.2 -107.5,-372.2 				"/>
			</g>
		</g>
		<g id="g1557_00000040569960211699118710000012621958691773145014_" transform="translate(158.1055,194.5)">
			<g id="path1559_00000015319277172693054020000008253980493752391317_">
				<path class="st2" d="M-82.8-60.7H-128l-11.4-11.4v-10.3h68v10.3L-82.8-60.7z M-126.6-63.9h42.5l9.5-9.5v-5.7h-61.6v5.7
					L-126.6-63.9z"/>
			</g>
		</g>
		<g id="g1561_00000180340340208191839480000015068172968216607626_" transform="translate(7.5,245.6372)">
			<g id="path1563_00000025419009974267788720000012256926889955188916_">
				<polygon class="st2" points="76.2,-131.2 45.2,-191.4 14.3,-131.2 11.4,-132.6 43.8,-195.7 46.7,-195.7 79.1,-132.6 				"/>
			</g>
		</g>
		<g id="g1565_00000061465538305955715690000011761612892933616526_" transform="translate(213,34.5)">
			<g id="path1567_00000087377814354809866950000013461117109578532031_">
				<path class="st5" d="M-70.9,158.1h-29.6v-5.4h29.6V158.1z M-104.1,158.1h-5.4v-5.4h5.4V158.1z M-113.1,158.1h-5.4v-5.4h5.4
					V158.1z"/>
			</g>
		</g>
		<g id="g1569_00000092435257845985123000000015754622936437477009_" transform="translate(44.0024,220.0684)">
			<g id="path1571_00000062162553887658309390000003944401987118480822_">
				<path class="st5" d="M28-94.4H11.7v-5.4H28V-94.4z M8.9-94.4H4.5v-5.4h4.3V-94.4z M1.7-94.4h-4.3v-5.4h4.3V-94.4z"/>
			</g>
		</g>
		<g id="g1573_00000004534472000390354820000006902634765291337383_" transform="translate(120.5313,321.8257)">
			<g id="path1575_00000040536006396397239900000014323701748515490484_">
				<path class="st2" d="M-64-221.7h-7.6l-6.2-6.2v-7.7c0-5.5,4.5-10,10-10c5.5,0,10,4.5,10,10v7.7L-64-221.7z M-70.2-224.9h4.9
					l4.3-4.3v-6.3c0-3.7-3-6.8-6.8-6.8c-3.7,0-6.8,3-6.8,6.8v6.3L-70.2-224.9z"/>
			</g>
		</g>
		<g id="g1577_00000178196604907240332010000008582061904967406499_" transform="translate(142.396,246.2749)">
			<g id="path1579_00000139993019481585405590000000679823715231343768_">
				<path class="st2" d="M-71.8-131.1h-35.8v-14l4.2-4.2H-76l4.2,4.2V-131.1z M-104.3-134.4H-75v-9.4l-2.3-2.3H-102l-2.3,2.3V-134.4
					z"/>
			</g>
		</g>
		<g id="g1581_00000105424243159767179720000008647180866274902706_" transform="translate(353.8945,194.5)">
			<g id="path1583_00000100370251407536582020000015723940770857093049_">
				<path class="st2" d="M-164-60.7h-45.2l-11.4-11.4v-10.3h68v10.3L-164-60.7z M-207.9-63.9h42.5l9.5-9.5v-5.7h-61.6v5.7
					L-207.9-63.9z"/>
			</g>
		</g>
		<g id="g1585_00000138574790179927904480000017488790046855927195_" transform="translate(504.5,245.6372)">
			<g id="path1587_00000015356185895784883000000012393424258032403120_">
				<polygon class="st2" points="-368.2,-131.2 -371.1,-132.6 -338.7,-195.7 -335.8,-195.7 -303.4,-132.6 -306.3,-131.2 
					-337.2,-191.4 				"/>
			</g>
		</g>
		<g id="g1589_00000066510486380463919500000000468797658735839411_" transform="translate(361.3989,220.0684)">
			<g id="path1591_00000106110003070526202640000002268043383861462671_">
				<path class="st5" d="M-174.9-94.4h-16.7v-5.4h16.7V-94.4z M-194.5-94.4h-4.4v-5.4h4.4V-94.4z M-201.9-94.4h-4.4v-5.4h4.4V-94.4z
					"/>
			</g>
		</g>
		<g id="g1601_00000111890765390750367360000012269225566138597560_" transform="translate(255.9966,132.3335)">
			<g id="path1603_00000168087272688083404680000005504013775944676744_">
				<rect x="-153" y="20.7" class="st2" width="7" height="3.2"/>
			</g>
		</g>
		<g id="g1605_00000052078177118144412720000015999891953278210212_" transform="translate(76.104,267.0288)">
			<g id="path1607_00000049202162784806099820000007702626547226112682_">
				<rect x="-32.6" y="-161" class="st2" width="3.2" height="7.5"/>
			</g>
		</g>
		<g id="g1609_00000052080449145162672240000009809683893582887588_" transform="translate(118.5,267.0288)">
			<g id="path1611_00000138559104109411247850000016030745496568506041_">
				<rect x="-59.7" y="-161" class="st2" width="3.2" height="7.5"/>
			</g>
		</g>
	</g>
</g>
</svg>
