<?xml version="1.0" encoding="utf-8"?>
<!-- Generator: Adobe Illustrator 27.9.0, SVG Export Plug-In . SVG Version: 6.00 Build 0)  -->
<svg version="1.1" id="svg4011" xmlns:svg="http://www.w3.org/2000/svg"
	 xmlns="http://www.w3.org/2000/svg" xmlns:xlink="http://www.w3.org/1999/xlink" x="0px" y="0px" viewBox="0 0 220 220"
	 style="enable-background:new 0 0 220 220;" xml:space="preserve">
<style type="text/css">
	.st0{fill:#FCF7ED;}
	.st1{fill:#FAB716;}
	.st2{fill:#FFF5E3;}
	.st3{fill:#26375D;}
</style>
<g>
	<path class="st0" d="M134.5,159.6h-24V75.9c0-5.3,4.3-9.6,9.6-9.6h4.8c5.3,0,9.6,4.3,9.6,9.6V159.6z"/>
	<path class="st1" d="M134.5,118.8c-7.3,3.4-15.3,6.4-24,8.5v32.3h24V118.8z"/>
	<path class="st0" d="M100.1,159.6h-24V97c0-4.6,3.7-8.3,8.3-8.3h7.3c4.6,0,8.3,3.7,8.3,8.3V159.6z"/>
	<path class="st0" d="M168.9,146.2h-24V49.7c0-5.2,4.3-9.5,9.5-9.5h5c5.2,0,9.5,4.3,9.5,9.5V146.2z"/>
	<path class="st1" d="M168.9,96.4c-6.1,5.2-14.1,11.3-24,16.9v32.9h24V96.4z"/>
	<path class="st0" d="M65.6,129.1l48.2-25.6c6-3.2,13,2.1,11.7,8.7c-1,4.9-3.3,10-8,13.9l-4.9,4c-2.5,2-1,6,2.1,6l19.8,0
		c6.5,0,12.8-2,18-5.7l22.1-15.6c4.2-2.9,9.9-2.4,13.4,1.2c4.3,4.4,3.9,11.4-0.8,15.3l-29,23.8c-3.6,3-7.9,5.1-12.4,6.2L82.2,177
		L65.6,129.1z"/>
	<path class="st2" d="M92.3,154.3c-18.3-5.4-16.9-30.3-16.9-30.3l-9.8,5.2L82.2,177l48.5-11.9C120.5,162.3,104.1,157.7,92.3,154.3z"
		/>
	<path class="st0" d="M65.6,129.1l18,48.1c3,8-1.7,16.7-10,18.6l-17.2,3.9c-7.4,1.7-14.8-2.8-16.7-10.2l-9.3-35.7
		c-2-7.6,2.5-15.4,10-17.5L65.6,129.1z"/>
	<path class="st1" d="M83.6,177.2l-2.8-7.5c-7.2-3.4-15-4-21.3-3.8c-8.2,0.3-15-6.3-14.7-14.5c0.3-9,2.2-17,2.2-17l-6.6,1.9
		c-7.6,2.2-12,9.9-10,17.5l9.3,35.7c1.9,7.3,9.3,11.8,16.7,10.2l17.2-3.9C81.9,193.9,86.6,185.2,83.6,177.2z"/>
	<path class="st0" d="M67.9,179.9c0,4.4-3.6,8-8,8s-8-3.6-8-8c0-4.4,3.6-8,8-8S67.9,175.5,67.9,179.9z"/>
	<path class="st0" d="M128.3,19.9h-21.7c-3.1,0-5.6,2.5-5.6,5.6c0,3.1,2.5,5.6,5.6,5.6h7.7L91.6,53l-10.8-5.6
		c-2.2-1.1-4.9-0.7-6.6,1L30.4,92.7c-2.2,2.2-2.2,5.8,0,8c1.1,1.1,2.5,1.6,4,1.6c1.5,0,2.9-0.6,4-1.7l40.9-41.2L90,64.9
		c2.1,1.1,4.8,0.7,6.5-0.9l26.1-25.1v8.7c0,3.1,2.5,5.6,5.6,5.6c3.1,0,5.6-2.5,5.6-5.6V25.6c0,0,0,0,0,0
		C134,21,130.6,19.9,128.3,19.9z"/>
	<path class="st3" d="M190,114.2c-8.5-8.5-18.4-0.5-18.4-0.5V68.9c0-1.5-1.2-2.7-2.7-2.7c-1.5,0-2.7,1.2-2.7,2.7v48.5
		c0,0-13,10.2-18.5,12.7V49.7c0-3.7,3-6.8,6.8-6.8h5c3.7,0,6.8,3,6.8,6.8v8.1c0,1.5,1.2,2.7,2.7,2.7c1.5,0,2.7-1.2,2.7-2.7v-8.1
		c0-6.7-5.5-12.2-12.2-12.2h-5c-6.7,0-12.2,5.5-12.2,12.2v82.6c-1.6,0.5-3.3,0.8-5,0.9V75.9c0-6.8-5.5-12.3-12.3-12.3h-4.8
		c-6.8,0-12.3,5.5-12.3,12.3v27.7l-5,2.6V97c0-6.1-5-11.1-11.1-11.1h-7.3c-6.1,0-11.1,5-11.1,11.1v24.8l-8.9,4.7l-24.9,7.1
		c-4.3,1.2-8,4.1-10.2,8c-2.2,3.9-2.8,8.5-1.7,12.8l2.8,10.7c0.4,1.5,1.9,2.3,3.3,1.9c1.5-0.4,2.3-1.9,1.9-3.3L33,153.2
		c-1.6-6.2,2-12.5,8.1-14.2l22.8-6.5l17.1,45.7c1.1,3.1,1,11.8-8.1,15l-17.2,3.9c-6,1.4-11.9-2.2-13.5-8.2l-3.5-13.5
		c-0.4-1.5-1.9-2.3-3.3-1.9c-1.5,0.4-2.3,1.9-1.9,3.3l3.5,13.5c2,7.6,8.7,12.6,16.2,12.6c5.5,0,21-4.3,21-4.3
		c4.7-1.1,8.7-4.1,11-8.4c1.9-3.5,2.5-7.6,1.6-11.4l59.6-14.6c4.9-1.2,9.6-3.5,13.5-6.8l29-23.8C197.8,125.6,192.6,116.8,190,114.2z
		 M120.1,69.1h4.8c3.8,0,6.8,3.1,6.8,6.8v57.5l-17.2,0c-1.6,0-0.5-1.1-0.4-1.1l4.9-4c4.6-3.7,7.6-8.9,8.9-15.4
		c0.8-4.1-0.7-8.3-4.1-10.8c-3.2-2.4-7.2-2.8-10.8-1.3V75.9C113.3,72.1,116.3,69.1,120.1,69.1z M78.9,97c0-3.1,2.5-5.6,5.6-5.6h7.3
		c3.1,0,5.6,2.5,5.6,5.6v12.1L78.9,119V97z M185.5,129.3l-29,23.8c-3.3,2.7-7.2,4.7-11.4,5.7l-60,14.7L69,130.4l46.1-24.5
		c1.9-1,4-0.8,5.7,0.4c1.7,1.3,2.5,3.3,2,5.3c-1.1,5.2-3.4,9.4-7,12.3l-4.9,4c-2,1.6-2.8,4.3-1.9,6.7c0.9,2.5,3.1,4,5.7,4l19.8,0h0
		c7.1,0,13.8-2.1,19.6-6.2l22.1-15.6c3.1-2.2,7.3-1.8,9.9,0.9C187.7,119.5,190.6,124.2,185.5,129.3z"/>
	<path class="st3" d="M70.6,179.9c0-5.9-4.8-10.7-10.7-10.7s-10.7,4.8-10.7,10.7c0,5.9,4.8,10.7,10.7,10.7
		C65.8,190.6,70.6,185.8,70.6,179.9z M54.7,179.9c0-2.9,2.4-5.3,5.3-5.3c2.9,0,5.3,2.4,5.3,5.3c0,2.9-2.4,5.3-5.3,5.3
		C57,185.2,54.7,182.8,54.7,179.9z"/>
	<path class="st3" d="M40.4,102.6l39.5-39.8l8.9,4.6c3.2,1.6,7.1,1.1,9.6-1.4L120,45.2c0,0-0.6,10.6,8.4,10.6c4.6,0,8.4-3.8,8.4-8.4
		V25.6c0,0,0-0.1,0-0.1c0-5.7-4.2-8.3-8.4-8.3h-21.7c-4.6,0-8.4,3.8-8.4,8.4c0,9.2,9.4,8.4,9.4,8.4L91.2,49.7l-9-4.7
		c-3.3-1.7-7.2-1.1-9.8,1.5L28.5,90.8c-3.2,3.3-3.2,8.6,0,11.8C30.1,104.2,35.5,107.4,40.4,102.6z M32.4,94.6l43.9-44.2
		c0.6-0.6,1.5-1.6,3.4-0.5l10.7,5.6c1,0.5,2.3,0.4,3.1-0.5l22.7-21.8c0.8-0.8,1.1-1.9,0.6-3c-0.4-1-1.4-1.7-2.5-1.7h-7.7
		c-1.6,0-2.9-1.3-2.9-2.9c0-1.6,1.3-2.9,2.9-2.9h21.7c0.8,0,2.9,0,2.9,2.9c0,0,0,0,0,0.1v21.9c0,1.6-1.3,2.9-2.9,2.9
		c-1.6,0-2.9-1.3-2.9-2.9v-8.7c0-1.1-0.7-2.1-1.7-2.5c-1-0.4-2.2-0.2-2.9,0.5L94.7,62c-0.9,0.9-2.3,1.1-3.4,0.5L80.6,57
		c-1.1-0.5-2.3-0.3-3.2,0.5L36.5,98.7c-1.8,1.8-3.6,0.6-4.1,0C31.2,97.6,31.2,95.8,32.4,94.6z"/>
</g>
</svg>
