<?xml version="1.0" encoding="utf-8"?>
<!-- Generator: Adobe Illustrator 28.3.0, SVG Export Plug-In . SVG Version: 6.00 Build 0)  -->
<svg version="1.1" xmlns="http://www.w3.org/2000/svg" xmlns:xlink="http://www.w3.org/1999/xlink" x="0px" y="0px"
	 viewBox="0 0 2200 2200" style="enable-background:new 0 0 2200 2200;" xml:space="preserve">
<style type="text/css">
	.st0{fill:#FFFFFF;}
	.st1{fill:#5CC144;}
	.st2{fill:#C13838;}
	.st3{fill:#009CD3;}
</style>
<g id="background">
</g>
<g id="Objects">
	<path class="st3" d="M2105.34,1110.63c0,131.46-25.75,258.99-76.54,379.09c-49.05,115.97-119.26,220.1-208.69,309.53
		c-89.43,89.43-193.58,159.65-309.55,208.69c-120.08,50.79-247.61,76.54-379.07,76.54s-258.99-25.75-379.07-76.54
		c-115.97-49.05-220.12-119.26-309.55-208.69s-159.65-193.56-208.69-309.53c-50.79-120.1-76.54-247.63-76.54-379.09
		s25.76-258.99,76.54-379.07c49.05-115.97,119.26-220.12,208.69-309.55c89.43-89.43,193.58-159.63,309.55-208.69
		c120.08-50.79,247.61-76.54,379.07-76.54s258.99,25.76,379.07,76.54c115.97,49.06,220.12,119.26,309.55,208.69
		c89.43,89.43,159.65,193.58,208.69,309.55C2079.59,851.63,2105.34,979.17,2105.34,1110.63z"/>
	<path class="st0" d="M1605.48,1591.02l-43.6,56.58c-14.99,19.48-37.64,31.62-62.18,33.16c-55.28,3.52-174.09-10.81-335.35-104.23
		c-231.04-133.84-404.03-349.66-481.64-605.16c-52.89-174.16-39.03-289.72-23.54-342.49c6.94-23.57,23.76-42.99,46.06-53.33
		l64.8-30.02c27.07-12.54,59.23-3.04,75.15,22.16l162.03,256.78c17.5,27.7,9.2,64.35-18.52,81.83l-72.05,45.48
		c-8.82,5.56-12.93,16.23-10.12,26.26c0.91,3.26,1.98,6.95,3.2,11.05c46.82,155.86,152.21,287.75,293.91,367.82
		c3.72,2.1,7.09,3.97,10.08,5.57c9.17,4.94,20.48,3.3,27.84-4.06l60.27-60.27c23.17-23.17,60.74-23.17,83.92,0l214.69,214.69
		C1621.51,1533.94,1623.67,1567.4,1605.48,1591.02z"/>
</g>
</svg>
