<?xml version="1.0" encoding="utf-8"?>
<!-- Generator: Adobe Illustrator 27.9.1, SVG Export Plug-In . SVG Version: 6.00 Build 0)  -->
<svg version="1.1" id="Layer_1" xmlns="http://www.w3.org/2000/svg" xmlns:xlink="http://www.w3.org/1999/xlink" x="0px" y="0px"
	 viewBox="0 0 512 512" style="enable-background:new 0 0 512 512;" xml:space="preserve">
<style type="text/css">
	.st0{fill:#FFFFFF;}
	.st1{fill:#DDDDDD;}
	.st2{fill:#FFBB08;}
	.st3{fill:#27375D;}
</style>
<g id="Page-1">
	<g id="_x30_59---Alert">
		<path id="Shape" class="st0" d="M294.6,441.2c0,21.3-17.3,38.6-38.6,38.6H70.8c-10.2,0-20-4.1-27.3-11.3
			c-7.2-7.2-11.3-17-11.3-27.3V70.8c0-21.3,17.3-38.6,38.6-38.6H256c10.2,0,20,4.1,27.3,11.3c7.2,7.2,11.3,17,11.3,27.3V441.2z"/>
		<path id="Shape_00000044880744654335898110000012502839559012224937_" class="st1" d="M256,32.2h-23.1c10.2,0,20,4.1,27.3,11.3
			c7.2,7.2,11.3,17,11.3,27.3v370.4c0,21.3-17.3,38.6-38.6,38.6H256c21.3,0,38.6-17.3,38.6-38.6V70.8c0-10.2-4.1-20-11.3-27.3
			C276,36.3,266.2,32.2,256,32.2z"/>
		<path id="Shape_00000131345627842473146590000014274645676205252249_" class="st0" d="M248.3,32.2L229.4,70
			c-2.6,5.2-8,8.5-13.8,8.5H111.2c-5.8,0-11.2-3.3-13.8-8.5L78.5,32.2H248.3z"/>
		<path id="Shape_00000085969780243215450210000015382837117401514647_" class="st0" d="M186.6,209.7L98,256.9
			c-2.5,1.3-4.1,4-4.1,6.8s1.6,5.4,4.1,6.8l88.5,47.2v54c0,21.3,17.3,38.6,38.6,38.6h216.1c21.3,0,38.6-17.3,38.6-38.6V155.7
			c0-21.3-17.3-38.6-38.6-38.6H225.1c-21.3,0-38.6,17.3-38.6,38.6V209.7z"/>
		<path id="Shape_00000044162299480212258700000004671959276826921397_" class="st0" d="M333.2,348.6h80c7.1,0.1,13.8-3.5,17.4-9.6
			s3.7-13.7,0.2-19.9l-80-137.9c-3.7-6.2-10.4-10-17.6-10c-7.2,0-13.9,3.8-17.6,10l-80,137.9c-3.5,6.2-3.4,13.8,0.2,19.9
			c3.6,6.1,10.3,9.8,17.4,9.6H333.2z"/>
		<path id="Shape_00000098197893884443755390000012263054597468510340_" class="st0" d="M55.4,441.2V70.8
			c0-21.3,17.3-38.6,38.6-38.6H70.8c-21.3,0-38.6,17.3-38.6,38.6v370.4c0,10.2,4.1,20,11.3,27.3c7.2,7.2,17,11.3,27.3,11.3H94
			C72.6,479.8,55.4,462.5,55.4,441.2z"/>
		<path id="Rectangle-path" class="st0" d="M24.5,379.5h15.4v61.7H24.5V379.5z"/>
		<g>
			<path id="Shape_00000093894517763769711070000008066758290695052928_" class="st2" d="M32.2,387.2c4.3,0,7.7-3.5,7.7-7.7V70.8
				c0-17,13.8-30.9,30.9-30.9h2.9l16.8,33.5c3.9,7.9,11.9,12.8,20.7,12.8h104.4c8.8,0,16.8-4.9,20.7-12.8l16.8-33.5h2.9
				c17,0,30.9,13.8,30.9,30.9v15.4c0,4.3,3.5,7.7,7.7,7.7s7.7-3.5,7.7-7.7V70.8c0-25.6-20.7-46.3-46.3-46.3H70.8
				c-25.6,0-46.3,20.7-46.3,46.3v308.7C24.5,383.7,28,387.2,32.2,387.2z M222.5,66.5c-1.3,2.6-4,4.3-6.9,4.3H111.2
				c-2.9,0-5.6-1.6-6.9-4.3L91,39.9h144.8L222.5,66.5z"/>
			<path id="Shape_00000018926274002102610450000006342254035470917054_" class="st2" d="M32.4,418c-4.3,0-7.7-3.4-7.8-7.7
				s3.4-7.7,7.7-7.8h0.1c4.3,0,7.7,3.5,7.7,7.7S36.6,418,32.4,418z"/>
			<path id="Shape_00000173127109013261596380000001789060278059359122_" class="st2" d="M294.6,433.5c-4.3,0-7.7,3.5-7.7,7.7
				c0,17-13.8,30.9-30.9,30.9H70.8c-17,0-30.9-13.8-30.9-30.9c0-4.3-3.5-7.7-7.7-7.7s-7.7,3.5-7.7,7.7c0,25.6,20.7,46.3,46.3,46.3
				H256c25.6,0,46.3-20.7,46.3-46.3C302.3,436.9,298.8,433.5,294.6,433.5z"/>
			<path id="Shape_00000005960079960408307410000016881732701453299076_" class="st2" d="M225.1,456.6c4.3,0,7.7-3.5,7.7-7.7
				s-3.5-7.7-7.7-7.7H101.7c-4.3,0-7.7,3.5-7.7,7.7s3.5,7.7,7.7,7.7H225.1z"/>
			<path id="Shape_00000073001772775883359380000013883162550538165148_" class="st2" d="M441.2,109.4H225.1
				c-25.6,0-46.3,20.7-46.3,46.3v49.4l-84.5,45c-5,2.7-8.1,7.9-8.1,13.6c0,5.7,3.1,10.9,8.1,13.6l84.5,45v49.4
				c0,25.6,20.7,46.3,46.3,46.3h216.1c25.6,0,46.3-20.7,46.3-46.3V155.7C487.5,130.1,466.8,109.4,441.2,109.4z M472.1,371.7
				c0,17-13.8,30.9-30.9,30.9H225.1c-17,0-30.9-13.8-30.9-30.9v-54c0-2.9-1.6-5.5-4.1-6.8l-88.5-47.2l88.5-47.2
				c2.5-1.3,4.1-4,4.1-6.8v-54c0-17,13.8-30.9,30.9-30.9h216.1c17,0,30.9,13.8,30.9,30.9V371.7z"/>
			<path id="Shape_00000068672404041439919600000010191959298676328889_" class="st3" d="M357.5,177.3c-5.1-8.6-14.3-13.9-24.3-13.9
				s-19.2,5.3-24.3,13.9l-80,137.9c-4.9,8.4-4.9,18.8,0,27.2c5,8.7,14.3,14,24.3,14h160.1c10,0.1,19.3-5.2,24.3-14
				c4.9-8.4,4.9-18.8,0-27.2L357.5,177.3z M424.2,334.7c-2.3,3.9-6.5,6.2-11,6.2H253.1c-4.5,0.1-8.7-2.3-11-6.2
				c-2.2-3.6-2.2-8.1,0-11.7l80-137.9c2.3-3.8,6.5-6.2,10.9-6.2c4.5,0,8.6,2.3,10.9,6.2l80,137.9C426.3,326.5,426.3,331,424.2,334.7
				L424.2,334.7z"/>
			<path id="Shape_00000150099184719877091890000009752765613329231039_" class="st3" d="M333.2,209.7c-4.3,0-7.7,3.5-7.7,7.7v61.7
				c0,4.3,3.5,7.7,7.7,7.7s7.7-3.5,7.7-7.7v-61.7C340.9,213.2,337.4,209.7,333.2,209.7z"/>
			<path id="Shape_00000122678515223798760620000010802043204686265531_" class="st3" d="M333.2,302.3c-4.3,0-7.7,3.5-7.7,7.7v7.7
				c0,4.3,3.5,7.7,7.7,7.7s7.7-3.5,7.7-7.7V310C340.9,305.8,337.4,302.3,333.2,302.3z"/>
		</g>
	</g>
</g>
</svg>
