<?xml version="1.0" encoding="utf-8"?>
<!-- Generator: Adobe Illustrator 27.9.1, SVG Export Plug-In . SVG Version: 6.00 Build 0)  -->
<svg version="1.1" id="Layer_1" xmlns="http://www.w3.org/2000/svg" xmlns:xlink="http://www.w3.org/1999/xlink" x="0px" y="0px"
	 viewBox="0 0 250 250" style="enable-background:new 0 0 250 250;" xml:space="preserve">
<style type="text/css">
	.st0{fill:#27375D;}
	.st1{fill:#FFBB08;}
</style>
<g>
	<path class="st0" d="M39.2,184.7c-5,0-5,7.5,0,7.5h37.3c5,0,5-7.5,0-7.5H39.2z"/>
	<path class="st0" d="M166.5,139.9c-0.1,0-0.3,0-0.4,0H68.8c-4.8,0.6-4.4,7.3,0.2,7.4l0,0h97.1C171.2,147.8,171.6,140,166.5,139.9z"
		/>
	<path class="st0" d="M39.1,147.4h14.9c5.1,0.4,5.6-7.3,0.2-7.4l-15.3,0C34.2,140.5,34.5,147.3,39.1,147.4z"/>
	<path class="st0" d="M106.4,162.3H39.2c-4.9,0.1-4.9,7.4,0,7.5h67.2C111.2,169.7,111.2,162.4,106.4,162.3z"/>
	<path class="st0" d="M91.4,192.2h14.9c5,0,5-7.5,0-7.5H91.4C86.5,184.7,86.5,192.2,91.4,192.2z"/>
	<path class="st0" d="M166.1,162.3h-44.8c-2.1,0-3.7,1.7-3.7,3.7v44.8c0,2.1,1.7,3.7,3.7,3.8h44.8c2.1,0,3.7-1.7,3.7-3.8v-44.8
		C169.8,164,168.2,162.3,166.1,162.3z M162.4,207.1H125v-37.3h37.3V207.1z"/>
	<path class="st1" d="M181,229.5H39.1c-10.4,0-18.7-8.3-18.7-18.7V39.1c0-2.1-1.7-3.8-4-3.8c-2.1,0.2-3.5,1.9-3.5,3.8v171.7
		c0,14.4,11.7,26.2,26.1,26.2H181C186.1,237.1,186.1,229.4,181,229.5z"/>
	<path class="st0" d="M98.9,125h67.2c4.9-0.1,4.9-7.4,0-7.5H98.7C93.6,117.9,94,125.1,98.9,125z"/>
	<path class="st0" d="M39.2,214.6h67.2c5,0,5-7.5,0-7.5H39C33.8,207.4,34.2,214.8,39.2,214.6z"/>
	<path class="st1" d="M225.8,50.3h-22.4c-5.1-0.1-5.1,7.6,0,7.5h22.4c2.1,0,3.7,1.6,3.7,3.7v149.3c0,10.4-8.3,18.7-18.7,18.7
		c-10.4,0-18.7-8.3-18.7-18.7V24.2c0-6.1-5-11.2-11.2-11.2L24.2,13C18.1,13,13,18.1,13,24.2c-0.5,5.4,7.9,5.4,7.4,0
		c0-2.1,1.6-3.7,3.7-3.7H181c2.1,0,3.7,1.6,3.7,3.7v186.6c0,14.4,11.7,26.1,26.1,26.1c14.4,0,26.2-11.7,26.2-26.2V61.5c0,0,0,0,0,0
		C237,55.4,231.9,50.3,225.8,50.3z"/>
	<path class="st0" d="M35.4,121.3c0,2.1,1.7,3.8,3.7,3.7h44.8c2.1,0,3.8-1.7,3.8-3.7V76.5c0-2.1-1.7-3.8-3.8-3.8H39.1
		c-2.1,0-3.8,1.7-3.7,3.8V121.3z M42.9,80.2h37.3v37.3H42.9V80.2z"/>
	<path class="st0" d="M166.1,95.1h-15.1c-5.2,0.3-4.8,7.7,0.2,7.5h14.9C171,102.6,171,95.1,166.1,95.1z"/>
	<path class="st0" d="M166.1,35.4H39.1c-2.1,0-3.8,1.7-3.7,3.7v14.9c0,2.1,1.7,3.7,3.7,3.7h126.9c2.1,0,3.7-1.7,3.7-3.7V39.1
		C169.8,37.1,168.1,35.4,166.1,35.4z M162.3,50.3H42.9v-7.5h119.5V50.3z"/>
	<path class="st0" d="M136.2,95.1H98.7c-5.2,0.2-4.8,7.7,0.2,7.5h37.3C141.2,102.6,141.2,95.1,136.2,95.1z"/>
	<path class="st0" d="M166.1,72.7h-44.8c-5,0-5,7.5,0,7.5h44.8C171,80.2,171,72.7,166.1,72.7z"/>
</g>
</svg>
