<?xml version="1.0" encoding="utf-8"?>
<!-- Generator: Adobe Illustrator 27.9.1, SVG Export Plug-In . SVG Version: 6.00 Build 0)  -->
<svg version="1.1" id="Layer_1" xmlns="http://www.w3.org/2000/svg" xmlns:xlink="http://www.w3.org/1999/xlink" x="0px" y="0px"
	 viewBox="0 0 250 250" style="enable-background:new 0 0 250 250;" xml:space="preserve">
<style type="text/css">
	.st0{fill:none;stroke:#27375D;stroke-width:7;stroke-miterlimit:10;}
	.st1{fill:#FFBB08;}
</style>
<g>
	<g>
		<g>
			<path class="st0" d="M48.4,77.4c-8.3,0-15.1-6.8-15.1-15.1S40,47.2,48.4,47.2s15.1,6.8,15.1,15.1S56.7,77.4,48.4,77.4z"/>
		</g>
	</g>
	<g>
		<g>
			<path class="st0" d="M191.2,123.6c-12.7,0-23-10.3-23-23s10.3-23,23-23c12.7,0,23,10.3,23,23S203.9,123.6,191.2,123.6z"/>
		</g>
	</g>
	<g>
		<path class="st1" d="M121.5,30.9h20.9v7h-20.9V30.9z"/>
		<path class="st1" d="M107.6,30.9h7v7h-7V30.9z"/>
		<path class="st1" d="M88.7,177.3h-2c-3.8,0-7,3.1-7,7v7c0,3.8,3.1,7,7,7h2c1.9,0,3.6-0.7,4.9-2l8.4-8.4l-8.4-8.4
			C92.3,178,90.6,177.3,88.7,177.3z M88.7,191.2h-2v-7h2l3.5,3.5L88.7,191.2z"/>
		<path class="st1" d="M128.5,177.3h-7c-3.8,0-7,3.1-7,7v7c0,3.8,3.1,7,7,7h7c3.8,0,7-3.1,7-7v-7
			C135.5,180.4,132.3,177.3,128.5,177.3z M121.5,191.2v-7h7l0,7H121.5z"/>
		<path class="st1" d="M163.3,177.3h-2c-1.9,0-3.6,0.7-4.9,2l-8.4,8.4l8.4,8.4c1.3,1.3,3.1,2,4.9,2h2c3.8,0,7-3.1,7-7v-7
			C170.3,180.4,167.2,177.3,163.3,177.3z M161.3,191.2l-3.5-3.5l3.5-3.5h2l0,7H161.3z"/>
		<path class="st1" d="M191.6,58.8h-0.4V34.4c0-9.6-7.8-17.4-17.4-17.4H76.2C67.3,17,60,23.8,59,32.4c-2.9-1-6-1.5-9.3-1.5H47
			c-16.5,0-30,13.4-30,30c0,6.2,1.9,12.1,5.4,17.2L40,103.2c1.9,2.7,5,4.3,8.3,4.3s6.4-1.6,8.3-4.3l2.1-3v115.4
			c0,9.6,7.8,17.4,17.4,17.4h97.5c9.6,0,17.4-7.8,17.4-17.4v-45.3c3.4,0,6.5-1.7,8.3-4.6l27.2-43.6c4.1-6.6,6.3-14.2,6.3-21.9
			C233,77.4,214.4,58.8,191.6,58.8z M155.7,122.1l12.7,20.3H125c-1.9,0-3.5-1.6-3.5-3.5v-34.8c0-13.4-10.9-24.4-24.4-24.4h-24
			l1.1-1.6c3.5-5.1,5.4-11,5.4-17.2c0-3.2-0.5-6.2-1.4-9.1h105.9v7.5c-19.7,3.2-34.8,20.2-34.8,40.8
			C149.4,108,151.6,115.5,155.7,122.1L155.7,122.1z M65.8,34.4c0-5.8,4.7-10.5,10.5-10.5h97.5c5.8,0,10.5,4.7,10.5,10.5v10.5H75
			c-2.4-3.7-5.5-6.9-9.2-9.2V34.4z M51,99.2c-1.2,1.7-4.1,1.7-5.3,0L28.1,74.1c-2.7-3.9-4.2-8.4-4.2-13.2c0-12.7,10.3-23,23-23h2.8
			c12.7,0,23,10.3,23,23c0,4.7-1.4,9.3-4.2,13.2L51,99.2z M68.3,86.7h28.8c9.6,0,17.4,7.8,17.4,17.4v34.8c0,5.8,4.7,10.5,10.5,10.5
			h47.7l8.7,13.9H118c-9.6,0-17.4-7.8-17.4-17.4v-34.8c0-5.8-4.7-10.5-10.5-10.5H65.8V90.3L68.3,86.7z M173.8,226H76.2
			c-5.8,0-10.5-4.7-10.5-10.5v-7.1c2.9,2.2,6.5,3.6,10.5,3.6h97.5c3.9,0,7.5-1.4,10.5-3.6v7.1C184.2,221.3,179.5,226,173.8,226z
			 M173.8,205.1H76.2c-5.8,0-10.5-4.7-10.5-10.5v-87.1h24.4c1.9,0,3.5,1.6,3.5,3.5v34.8c0,13.4,10.9,24.4,24.4,24.4h66.2v24.4
			C184.2,200.4,179.5,205.1,173.8,205.1z M220.8,118.4L193.6,162c-1,1.6-3.7,1.6-4.7,0l-27.2-43.6c-3.4-5.5-5.2-11.8-5.2-18.2
			c0-19,15.4-34.4,34.4-34.4h0.8c19,0,34.4,15.4,34.4,34.4C226,106.7,224.2,113,220.8,118.4L220.8,118.4z"/>
		<path class="st1" d="M100.6,58.8h7v7h-7V58.8z"/>
		<path class="st1" d="M86.7,58.8h7v7h-7V58.8z"/>
		<path class="st1" d="M114.5,58.8h7v7h-7V58.8z"/>
	</g>
</g>
</svg>
