<?xml version="1.0" encoding="utf-8"?>
<!-- Generator: Adobe Illustrator 27.9.1, SVG Export Plug-In . SVG Version: 6.00 Build 0)  -->
<svg version="1.1" id="Layer_1" xmlns="http://www.w3.org/2000/svg" xmlns:xlink="http://www.w3.org/1999/xlink" x="0px" y="0px"
	 viewBox="0 0 250 250" style="enable-background:new 0 0 250 250;" xml:space="preserve">
<style type="text/css">
	.st0{fill:#1F4168;}
</style>
<g>
	<path class="st0" d="M196.9,39c-19.4,0-35.8,13.4-40.3,31.4H28.1c-4.3,0-8.4,1.7-11.6,4.7c0,0,0,0,0,0c0,0,0,0,0,0
		c-3.2,3.2-5,7.4-5,11.9v107.4c0,4.6,1.9,9,5.3,12.1c0,0,0,0,0,0c3.1,2.9,7.1,4.5,11.3,4.5h156.6c4.2,0,8.2-1.6,11.3-4.4
		c0,0,0,0,0.1-0.1c3.3-3.1,5.2-7.5,5.2-12.1v-72.5c20.8-2.2,37.1-19.9,37.1-41.3C238.5,57.6,219.8,39,196.9,39L196.9,39z M28.1,79.3
		h127.3c0,0.4,0,0.9,0,1.3c0,7.9,2.2,15.4,6.1,21.7l-52.2,49.3h-5.8L27.1,79.3C27.5,79.3,27.8,79.3,28.1,79.3L28.1,79.3z M20.4,87
		c0-0.6,0.1-1.2,0.2-1.7L82.7,144l-61.9,52.7c-0.2-0.7-0.3-1.5-0.3-2.3L20.4,87z M184.8,202.1H28.1c0,0-0.1,0-0.1,0l61.1-52l9.6,9.1
		c0.8,0.8,1.9,1.2,3,1.2h9.3c1.1,0,2.2-0.4,3-1.2l9.6-9.1l61.1,52C184.8,202.1,184.8,202.1,184.8,202.1L184.8,202.1z M192.5,194.4
		c0,0.8-0.1,1.6-0.3,2.3L130.2,144l36.7-34.7c6.6,6.9,15.6,11.5,25.6,12.6L192.5,194.4z M196.9,113.2c-18,0-32.7-14.7-32.7-32.7
		s14.7-32.7,32.7-32.7s32.7,14.7,32.7,32.7S215,113.2,196.9,113.2z"/>
	<path class="st0" d="M198.4,66.4h-4.7c-2.4,0-4.4,2-4.4,4.4s2,4.4,4.4,4.4h0.3V93c0,2.4,2,4.4,4.4,4.4s4.4-2,4.4-4.4V70.8
		C202.9,68.3,200.9,66.4,198.4,66.4z"/>
</g>
</svg>
