<?xml version="1.0" encoding="utf-8"?>
<!-- Generator: Adobe Illustrator 27.9.1, SVG Export Plug-In . SVG Version: 6.00 Build 0)  -->
<svg version="1.1" id="Layer_1" xmlns="http://www.w3.org/2000/svg" xmlns:xlink="http://www.w3.org/1999/xlink" x="0px" y="0px"
	 viewBox="0 0 250 250" style="enable-background:new 0 0 250 250;" xml:space="preserve">
<style type="text/css">
	.st0{fill:#1F4168;}
</style>
<g>
	<path class="st0" d="M69.8,76.8h60.4c4,0,4-6.2,0-6.2H69.8C65.9,70.7,65.9,76.8,69.8,76.8z"/>
	<path class="st0" d="M69.8,99.4h46.4c4,0,4-6.2,0-6.2H69.8C65.9,93.3,65.9,99.4,69.8,99.4z"/>
	<path class="st0" d="M69.8,122h39.9c4,0,4-6.2,0-6.2H69.8C65.9,115.8,65.9,122,69.8,122z"/>
	<path class="st0" d="M126.5,197.3h-2v-30.1c0-1.7-1.4-3.1-3.1-3.1h-12.3v-10.8c0-1.7-1.4-3.1-3.1-3.1H90.6c-1.7,0-3.1,1.4-3.1,3.1
		v18.7H75.2c-1.7,0-3.1,1.4-3.1,3.1v22.2h-2c-1.7,0-3.1,1.4-3.1,3.1s1.4,3.1,3.1,3.1h56.4c1.7,0,3.1-1.4,3.1-3.1
		S128.2,197.3,126.5,197.3z M78.3,197.3v-19.1h9.2v19.1H78.3z M93.7,197.3v-40.9h9.2v40.9H93.7z M109.1,197.3v-27h9.2v27H109.1z"/>
	<path class="st0" d="M230,115.8c-0.4-12.9-5.7-25.1-14.9-34.3c-4.4-4.4-9.4-7.8-14.8-10.3c-0.1-0.1-0.2-0.1-0.3-0.1
		c-0.1,0-0.2-0.1-0.3-0.1c-6.9-3.1-14.4-4.5-21.9-4.3V49.7c0-3.9-3.2-7.1-7.1-7.1h-4.4v-3.8c0-3.9-3.2-7.1-7.1-7.1h-4.4v-4.5
		c0-3.9-3.2-7.1-7.1-7.1H27.1c-3.9,0-7.1,3.2-7.1,7.1v173.1c0,3.9,3.2,7.1,7.1,7.1h4.4v4.5c0,3.9,3.2,7.1,7.1,7.1l4.4,0v3.8
		c0,3.9,3.2,7.1,7.1,7.1h96.1c0.8,0,1.6-0.3,2.2-0.9l28.4-28.3c0.6-0.6,0.9-1.4,0.9-2.2v-30.5c0.4,0,0.8,0,1.2,0
		c8.7,0,17.3-2.2,24.9-6.4c3.5-1.9,0.5-7.3-3-5.4c-16.4,9.2-37,6.9-51.1-5.3l30.2-30.2l41.3,10.9c-1.8,5.4-4.7,10.5-8.6,15
		c-2.6,3,2,7,4.6,4.1C225.9,141.1,230.4,128.7,230,115.8L230,115.8z M194.7,75.6l-18,40.1l-31.1,31.1c-15.3-17.5-14.6-44.2,2.1-60.8
		C160.4,73.2,178.9,69.7,194.7,75.6L194.7,75.6z M38.7,212.9c-0.5,0-1-0.4-1-1V38.7c0-0.5,0.4-1,1-1h21.5c4,0,4-6.2,0-6.2H38.7
		c-3.9,0-7.1,3.2-7.1,7.1v162.5h-4.4c-0.5,0-1-0.4-1-1V27.1c0-0.5,0.4-1,1-1h120.4c0.5,0,1,0.4,1,1v4.5H77.4c-4,0-4,6.2,0,6.2h81.8
		c0.5,0,1,0.4,1,1v3.8H50.3c-3.9,0-7.1,3.2-7.1,7.1v163.2L38.7,212.9z M49.3,222.9V49.7c0-0.5,0.4-1,1-1h120.4c0.5,0,1,0.4,1,1v17.5
		c-10.4,1.5-20.4,6.3-28.4,14.3c-19.8,19.8-19.8,52,0,71.8c7.8,7.8,17.6,12.7,28.4,14.3v27.7h-21.3c-3.9,0-7.1,3.2-7.1,7.1v21.4h-93
		C49.8,223.8,49.3,223.4,49.3,222.9L49.3,222.9z M149.5,219.5v-17c0-0.5,0.4-1,1-1h17L149.5,219.5z M183.5,115.3l16.8-37.3
		c3.8,2,7.3,4.6,10.5,7.8c10.8,10.8,14.9,25.9,12.2,40L183.5,115.3z"/>
</g>
</svg>
