<?xml version="1.0" encoding="utf-8"?>
<!-- Generator: Adobe Illustrator 27.9.1, SVG Export Plug-In . SVG Version: 6.00 Build 0)  -->
<svg version="1.1" id="Layer_1" xmlns="http://www.w3.org/2000/svg" xmlns:xlink="http://www.w3.org/1999/xlink" x="0px" y="0px"
	 viewBox="0 0 250 250" style="enable-background:new 0 0 250 250;" xml:space="preserve">
<style type="text/css">
	.st0{fill:#FFBB08;}
	.st1{fill:#27375D;}
</style>
<g>
	<path class="st0" d="M22.7,78.1c7.4,6.6,17.1,10.3,27.1,10.3c11,0,21.3-4.3,29-12.1c0,0,0,0,0,0c7.3-7.4,11.3-17.2,11.3-27.5
		c0-21.8-18.1-39.6-40.4-39.6S9.5,26.9,9.5,48.8C9.5,59.9,14.3,70.6,22.7,78.1z M29.2,74.6c4.6-7.2,12.9-11.6,21.8-11.6
		c8.4,0,16.2,3.9,20.9,10.3c-6.1,5.3-13.9,8.2-22.2,8.2C42.3,81.6,35.1,79.1,29.2,74.6z M49.8,16c18.5,0,33.5,14.7,33.5,32.8
		c0,7.1-2.3,13.9-6.6,19.6C70.6,60.8,61.2,56.2,51,56.2c-10.8,0-20.9,5.2-26.9,13.7c-5.1-5.9-7.9-13.4-7.9-21.1
		C16.3,30.7,31.3,16,49.8,16z"/>
	<path class="st1" d="M50.5,51.4c6.7,0,12.1-6.5,12.1-14.4c0-7.9-5.4-14.4-12.1-14.4s-12.1,6.5-12.1,14.4S43.8,51.4,50.5,51.4z
		 M50.5,29.5c2.8,0,5.2,3.5,5.2,7.6c0,4.1-2.4,7.6-5.2,7.6c-2.8,0-5.2-3.5-5.2-7.6C45.2,33,47.6,29.5,50.5,29.5z"/>
	<path class="st0" d="M173,78.1c7.4,6.6,17.1,10.3,27.1,10.3c11,0,21.3-4.3,29-12.1c7.3-7.4,11.3-17.2,11.3-27.5
		c0-21.8-18.1-39.6-40.4-39.6c-22.3,0-40.4,17.8-40.4,39.6C159.8,59.9,164.6,70.6,173,78.1z M179.6,74.6
		c4.6-7.2,12.9-11.6,21.8-11.6c8.4,0,16.2,3.9,20.9,10.3c-6.1,5.3-13.9,8.2-22.2,8.2C192.7,81.6,185.5,79.1,179.6,74.6z M200.2,16
		c18.5,0,33.5,14.7,33.5,32.8c0,7.1-2.3,13.9-6.6,19.6c-6.1-7.6-15.5-12.1-25.7-12.1c-10.8,0-20.9,5.2-26.9,13.7
		c-5.1-5.9-7.9-13.4-7.9-21.1C166.6,30.7,181.7,16,200.2,16z"/>
	<path class="st1" d="M200.8,51.4c6.7,0,12.1-6.5,12.1-14.4c0-7.9-5.4-14.4-12.1-14.4c-6.7,0-12.1,6.5-12.1,14.4
		S194.2,51.4,200.8,51.4z M200.8,29.5c2.8,0,5.2,3.5,5.2,7.6c0,4.1-2.4,7.6-5.2,7.6c-2.8,0-5.2-3.5-5.2-7.6
		C195.6,33,198,29.5,200.8,29.5z"/>
	<path class="st0" d="M200.2,161.6c-22.3,0-40.4,17.8-40.4,39.6c0,11.1,4.8,21.8,13.2,29.3c7.4,6.6,17.1,10.3,27.1,10.3
		c11,0,21.3-4.3,29-12.1c7.3-7.4,11.3-17.2,11.3-27.5C240.5,179.4,222.4,161.6,200.2,161.6z M179.6,227.1
		c4.6-7.2,12.9-11.6,21.8-11.6c8.4,0,16.2,3.9,20.9,10.3c-6.1,5.3-13.9,8.2-22.2,8.2C192.7,234,185.5,231.6,179.6,227.1z
		 M227.1,220.8c-6.1-7.6-15.5-12.1-25.7-12.1c-10.8,0-20.9,5.2-26.9,13.7c-5.1-5.9-7.9-13.4-7.9-21.1c0-18.1,15-32.8,33.5-32.8
		s33.5,14.7,33.5,32.8C233.7,208.4,231.4,215.2,227.1,220.8z"/>
	<path class="st1" d="M200.8,175.1c-6.7,0-12.1,6.5-12.1,14.4c0,7.9,5.4,14.4,12.1,14.4c6.7,0,12.1-6.5,12.1-14.4
		S207.5,175.1,200.8,175.1z M200.8,197.1c-2.8,0-5.2-3.5-5.2-7.6c0-4.1,2.4-7.6,5.2-7.6c2.8,0,5.2,3.5,5.2,7.6
		C206.1,193.6,203.7,197.1,200.8,197.1z"/>
	<path class="st0" d="M49.8,161.6c-6.4,0-12.5,1.4-18.2,4.3c-1.7,0.8-2.4,2.9-1.5,4.6c0.8,1.7,2.9,2.4,4.6,1.5
		c4.7-2.4,9.8-3.5,15.2-3.5c18.5,0,33.5,14.7,33.5,32.8c0,7.1-2.3,13.9-6.6,19.6c-6.1-7.6-15.5-12.1-25.7-12.1
		c-10.8,0-20.9,5.2-26.9,13.7c-5.1-5.9-7.9-13.4-7.9-21.1c0-7.4,2.5-14.4,7.2-20.3c1.2-1.5,0.9-3.6-0.5-4.8
		c-1.5-1.2-3.6-0.9-4.8,0.5c-5.7,7.1-8.7,15.5-8.7,24.5c0,11.1,4.8,21.8,13.2,29.3c7.4,6.6,17.1,10.3,27.1,10.3
		c11,0,21.3-4.3,29-12.1c7.3-7.4,11.3-17.2,11.3-27.5C90.2,179.4,72.1,161.6,49.8,161.6z M29.2,227.1c4.6-7.2,12.9-11.6,21.8-11.6
		c8.4,0,16.2,3.9,20.9,10.3c-6.1,5.3-13.9,8.2-22.2,8.2C42.3,234,35.1,231.6,29.2,227.1z"/>
	<path class="st1" d="M62.6,189.5c0-7.9-5.4-14.4-12.1-14.4s-12.1,6.5-12.1,14.4s5.4,14.4,12.1,14.4S62.6,197.5,62.6,189.5z
		 M45.2,189.5c0-4.1,2.4-7.6,5.2-7.6c2.8,0,5.2,3.5,5.2,7.6s-2.4,7.6-5.2,7.6C47.6,197.1,45.2,193.6,45.2,189.5z"/>
	<path class="st1" d="M167.6,152.5c2.4-0.6,4.5-2.2,5.7-4.4c3.3-6.2,5.3-13.2,6-20.1c0.2-2.5-0.6-5-2.3-6.8
		c-1.4-1.5-3.3-2.5-5.3-2.7c-0.9-7.2-3.4-14-7.4-20c1.4-1.4,2.3-3.3,2.5-5.4c0.2-2.5-0.6-5-2.3-6.8c-4.8-5.1-10.7-9.4-17-12.3
		c-2.3-1.1-4.9-1.1-7.2-0.1c-2.1,0.9-3.7,2.6-4.6,4.7c-7.1-1.6-14.6-1.6-21.8,0.2c-0.8-2.2-2.5-4-4.7-4.9c-2.3-1-4.9-1-7.2,0.1
		c-6.3,3-12.2,7.2-17,12.4c-1.7,1.8-2.5,4.3-2.3,6.8c0.2,2.3,1.3,4.4,3.1,5.8c-4,6.3-6.5,13.4-7.1,20.8c-2.1,0.3-4.1,1.3-5.5,2.9
		c-1.7,1.9-2.5,4.4-2.2,6.9c0.8,7.1,3,13.8,6.5,20c1.2,2.2,3.3,3.7,5.8,4.3c1.8,0.4,3.7,0.2,5.3-0.5c4.9,6.1,11.4,11,18.6,14
		c0,1.6,0.4,3.3,1.2,4.7c1.3,2.2,3.4,3.7,5.9,4.2c3.4,0.7,7,1,10.5,1c3.5,0,7.1-0.3,10.5-1c2.5-0.5,4.6-2,5.9-4.2
		c0.8-1.3,1.2-2.8,1.2-4.3c8-3.2,15-8.5,20.2-15.5C164.2,152.8,166,152.9,167.6,152.5z M160.9,144.5c-0.9,0.2-1.7,0.7-2.2,1.5
		c-5,7.7-12.6,13.5-21.2,16.3c-0.9,0.3-1.6,0.9-2,1.7c-0.4,0.8-0.5,1.7-0.2,2.6l0.2,0.5c0.2,0.7,0,1.3-0.2,1.6
		c-0.2,0.3-0.6,0.8-1.3,0.9c-6,1.2-12.4,1.2-18.4,0c-0.7-0.1-1.1-0.6-1.3-0.9c-0.2-0.3-0.4-0.9-0.2-1.6l0.2-0.7
		c0.6-1.8-0.4-3.7-2.1-4.3c-8-2.8-15.1-8.1-19.9-15.2c-0.5-0.8-1.3-1.3-2.2-1.4c-0.2,0-0.4,0-0.6,0c-0.7,0-1.4,0.2-2,0.7l-1.1,0.8
		c-0.6,0.5-1.3,0.4-1.6,0.3c-0.3-0.1-0.9-0.3-1.3-1c-3-5.4-5-11.3-5.7-17.5c-0.1-0.8,0.3-1.3,0.5-1.5c0.2-0.2,0.7-0.7,1.5-0.7l2.1,0
		c1.9,0,3.4-1.5,3.4-3.3c0.2-8.4,2.9-16.3,7.9-23c0.5-0.7,0.8-1.6,0.6-2.6c-0.1-0.9-0.6-1.7-1.4-2.2l-2.2-1.6
		c-0.6-0.5-0.8-1.1-0.8-1.4c0-0.3,0-1,0.5-1.5c4.2-4.5,9.3-8.2,14.9-10.8c0.7-0.3,1.3-0.2,1.6,0c0.3,0.1,0.9,0.5,1.1,1.2l0.9,2.7
		c0.3,0.9,0.9,1.6,1.7,2s1.7,0.5,2.6,0.2c4-1.3,8.2-2,12.5-2c4,0,7.9,0.6,11.6,1.7c1.8,0.5,3.7-0.4,4.2-2.2l0.8-2.4
		c0.2-0.7,0.8-1.1,1.1-1.2c0.3-0.1,0.9-0.3,1.6,0c5.6,2.6,10.7,6.3,14.9,10.8c0.5,0.6,0.5,1.2,0.5,1.5c0,0.3-0.2,1-0.8,1.4l-1.6,1.2
		c-0.7,0.5-1.2,1.4-1.4,2.3c-0.1,0.9,0.1,1.8,0.7,2.6c5,6.4,7.8,14.1,8.3,22.2c0.1,1.8,1.7,3.3,3.5,3.2l1.9,0c0.8,0,1.3,0.4,1.5,0.6
		c0.2,0.2,0.6,0.8,0.5,1.5c-0.6,6.1-2.4,12.2-5.3,17.6c-0.4,0.7-0.9,0.9-1.3,1c-0.3,0.1-1,0.1-1.6-0.3l-0.9-0.6
		C162.8,144.5,161.8,144.3,160.9,144.5z"/>
	<path class="st1" d="M125.2,95.2c-3.8,0-7.5,0.7-11.1,2.2c0,0,0,0,0,0c-0.3,0.1-0.6,0.3-1,0.4c-1.7,0.8-2.5,2.8-1.7,4.5
		c0.8,1.7,2.8,2.5,4.5,1.7c0.2-0.1,0.5-0.2,0.7-0.3h0c2.7-1.1,5.5-1.7,8.4-1.7c12.2,0,22.1,9.9,22.1,22.1c0,12.2-9.9,22.1-22.1,22.1
		c-12.2,0-22.1-9.9-22.1-22.1c0-4.2,1.2-8.2,3.4-11.7c0,0,0,0,0,0c0.2-0.3,0.3-0.5,0.5-0.8c1.1-1.6,0.7-3.7-0.9-4.7
		c-1.6-1.1-3.7-0.7-4.7,0.9c-0.2,0.3-0.5,0.7-0.7,1c0,0,0,0,0,0c-2.9,4.6-4.4,9.9-4.4,15.4c0,16,13,28.9,28.9,28.9
		c16,0,28.9-13,28.9-28.9S141.1,95.2,125.2,95.2z"/>
	<path class="st1" d="M115.2,30.3c0.1,0,0.3,0,0.4,0c1.9-0.2,3.2-1.9,3-3.8c-0.2-1.9-1.9-3.2-3.8-3c-1.9,0.2-3.2,1.9-3,3.8
		C112,29,113.5,30.3,115.2,30.3z"/>
	<path class="st1" d="M96.2,34.7c0.4,0,0.7-0.1,1.1-0.2c1.8-0.6,2.7-2.5,2.1-4.3c-0.6-1.8-2.5-2.7-4.3-2.1c-1.8,0.6-2.7,2.5-2.1,4.3
		C93.4,33.8,94.7,34.7,96.2,34.7z"/>
	<path class="st1" d="M153,32.9c0.3,0.1,0.6,0.1,0.9,0.1c1.5,0,2.9-1,3.3-2.5c0.5-1.8-0.6-3.7-2.4-4.2c-1.8-0.5-3.7,0.6-4.2,2.4
		C150.1,30.6,151.2,32.4,153,32.9z"/>
	<path class="st1" d="M134.5,29.7c0.1,0,0.2,0,0.2,0c1.8,0,3.3-1.4,3.4-3.2c0.1-1.9-1.3-3.5-3.2-3.6c-1.9-0.1-3.5,1.3-3.6,3.2
		C131.2,28,132.6,29.6,134.5,29.7z"/>
	<path class="st1" d="M218.7,156.3c0.3,0.1,0.6,0.1,0.9,0.1c1.5,0,2.9-1,3.3-2.5c0.5-1.8-0.6-3.7-2.4-4.2c-1.8-0.5-3.7,0.6-4.2,2.4
		C215.8,153.9,216.9,155.7,218.7,156.3z"/>
	<path class="st1" d="M226.3,134c0.1-1.9-1.3-3.5-3.2-3.6c-1.9-0.1-3.5,1.3-3.6,3.2c-0.1,1.9,1.3,3.5,3.2,3.6c0.1,0,0.2,0,0.2,0
		C224.7,137.1,226.2,135.8,226.3,134z"/>
	<path class="st1" d="M219,114.6c0.2,1.7,1.7,3,3.4,3c0.1,0,0.3,0,0.4,0c1.9-0.2,3.2-1.9,3-3.8c-0.2-1.9-1.9-3.2-3.8-3
		C220.1,111.1,218.8,112.8,219,114.6z"/>
	<path class="st1" d="M218,98.6c0.4,0,0.7-0.1,1.1-0.2c1.8-0.6,2.7-2.5,2.1-4.3s-2.5-2.7-4.3-2.1c-1.8,0.6-2.7,2.5-2.1,4.3h0
		C215.3,97.7,216.6,98.6,218,98.6z"/>
	<path class="st1" d="M153,213.8c-1.8,0.6-2.7,2.5-2.1,4.3c0.5,1.4,1.8,2.3,3.2,2.3c0.4,0,0.7-0.1,1.1-0.2c1.8-0.6,2.7-2.5,2.1-4.3
		C156.7,214.2,154.8,213.2,153,213.8z"/>
	<path class="st1" d="M134.6,218.1c-1.9,0.2-3.2,1.9-3,3.8c0.2,1.7,1.7,3,3.4,3c0.1,0,0.3,0,0.4,0c1.9-0.2,3.2-1.9,3-3.8
		C138.2,219.1,136.5,217.8,134.6,218.1z"/>
	<path class="st1" d="M97.2,215.4c-1.8-0.5-3.7,0.6-4.2,2.4c-0.5,1.8,0.6,3.7,2.4,4.2c0.3,0.1,0.6,0.1,0.9,0.1c1.5,0,2.9-1,3.3-2.5
		C100.1,217.8,99,215.9,97.2,215.4z"/>
	<path class="st1" d="M115.8,218.6c-1.9-0.1-3.5,1.3-3.6,3.2c-0.1,1.9,1.3,3.5,3.2,3.6c0.1,0,0.2,0,0.2,0c1.8,0,3.3-1.4,3.4-3.2
		C119.1,220.3,117.7,218.7,115.8,218.6z"/>
	<path class="st1" d="M23.9,114.4c-0.1,1.9,1.3,3.5,3.2,3.6c0.1,0,0.2,0,0.2,0c1.8,0,3.3-1.4,3.4-3.2c0.1-1.9-1.3-3.5-3.2-3.6
		C25.7,111.1,24,112.5,23.9,114.4z"/>
	<path class="st1" d="M29.7,98.6c0.3,0.1,0.6,0.1,0.9,0.1c1.5,0,2.9-1,3.3-2.5c0.5-1.8-0.6-3.7-2.4-4.2c-1.8-0.5-3.7,0.6-4.2,2.4
		C26.8,96.3,27.9,98.1,29.7,98.6z"/>
	<path class="st1" d="M32.2,156.5c0.4,0,0.7-0.1,1.1-0.2c1.8-0.6,2.7-2.5,2.1-4.3c-0.6-1.8-2.5-2.7-4.3-2.1s-2.7,2.5-2.1,4.3
		C29.5,155.6,30.8,156.5,32.2,156.5z"/>
	<path class="st1" d="M24.5,134.5c0.2,1.7,1.7,3,3.4,3c0.1,0,0.3,0,0.4,0c1.9-0.2,3.2-1.9,3-3.8h0c-0.2-1.9-1.9-3.2-3.8-3
		C25.5,131,24.2,132.7,24.5,134.5L24.5,134.5z"/>
</g>
</svg>
