<?xml version="1.0" encoding="utf-8"?>
<!-- Generator: Adobe Illustrator 27.9.1, SVG Export Plug-In . SVG Version: 6.00 Build 0)  -->
<svg version="1.1" id="Layer_1" xmlns="http://www.w3.org/2000/svg" xmlns:xlink="http://www.w3.org/1999/xlink" x="0px" y="0px"
	 viewBox="0 0 250 250" style="enable-background:new 0 0 250 250;" xml:space="preserve">
<style type="text/css">
	.st0{fill:#FFBB08;}
	.st1{fill:#27375D;}
</style>
<g>
	<path class="st0" d="M223.4,29.8h-14.9v-5.6c0-1.5-1.2-2.7-2.7-2.7h-81c-1.5,0-2.7,1.2-2.7,2.7v5.6h-19.4C96.2,29.8,91,35,91,41.4
		v19.3C73.7,47.4,48.7,50.6,35.3,68c-5.3,6.9-8.2,15.5-8.2,24.2v12c-3.1,1.1-5.4,3.7-6.2,6.8c-1.4,5.9,1.7,11.9,7.4,14.1v2.6
		c0,14.2,7.8,27.3,20.2,34.2v11.8l-21.2,9c0,0-0.1,0-0.1,0.1c-6.9,3.5-11.5,10.3-12.2,18c0,0.1,0,0.1,0,0.2v24.8
		c0,1.5,1.2,2.7,2.7,2.7h101.4c1.5,0,2.7-1.2,2.7-2.7v-24.4h101.6c6.4,0,11.6-5.2,11.6-11.6V41.4C235,35,229.8,29.8,223.4,29.8z
		 M127.4,26.9h75.6v10h-75.6V26.9z M32.5,92.2c0-19,15.4-34.4,34.4-34.4s34.4,15.4,34.4,34.4v12.2c-6.6,0.7-26.9,1.8-43.2-9
		c11.2-1.5,24.8-4.9,35-12.7c1.2-0.9,1.5-2.6,0.6-3.8s-2.6-1.5-3.8-0.6c0,0-0.1,0-0.1,0.1C71.3,92.6,38.4,91.1,38,91.1
		c-1.5-0.1-2.7,1-2.8,2.5l-0.8,13.3l-1.8-0.9c-0.1,0-0.2-0.1-0.2-0.2L32.5,92.2z M33.7,127.7v-4.6c0-1.3-0.9-2.4-2.2-2.6
		c-3.6-0.6-6-4.1-5.4-7.7c0-0.1,0.1-0.3,0.1-0.4c0.3-1.3,1.2-2.4,2.4-2.9c0.5,0.5,1,1,1.7,1.3l4.4,2.2c1.7,0.9,3.8,0.2,4.6-1.5
		c0.2-0.4,0.3-0.8,0.4-1.3c0,0,0,0,0-0.1l0.8-13.6c2.2,0,5.6,0,9.7-0.3c21.9,18.6,52.9,13.4,54.3,13.2c0.3-0.1,0.5-0.1,0.8-0.3
		c1.6,0.3,2.9,1.6,3.3,3.2c0.9,3.6-1.3,7.2-4.9,8c-0.1,0-0.3,0.1-0.4,0.1c-1.3,0.2-2.2,1.3-2.2,2.6v4.6
		c-0.1,18.6-15.2,33.6-33.8,33.5C48.7,161.2,33.7,146.2,33.7,127.7L33.7,127.7z M91,158.6v16.2l-2.8-1.2v-13.1
		C89.2,160,90.1,159.3,91,158.6L91,158.6z M82.9,163.5v9.6c-9.3,3.8-19.7,3.8-29,0v-8.8C63.3,167.8,73.7,167.5,82.9,163.5z
		 M116.4,223.1h-96v-22c0.5-5.8,4-10.9,9.2-13.5l22.3-9.5c10.6,4.3,22.4,4.3,33,0l22.3,9.5c5.2,2.6,8.6,7.7,9.2,13.5V223.1z
		 M229.6,189.8c0,3.5-2.8,6.3-6.3,6.3H120.8c-1.8-5.8-5.9-10.6-11.3-13.3c0,0-0.1,0-0.1-0.1l-13-5.6v-23.5
		c6.4-7.1,9.9-16.4,9.9-25.9v-2.6c5.6-2.2,8.8-8.2,7.4-14.1c-0.8-3.5-3.6-6.3-7.1-7.1V92.2c0-9.8-3.6-19.2-10.2-26.5V41.4
		c0-3.5,2.8-6.3,6.3-6.3h19.4v4.5c0,1.5,1.2,2.7,2.7,2.7h81c1.5,0,2.7-1.2,2.7-2.7v-4.5h14.9c3.5,0,6.3,2.8,6.3,6.3V189.8z"/>
	<path class="st1" d="M210.2,109.7h-19.6c-1.5,0-2.7,1.2-2.7,2.7c0,1.5,1.2,2.7,2.7,2.7h19.6c1.5,0,2.7-1.2,2.7-2.7
		C212.9,110.9,211.7,109.7,210.2,109.7L210.2,109.7z"/>
	<path class="st1" d="M172.5,115h6.6c1.5,0,2.7-1.2,2.7-2.7c0-1.5-1.2-2.7-2.7-2.7h-6.6c-1.5,0-2.7,1.2-2.7,2.7
		C169.8,113.8,171,115,172.5,115z"/>
	<path class="st1" d="M210.2,138.7h-6.7c-1.5,0-2.7,1.2-2.7,2.7s1.2,2.7,2.7,2.7h6.7c1.5,0,2.7-1.2,2.7-2.7S211.7,138.7,210.2,138.7
		L210.2,138.7z"/>
	<path class="st1" d="M194.3,144c1.5,0,2.7-1.2,2.7-2.7s-1.2-2.7-2.7-2.7h-35.5c-1.5,0-2.7,1.2-2.7,2.7s1.2,2.7,2.7,2.7H194.3z"/>
	<path class="st1" d="M149.3,138.7h-2.4c-1.5,0-2.7,1.2-2.7,2.7s1.2,2.7,2.7,2.7h2.4c1.5,0,2.7-1.2,2.7-2.7S150.8,138.7,149.3,138.7
		z"/>
	<path class="st1" d="M120.2,138.7c-1.5,0-2.7,1.2-2.7,2.7s1.2,2.7,2.7,2.7h15.2c1.5,0,2.7-1.2,2.7-2.7s-1.2-2.7-2.7-2.7H120.2z"/>
	<path class="st1" d="M210.2,165.5h-15.4c-1.5,0-2.7,1.2-2.7,2.7c0,1.5,1.2,2.7,2.7,2.7h15.4c1.5,0,2.7-1.2,2.7-2.7
		C212.9,166.7,211.7,165.5,210.2,165.5L210.2,165.5z"/>
	<path class="st1" d="M185.2,165.5h-1.9c-1.5,0-2.7,1.2-2.7,2.7c0,1.5,1.2,2.7,2.7,2.7h1.9c1.5,0,2.7-1.2,2.7-2.7
		C187.9,166.7,186.7,165.5,185.2,165.5L185.2,165.5z"/>
	<path class="st1" d="M175.8,165.5h-14.6c-1.5,0-2.7,1.2-2.7,2.7c0,1.5,1.2,2.7,2.7,2.7h14.6c1.5,0,2.7-1.2,2.7-2.7
		C178.4,166.7,177.2,165.5,175.8,165.5L175.8,165.5z"/>
	<path class="st1" d="M149.3,165.5h-29.2c-1.5,0-2.7,1.2-2.7,2.7c0,1.5,1.2,2.7,2.7,2.7h29.2c1.5,0,2.7-1.2,2.7-2.7
		C152,166.7,150.8,165.5,149.3,165.5z"/>
	<path class="st1" d="M210.2,86.8h-1.7c-1.5,0-2.7,1.2-2.7,2.7s1.2,2.7,2.7,2.7h1.7c1.5,0,2.7-1.2,2.7-2.7S211.7,86.8,210.2,86.8z"
		/>
	<path class="st1" d="M177.9,92.2h19c1.5,0,2.7-1.2,2.7-2.7s-1.2-2.7-2.7-2.7h-19c-1.5,0-2.7,1.2-2.7,2.7S176.4,92.2,177.9,92.2z"/>
	<path class="st1" d="M210.2,64.5h-19.2c-1.5,0-2.7,1.2-2.7,2.7c0,1.5,1.2,2.7,2.7,2.7h19.2c1.5,0,2.7-1.2,2.7-2.7
		C212.9,65.7,211.7,64.5,210.2,64.5z"/>
	<path class="st1" d="M177.9,69.8h1.6c1.5,0,2.7-1.2,2.7-2.7c0-1.5-1.2-2.7-2.7-2.7h-1.6c-1.5,0-2.7,1.2-2.7,2.7
		C175.2,68.6,176.4,69.8,177.9,69.8z"/>
	<path class="st1" d="M139.3,116.9c16.3,0,29.5-13.2,29.5-29.5s-13.2-29.5-29.5-29.5s-29.5,13.2-29.5,29.5
		C109.8,103.7,123,116.9,139.3,116.9z M139.3,63.3c13.3,0,24.1,10.8,24.1,24.1s-10.8,24.1-24.1,24.1s-24.1-10.8-24.1-24.1
		C115.1,74.1,125.9,63.3,139.3,63.3z"/>
	<path class="st0" d="M131.4,99.1c1,1,2.7,1,3.8,0l19.6-19.6c1-1.1,1-2.8,0-3.8c-1-1-2.7-1-3.8,0l-17.7,17.7l-5.8-5.8
		c-1-1.1-2.7-1.1-3.8-0.1c-1.1,1-1.1,2.7-0.1,3.8c0,0,0,0,0.1,0.1L131.4,99.1z"/>
</g>
</svg>
