<?xml version="1.0" encoding="utf-8"?>
<!-- Generator: Adobe Illustrator 27.9.1, SVG Export Plug-In . SVG Version: 6.00 Build 0)  -->
<svg version="1.1" id="Layer_1" xmlns="http://www.w3.org/2000/svg" xmlns:xlink="http://www.w3.org/1999/xlink" x="0px" y="0px"
	 viewBox="0 0 250 250" style="enable-background:new 0 0 250 250;" xml:space="preserve">
<style type="text/css">
	.st0{fill:#FFBB08;}
	.st1{fill:#27375D;}
</style>
<g>
	<path class="st0" d="M229.5,123.1c-3.6-2.1-7.9-3.3-12.2-4.5c-1-0.3-2-0.5-2.9-0.8c-0.2-0.6-0.5-1.1-1.1-1.4l-5.9-3.2
		c-0.6-0.3-1.3-0.3-1.9-0.1c-0.4-0.6-0.6-1.3-0.6-2.1v-1.8c6.5-5,10-14.1,9.7-22.6c-0.4-12.1-8.1-19.9-19.5-19.9
		s-19.1,7.8-19.5,19.9c-0.3,8.4,3.3,17.6,9.7,22.6v1.8c0,0.8-0.2,1.5-0.6,2.1c-0.6-0.3-1.3-0.2-1.9,0.1l-5.9,3.2
		c-0.5,0.3-0.9,0.8-1.1,1.4c-0.9,0.3-1.9,0.5-2.9,0.8c-4.2,1.2-8.6,2.4-12.2,4.5c-3.4,2-5.2,4.2-6.2,7.8c-8.7-5.3-18.9-8.4-29.8-8.4
		c-10.9,0-21.1,3.1-29.8,8.4c-0.9-3.6-2.8-5.8-6.2-7.8c-3.6-2.1-7.9-3.3-12.2-4.5c-1-0.3-2-0.5-2.9-0.8c-0.2-0.6-0.5-1.1-1.1-1.4
		l-5.9-3.2c-0.6-0.3-1.3-0.3-1.9-0.1c-0.4-0.6-0.6-1.3-0.6-2.1v-1.8c6.5-5,10-14.1,9.7-22.6c-0.4-12.1-8.1-19.9-19.5-19.9
		s-19.1,7.8-19.5,19.9c-0.3,8.4,3.3,17.6,9.7,22.6v1.8c0,0.8-0.2,1.5-0.6,2.1c-0.6-0.3-1.3-0.2-1.9,0.1l-5.9,3.2
		c-0.5,0.3-0.9,0.8-1.1,1.4c-0.9,0.3-1.9,0.5-2.9,0.8c-4.2,1.2-8.6,2.4-12.2,4.5c-6.5,3.8-7.1,8.5-7.1,21.8v8.1
		c0,0.6,0.2,1.2,0.7,1.6c0.4,0.4,1,0.7,1.6,0.7h57.7c-3.5,7.4-5.5,15.7-5.5,24.5c0,31.6,25.7,57.2,57.2,57.2
		c31.6,0,57.2-25.7,57.2-57.2c0-8.8-2-17.1-5.5-24.5h57.7c0.6,0,1.2-0.2,1.6-0.7c0.4-0.4,0.7-1,0.7-1.6v-8.1v0
		C236.6,131.6,236.1,127,229.5,123.1z M206.7,117.9l2.5,1.3l0,0l-5.1,8.5l-5.2-3.4L206.7,117.9z M195.2,112.9c0,0,0.1,0,0.2,0
		c1.8-0.1,3.6-0.5,5.2-1.2c0.1,1.6,0.6,3,1.5,4.2l-6.9,5.6l-6.8-5.6c0.9-1.2,1.4-2.7,1.5-4.2c1.6,0.6,3.3,1,5.2,1.2h0
		C195.1,112.9,195.2,112.9,195.2,112.9z M180.2,86.8c0.1-3.6,1.5-15.5,15.1-15.5c13.5,0,14.9,11.9,15.1,15.5
		c0.3,9.9-5.7,20.9-15.1,21.6C185.8,107.7,179.8,96.7,180.2,86.8z M183.7,117.9L183.7,117.9l7.7,6.4l-5.1,3.4l-5.1-8.5L183.7,117.9z
		 M66.3,117.9l2.5,1.3l0,0l-5.1,8.5l-5.1-3.4L66.3,117.9z M54.8,121.6l-6.8-5.6c0.9-1.2,1.4-2.7,1.5-4.2c1.6,0.6,3.3,1,5.2,1.2
		c0,0,0.1,0,0.1,0c0,0,0.1,0,0.2,0c1.8-0.1,3.6-0.5,5.2-1.2c0.1,1.6,0.6,3,1.5,4.2L54.8,121.6z M39.7,86.8
		c0.1-3.6,1.6-15.5,15.1-15.5s14.9,11.9,15.1,15.5c0.3,9.9-5.6,20.9-15.1,21.6C45.4,107.7,39.4,96.7,39.7,86.8z M43.3,117.9
		L43.3,117.9l7.7,6.4l-5.1,3.4l-5.1-8.5L43.3,117.9z M17.8,150.8v-5.9c0-13.8,0.8-15.5,4.9-17.9c3.1-1.8,7.2-2.9,11.1-4.1
		c1.1-0.3,2.2-0.6,3.4-1l6,10.1c0.3,0.5,0.8,0.9,1.4,1c0.2,0,0.3,0.1,0.5,0.1c0.4,0,0.9-0.1,1.3-0.4l8.4-5.6l8.4,5.6
		c0.4,0.2,0.8,0.4,1.3,0.4c0.2,0,0.3,0,0.5-0.1c0.6-0.1,1.1-0.5,1.4-1l6-10.1c1.1,0.3,2.2,0.7,3.4,1c3.9,1.1,8,2.2,11.1,4.1
		c2.7,1.6,3.8,2.9,4.4,6.6c-6.3,4.6-11.6,10.5-15.6,17.2H17.8z M177.7,179.8c0,29.1-23.7,52.8-52.7,52.8
		c-29.1,0-52.8-23.7-52.8-52.8S95.9,127,125,127S177.7,150.7,177.7,179.8z M232.2,150.8h-57.9c-4-6.7-9.3-12.6-15.5-17.2
		c0.6-3.7,1.7-5.1,4.4-6.6c3.1-1.8,7.2-2.9,11.1-4.1c1.1-0.3,2.3-0.6,3.4-1l6,10.1c0.3,0.5,0.8,0.9,1.4,1c0.2,0,0.3,0.1,0.5,0.1
		c0.4,0,0.9-0.1,1.3-0.4l8.4-5.6l8.4,5.6c0.4,0.2,0.8,0.4,1.3,0.4c0.2,0,0.3,0,0.5-0.1c0.6-0.1,1.1-0.5,1.4-1l6-10.1
		c1.1,0.3,2.2,0.7,3.4,1c3.9,1.1,8,2.2,11.1,4.1c4.1,2.4,4.9,4.1,4.9,17.9V150.8z"/>
	<path class="st1" d="M157,153.4h-14.4v-1.7c0-4.6-3.8-8.3-8.4-8.3h-18.6c-4.6,0-8.3,3.7-8.3,8.3v1.7H93c-2.9,0-5.3,2.4-5.3,5.3
		v11.6c0,1.7,0.8,3.2,2,4.2v29.2c0,2.9,2.4,5.3,5.3,5.3H155c2.9,0,5.3-2.4,5.3-5.3v-29.2c1.3-1,2-2.5,2-4.2v-11.6
		C162.3,155.7,159.9,153.4,157,153.4z M111.8,151.6L111.8,151.6c0-2.1,1.7-3.9,3.9-3.9h18.6c2.1,0,3.9,1.7,3.9,3.9v1.7h-26.3V151.6z
		 M108.1,157.8h33.8v3.2l-16.9,4.5l-16.9-4.5V157.8z M155.8,203.6c0,0.5-0.4,0.8-0.8,0.8H95c-0.4,0-0.8-0.4-0.8-0.8v-27.5l24.5,6.5
		v3.1c0,2.1,1.7,3.9,3.9,3.9h4.9c2.1,0,3.9-1.7,3.9-3.9v-3.1l24.5-6.5V203.6z M123.2,185.1v-6.2h3.7v6.2H123.2z M157.8,170.3
		c0,0.4-0.2,0.7-0.6,0.8l-25.9,6.9c-0.1-2-1.8-3.6-3.8-3.6h-4.9c-2,0-3.7,1.6-3.8,3.6L92.8,171c-0.4-0.1-0.6-0.4-0.6-0.8v-11.6h0
		c0-0.5,0.4-0.8,0.8-0.8h10.6v3.6c0,1.8,1.2,3.3,2.9,3.8l17.9,4.8c0.2,0.1,0.4,0.1,0.6,0.1c0.2,0,0.4,0,0.6-0.1l17.9-4.8
		c1.7-0.5,2.9-2,2.9-3.8v-3.6H157c0.4,0,0.8,0.4,0.8,0.8V170.3z"/>
	<path class="st0" d="M85.8,101.5L85.8,101.5l78.4,0c0.6,0,1.2-0.2,1.6-0.7c0.4-0.4,0.7-1,0.7-1.6v-8.1c0-13.3-0.6-17.9-7.1-21.8
		c-3.6-2.1-8-3.3-12.2-4.5c-1-0.3-1.9-0.5-2.9-0.8c-0.2-0.6-0.6-1.1-1.1-1.4l-5.9-3.2c-0.6-0.3-1.3-0.3-1.9-0.1
		c-0.4-0.6-0.6-1.3-0.6-2.1v-1.8c6.5-5,10-14.1,9.8-22.6C144.1,20.8,136.5,13,125,13c-11.5,0-19.2,7.8-19.6,19.9
		c-0.3,8.4,3.3,17.6,9.8,22.6v1.8c0,0.8-0.2,1.5-0.6,2.1c-0.6-0.3-1.3-0.2-1.9,0.1l-5.9,3.2c-0.5,0.3-0.9,0.8-1.1,1.4
		c-0.9,0.3-1.9,0.5-2.9,0.8c-4.2,1.2-8.6,2.4-12.2,4.5c-6.5,3.8-7.1,8.5-7.1,21.8v8.1c0,0.6,0.2,1.2,0.6,1.6
		C84.6,101.2,85.2,101.5,85.8,101.5z M136.5,64.1l2.5,1.3l0,0l-5.1,8.5l-5.2-3.4L136.5,64.1z M125,67.8l-6.9-5.6
		c0.9-1.2,1.4-2.7,1.5-4.2c1.6,0.6,3.4,1,5.2,1.2c0,0,0.1,0,0.2,0c0,0,0.1,0,0.1,0c1.8-0.1,3.6-0.5,5.2-1.2c0.1,1.6,0.6,3,1.5,4.2
		L125,67.8z M109.9,33c0.1-3.6,1.6-15.5,15.1-15.5s14.9,11.9,15.1,15.5c0.3,9.9-5.6,20.9-15.1,21.6C115.6,53.9,109.6,42.9,109.9,33z
		 M113.5,64.1L113.5,64.1l7.8,6.4l-5.2,3.4l-5.1-8.5L113.5,64.1z M88.1,91.1c0-13.8,0.8-15.5,4.9-17.9c3.1-1.8,7.2-3,11.1-4.1
		c1.1-0.3,2.2-0.6,3.3-1l6,10.1c0.3,0.5,0.8,0.9,1.4,1c0.2,0,0.3,0.1,0.5,0.1c0.4,0,0.9-0.1,1.2-0.4l8.4-5.6l8.4,5.6
		c0.4,0.2,0.8,0.4,1.2,0.4c0.2,0,0.3,0,0.5-0.1c0.6-0.1,1.1-0.5,1.4-1l6-10.1c1.1,0.3,2.2,0.6,3.3,1c4,1.1,8,2.2,11.1,4.1
		c4.1,2.4,4.9,4.1,4.9,17.9V97H88.1V91.1z"/>
</g>
</svg>
