<?xml version="1.0" encoding="utf-8"?>
<!-- Generator: Adobe Illustrator 27.9.1, SVG Export Plug-In . SVG Version: 6.00 Build 0)  -->
<svg version="1.1" id="Layer_1" xmlns="http://www.w3.org/2000/svg" xmlns:xlink="http://www.w3.org/1999/xlink" x="0px" y="0px"
	 viewBox="0 0 250 250" style="enable-background:new 0 0 250 250;" xml:space="preserve">
<style type="text/css">
	.st0{fill:#FFBB08;}
	.st1{fill:#27375D;}
</style>
<g>
	<path class="st0" d="M148.8,65.5c-7.5,0-15,1-22.3,2.9c-2.1,0.6-3.4,2.8-2.8,4.9c0.6,2.1,2.8,3.4,4.9,2.8l0,0
		c6.6-1.8,13.4-2.7,20.3-2.7c43.8,0,79.3,35.5,79.3,79.3s-35.5,79.3-79.3,79.3s-79.3-35.5-79.3-79.3c0-1.3,0-2.5,0-3.7
		c0.1-2.2-1.5-4.1-3.7-4.2c-2.2-0.1-4.1,1.5-4.2,3.7v4.2c0,48.2,39.1,87.2,87.2,87.2s87.2-39.1,87.2-87.2S197,65.5,148.8,65.5
		L148.8,65.5z"/>
	<path class="st0" d="M152.8,93.3v-7.9c0-2.2-1.8-4-4-4s-4,1.8-4,4v7.9c0,2.2,1.8,4,4,4S152.8,95.5,152.8,93.3z"/>
	<path class="st0" d="M114.4,93.3c-1.8,1.1-2.4,3.5-1.3,5.4l2.7,4.6c1.1,1.9,3.5,2.6,5.4,1.5c1.9-1.1,2.6-3.5,1.5-5.4l-2.7-4.6
		c-1.1-1.9-3.5-2.6-5.4-1.5C114.5,93.2,114.5,93.2,114.4,93.3z"/>
	<path class="st0" d="M93.3,152.8c0-2.2-1.8-4-4-4h-7.9c-2.2,0-4,1.8-4,4s1.8,4,4,4h7.9C91.5,156.7,93.3,154.9,93.3,152.8z"/>
	<path class="st0" d="M90.4,190.4c0.7,0,1.4-0.2,2-0.5l6.9-4c1.9-1.1,2.6-3.5,1.5-5.4c-1.1-1.9-3.5-2.6-5.4-1.5l-6.9,4
		c-1.9,1.1-2.6,3.5-1.5,5.4C87.7,189.7,89,190.4,90.4,190.4L90.4,190.4z"/>
	<path class="st0" d="M121,200.8c-1.9-1.1-4.3-0.5-5.4,1.4c0,0,0,0,0,0l-4,6.9c-1.1,1.9-0.4,4.3,1.5,5.4s4.3,0.4,5.4-1.5l4-6.9
		C123.6,204.4,123,201.9,121,200.8C121.1,200.8,121,200.8,121,200.8L121,200.8z"/>
	<path class="st0" d="M144.8,212.2v7.9c0,2.2,1.8,4,4,4s4-1.8,4-4v-7.9c0-2.2-1.8-4-4-4S144.8,210.1,144.8,212.2z"/>
	<path class="st0" d="M176.6,200.8c-1.9,1.1-2.6,3.5-1.5,5.4c0,0,0,0,0,0l4,6.9c1.1,1.9,3.5,2.6,5.4,1.5c1.9-1.1,2.6-3.5,1.5-5.4
		l-4-6.9C180.9,200.4,178.5,199.7,176.6,200.8C176.6,200.8,176.6,200.8,176.6,200.8L176.6,200.8z"/>
	<path class="st0" d="M198.3,185.9l6.9,4c1.9,1.1,4.3,0.4,5.4-1.5c1.1-1.9,0.4-4.3-1.5-5.4l-6.9-4c-1.9-1.1-4.3-0.4-5.4,1.5
		C195.8,182.4,196.4,184.9,198.3,185.9z"/>
	<path class="st0" d="M204.3,152.8c0,2.2,1.8,4,4,4h7.9c2.2,0,4-1.8,4-4s-1.8-4-4-4h-7.9C206.1,148.8,204.3,150.6,204.3,152.8z"/>
	<path class="st0" d="M205.2,115.6l-6.9,4c-1.9,1.1-2.6,3.5-1.5,5.4c1.1,1.9,3.5,2.6,5.4,1.5l6.9-4c1.9-1.1,2.6-3.5,1.5-5.4
		C209.5,115.2,207.1,114.5,205.2,115.6z"/>
	<path class="st0" d="M178.5,105.2c1.4,0,2.7-0.8,3.4-2l4-6.9c1.1-1.9,0.4-4.3-1.5-5.4c-1.9-1.1-4.3-0.4-5.4,1.5l0,0l-4,6.9
		c-1.1,1.9-0.4,4.3,1.5,5.4C177.1,105,177.8,105.2,178.5,105.2L178.5,105.2z"/>
	<path class="st1" d="M130.1,134.1c-1.6,1.5-1.6,4.1,0,5.6c0,0,0,0,0,0l15.1,15l-3.2,3.1c-1.6,1.5-1.6,4.1,0,5.6c0,0,0,0,0,0
		c1.5,1.6,4.1,1.6,5.6,0c0,0,0,0,0,0l3.1-3.2l3.1,3.2c1.5,1.6,4.1,1.6,5.6,0c0,0,0,0,0,0c1.6-1.5,1.6-4.1,0-5.6c0,0,0,0,0,0
		l-3.2-3.1l30.9-30.9c1.6-1.6,1.6-4.1,0-5.6c-1.6-1.6-4.1-1.6-5.6,0l0,0l-30.9,30.9l-15-15.1C134.2,132.5,131.7,132.5,130.1,134.1
		C130.1,134.1,130.1,134.1,130.1,134.1z"/>
	<path class="st0" d="M65.5,136.9c1,0,2-0.4,2.7-1.1c2-1.9,48.8-46.5,48.8-74.3C117.1,33.1,94,10,65.5,10S14,33.1,14,61.6
		c0,27.8,46.8,72.4,48.8,74.3C63.5,136.5,64.5,136.9,65.5,136.9L65.5,136.9z M21.9,61.6c0-24.1,19.5-43.6,43.6-43.6
		s43.6,19.5,43.6,43.6c0,18.8-29.3,51.6-43.6,65.9C51.2,113.1,21.9,80.4,21.9,61.6z"/>
	<path class="st1" d="M93.3,61.6c0-15.3-12.4-27.8-27.8-27.8S37.8,46.2,37.8,61.6s12.4,27.8,27.8,27.8S93.3,76.9,93.3,61.6z
		 M45.7,61.6c0-11,8.9-19.8,19.8-19.8s19.8,8.9,19.8,19.8s-8.9,19.8-19.8,19.8S45.7,72.5,45.7,61.6z"/>
	<path class="st0" d="M99.2,119.5h-0.4c-1.9-1-4.3-0.3-5.4,1.5c-1.1,1.9-0.4,4.3,1.5,5.4c0,0,0,0,0,0l0.3,0.2
		c0.6,0.3,1.3,0.5,1.9,0.5c2.2,0,4-1.8,4-3.9c0-1.5-0.8-2.8-2.1-3.5L99.2,119.5z"/>
</g>
</svg>
