<?xml version="1.0" encoding="utf-8"?>
<!-- Generator: Adobe Illustrator 27.9.1, SVG Export Plug-In . SVG Version: 6.00 Build 0)  -->
<svg version="1.1" id="Layer_1" xmlns="http://www.w3.org/2000/svg" xmlns:xlink="http://www.w3.org/1999/xlink" x="0px" y="0px"
	 viewBox="0 0 250 250" style="enable-background:new 0 0 250 250;" xml:space="preserve">
<style type="text/css">
	.st0{fill:#1F4168;}
</style>
<path class="st0" d="M214.4,88.1c-8.6,0-16,6.2-17.7,14.7h-33.1V86.9h29.2V53.5c9.9-1.4,16.8-10.5,15.4-20.4s-10.5-16.8-20.4-15.4
	c-9.9,1.4-16.8,10.5-15.4,20.4c1,7.4,6.5,13.4,13.8,15.1v27h-23.5c-1.1-3-3.3-5.6-6-7.3v-8.8c0-17.5-14.2-31.7-31.7-31.7
	c-17.5,0-31.7,14.2-31.7,31.7v8.8c-2.8,1.7-4.9,4.3-6.1,7.3H63.7v-27c9.7-2.3,15.6-11.9,13.4-21.6S65.2,16,55.5,18.2
	c-9.7,2.3-15.6,11.9-13.4,21.6c1.7,7.2,7.6,12.6,14.9,13.7v33.4h29.4v15.8H53.3C51.5,92.8,42,86.4,32.2,88.2
	c-9.8,1.8-16.3,11.3-14.5,21.1s11.3,16.3,21.1,14.5c7.3-1.4,13.1-7.1,14.5-14.5h33.1v13.2c0,8,6.5,14.5,14.5,14.5H113v43.3l-4.5-6.2
	c-4.6-6.4-13.5-7.9-19.9-3.3c0,0,0,0-0.1,0.1c-6.3,4.6-7.7,13.5-3.2,19.9l28.5,40.4c0.6,0.9,1.6,1.4,2.7,1.4H174
	c4.9,0,9.5-2.3,12.4-6.2l6-8c2-2.7,3.1-6,3.1-9.4v-30.8c0-7-5.7-12.6-12.6-12.6h-5.4c-1.3-6-6.7-10.4-12.9-10.4h-7.9
	c-2.4-4.6-7.1-7.5-12.3-7.5h-5.3v-10.7h9.8c8,0,14.5-6.5,14.5-14.5v-13.3h33.1c1.8,9.8,11.2,16.4,21,14.6c9.8-1.8,16.4-11.2,14.6-21
	C230.7,94.2,223.2,87.9,214.4,88.1L214.4,88.1z M179,35.7c0-6.2,5.1-11.3,11.3-11.3c6.2,0,11.3,5.1,11.3,11.3S196.6,47,190.3,47
	C184.1,47,179,41.9,179,35.7z M48.3,35.7c0-6.2,5.1-11.3,11.3-11.3s11.3,5.1,11.3,11.3S65.9,47,59.6,47S48.3,41.9,48.3,35.7z
	 M35.6,117.4c-6.2,0-11.3-5.1-11.3-11.3c0-6.2,5.1-11.3,11.3-11.3s11.3,5.1,11.3,11.3C46.9,112.3,41.9,117.4,35.6,117.4z
	 M100.1,64.1c0-13.7,11.1-24.9,24.9-24.9s24.9,11.1,24.9,24.9v6.8H149h-48.1h-0.8V64.1z M144.6,154.5c4,0,7.2,3.2,7.2,7.2v14.8h6.6
	V163l-0.8-1h7.1c3.6,0,6.6,2.9,6.6,6.6v0v15.7h6.6v-12h5.1c3.3,0,6,2.7,6,6V209c0,1.9-0.6,3.8-1.8,5.4l-6,8
	c-1.7,2.2-4.3,3.5-7.1,3.6h-56l-27.4-39.1c-2.4-3.4-1.6-8.1,1.8-10.6c1.6-1.2,3.7-1.7,5.7-1.4c2,0.3,3.8,1.4,5,3.1l10.6,14.7
	c0.9,1.2,2.4,1.7,3.7,1.2c1.4-0.5,2.3-1.7,2.3-3.2v-69.2c-0.2-3.6,2.5-6.7,6.1-6.9s6.7,2.5,6.9,6.1c0,0.3,0,0.5,0,0.8V167h6.6v-12.4
	L144.6,154.5z M157,122.6c0,4.3-3.5,7.9-7.9,7.9h-9.8v-9c-0.3-7.3-6.4-12.9-13.7-12.6c-6.8,0.3-12.3,5.8-12.6,12.6v9h-12.1
	c-4.3,0-7.9-3.5-7.9-7.9V85.3c0-4.3,3.5-7.9,7.9-7.9h48.2c4.3,0,7.9,3.5,7.9,7.9V122.6z M214.4,117.4c-6.2,0-11.3-5.1-11.3-11.3
	s5.1-11.3,11.3-11.3s11.3,5.1,11.3,11.3C225.7,112.3,220.6,117.4,214.4,117.4L214.4,117.4z"/>
</svg>
