<?xml version="1.0" encoding="utf-8"?>
<!-- Generator: Adobe Illustrator 27.9.1, SVG Export Plug-In . SVG Version: 6.00 Build 0)  -->
<svg version="1.1" id="Layer_1" xmlns="http://www.w3.org/2000/svg" xmlns:xlink="http://www.w3.org/1999/xlink" x="0px" y="0px"
	 viewBox="0 0 250 250" style="enable-background:new 0 0 250 250;" xml:space="preserve">
<style type="text/css">
	.st0{fill:#1F4168;}
</style>
<g>
	<path class="st0" d="M207.6,193.1v-3.5c0-0.4,0-0.7,0-1.1c0.2-2.2-0.2-4.4-1.2-6.4c-2.1-2.9-5.1-5-8.4-6.2c-0.7-0.3-1.4-0.6-1.9-1
		c-4-2.2-8-4.3-11.9-6.5c-4.5-2.8-9.5-4.7-14.7-5.8c-5.6-1.6-10.9-4-15.7-7.3v-5.5c0.5-0.5,1-1,1.6-1.5c1-0.8,1.9-1.7,2.8-2.7
		c0.9-0.9,1.3-2.3,0.9-3.5c-0.4-1.3-1.4-2.2-2.6-2.5c-1.3-0.3-2.6,0.1-3.5,1.1c-0.7,0.8-1.5,1.5-2.3,2.2c-3.7,3.3-7,7-9.8,11.1
		c-3.7,5.1-5.4,7.2-10.3,7.2h-11.2c-4.9,0-6.6-2.1-10.3-7.2c-2.8-4.1-6.1-7.8-9.8-11.1c-0.8-0.7-1.6-1.4-2.3-2.2
		c-0.9-1-2.2-1.4-3.5-1.1c-1.3,0.3-2.3,1.3-2.6,2.5c-0.4,1.3,0,2.6,0.9,3.5c0.9,0.9,1.8,1.8,2.8,2.7c0.6,0.5,1.1,1,1.6,1.5v5.5
		c-4.8,3.3-10.1,5.8-15.7,7.3c-5.2,1.1-10.2,3.1-14.7,5.8c-3.9,2.3-7.9,4.4-11.9,6.5c-0.6,0.3-1.2,0.6-1.9,1
		c-3.4,1.2-6.3,3.4-8.4,6.2c-1,2-1.4,4.2-1.2,6.4c0,0.4,0,0.7,0,1.1v3.5c0.1,6.1,5,11,11.1,11h143
		C202.6,204.1,207.5,199.2,207.6,193.1z M49.6,193.1v-3.5c0-0.5,0-1,0-1.4c-0.1-0.8,0-1.7,0.2-2.5c1.5-1.5,3.3-2.7,5.3-3.4
		c0.8-0.4,1.6-0.8,2.3-1.1c4.1-2.2,8.1-4.4,12.1-6.6c3.8-2.4,8.1-4,12.5-5c0.7-0.1,1.3-0.3,2-0.5c-0.5,7.7,0.2,19.4,6.9,27.8H53.5
		C51.4,196.9,49.6,195.2,49.6,193.1z M146.8,196.9h-45c-11.9-6.4-11.3-23.3-10.4-30.7c1.8-0.9,3.4-1.8,4.9-2.6v4.5
		c0,2,1.6,3.6,3.6,3.6c2,0,3.6-1.6,3.6-3.6v-10c3.7,5.2,7.3,10,15.9,10h11.2c8.6,0,12.2-4.8,16-10v10c0,2,1.6,3.6,3.6,3.6
		c2,0,3.6-1.6,3.6-3.6v-4.5c1.5,0.8,3.1,1.7,4.9,2.6c0.9,7.4,1.4,24.3-10.4,30.7H146.8z M200.4,188.2c0,0.5,0,1,0,1.4v3.5
		c-0.1,2.1-1.8,3.8-3.9,3.8h-37.3c6.7-8.4,7.4-20.1,6.9-27.8c0.7,0.2,1.3,0.4,2,0.5c4.4,1,8.6,2.7,12.5,5c4,2.3,8,4.5,12.1,6.6
		c0.7,0.4,1.5,0.7,2.3,1.1c2,0.7,3.8,1.9,5.3,3.4C200.5,186.5,200.6,187.4,200.4,188.2z"/>
	<path class="st0" d="M178.3,107.7c0.8-4.7,1.9-16-4.5-18.2c-1.8-0.6-3.8-0.6-5.7-0.1c0-2.1,0-4.2-0.1-6.4c0-0.9,0-1.9-0.1-2.9
		l-0.1-2c-1.3-24.2-26.6-31.6-40-32.2h-5.7c-13.3,0.5-38.6,7.9-39.9,32.2L82,80.2c0,0.9-0.1,1.9-0.1,2.7c-0.1,2.3-0.1,4.4-0.1,6.5
		c-1.8-0.5-3.8-0.5-5.6,0.1c-6.5,2.1-5.4,13.4-4.6,18.3c2,6.7,6.8,12.2,13.1,15c0,0.7-0.1,1.4-0.1,2.1h-6.4c-2,0-3.6,1.6-3.6,3.6
		c0,2,1.6,3.6,3.6,3.6h140.2c2,0,3.6-1.6,3.6-3.6c0-2-1.6-3.6-3.6-3.6h-53.2c0-0.7-0.1-1.4-0.1-2.1
		C171.6,120,176.4,114.4,178.3,107.7z M171.3,106.3c-1.1,3.3-3.2,6.1-6,8.1c0.2-1.5,0.5-2.9,0.8-4.5c0.9-4.1,1.5-8.3,1.8-12.5
		c1-0.8,2.1-1.1,3.3-1.1C171.9,99.6,171.9,103,171.3,106.3z M78.7,106.5c-0.7-3.4-0.7-6.9,0.1-10.3c1.2,0,2.4,0.4,3.3,1.1
		c0.3,4.2,0.9,8.4,1.8,12.5c0.3,1.6,0.6,3,0.8,4.5C81.9,112.5,79.9,109.7,78.7,106.5L78.7,106.5z M91.9,125c0-0.6,0.1-1.3,0.1-1.9
		l0.1-2.4c0-0.1,0-0.3,0-0.4l0.1-2.4c0-3.2-0.4-6.4-1.2-9.5c-0.9-4.3-1.5-8.7-1.7-13.1C89,91.5,89,87.5,89.2,83c0-0.8,0-1.6,0.1-2.5
		l0.1-2c1.2-23.7,31.7-25.3,32.9-25.3h5.5c0.3,0,31.8,1.5,33,25.3l0.1,1.9c0,0.9,0.1,1.8,0.1,2.7c0.2,4.4,0.1,8.4-0.1,12.2
		c-0.2,4.4-0.8,8.8-1.7,13.1c-0.7,3.1-1.1,6.3-1.2,9.5l0.1,2.4c0,0.1,0,0.3,0,0.4l0.1,2.4c0,0.6,0.1,1.3,0.1,1.9H91.9z"/>
	<path class="st0" d="M20.8,49.5c2,0,3.6-1.6,3.6-3.6V35.2c0-6,4.8-10.8,10.8-10.8h10.8c2,0,3.6-1.6,3.6-3.6c0-2-1.6-3.6-3.6-3.6
		H35.2c-9.9,0-18,8-18,18v10.8C17.2,47.9,18.8,49.5,20.8,49.5z"/>
	<path class="st0" d="M45.9,225.6H35.2c-6,0-10.8-4.8-10.8-10.8v-10.8c0-2-1.6-3.6-3.6-3.6c-2,0-3.6,1.6-3.6,3.6v10.8
		c0,9.9,8,18,18,18h10.8c2,0,3.6-1.6,3.6-3.6C49.5,227.2,47.9,225.6,45.9,225.6z"/>
	<path class="st0" d="M229.2,200.5c-2,0-3.6,1.6-3.6,3.6v10.8c0,6-4.8,10.8-10.8,10.8h-10.8c-2,0-3.6,1.6-3.6,3.6
		c0,2,1.6,3.6,3.6,3.6h10.8c9.9,0,18-8,18-18v-10.8C232.8,202.1,231.2,200.5,229.2,200.5z"/>
	<path class="st0" d="M214.8,17.2h-10.8c-2,0-3.6,1.6-3.6,3.6c0,2,1.6,3.6,3.6,3.6h10.8c6,0,10.8,4.8,10.8,10.8v10.8
		c0,2,1.6,3.6,3.6,3.6c2,0,3.6-1.6,3.6-3.6V35.2C232.8,25.2,224.8,17.2,214.8,17.2z"/>
	<path class="st0" d="M38.7,45.9v-7.2h7.2c2,0,3.6-1.6,3.6-3.6c0-2-1.6-3.6-3.6-3.6h-7.2c-4,0-7.2,3.2-7.2,7.2v7.2
		c0,2,1.6,3.6,3.6,3.6C37.1,49.5,38.7,47.9,38.7,45.9z"/>
	<path class="st0" d="M45.9,211.3h-7.2v-7.2c0-2-1.6-3.6-3.6-3.6c-2,0-3.6,1.6-3.6,3.6v7.2c0,4,3.2,7.2,7.2,7.2h7.2
		c2,0,3.6-1.6,3.6-3.6C49.5,212.9,47.9,211.3,45.9,211.3z"/>
	<path class="st0" d="M211.3,204.1v7.2h-7.2c-2,0-3.6,1.6-3.6,3.6c0,2,1.6,3.6,3.6,3.6h7.2c4,0,7.2-3.2,7.2-7.2v-7.2
		c0-2-1.6-3.6-3.6-3.6C212.9,200.5,211.3,202.1,211.3,204.1z"/>
	<path class="st0" d="M214.8,49.5c2,0,3.6-1.6,3.6-3.6v-7.2c0-4-3.2-7.2-7.2-7.2h-7.2c-2,0-3.6,1.6-3.6,3.6c0,2,1.6,3.6,3.6,3.6h7.2
		v7.2C211.3,47.9,212.9,49.5,214.8,49.5z"/>
	<path class="st0" d="M63.9,125c-1,0-1.9,0.4-2.6,1l-0.4,0.5c-0.1,0.2-0.2,0.4-0.3,0.6c-0.1,0.2-0.2,0.4-0.2,0.6
		c0,0.2-0.1,0.5-0.1,0.7c0,1,0.4,1.9,1,2.6c0.3,0.3,0.7,0.6,1.2,0.8c1.3,0.5,2.9,0.2,3.9-0.8c0.3-0.3,0.6-0.7,0.8-1.2
		c0.2-0.4,0.3-0.9,0.3-1.4c0-1-0.4-1.9-1-2.6C65.8,125.4,64.9,125,63.9,125z"/>
	<path class="st0" d="M28,128.6c0,2,1.6,3.6,3.6,3.6h18c2,0,3.6-1.6,3.6-3.6c0-2-1.6-3.6-3.6-3.6h-18C29.6,125,28,126.6,28,128.6z"
		/>
</g>
</svg>
