<?xml version="1.0" encoding="utf-8"?>
<!-- Generator: Adobe Illustrator 27.9.1, SVG Export Plug-In . SVG Version: 6.00 Build 0)  -->
<svg version="1.1" id="Layer_1" xmlns="http://www.w3.org/2000/svg" xmlns:xlink="http://www.w3.org/1999/xlink" x="0px" y="0px"
	 viewBox="0 0 250 250" style="enable-background:new 0 0 250 250;" xml:space="preserve">
<style type="text/css">
	.st0{fill:#FFBB08;}
	.st1{fill:#27375D;}
</style>
<g id="Outline">
	<path class="st0" d="M196.4,73.4c-2.2,0-4,1.8-4,4v146.8c0,6.6-5.3,11.9-11.9,11.9H69.5c-6.6,0-11.9-5.3-11.9-11.9v-43.6
		c0-2.2-1.8-4-4-4s-4,1.8-4,4v43.6c0,10.9,8.9,19.8,19.8,19.8h111.1c10.9,0,19.8-8.9,19.8-19.8V77.4
		C200.4,75.2,198.6,73.4,196.4,73.4z"/>
	<path class="st0" d="M180.5,6H69.5c-10.9,0-19.8,8.9-19.8,19.8v138.8c0,2.2,1.8,4,4,4s4-1.8,4-4V25.8c0-6.6,5.3-11.9,11.9-11.9
		h111.1c6.6,0,11.9,5.3,11.9,11.9v35.7c0,2.2,1.8,4,4,4c2.2,0,4-1.8,4-4V25.8C200.4,14.9,191.5,6,180.5,6z"/>
	<circle class="st0" cx="69.5" cy="25.8" r="4"/>
	<circle class="st0" cx="85.3" cy="25.8" r="4"/>
	<path class="st0" d="M69.5,53.6c-2.2,0-4,1.8-4,4v166.6c0,2.2,1.8,4,4,4h111.1c2.2,0,4-1.8,4-4V25.8c0-2.2-1.8-4-4-4h-79.3
		c-2.2,0-4,1.8-4,4c0,6.6-5.3,11.9-11.9,11.9H69.5c-2.2,0-4,1.8-4,4s1.8,4,4,4h15.9c9.4,0,17.5-6.6,19.4-15.9h71.8v190.4H73.4V57.6
		C73.4,55.4,71.7,53.6,69.5,53.6z"/>
	<path class="st1" d="M136.9,61.5h-23.8c-2.2,0-4,1.8-4,4v11.9h-7.9c-2.2,0-4,1.8-4,4v79.3c0,2.2,1.8,4,4,4h47.6c2.2,0,4-1.8,4-4
		V121c0-2.2-1.8-4-4-4c-2.2,0-4,1.8-4,4v19.8h-39.7V85.3h39.7v19.8c0,2.2,1.8,4,4,4c2.2,0,4-1.8,4-4V81.4c0-2.2-1.8-4-4-4h-7.9V65.5
		C140.9,63.3,139.1,61.5,136.9,61.5z M144.8,148.8v7.9h-39.7v-7.9H144.8z M117.1,77.4v-7.9h15.9v7.9H117.1z"/>
	<path class="st1" d="M118.7,132.1c1.8,1.3,4.2,1,5.6-0.8l11.9-15.9c1.3-1.8,1-4.2-0.8-5.6c-0.7-0.5-1.5-0.8-2.4-0.8H125l7.1-9.5
		c1.3-1.8,1-4.2-0.8-5.6c-1.8-1.3-4.2-1-5.5,0.8l-11.9,15.9c-1.3,1.8-1,4.2,0.8,5.6c0.7,0.5,1.5,0.8,2.4,0.8h7.9l-7.1,9.5
		C116.5,128.3,116.9,130.8,118.7,132.1L118.7,132.1L118.7,132.1z"/>
	<path class="st1" d="M144.8,208.3c1.3,0,2.6-0.7,3.3-1.8l15.9-23.8c1.2-1.8,0.7-4.3-1.1-5.5c-1.8-1.2-4.3-0.7-5.5,1.1l-15.9,23.8
		c-1.2,1.8-0.7,4.3,1.1,5.5C143.3,208.1,144.1,208.3,144.8,208.3z"/>
	<circle class="st1" cx="140.9" cy="184.5" r="4"/>
	<circle class="st1" cx="164.7" cy="200.4" r="4"/>
	<path class="st1" d="M109.1,176.6c-2.2,0-4,1.8-4,4v23.8c0,2.2,1.8,4,4,4H125c2.2,0,4-1.8,4-4v-23.8c0-2.2-1.8-4-4-4H109.1z
		 M121,200.4h-7.9v-15.9h7.9V200.4z"/>
	<path class="st1" d="M82.5,191.3c1.5,1.5,4.1,1.5,5.6,0l1.2-1.2v14.2c0,2.2,1.8,4,4,4s4-1.8,4-4v-23.8c0-2.2-1.8-4-4-4
		c-1.1,0-2.1,0.4-2.8,1.2l-7.9,7.9C81,187.2,81,189.7,82.5,191.3L82.5,191.3z"/>
	<path class="st0" d="M164.7,37.7h-19.8c-2.2,0-4,1.8-4,4s1.8,4,4,4h19.8c2.2,0,4-1.8,4-4S166.9,37.7,164.7,37.7z"/>
	<path class="st0" d="M164.7,53.6h-11.9c-2.2,0-4,1.8-4,4s1.8,4,4,4h11.9c2.2,0,4-1.8,4-4S166.9,53.6,164.7,53.6z"/>
	<path class="st0" d="M97.2,53.6H85.3c-2.2,0-4,1.8-4,4v15.9c0,2.2,1.8,4,4,4s4-1.8,4-4V61.5h7.9c2.2,0,4-1.8,4-4
		S99.4,53.6,97.2,53.6z"/>
</g>
</svg>
