<?xml version="1.0" encoding="utf-8"?>
<!-- Generator: Adobe Illustrator 27.9.1, SVG Export Plug-In . SVG Version: 6.00 Build 0)  -->
<svg version="1.1" id="Layer_1" xmlns="http://www.w3.org/2000/svg" xmlns:xlink="http://www.w3.org/1999/xlink" x="0px" y="0px"
	 viewBox="0 0 250 250" style="enable-background:new 0 0 250 250;" xml:space="preserve">
<style type="text/css">
	.st0{fill:#27375D;}
	.st1{fill:#FFBB08;}
</style>
<g>
	<path class="st0" d="M110.4,124.1l-4.5-4.8c10.7-10,27.4-10,38.1,0l-4.5,4.8C131.3,116.5,118.6,116.5,110.4,124.1z"/>
	<path class="st1" d="M184.4,204.1h33v-6.6h-19.8V19.5H52.4v178.1H32.7v6.6h63.9l3.3,6.6H19.5v6.6h83.7l1.3,2.5
		c3.3,6.6,9.9,10.7,17.3,10.7h51.1l9.9-13.2h47.8v-6.6h-46.2V204.1z M177.8,210.7v2.2l-8.2,11h-47.8c-4.8,0-9.2-2.7-11.4-7
		l-14.2-28.4c-0.7-1.5-0.8-3.2-0.2-4.7c0.6-1.5,1.8-2.8,3.3-3.4c0.7-0.3,1.4-0.4,2.2-0.4c2.1,0,4,1.1,5,2.8l8.9,14.7h6.4v-61
		c0-2.7,2.2-4.9,4.9-4.9s4.9,2.2,4.9,4.9v41.2h6.6v-9.9h6.6c1.8,0,3.3,1.5,3.3,3.3v13.2h6.6v-9.9h6.6c1.8,0,3.3,1.5,3.3,3.3V191h6.6
		v-9.9h3.3c1.8,0,3.3,1.5,3.3,3.3V210.7z M151.4,105.2v39.6h-13.2v-8.2c0-6.4-5.2-11.5-11.5-11.5c-6.4,0-11.5,5.2-11.5,11.5v8.2
		H98.6v-39.6H151.4z M105.2,98.6V85.4c0-10.9,8.9-19.8,19.8-19.8c10.9,0,19.8,8.9,19.8,19.8v13.2H105.2z M174.5,174.5h-3.9
		c-1.4-4-5.1-6.6-9.3-6.6h-7.2c-1.4-4-5.1-6.6-9.3-6.6h-6.6v-9.9H158V98.6h-6.6V85.4c0-14.6-11.8-26.4-26.4-26.4
		S98.6,70.9,98.6,85.4v13.2H92v52.8h23.1v33l-3-5c-3.5-5.7-10.8-7.7-16.7-4.4c-5.9,3.2-8.1,10.5-5.1,16.5l3,6.1h-21v-66h-6.6v66H59
		V26.1H191v171.5h-6.6v-13.2C184.4,178.9,179.9,174.5,174.5,174.5z"/>
	<path class="st0" d="M75.5,92c-5.5,0-9.9,4.4-9.9,9.9v13.2c0,5.5,4.4,9.9,9.9,9.9c5.5,0,9.9-4.4,9.9-9.9v-13.2
		C85.4,96.5,81,92,75.5,92z M78.8,115.1c0,1.8-1.5,3.3-3.3,3.3s-3.3-1.5-3.3-3.3v-13.2c0-1.8,1.5-3.3,3.3-3.3s3.3,1.5,3.3,3.3V115.1
		z"/>
	<path class="st1" d="M184.4,32.7H65.6v52.8h6.6V39.3h105.5v128.6h6.6V32.7z"/>
	<path class="st1" d="M19.5,197.6h6.6v6.6h-6.6V197.6z"/>
	<path class="st1" d="M223.9,197.6h6.6v6.6h-6.6V197.6z"/>
</g>
</svg>
