<?xml version="1.0" encoding="utf-8"?>
<!-- Generator: Adobe Illustrator 27.9.1, SVG Export Plug-In . SVG Version: 6.00 Build 0)  -->
<svg version="1.1" id="Layer_1" xmlns="http://www.w3.org/2000/svg" xmlns:xlink="http://www.w3.org/1999/xlink" x="0px" y="0px"
	 viewBox="0 0 250 250" style="enable-background:new 0 0 250 250;" xml:space="preserve">
<style type="text/css">
	.st0{fill:#1F4168;}
</style>
<g id="Layer_3">
	<path class="st0" d="M186.5,87.5c-29.5,0-53.4,24-53.5,53.5c0,39.6,49.1,77.8,51.1,79.4c1.4,1.1,3.3,1.1,4.7,0
		c2.1-1.6,51.1-39.8,51.1-79.4C240,111.5,216,87.5,186.5,87.5L186.5,87.5z M186.5,212.5c-9.6-8-45.8-40.2-45.8-71.5
		c0-25.3,20.5-45.8,45.8-45.8s45.8,20.5,45.8,45.8C232.4,172.2,196.2,204.4,186.5,212.5z"/>
	<path class="st0" d="M186.5,114.2c-14.8,0-26.7,12-26.7,26.7c1.3,35.4,52.2,35.4,53.5,0C213.2,126.2,201.3,114.3,186.5,114.2z
		 M186.5,160.1c-25.2-0.8-25.2-37.4,0-38.2C211.8,122.7,211.8,159.3,186.5,160.1z"/>
	<path class="st0" d="M194.8,72.9c-1.5,1.5-1.4,3.9,0.1,5.4c1.5,1.4,3.8,1.4,5.3,0c3-2.9,7.8-2.9,10.8,0c1.5,1.5,3.9,1.5,5.4,0
		c1.5-1.5,1.5-3.9,0-5.4C210.4,67.1,200.9,67.1,194.8,72.9z"/>
	<path class="st0" d="M224.5,68.6c2.1,0,3.8-1.8,3.8-3.9c0-1-0.4-1.9-1.1-2.6c-11.9-11.9-31.3-11.9-43.2,0c-1.5,1.5-1.4,3.9,0.1,5.4
		c1.5,1.4,3.8,1.4,5.3,0c9-8.9,23.4-8.9,32.4,0C222.5,68.2,223.5,68.6,224.5,68.6L224.5,68.6z"/>
	<path class="st0" d="M235.3,57.8c2.1,0,3.8-1.8,3.8-3.9c0-1-0.4-1.9-1.1-2.6c-17.9-17.9-46.9-17.9-64.8,0c-1.5,1.5-1.4,3.9,0.1,5.4
		c1.5,1.4,3.8,1.4,5.3,0c15-14.8,39.1-14.8,54,0C233.4,57.4,234.3,57.8,235.3,57.8L235.3,57.8z"/>
	<path class="st0" d="M147.1,188.3l-33.1-11.8v-67.8c3.7,2.9,4.5,4.9,8.1,2.9c8.3-6.7,15.7-14.5,21.7-23.3
		c0.7,0.2,11.2,4.2,11.7,3.9c2.1,0,3.8-1.8,3.8-3.9c0-1.6-1-3-2.5-3.5l-9-3.2c12.4-21.5-2.8-49.7-28-49.4
		C101.7,32.3,87.2,47,87.4,65c0,4.2,0.9,8.3,2.5,12.2l-21.9,10l-52-18.6c-2-0.7-4.2,0.4-4.9,2.4c-0.1,0.4-0.2,0.8-0.2,1.2v107
		c0,1.6,1,3.1,2.5,3.6l53.5,19.1c0.9,0.3,2,0.3,2.9-0.1l40.6-18.5l34.2,12.2c2,0.7,4.2-0.4,4.8-2.4C150,191.1,149,189,147.1,188.3
		L147.1,188.3z M119.7,39.8c13.7,0,24.8,11.1,24.8,24.8c0,16.3-18.2,33.4-24.8,39c-7-5.6-25.3-24.3-24.8-39
		C95,50.9,106.1,39.8,119.7,39.8z M65.5,163.9c-2.8,3-5.7,5.8-8.8,8.4c-6.6-5.6-24.8-22.7-24.8-39c0-13.7,11.1-24.8,24.8-24.7
		c13.7,0,24.7,11.1,24.7,24.7C81.4,144.5,72.9,156,65.5,163.9L65.5,163.9z M18.4,77.6L64.3,94v7.9c-17.5-4.2-35,6.6-39.2,24.1
		c-0.6,2.4-0.9,4.9-0.9,7.4c0,23.6,28.9,46.1,30.1,47c1.4,1.1,3.3,1.1,4.7,0c0.3-0.2,2.4-1.9,5.3-4.5v17l-45.8-16.4V77.6z
		 M71.9,168.2c18.4-18.6,26.5-47.9,0-63.5v-11l21.2-9.6c3.6,6.3,8.1,12.1,13.1,17.3v75.3l-34.4,15.6V168.2z"/>
	<path class="st0" d="M119.7,83.7c9.5-0.1,17.1-7.8,17-17.3c-0.1-9.4-7.7-17-17-17c-9.5,0.1-17.1,7.8-17.1,17.3
		C102.7,76,110.3,83.6,119.7,83.7z M119.7,56.9c5.3,0.1,9.5,4.4,9.4,9.7c-0.1,5.2-4.3,9.4-9.4,9.4c-5.3-0.1-9.5-4.4-9.5-9.6
		C110.3,61.2,114.5,57,119.7,56.9z"/>
	<path class="st0" d="M56.6,118.1c-9.5,0.1-17.1,7.9-17,17.4c0.1,9.3,7.7,16.9,17,17c9.5-0.1,17.1-7.9,17-17.4
		C73.5,125.7,66,118.2,56.6,118.1L56.6,118.1z M56.6,144.8c-5.3,0-9.6-4.3-9.6-9.5c0-5.3,4.3-9.6,9.6-9.5c5.3,0.1,9.5,4.4,9.4,9.7
		C66,140.6,61.8,144.7,56.6,144.8z"/>
</g>
</svg>
