<?xml version="1.0" encoding="utf-8"?>
<!-- Generator: Adobe Illustrator 27.9.1, SVG Export Plug-In . SVG Version: 6.00 Build 0)  -->
<svg version="1.1" id="Layer_1" xmlns="http://www.w3.org/2000/svg" xmlns:xlink="http://www.w3.org/1999/xlink" x="0px" y="0px"
	 viewBox="0 0 250 250" style="enable-background:new 0 0 250 250;" xml:space="preserve">
<style type="text/css">
	.st0{fill:#27375D;}
	.st1{fill:#FFBB08;}
</style>
<g>
	<path class="st0" d="M132.4,109.9c1.8,0,3.3-1.5,3.3-3.3c0-1.8-1.5-3.3-3.3-3.3H37.8c-1.8,0-3.3,1.5-3.3,3.3c0,1.8,1.5,3.3,3.3,3.3
		H132.4z"/>
	<path class="st0" d="M37.8,57.5h47.4c1.8,0,3.3-1.5,3.3-3.3c0-1.8-1.5-3.3-3.3-3.3H37.8c-1.8,0-3.3,1.5-3.3,3.3
		C34.5,56,35.9,57.5,37.8,57.5z"/>
	<path class="st0" d="M37.8,83.7h94.6c1.8,0,3.3-1.5,3.3-3.3c0-1.8-1.5-3.3-3.3-3.3H37.8c-1.8,0-3.3,1.5-3.3,3.3v0
		C34.5,82.2,36,83.7,37.8,83.7z"/>
	<path class="st1" d="M110.4,121.7c-1.2-0.9-2.8-0.9-4,0l-8.4,6.4c-0.8,0.6-1.3,1.6-1.3,2.6v53.8c0,1.8,1.5,3.3,3.3,3.3h16.7
		c1.8,0,3.3-1.5,3.3-3.3v-53.8c0-1-0.5-2-1.3-2.6L110.4,121.7z M113.5,181.3h-10.2v-48.9l5.1-3.9l5.1,3.9V181.3z"/>
	<path class="st0" d="M180.1,158.4l-16.5,16.5l-7-7c-1.3-1.3-3.4-1.3-4.6,0c-1.3,1.3-1.3,3.4,0,4.6l9.3,9.3v0c1.3,1.3,3.4,1.3,4.6,0
		l18.8-18.8c0,0,0,0,0,0c1.3-1.3,1.3-3.4,0-4.6C183.5,157.1,181.4,157.1,180.1,158.4z"/>
	<path class="st1" d="M236.2,219.8l-20.2-20.2c-1.4-1.4-3.5-1.9-5.4-1.2l-6-5.9c12.3-20.1,6.1-46.4-14-58.7
		c-6.7-4.1-14.5-6.3-22.3-6.3c-1.9,0-3.8,0.1-5.7,0.4V69.7c0-0.8-0.3-1.6-0.9-2.2l-52.2-57.3c-0.6-0.7-1.5-1.1-2.4-1.1H24.8
		c-7.7,0-13.9,6.7-13.9,14.9v167.1c0,8.2,6.2,14.9,13.9,14.9h120.6c13.8,8.8,31.3,8.9,45.3,0.4l6,6c-0.6,1.9-0.1,4,1.2,5.4L218,238
		c1.9,1.9,4.5,2.9,7.2,2.9c0.4,0,0.9,0,1.3-0.1c6.5-0.9,11.6-6,12.5-12.5C239.4,225.2,238.4,222.1,236.2,219.8z M151.9,66.5h-41.3
		l-0.1-45.5L151.9,66.5z M24.8,199.5c-4,0-7.3-3.7-7.3-8.3V24.1c0-4.6,3.3-8.3,7.3-8.3h79.1l0.2,54c0,1.8,1.5,3.3,3.3,3.3h48.8v56.2
		c-22.6,6.8-35.3,30.6-28.6,53.2c1.9,6.4,5.3,12.3,9.9,17.1H24.8z M193.9,195.7c-13.9,14.1-36.6,14.2-50.7,0.3
		c-0.1-0.1-0.2-0.2-0.3-0.3c-14.1-14.1-14.1-37,0-51.1c14.1-14.1,37-14.1,51.1,0C208,158.7,208,181.6,193.9,195.7
		C193.9,195.7,193.9,195.7,193.9,195.7z M196,202.6c0.9-0.7,1.7-1.5,2.5-2.3v0c0.8-0.8,1.5-1.6,2.3-2.5l4.7,4.6l-4.8,4.8L196,202.6z
		 M232.5,227.6c-0.5,3.4-3.2,6.1-6.7,6.7c-0.8,0.1-2.2,0.1-3.1-0.9L203.3,214l8.9-8.9l19.4,19.4
		C232.6,225.4,232.6,226.8,232.5,227.6z"/>
	<path class="st1" d="M50.4,135.3c-1.2-0.9-2.8-0.9-4,0l-8.4,6.4c-0.8,0.6-1.3,1.6-1.3,2.6v40.3c0,1.8,1.5,3.3,3.3,3.3h16.7
		c1.8,0,3.3-1.5,3.3-3.3v-40.3c0-1-0.5-2-1.3-2.6L50.4,135.3z M53.5,181.3H43.3v-35.4l5.1-3.9l5.1,3.9V181.3z"/>
	<path class="st1" d="M80.4,146.6c-1.2-0.9-2.8-0.9-4,0L68,153c-0.8,0.6-1.3,1.6-1.3,2.6v29c0,1.8,1.5,3.3,3.3,3.3h16.7
		c1.8,0,3.3-1.5,3.3-3.3v-29c0-1-0.5-2-1.3-2.6L80.4,146.6z M83.5,181.3H73.3v-24.1l5.1-3.9l5.1,3.9V181.3z"/>
</g>
</svg>
