<?xml version="1.0" encoding="utf-8"?>
<!-- Generator: Adobe Illustrator 27.9.1, SVG Export Plug-In . SVG Version: 6.00 Build 0)  -->
<svg version="1.1" id="Layer_1" xmlns="http://www.w3.org/2000/svg" xmlns:xlink="http://www.w3.org/1999/xlink" x="0px" y="0px"
	 viewBox="0 0 250 250" style="enable-background:new 0 0 250 250;" xml:space="preserve">
<style type="text/css">
	.st0{fill:#FFBB08;}
	.st1{fill:#27375D;}
</style>
<g>
	<path class="st0" d="M189.2,78.6h39.3c6.9,0,12.4-5.6,12.4-12.4V35c0-6.9-5.6-12.4-12.4-12.4h-39.3c-6.9,0-12.4,5.6-12.4,12.4v11.4
		h-26.9c-6.9,0-12.4,5.6-12.4,12.4v66.9h-35V94.4c0-5.7-2.4-11.2-6.6-15.1L74.5,59.2c-3.8-3.6-8.9-5.6-14.2-5.6H21.5
		C14.3,54,8.7,60.1,9,67.3v111.9c-0.3,7.2,5.3,13.4,12.5,13.7H90c7.2-0.4,12.8-6.5,12.5-13.7v-45.1c3.5,0,32.4,0,35,0v62.2
		c0,6.9,5.6,12.4,12.4,12.4h26.9v6.3c0,6.9,5.6,12.4,12.4,12.4h39.3c6.9,0,12.4-5.6,12.4-12.4v-31.2c0-6.9-5.6-12.4-12.4-12.4h-39.3
		c-6.9,0-12.4,5.6-12.4,12.4v16.6h-26.9c-2.3,0-4.1-1.9-4.1-4.1v-62.2h31.1v6.5c0,6.9,5.6,12.4,12.4,12.4h39.3
		c6.9,0,12.4-5.6,12.4-12.4v-31.2c0-6.9-5.6-12.4-12.4-12.4h-39.3c-6.9,0-12.4,5.6-12.4,12.4v16.4h-31.1V58.9c0-2.3,1.9-4.1,4.1-4.1
		h26.9v11.5C176.8,73.1,182.4,78.6,189.2,78.6z M90.3,85.3c1.5,1.4,2.6,3.1,3.2,5.1H68.6c-2.3,0-4.1-1.9-4.1-4.1V62.6
		c1.6,0.6,3.1,1.5,4.4,2.6L90.3,85.3z M90,184.7H21.5c-2.6-0.4-4.5-2.8-4.2-5.4V67.3c-0.3-2.7,1.6-5.1,4.2-5.4h34.7v24.4
		c0,6.9,5.6,12.4,12.4,12.4h25.6v80.6C94.5,181.9,92.6,184.3,90,184.7L90,184.7z M185.1,183.8c0-2.3,1.9-4.1,4.1-4.1h39.3
		c2.3,0,4.1,1.9,4.1,4.1V215c0,2.3-1.9,4.1-4.1,4.1h-39.3c-2.3,0-4.1-1.9-4.1-4.1V183.8z M185.1,109.4c0-2.3,1.9-4.1,4.1-4.1h39.3
		c2.3,0,4.1,1.9,4.1,4.1v31.2c0,2.3-1.9,4.1-4.1,4.1h-39.3c-2.3,0-4.1-1.9-4.1-4.1V109.4z M185.1,35c0-2.3,1.9-4.1,4.1-4.1h39.3
		c2.3,0,4.1,1.9,4.1,4.1v31.2c0,2.3-1.9,4.1-4.1,4.1h-39.3c-2.3,0-4.1-1.9-4.1-4.1V35z"/>
	<path class="st1" d="M195.3,47.7h27.3c2.3,0,4.1-1.9,4.1-4.2c0-2.2-1.8-4-4.1-4.1h-27.3c-2.3,0-4.1,1.9-4.1,4.2
		C191.2,45.9,193,47.6,195.3,47.7z"/>
	<path class="st1" d="M195.3,61.8h27.3c2.3,0,4.1-1.9,4.1-4.2c0-2.2-1.8-4-4.1-4.1h-27.3c-2.3,0-4.1,1.9-4.1,4.2
		C191.2,60,193,61.8,195.3,61.8z"/>
	<path class="st1" d="M195.3,122.1h27.3c2.3-0.1,4.1-1.9,4.1-4.2c0-2.2-1.8-4-4.1-4.1h-27.3c-2.3,0-4.1,1.9-4.1,4.2
		C191.2,120.3,193,122,195.3,122.1z"/>
	<path class="st1" d="M195.3,136.2h27.3c2.3,0,4.1-1.9,4.1-4.1c0-2.3-1.9-4.1-4.1-4.1c0,0,0,0,0,0h-27.3c-2.3,0-4.1,1.9-4.1,4.2
		C191.2,134.4,193,136.2,195.3,136.2z"/>
	<path class="st1" d="M195.3,196.5h27.3c2.3-0.1,4.1-1.9,4.1-4.2c0-2.2-1.8-4-4.1-4.1h-27.3c-2.3,0-4.1,1.9-4.1,4.2
		C191.2,194.6,193,196.4,195.3,196.5z"/>
	<path class="st1" d="M195.3,210.6h27.3c2.3-0.1,4.1-2,4-4.3c-0.1-2.2-1.8-3.9-4-4h-27.3c-2.3,0-4.1,1.9-4.1,4.2
		C191.2,208.8,193,210.6,195.3,210.6z"/>
	<path class="st1" d="M81.7,117.2H29.8c-2.3,0-4.1,1.9-4.1,4.2c0,2.2,1.8,4,4.1,4.1h51.8c2.3,0,4.1-1.9,4.1-4.2
		C85.7,119,83.9,117.2,81.7,117.2z"/>
	<path class="st1" d="M81.7,139.2H29.8c-2.3,0.1-4.1,1.9-4.1,4.2c0,2.2,1.8,4,4.1,4.1h51.8c2.3,0,4.1-1.9,4.1-4.2
		C85.7,141.1,83.9,139.3,81.7,139.2z"/>
	<path class="st1" d="M81.7,160.9H29.8c-2.3,0.1-4.1,1.9-4.1,4.2c0,2.2,1.8,4,4.1,4.1h51.8c2.3,0,4.1-1.9,4.1-4.2
		C85.7,162.7,83.9,160.9,81.7,160.9z"/>
</g>
</svg>
