<?xml version="1.0" encoding="utf-8"?>
<!-- Generator: Adobe Illustrator 27.9.1, SVG Export Plug-In . SVG Version: 6.00 Build 0)  -->
<svg version="1.1" id="Layer_1" xmlns="http://www.w3.org/2000/svg" xmlns:xlink="http://www.w3.org/1999/xlink" x="0px" y="0px"
	 viewBox="0 0 250 250" style="enable-background:new 0 0 250 250;" xml:space="preserve">
<style type="text/css">
	.st0{fill:#27375D;}
	.st1{fill:#FFBB08;}
</style>
<g>
	<path class="st0" d="M65.1,72.7h65.5c4.3,0,4.3-6.7,0-6.7H65.1C60.8,66,60.8,72.7,65.1,72.7z"/>
	<path class="st0" d="M65.1,97.2h50.4c4.3,0,4.3-6.7,0-6.7H65.1C60.8,90.5,60.8,97.2,65.1,97.2z"/>
	<path class="st0" d="M65.1,121.7h43.3c4.3,0,4.3-6.7,0-6.7H65.1C60.8,115,60.8,121.7,65.1,121.7z"/>
	<path class="st0" d="M126.7,203.5h-2.2v-32.6c0-1.8-1.5-3.3-3.3-3.3h-13.4v-11.8c0-1.8-1.5-3.3-3.3-3.3H87.7
		c-1.8,0-3.3,1.5-3.3,3.3v20.3H70.9c-1.8,0-3.3,1.5-3.3,3.3v24.1h-2.2c-1.8,0-3.3,1.5-3.3,3.3s1.5,3.3,3.3,3.3h61.3
		c1.8,0,3.3-1.5,3.3-3.3S128.5,203.5,126.7,203.5z M74.3,203.5v-20.8h10v20.8H74.3z M91,203.5v-44.4h10v44.4H91z M107.7,203.5v-29.3
		h10v29.3H107.7z"/>
	<path class="st1" d="M239,115c-0.4-14.1-6.2-27.3-16.1-37.3c-4.8-4.8-10.2-8.5-16-11.1c-0.1-0.1-0.2-0.1-0.3-0.2
		c-0.1,0-0.2-0.1-0.3-0.1c-7.5-3.3-15.6-4.9-23.7-4.7V43.3c0-4.3-3.5-7.8-7.8-7.8h-4.8v-4.2c0-4.3-3.5-7.8-7.8-7.8h-4.8v-4.8
		c0-4.3-3.5-7.8-7.8-7.8H18.8c-4.3,0-7.8,3.5-7.8,7.8v188c0,4.3,3.5,7.8,7.8,7.8h4.8v4.8c0,4.3,3.5,7.8,7.7,7.8l4.8,0v4.2
		c0,4.3,3.5,7.8,7.8,7.8h104.3c0.9,0,1.7-0.4,2.4-1l30.9-30.7c0.6-0.6,1-1.5,1-2.4v-33.1c0.5,0,0.9,0,1.4,0c9.4,0,18.8-2.4,27-7
		c3.8-2.1,0.5-7.9-3.3-5.8c-17.8,10-40.1,7.5-55.4-5.8l32.8-32.8l44.8,11.9c-2,5.8-5.1,11.4-9.4,16.3c-2.8,3.2,2.2,7.7,5,4.4
		C234.6,142.5,239.4,129,239,115L239,115z M200.7,71.3l-19.6,43.5l-33.7,33.7c-16.6-19-15.8-48,2.3-66
		C163.4,68.7,183.5,65,200.7,71.3L200.7,71.3z M31.3,220.4c-0.6,0-1.1-0.5-1.1-1.1v-188c0-0.6,0.5-1.1,1.1-1.1h23.3
		c4.3,0,4.3-6.7,0-6.7H31.3c-4.3,0-7.8,3.5-7.8,7.8v176.5h-4.8c-0.6,0-1.1-0.5-1.1-1.1v-188c0-0.6,0.5-1.1,1.1-1.1h130.8
		c0.6,0,1.1,0.5,1.1,1.1v4.8H73.3c-4.3,0-4.3,6.7,0,6.7h88.8c0.6,0,1.1,0.5,1.1,1.1v4.2H43.9c-4.3,0-7.8,3.5-7.8,7.8v177.1
		L31.3,220.4z M42.8,231.2v-188c0-0.6,0.5-1.1,1.1-1.1h130.8c0.6,0,1.1,0.5,1.1,1.1v19c-11.3,1.7-22.2,6.8-30.9,15.5
		c-21.5,21.5-21.5,56.4,0,77.9c8.5,8.5,19.1,13.8,30.9,15.5v30.1h-23.1c-4.3,0-7.8,3.5-7.8,7.8v23.2h-101
		C43.3,232.3,42.8,231.8,42.8,231.2L42.8,231.2z M151.6,227.6v-18.5c0-0.6,0.5-1.1,1.1-1.1h18.4L151.6,227.6z M188.5,114.5L206.7,74
		c4.1,2.2,7.9,5,11.4,8.4c11.7,11.7,16.2,28.1,13.3,43.4L188.5,114.5z"/>
</g>
</svg>
