<?xml version="1.0" encoding="utf-8"?>
<!-- Generator: Adobe Illustrator 27.9.1, SVG Export Plug-In . SVG Version: 6.00 Build 0)  -->
<svg version="1.1" id="Layer_1" xmlns="http://www.w3.org/2000/svg" xmlns:xlink="http://www.w3.org/1999/xlink" x="0px" y="0px"
	 viewBox="0 0 250 250" style="enable-background:new 0 0 250 250;" xml:space="preserve">
<style type="text/css">
	.st0{fill:#27375D;}
	.st1{fill:#F9A21B;}
</style>
<g>
	<g id="g1709" transform="translate(252.9893,430.9233)">
		<g id="path1711">
			<path class="st0" d="M-129.3-377.8h-80.9c-1.8,0-3.2-1.4-3.2-3.2s1.4-3.2,3.2-3.2h80.9c1.8,0,3.2,1.4,3.2,3.2
				S-127.5-377.8-129.3-377.8z"/>
		</g>
	</g>
	<g id="g1713" transform="translate(252.9893,379.3965)">
		<g id="path1715">
			<path class="st0" d="M-129.3-304.1h-80.9c-1.8,0-3.2-1.4-3.2-3.2c0-1.8,1.4-3.2,3.2-3.2h80.9c1.8,0,3.2,1.4,3.2,3.2
				C-126.1-305.6-127.5-304.1-129.3-304.1z"/>
		</g>
	</g>
	<g id="g1717" transform="translate(158.7544,327.8691)">
		<g id="path1719">
			<path class="st0" d="M-75.5-230.5h-40.4c-1.8,0-3.2-1.4-3.2-3.2c0-1.8,1.4-3.2,3.2-3.2h40.4c1.8,0,3.2,1.4,3.2,3.2
				C-72.3-231.9-73.7-230.5-75.5-230.5z"/>
		</g>
	</g>
	<g id="g1723">
		<g id="g1729" transform="translate(354.9272,272.2876)">
			<g id="path1731">
				<path class="st0" d="M-197.4-117.9c-4.8,0-7.8-0.4-12.7-3.6c-1.5-1-1.9-3-0.9-4.5c1-1.5,3-1.9,4.5-0.9c3.6,2.4,5.2,2.6,9.7,2.6
					c5.2,0,8.1-3.9,8.7-7.4c0.2-1.4,0.6-6.2-5-8.2c-6.7-2.4-10.5-4.2-13.3-6.3c-3.1-2.4-4.5-6.6-3.7-11c0.9-4.8,4.2-8.6,8.7-10
					c9.3-2.8,15.4,2.7,15.6,3l-4.4,4.7l0,0c-0.2-0.1-3.8-3.3-9.4-1.6c-2.6,0.8-3.9,3.1-4.2,5c-0.4,2,0.1,3.9,1.3,4.8
					c2.7,2.1,7.3,3.9,11.4,5.3c6.8,2.4,10.4,8.4,9.2,15.3c-1,6.1-6.2,12.7-15.1,12.8C-197-117.9-197.2-117.9-197.4-117.9z"/>
			</g>
		</g>
		<g id="g1733" transform="translate(334.0933,292.7651)">
			<g id="path1735">
				<path class="st0" d="M-176-132.1c-1.8,0-3.2-1.4-3.2-3.2v-56c0-1.8,1.4-3.2,3.2-3.2c1.8,0,3.2,1.4,3.2,3.2v56
					C-172.8-133.5-174.2-132.1-176-132.1z"/>
			</g>
		</g>
		<g id="g1737" transform="translate(304.6934,502.3364)">
			<g id="path1739">
				<path class="st1" d="M-121.4-442.4h-29.3c-6.3,0-11.3-5.1-11.3-11.3V-483c0-1.1,0.6-2.1,1.5-2.7c0.9-0.6,2.1-0.7,3.1-0.2
					c1.5,0.7,2.8,1.6,3.9,2.7l32.4,32.4c1.1,1.1,2,2.4,2.7,3.9c0.5,1,0.4,2.2-0.2,3.1C-119.3-443-120.3-442.4-121.4-442.4z
					 M-155.6-476.2v22.4c0,2.7,2.2,4.9,4.9,4.9h22.4L-155.6-476.2z"/>
			</g>
		</g>
		<g id="g1741" transform="translate(432.8262,181.2817)">
			<g id="path1743">
				<path class="st1" d="M-232-21c-0.5,0-1-0.1-1.5-0.4c-1.6-0.8-2.2-2.8-1.4-4.3c3.3-6.3,5-13.2,5-20.4c0-24.5-19.9-44.5-44.5-44.5
					c-24.5,0-44.5,19.9-44.5,44.5c0,7.2,1.7,14.1,5,20.4c0.8,1.6,0.2,3.5-1.4,4.3c-1.6,0.8-3.5,0.2-4.3-1.4
					c-3.7-7.2-5.7-15.3-5.7-23.4c0-28.1,22.8-50.9,50.9-50.9c28.1,0,50.9,22.8,50.9,50.9c0,8.1-2,16.2-5.7,23.4
					C-229.7-21.6-230.8-21-232-21z"/>
			</g>
		</g>
		<g id="g1745" transform="translate(394.0322,361.8335)">
			<g id="path1747">
				<path class="st1" d="M-318.1-127H-365c-7.4,0-13.4-6-13.4-13.4v-192.9c0-7.4,6-13.4,13.4-13.4h112.6c3.6,0,7,1.4,9.5,3.9
					l32.4,32.4c2.5,2.5,3.9,5.9,3.9,9.5v18.7c0,1.8-1.4,3.2-3.2,3.2s-3.2-1.4-3.2-3.2v-18.7c0-1.9-0.7-3.6-2-4.9l-32.4-32.4
					c-1.3-1.3-3.1-2-4.9-2H-365c-3.9,0-7,3.1-7,7v192.9c0,3.9,3.1,7,7,7h46.9c1.8,0,3.2,1.4,3.2,3.2
					C-314.8-128.4-316.3-127-318.1-127z"/>
			</g>
		</g>
		<g id="g1749" transform="translate(223.3105,240.9731)">
			<g id="path1751">
				<path class="st1" d="M-3.1-6.1h-123.4c-7.8,0-14.1-6.3-14.1-14.1v-78.3c0-7.8,6.3-14.1,14.1-14.1h14.2c1.8,0,3.2,1.4,3.2,3.2
					c0,1.8-1.4,3.2-3.2,3.2h-14.2c-4.2,0-7.7,3.5-7.7,7.7v78.3c0,4.2,3.5,7.7,7.7,7.7H-3.1c4.2,0,7.7-3.5,7.7-7.7v-78.3
					c0-4.2-3.5-7.7-7.7-7.7h-14.2c-1.8,0-3.2-1.4-3.2-3.2c0-1.8,1.4-3.2,3.2-3.2h14.2c7.8,0,14.1,6.3,14.1,14.1v78.3
					C11-12.5,4.7-6.1-3.1-6.1z"/>
			</g>
		</g>
		<g id="g1753" transform="translate(168.4717,228.6138)">
			<g id="path1755">
				<path class="st1" d="M-22.5-47.2c-0.6,0-1.3-0.2-1.9-0.6l-58.5-41.4c-1.5-1-1.8-3-0.8-4.5c1-1.5,3-1.8,4.5-0.8l58.5,41.4
					c1.5,1,1.8,3,0.8,4.5C-20.5-47.7-21.5-47.2-22.5-47.2z"/>
			</g>
		</g>
		<g id="g1757" transform="translate(363.3457,132.1152)">
			<g id="path1759">
				<path class="st1" d="M-192.3,49.3c-1,0-2-0.5-2.6-1.4c-1-1.5-0.7-3.5,0.8-4.5L-135.6,2c1.5-1,3.5-0.7,4.5,0.8
					c1,1.5,0.7,3.5-0.8,4.5l-58.5,41.4C-191,49.1-191.6,49.3-192.3,49.3z"/>
			</g>
		</g>
		<g id="g1761" transform="translate(172.9062,14.3779)">
			<g id="path1763">
				<path class="st1" d="M54.8,217.5c-0.8,0-1.5-0.3-2.1-0.8l-60.8-54.3c-3.5-3.2-8.9-3.2-12.4,0l-60.8,54.3
					c-1.3,1.2-3.4,1.1-4.5-0.3c-1.2-1.3-1.1-3.4,0.3-4.5l60.8-54.3c6-5.3,15-5.3,21,0l60.8,54.3c1.3,1.2,1.4,3.2,0.3,4.5
					C56.5,217.2,55.7,217.5,54.8,217.5z"/>
			</g>
		</g>
	</g>
</g>
</svg>
