<?xml version="1.0" encoding="utf-8"?>
<!-- Generator: Adobe Illustrator 27.9.1, SVG Export Plug-In . SVG Version: 6.00 Build 0)  -->
<svg version="1.1" id="Layer_1" xmlns="http://www.w3.org/2000/svg" xmlns:xlink="http://www.w3.org/1999/xlink" x="0px" y="0px"
	 viewBox="0 0 250 250" style="enable-background:new 0 0 250 250;" xml:space="preserve">
<style type="text/css">
	.st0{fill:#1F4168;}
</style>
<g>
	<path class="st0" d="M173.7,168.5c-5.6-1.4-7.6,7-2.1,8.4c19.1,4.7,31.4,12.3,31.4,19.1c0,11.5-33.4,24.3-78,24.3S47,207.5,47,196
		c0-6.9,12.3-14.4,31.4-19.1c5.5-1.4,3.5-9.8-2.1-8.4c-24.5,6.1-38,15.9-38,27.5c0,21.4,44.7,33,86.7,33s86.7-11.6,86.7-33
		C211.7,184.3,198.2,174.6,173.7,168.5L173.7,168.5z"/>
	<path class="st0" d="M125,107.7c14.3,0,26-11.7,26-26s-11.7-26-26-26s-26,11.7-26,26S110.7,107.7,125,107.7z M125,64.3
		c9.6,0,17.3,7.8,17.3,17.3S134.6,99,125,99s-17.3-7.8-17.3-17.3S115.4,64.3,125,64.3z"/>
	<path class="st0" d="M203.6,101.3c10.7-10.8,10.7-28.4,0-39.2c-4-4.1-10.2,2-6.2,6.1c7.4,7.5,7.4,19.6,0,27
		C193.4,99.3,199.6,105.3,203.6,101.3z"/>
	<path class="st0" d="M52.5,95.2c-7.4-7.5-7.4-19.6,0-27c4-4.1-2.1-10.2-6.2-6.1c-10.7,10.8-10.7,28.4,0,39.2
		C50.4,105.4,56.6,99.3,52.5,95.2z"/>
	<path class="st0" d="M221.4,42.2c-4-4.1-10.2,2-6.2,6.1c18.2,18.4,18.2,48.4,0,66.8c-4.1,4.1,2.2,10.1,6.2,6.1
		C243,99.4,243,63.9,221.4,42.2z"/>
	<path class="st0" d="M28.6,42.2C7,63.9,7,99.4,28.6,121.2c4,4,10.2-2,6.2-6.1c-18.2-18.4-18.2-48.4,0-66.8
		C38.7,44.2,32.6,38.1,28.6,42.2z"/>
	<path class="st0" d="M121.2,200.8c1.6,3,5.9,3,7.6,0c44.1-84.4,56.9-93,56.9-119.1c0-33.5-27.2-60.7-60.7-60.7S64.3,48.2,64.3,81.7
		C64.3,107.8,76.5,115.2,121.2,200.8z M125,29.7c28.7,0,52,23.3,52,52c0,22.6-10.3,28.4-52,108c-41.6-79.5-52-85.4-52-108
		C73,53,96.3,29.7,125,29.7z"/>
</g>
</svg>
