<?xml version="1.0" encoding="utf-8"?>
<!-- Generator: Adobe Illustrator 27.9.1, SVG Export Plug-In . SVG Version: 6.00 Build 0)  -->
<svg version="1.1" id="Layer_1" xmlns="http://www.w3.org/2000/svg" xmlns:xlink="http://www.w3.org/1999/xlink" x="0px" y="0px"
	 viewBox="0 0 250 250" style="enable-background:new 0 0 250 250;" xml:space="preserve">
<style type="text/css">
	.st0{fill:#1F4168;}
</style>
<g id="_03_Api">
	<path class="st0" d="M125.4,65c-34.1,0-61.7,27.6-61.7,61.7c0,34.1,27.6,61.7,61.7,61.7c34.1,0,61.7-27.6,61.7-61.7c0,0,0,0,0,0
		C187.1,92.6,159.5,65,125.4,65z M125.4,181.2c-30.1,0-54.5-24.4-54.5-54.5c0-30.1,24.4-54.5,54.5-54.5c30.1,0,54.5,24.4,54.5,54.5
		c0,0,0,0,0,0C179.8,156.8,155.5,181.1,125.4,181.2z"/>
	<path class="st0" d="M234.1,104.7l-15.7-3c-2.2-8.1-5.4-15.8-9.6-23l9-13.2c1-1.4,0.8-3.4-0.4-4.6l-26.1-26.1
		c-1.2-1.2-3.2-1.4-4.6-0.4l-13.2,9c-7.2-4.2-15-7.4-23.1-9.6l-3-15.7c-0.3-1.7-1.8-2.9-3.6-2.9H107c-1.7,0-3.2,1.2-3.6,2.9l-3,15.7
		c-8.1,2.2-15.8,5.4-23,9.6l-13.2-9c-1.4-1-3.4-0.8-4.6,0.4L33.5,60.8C32.2,62,32,64,33,65.4l9,13.2c-4.2,7.2-7.4,15-9.6,23l-15.7,3
		c-1.7,0.3-2.9,1.8-2.9,3.6v36.9c0,1.7,1.2,3.2,2.9,3.6l15.7,3c2.2,8.1,5.4,15.8,9.6,23L33,188c-1,1.4-0.8,3.4,0.4,4.6l26.1,26.1
		c1.2,1.2,3.2,1.4,4.6,0.4l13.2-9c7.2,4.2,15,7.4,23,9.6l3,15.7c0.3,1.7,1.8,2.9,3.6,2.9h36.9c1.7,0,3.2-1.2,3.6-2.9l3-15.7
		c8.1-2.2,15.8-5.4,23.1-9.6l13.2,9c1.4,1,3.4,0.8,4.6-0.4l26.1-26.1c1.2-1.2,1.4-3.2,0.4-4.6l-9-13.2c4.2-7.2,7.4-15,9.6-23l15.7-3
		c1.7-0.3,2.9-1.8,2.9-3.6v-36.9C237,106.5,235.8,105,234.1,104.7z M229.8,142.1l-15,2.9c-1.4,0.3-2.5,1.3-2.8,2.7
		c-2.2,8.9-5.7,17.4-10.5,25.2c-0.7,1.2-0.7,2.7,0.1,3.9l8.6,12.7l-21.8,21.8l-12.7-8.6c-1.2-0.8-2.7-0.8-3.9-0.1
		c-7.8,4.8-16.4,8.3-25.3,10.5c-1.4,0.3-2.4,1.4-2.7,2.8l-2.9,15H110l-2.9-15c-0.3-1.4-1.3-2.5-2.7-2.8c-8.9-2.2-17.4-5.7-25.2-10.5
		c-1.2-0.7-2.7-0.7-3.9,0.1l-12.7,8.6l-21.8-21.8l8.6-12.7c0.8-1.2,0.8-2.7,0.1-3.9c-4.8-7.8-8.3-16.3-10.5-25.3
		c-0.3-1.4-1.4-2.4-2.8-2.7l-15-2.9v-30.9l15-2.9c1.4-0.3,2.5-1.3,2.8-2.6c2.2-8.9,5.7-17.5,10.5-25.3c0.7-1.2,0.7-2.7-0.1-3.9
		l-8.6-12.7L62.5,42l12.7,8.6c1.2,0.8,2.7,0.8,3.9,0.1c7.8-4.8,16.4-8.3,25.3-10.5c1.4-0.3,2.4-1.4,2.7-2.8l2.9-15h30.9l2.9,15
		c0.3,1.4,1.3,2.5,2.7,2.8c8.9,2.2,17.4,5.7,25.2,10.5c1.2,0.7,2.7,0.7,3.9-0.1l12.6-8.6l21.8,21.8l-8.6,12.7
		c-0.8,1.2-0.8,2.7-0.1,3.9c4.8,7.8,8.3,16.4,10.5,25.3c0.3,1.4,1.4,2.4,2.8,2.7l15,2.9V142.1z"/>
	<path class="st0" d="M125.4,48.9c-43,0-77.8,34.8-77.8,77.8s34.8,77.8,77.8,77.8s77.8-34.8,77.8-77.8
		C203.1,83.8,168.3,49,125.4,48.9z M125.4,197.2c-39,0-70.5-31.6-70.5-70.5s31.6-70.5,70.5-70.5s70.5,31.6,70.5,70.5
		C195.9,165.6,164.3,197.2,125.4,197.2L125.4,197.2z"/>
	<path class="st0" d="M110,129.6L110,129.6l-7.1-17.7c-0.6-1.4-1.9-2.3-3.3-2.3l0,0c-1.5,0-2.8,0.9-3.4,2.2l-7.3,17.7l0,0l-4.8,11.6
		c-0.8,1.8,0.1,4,2,4.7c1.8,0.8,4-0.1,4.7-2l3.9-9.3h9.6l3.8,9.3c0.7,1.9,2.8,2.8,4.7,2.1c1.9-0.7,2.8-2.8,2.1-4.7
		c0-0.1,0-0.1-0.1-0.2L110,129.6z M97.6,127.4l1.9-4.6l1.8,4.6H97.6z"/>
	<path class="st0" d="M156.6,107.1c-2,0-3.6,1.6-3.6,3.6v31.9c0,2,1.6,3.6,3.6,3.6c2,0,3.6-1.6,3.6-3.6v-31.9
		C160.2,108.8,158.6,107.1,156.6,107.1z"/>
	<path class="st0" d="M133.8,107.1h-9.2c-2,0-3.6,1.6-3.6,3.6v31.9c0,2,1.6,3.6,3.6,3.6s3.6-1.6,3.6-3.6v-12.3h5.6
		c6.4,0,11.6-5.2,11.6-11.6C145.3,112.3,140.2,107.1,133.8,107.1z M133.8,123.1h-5.6v-8.7h5.6c2.4,0,4.3,1.9,4.3,4.3
		C138.1,121.1,136.2,123.1,133.8,123.1z"/>
</g>
</svg>
