<?xml version="1.0" encoding="utf-8"?>
<!-- Generator: Adobe Illustrator 27.9.1, SVG Export Plug-In . SVG Version: 6.00 Build 0)  -->
<svg version="1.1" id="Layer_1" xmlns="http://www.w3.org/2000/svg" xmlns:xlink="http://www.w3.org/1999/xlink" x="0px" y="0px"
	 viewBox="0 0 250 250" style="enable-background:new 0 0 250 250;" xml:space="preserve">
<style type="text/css">
	.st0{fill:#27375D;}
	.st1{fill:#FFBB08;}
</style>
<g>
	<path class="st0" d="M162.9,35.7c28.2,4,47.8,30.1,43.9,58.3c-0.2,1.7-0.6,3.4-1,5.1c-0.5,2.1,0.8,4.2,2.8,4.7
		c0.3,0.1,0.6,0.1,0.9,0.1c1.8,0,3.3-1.2,3.7-2.9v0c7.8-31.8-11.6-63.9-43.4-71.8c-1.9-0.5-3.9-0.9-5.9-1.1
		c-2.1-0.3-4.1,1.2-4.4,3.3C159.3,33.5,160.8,35.4,162.9,35.7z"/>
	<path class="st0" d="M159.6,52.6c18.9,2.2,32.4,19.2,30.2,38c-0.2,1.7-0.5,3.4-0.9,5c-0.6,2.1,0.7,4.2,2.7,4.7
		c2.1,0.6,4.2-0.7,4.7-2.7c0,0,0,0,0,0c6-22.5-7.3-45.5-29.8-51.5c-2-0.5-4-0.9-6.1-1.2c-2.1-0.2-4,1.3-4.3,3.4
		C156,50.5,157.5,52.4,159.6,52.6z"/>
	<path class="st0" d="M156.6,68.8L156.6,68.8c9.9,0.5,17.6,9,17.1,18.9c-0.1,1.5-0.4,3.1-0.8,4.6c-0.6,2,0.5,4.2,2.5,4.9
		c2,0.6,4.2-0.5,4.9-2.5c4.3-13.6-3.2-28.1-16.7-32.4c-2.1-0.7-4.3-1.1-6.5-1.2c-2.1-0.1-3.9,1.5-4.1,3.7
		C152.9,66.9,154.5,68.7,156.6,68.8z"/>
	<path class="st1" d="M177.9,125.5c-2.1-0.5-4.2,0.8-4.6,2.9c-0.5,2.1,0.8,4.2,2.9,4.6c0,0,0,0,0,0c33.8,7.7,55.6,22.5,55.6,37.8
		c0,23.5-48.9,43.4-106.8,43.4S18.2,194.4,18.2,170.9c0-15.4,21.9-30.3,55.8-37.9c2.1-0.5,3.4-2.5,2.9-4.6c-0.5-2.1-2.5-3.4-4.6-2.9
		c-38.1,8.6-61.8,26-61.8,45.4c0,28.6,50.3,51.1,114.5,51.1c64.2,0,114.5-22.4,114.5-51.1C239.5,151.2,216.5,134.2,177.9,125.5z"/>
	<path class="st0" d="M125,130.1c0.7,0,1.5,0,2.2-0.1c10.6-1.2,18.2-10.8,17-21.4c-1.2-10.6-10.8-18.2-21.4-17c0,0,0,0,0,0
		c-2.1,0.3-3.6,2.2-3.4,4.3c0.2,2.1,2.2,3.6,4.3,3.4c2-0.2,4,0,5.8,0.8c5.9,2.5,8.7,9.3,6.3,15.2c-2.5,5.9-9.3,8.7-15.2,6.3
		c-5.9-2.5-8.7-9.3-6.3-15.2c0,0,0,0,0,0c0.8-2-0.1-4.2-2-5.1c-2-0.8-4.2,0.1-5.1,2c-0.9,2.3-1.4,4.7-1.4,7.1
		C105.6,121.1,114.2,129.9,125,130.1z"/>
	<path class="st1" d="M112,152.7l9.6,19.2c0.7,1.3,2,2.1,3.5,2.1c1.5,0,2.8-0.8,3.5-2.1l9.4-19c20.6-6.3,33.6-26.5,30.9-47.8
		c-3.1-24.1-25.2-41.2-49.4-38.1c-22,2.8-38.4,21.5-38.4,43.7C80.8,130.1,93.4,147.2,112,152.7z M90.2,100.2
		C94.9,84.9,109,74.4,125,74.4c1.4,0,2.8,0.1,4.2,0.2c16.6,1.9,29.7,14.9,31.9,31.4c2.3,17.6-8.5,34.3-25.5,39.5
		c-1.9,0.6-3.5,1.9-4.4,3.7l-6.1,12.3l-6.1-12.3c-0.9-1.8-2.5-3.1-4.4-3.7C95.2,139.7,84.4,119.4,90.2,100.2z"/>
</g>
</svg>
