<?xml version="1.0" encoding="utf-8"?>
<!-- Generator: Adobe Illustrator 27.9.1, SVG Export Plug-In . SVG Version: 6.00 Build 0)  -->
<svg version="1.1" id="Layer_1" xmlns="http://www.w3.org/2000/svg" xmlns:xlink="http://www.w3.org/1999/xlink" x="0px" y="0px"
	 viewBox="0 0 250 250" style="enable-background:new 0 0 250 250;" xml:space="preserve">
<style type="text/css">
	.st0{fill:#FFBB08;}
	.st1{fill:#27375D;}
</style>
<g>
	<path class="st0" d="M184.2,123.2c-2.9-4.8-7.8-8.2-13.3-9.2V48.6c0-10.6-8.6-19.1-19.1-19.1h-31.6c-1.4-2.4-3.9-3.8-6.6-3.8h-5.1
		c-4.2-11.9-17.3-18.2-29.3-14c-6.6,2.3-11.7,7.5-14,14H60c-2.7,0-5.2,1.5-6.6,3.8h-24c-10.6,0-19.1,8.6-19.1,19.1v160.5
		c0,10.6,8.6,19.1,19.1,19.1h67.1c0.2,0.4,0.3,0.7,0.5,1.1c3.5,6.4,10.3,10.4,17.6,10.4h104.8c7.3,0,14.1-4,17.6-10.4
		c3.7-6.5,3.5-14.6-0.4-20.9L184.2,123.2z M163.2,48.6V114c-2.7,0.5-5.4,1.6-7.6,3.2V52.4c0-4.2-3.4-7.6-7.6-7.6h-26.8v-7.6h30.6
		C158.1,37.1,163.2,42.2,163.2,48.6z M60,33.3h8c1.8,0,3.4-1.3,3.7-3.1c1.7-8.3,9.8-13.6,18-11.9c6,1.2,10.7,5.9,11.9,11.9
		c0.4,1.8,1.9,3.1,3.7,3.1h8v15.3H60V33.3z M113.5,56.2c2.7,0,5.2-1.5,6.6-3.8h27.8v74l-48.5,78.9H33.2V52.4h20.2
		c1.4,2.4,3.9,3.8,6.6,3.8H113.5z M29.4,220.6c-6.3,0-11.5-5.1-11.5-11.5V48.6c0-6.3,5.1-11.5,11.5-11.5h22.9v7.6H33.2
		c-4.2,0-7.6,3.4-7.6,7.6v152.9c0,4.2,3.4,7.6,7.6,7.6h62.2c-0.8,2.5-1.1,5.1-0.9,7.6H29.4z M230.3,225.6c-2.2,4-6.4,6.5-10.9,6.5
		H114.7c-4.5,0-8.7-2.5-10.9-6.5c-2.3-4.1-2.2-9.2,0.3-13.2l52.4-85.2c3.6-5.9,11.2-7.8,17.1-4.2c1.7,1,3.2,2.5,4.2,4.2l52.4,85.2
		C232.6,216.4,232.7,221.5,230.3,225.6z"/>
	<path class="st0" d="M167,136.5c-6.3,0-11.5,5.1-11.5,11.5v34.4c0,6.3,5.1,11.5,11.5,11.5s11.5-5.1,11.5-11.5v-34.4
		C178.5,141.6,173.4,136.5,167,136.5z M170.9,182.4c0,2.1-1.7,3.8-3.8,3.8c-2.1,0-3.8-1.7-3.8-3.8v-34.4c0-2.1,1.7-3.8,3.8-3.8
		c2.1,0,3.8,1.7,3.8,3.8V182.4z"/>
	<path class="st0" d="M167,201.5c-6.3,0-11.5,5.1-11.5,11.5s5.1,11.5,11.5,11.5s11.5-5.1,11.5-11.5S173.4,201.5,167,201.5z
		 M167,216.8c-2.1,0-3.8-1.7-3.8-3.8c0-2.1,1.7-3.8,3.8-3.8c2.1,0,3.8,1.7,3.8,3.8C170.9,215,169.1,216.8,167,216.8z"/>
	<path class="st1" d="M86.8,83h49.7c2.1,0,3.8-1.7,3.8-3.8s-1.7-3.8-3.8-3.8H86.8c-2.1,0-3.8,1.7-3.8,3.8S84.6,83,86.8,83z"/>
	<path class="st1" d="M86.8,98.3h22.9c2.1,0,3.8-1.7,3.8-3.8c0-2.1-1.7-3.8-3.8-3.8H86.8c-2.1,0-3.8,1.7-3.8,3.8
		C82.9,96.5,84.6,98.3,86.8,98.3z"/>
	<path class="st1" d="M86.8,125h49.7c2.1,0,3.8-1.7,3.8-3.8s-1.7-3.8-3.8-3.8H86.8c-2.1,0-3.8,1.7-3.8,3.8S84.6,125,86.8,125z"/>
	<path class="st1" d="M86.8,140.3h22.9c2.1,0,3.8-1.7,3.8-3.8c0-2.1-1.7-3.8-3.8-3.8H86.8c-2.1,0-3.8,1.7-3.8,3.8
		C82.9,138.6,84.6,140.3,86.8,140.3z"/>
	<path class="st1" d="M86.8,167.1h26.8c2.1,0,3.8-1.7,3.8-3.8c0-2.1-1.7-3.8-3.8-3.8H86.8c-2.1,0-3.8,1.7-3.8,3.8
		C82.9,165.4,84.6,167.1,86.8,167.1z"/>
	<path class="st1" d="M86.8,182.4h15.3c2.1,0,3.8-1.7,3.8-3.8c0-2.1-1.7-3.8-3.8-3.8H86.8c-2.1,0-3.8,1.7-3.8,3.8
		C82.9,180.6,84.6,182.4,86.8,182.4z"/>
	<path class="st1" d="M45.8,91.7c-1.5,1.5-1.5,3.9,0,5.4l7.6,7.6c0.7,0.7,1.7,1.1,2.7,1.1c0.2,0,0.4,0,0.6,0c1.2-0.2,2.3-1,2.8-2.1
		l15.3-30.6c0.9-1.9,0.2-4.2-1.7-5.1S69,67.9,68,69.8L55.1,95.6l-3.9-3.9C49.7,90.2,47.3,90.2,45.8,91.7z"/>
	<path class="st1" d="M73.2,110.1c-1.9-0.9-4.2-0.2-5.1,1.7c0,0,0,0,0,0l-12.9,25.8l-3.9-3.9c-1.5-1.5-3.9-1.4-5.4,0.1
		c-1.4,1.5-1.4,3.8,0,5.3l7.6,7.6c0.7,0.7,1.7,1.1,2.7,1.1c0.2,0,0.4,0,0.6,0c1.2-0.2,2.3-1,2.8-2.1l15.3-30.6
		C75.8,113.4,75.1,111.1,73.2,110.1C73.2,110.1,73.2,110.1,73.2,110.1z"/>
	<path class="st1" d="M73.2,152.2c-1.9-0.9-4.2-0.2-5.1,1.7c0,0,0,0,0,0l-12.9,25.8l-3.9-3.9c-1.5-1.5-3.9-1.4-5.4,0.1
		c-1.4,1.5-1.4,3.8,0,5.3l7.6,7.6c0.7,0.7,1.7,1.1,2.7,1.1c0.2,0,0.4,0,0.6,0c1.2-0.2,2.3-1,2.8-2.1l15.3-30.6
		C75.8,155.4,75.1,153.1,73.2,152.2C73.2,152.2,73.2,152.2,73.2,152.2z"/>
</g>
</svg>
