<?xml version="1.0" encoding="utf-8"?>
<!-- Generator: Adobe Illustrator 27.9.1, SVG Export Plug-In . SVG Version: 6.00 Build 0)  -->
<svg version="1.1" id="Layer_1" xmlns="http://www.w3.org/2000/svg" xmlns:xlink="http://www.w3.org/1999/xlink" x="0px" y="0px"
	 viewBox="0 0 250 250" style="enable-background:new 0 0 250 250;" xml:space="preserve">
<style type="text/css">
	.st0{fill:#FFBB08;}
	.st1{fill:#27375D;}
</style>
<g id="Face_x2C__face_recognition_x2C__man_x2C__recognition_00000133522870057262601860000015512272930959038382_">
	<g>
		<path class="st0" d="M83.8,205.9l-23.4,8.2c-2,0.7-3,2.8-2.3,4.8c0.7,2,2.8,3,4.8,2.3l23-8C84.8,210.9,84.1,208.5,83.8,205.9z"/>
		<path class="st0" d="M190,214.3l-23.8-8.3c-0.3,2.5-1,5-2.1,7.2l23.4,8.2c0.4,0.2,0.8,0.2,1.2,0.2c1.6,0,3-1,3.6-2.5
			C193,217.1,192,215,190,214.3L190,214.3z"/>
	</g>
	<g>
		<g>
			<path class="st0" d="M185.5,90.8l-1.4,0.5c-0.1,2.7-0.2,5.4-0.3,8.1l4.1-1.4c2.1-0.7,5,0.7,5,3.6v10.9c0,7.5-4.5,14.2-11.3,17.2
				c-0.3,2.9-0.7,5.8-1.1,8.5l2-0.7c10.8-3.6,18-13.6,18-25v-10.9C200.3,94.1,192.6,88.4,185.5,90.8L185.5,90.8z"/>
			<path class="st0" d="M57.2,112.5v-10.9c0-2.3,2-3.8,3.8-3.8c0.4,0,0.8,0.1,1.2,0.2l4.2,1.4c-0.1-2.7-0.2-5.4-0.3-8.1l-1.5-0.5
				c-7.2-2.4-14.9,3.3-14.9,10.7v10.9c0,11.4,7.2,21.4,18,25l2,0.7c-0.4-2.7-0.8-5.5-1.1-8.4C61.7,126.8,57.2,120.1,57.2,112.5
				L57.2,112.5z"/>
			<path class="st0" d="M162.7,177.7v25.6c0,7.9-5,15-12.4,17.7l-25.3,9.2L99.7,221c-7.4-2.7-12.4-9.8-12.4-17.7v-25.6h1.4
				c-2.2-2.4-4.3-4.9-6.3-7.3c-1.6,0.5-2.7,1.8-2.7,3.6v29.4c0,11,7,21,17.4,24.8l26.6,9.7c0.4,0.2,0.9,0.2,1.3,0.2
				c0.4,0,0.9-0.1,1.3-0.2l26.6-9.7c10.4-3.8,17.4-13.7,17.4-24.8V174c0-1.7-1.2-3.1-2.7-3.6c-1.9,2.4-4,4.9-6.3,7.3H162.7z"/>
		</g>
		<path class="st0" d="M138.6,200.3h-27.2c-0.5,0-1.1-0.1-1.6-0.4c-12.6-5.9-29.1-24.5-36.2-35.2c-6.9-10.4-10.7-38.3-11.8-87.9
			c-0.4-17.3,6-33.5,18.1-45.8c12-12.3,28-19,45.2-19c17.1,0,33.2,6.7,45.2,19c12,12.3,18.5,28.6,18.1,45.8
			c-1.1,49.6-4.9,77.6-12,88.1c-7.3,10.7-23.7,29.3-36.1,35.1C139.7,200.2,139.2,200.3,138.6,200.3L138.6,200.3z M112.3,192.8h25.5
			c9.7-4.9,24.3-20.4,32.3-32.1c6.1-9,9.7-37.3,10.7-84c0.3-15.2-5.3-29.5-15.9-40.4c-10.6-10.8-24.7-16.7-39.8-16.7
			c-15.1,0-29.2,6-39.8,16.7C74.6,47.1,69,61.5,69.3,76.7c1.1,46.7,4.6,74.9,10.5,83.9C87.5,172,102.5,187.8,112.3,192.8
			L112.3,192.8z"/>
	</g>
	<g>
		<path class="st1" d="M23.3,200.3c2.1,0,3.8,1.7,3.8,3.8v18.8h18.8c2.1,0,3.8,1.7,3.8,3.8s-1.7,3.8-3.8,3.8H23.3
			c-2.1,0-3.8-1.7-3.8-3.8v-22.6C19.5,202,21.2,200.3,23.3,200.3z"/>
	</g>
	<g>
		<path class="st1" d="M226.7,200.3c2.1,0,3.8,1.7,3.8,3.8v22.6c0,2.1-1.7,3.8-3.8,3.8h-22.6c-2.1,0-3.8-1.7-3.8-3.8
			s1.7-3.8,3.8-3.8h18.8v-18.8C222.9,202,224.6,200.3,226.7,200.3z"/>
	</g>
	<g>
		<path class="st1" d="M226.7,49.7c-2.1,0-3.8-1.7-3.8-3.8V27.1h-18.8c-2.1,0-3.8-1.7-3.8-3.8s1.7-3.8,3.8-3.8h22.6
			c2.1,0,3.8,1.7,3.8,3.8v22.6C230.5,48,228.8,49.7,226.7,49.7z"/>
	</g>
	<g>
		<path class="st1" d="M23.3,49.7c-2.1,0-3.8-1.7-3.8-3.8V23.3c0-2.1,1.7-3.8,3.8-3.8h22.6c2.1,0,3.8,1.7,3.8,3.8s-1.7,3.8-3.8,3.8
			H27.1v18.8C27.1,48,25.4,49.7,23.3,49.7z"/>
	</g>
</g>
</svg>
