<?xml version="1.0" encoding="utf-8"?>
<!-- Generator: Adobe Illustrator 27.9.1, SVG Export Plug-In . SVG Version: 6.00 Build 0)  -->
<svg version="1.1" id="Layer_1" xmlns="http://www.w3.org/2000/svg" xmlns:xlink="http://www.w3.org/1999/xlink" x="0px" y="0px"
	 viewBox="0 0 250 250" style="enable-background:new 0 0 250 250;" xml:space="preserve">
<style type="text/css">
	.st0{fill:#1F4168;}
</style>
<g>
	<g>
		<path class="st0" d="M136,176.3c3.2-3,5.3-7.3,5.3-12c0-9-7.3-16.3-16.3-16.3s-16.3,7.3-16.3,16.3c0,4.7,2,9,5.3,12
			c-10.8,4.4-18.4,14.9-18.4,27.3c0,1.8,1.5,3.2,3.2,3.2h52.3c1.8,0,3.2-1.4,3.2-3.2C154.4,191.2,146.8,180.6,136,176.3L136,176.3z
			 M115.2,164.3c0-5.4,4.4-9.8,9.8-9.8c5.4,0,9.8,4.4,9.8,9.8c0,5.4-4.4,9.8-9.8,9.8C119.6,174.1,115.2,169.7,115.2,164.3z
			 M102.3,200.3c1.6-11.1,11.2-19.7,22.7-19.7c11.5,0,21.1,8.6,22.7,19.7H102.3z"/>
		<path class="st0" d="M189.8,164.3c0,4.7,2,9,5.3,12c-10.8,4.4-18.4,14.9-18.4,27.3c0,1.8,1.4,3.2,3.2,3.2h52.3
			c1.8,0,3.2-1.4,3.2-3.2c0-12.3-7.6-22.9-18.4-27.3c3.2-3,5.3-7.3,5.3-12c0-9-7.3-16.3-16.3-16.3S189.8,155.3,189.8,164.3z
			 M228.8,200.3h-45.4c1.6-11.1,11.2-19.7,22.7-19.7C217.7,180.6,227.3,189.2,228.8,200.3z M216,164.3c0,5.4-4.4,9.8-9.8,9.8
			c-5.4,0-9.8-4.4-9.8-9.8c0-5.4,4.4-9.8,9.8-9.8C211.6,154.4,216,158.8,216,164.3z"/>
		<path class="st0" d="M54.9,176.3c3.2-3,5.3-7.3,5.3-12c0-9-7.3-16.3-16.3-16.3s-16.3,7.3-16.3,16.3c0,4.7,2,9,5.3,12
			c-10.8,4.4-18.4,14.9-18.4,27.3c0,1.8,1.5,3.2,3.2,3.2H70c1.8,0,3.2-1.4,3.2-3.2C73.3,191.2,65.7,180.6,54.9,176.3z M34,164.3
			c0-5.4,4.4-9.8,9.8-9.8s9.8,4.4,9.8,9.8c0,5.4-4.4,9.8-9.8,9.8S34,169.7,34,164.3z M21.2,200.3c1.6-11.1,11.2-19.7,22.7-19.7
			s21.1,8.6,22.7,19.7H21.2z"/>
		<path class="st0" d="M44.7,139.1c1.8,0,3.2-1.4,3.2-3.2v-14.2h73.8v14.2c0,1.8,1.5,3.2,3.2,3.2c1.8,0,3.2-1.4,3.2-3.2v-14.2H202
			v14.2c0,1.8,1.4,3.2,3.2,3.2c1.8,0,3.2-1.4,3.2-3.2v-17.4c0-1.8-1.4-3.2-3.2-3.2h-77v-13.2h22.9c1.8,0,3.2-1.4,3.2-3.2V84
			c0-1.8-1.4-3.2-3.2-3.2H98.8c-1.8,0-3.2,1.4-3.2,3.2v14.8c0,1.8,1.5,3.2,3.2,3.2h22.9v13.2h-77c-1.8,0-3.2,1.4-3.2,3.2v17.4
			C41.5,137.7,42.9,139.1,44.7,139.1L44.7,139.1z M102.1,87.2h45.9v8.4h-45.9V87.2z"/>
		<path class="st0" d="M151.2,214.2H98.8c-1.8,0-3.2,1.4-3.2,3.2v14.8c0,1.8,1.5,3.2,3.2,3.2h52.3c1.8,0,3.2-1.4,3.2-3.2v-14.8
			C154.4,215.7,153,214.2,151.2,214.2z M147.9,229.1h-45.9v-8.4h45.9V229.1z"/>
		<path class="st0" d="M98.8,73.3h28.1c1.8,0,3.2-1.4,3.2-3.2c0-1.8-1.4-3.2-3.2-3.2h-24.6c1.6-11.1,11.2-19.7,22.7-19.7
			c11.5,0,21.1,8.6,22.7,19.7h-5.6c-1.8,0-3.2,1.4-3.2,3.2c0,1.8,1.4,3.2,3.2,3.2h9.1c1.8,0,3.2-1.4,3.2-3.2
			c0-12.3-7.6-22.9-18.4-27.3c3.2-3,5.3-7.3,5.3-12c0-9-7.3-16.3-16.3-16.3s-16.3,7.3-16.3,16.3c0,4.7,2,9,5.3,12
			C103.2,47.2,95.6,57.7,95.6,70C95.6,71.8,97,73.3,98.8,73.3L98.8,73.3z M115.2,30.8c0-5.4,4.4-9.8,9.8-9.8c5.4,0,9.8,4.4,9.8,9.8
			s-4.4,9.8-9.8,9.8C119.6,40.6,115.2,36.2,115.2,30.8z"/>
		<path class="st0" d="M232.3,214.2h-6.4c-1.8,0-3.2,1.4-3.2,3.2c0,1.8,1.4,3.2,3.2,3.2h3.2v8.4h-45.9v-8.4h27.6
			c1.8,0,3.2-1.4,3.2-3.2c0-1.8-1.4-3.2-3.2-3.2H180c-1.8,0-3.2,1.4-3.2,3.2v14.8c0,1.8,1.4,3.2,3.2,3.2h52.3c1.8,0,3.2-1.4,3.2-3.2
			v-14.8C235.6,215.7,234.1,214.2,232.3,214.2z"/>
		<path class="st0" d="M70,214.2h-6.4c-1.8,0-3.2,1.4-3.2,3.2c0,1.8,1.5,3.2,3.2,3.2h3.2v8.4H20.9v-8.4h27.6c1.8,0,3.2-1.4,3.2-3.2
			c0-1.8-1.5-3.2-3.2-3.2H17.7c-1.8,0-3.2,1.4-3.2,3.2v14.8c0,1.8,1.5,3.2,3.2,3.2H70c1.8,0,3.2-1.4,3.2-3.2v-14.8
			C73.3,215.7,71.8,214.2,70,214.2z"/>
	</g>
</g>
</svg>
