<?xml version="1.0" encoding="utf-8"?>
<!-- Generator: Adobe Illustrator 27.9.1, SVG Export Plug-In . SVG Version: 6.00 Build 0)  -->
<svg version="1.1" id="Layer_1" xmlns="http://www.w3.org/2000/svg" xmlns:xlink="http://www.w3.org/1999/xlink" x="0px" y="0px"
	 viewBox="0 0 250 250" style="enable-background:new 0 0 250 250;" xml:space="preserve">
<style type="text/css">
	.st0{fill:#27375D;}
	.st1{fill:#FFBB08;}
</style>
<g>
	<path class="st0" d="M106.7,169.7c0,9.5,7.7,17.2,17.2,17.2s17.2-7.7,17.2-17.2s-7.7-17.2-17.2-17.2S106.7,160.2,106.7,169.7z
		 M134.2,169.7c0,5.7-4.6,10.3-10.3,10.3c-5.7,0-10.3-4.6-10.3-10.3c0-5.7,4.6-10.3,10.3-10.3C129.6,159.4,134.2,164,134.2,169.7z"
		/>
	<path class="st0" d="M68.9,169.7c0,9.5,7.7,17.2,17.2,17.2s17.2-7.7,17.2-17.2s-7.7-17.2-17.2-17.2S68.9,160.2,68.9,169.7z
		 M96.4,169.7c0,5.7-4.6,10.3-10.3,10.3c-5.7,0-10.3-4.6-10.3-10.3c0-5.7,4.6-10.3,10.3-10.3C91.8,159.4,96.4,164,96.4,169.7z"/>
	<path class="st0" d="M144.5,169.7c0,9.5,7.7,17.2,17.2,17.2s17.2-7.7,17.2-17.2s-7.7-17.2-17.2-17.2S144.5,160.2,144.5,169.7z
		 M172,169.7c0,5.7-4.6,10.3-10.3,10.3s-10.3-4.6-10.3-10.3c0-5.7,4.6-10.3,10.3-10.3S172,164,172,169.7z"/>
	<path class="st0" d="M182.3,169.7c0,9.5,7.7,17.2,17.2,17.2s17.2-7.7,17.2-17.2s-7.7-17.2-17.2-17.2S182.3,160.2,182.3,169.7z
		 M199.5,159.4c5.7,0,10.3,4.6,10.3,10.3c0,5.7-4.6,10.3-10.3,10.3c-5.7,0-10.3-4.6-10.3-10.3C189.2,164,193.8,159.4,199.5,159.4z"
		/>
	<path class="st0" d="M31,169.7c0,9.5,7.7,17.2,17.2,17.2s17.2-7.7,17.2-17.2s-7.7-17.2-17.2-17.2S31,160.2,31,169.7z M58.5,169.7
		c0,5.7-4.6,10.3-10.3,10.3s-10.3-4.6-10.3-10.3c0-5.7,4.6-10.3,10.3-10.3S58.5,164,58.5,169.7z"/>
	<path class="st1" d="M223.6,228.2v-20.6c0-9.5-7.7-17.2-17.2-17.2h-13.8c-4.5,0-8.8,1.8-12,5c-3.2-3.2-7.5-4.9-12-5h-13.8
		c-4.5,0-8.8,1.8-12,5c-3.2-3.2-7.5-4.9-12-5H117c-4.5,0-8.8,1.8-12,5c-3.2-3.2-7.5-4.9-12-5H79.2c-4.5,0-8.8,1.8-12,5
		c-3.2-3.2-7.5-4.9-12-5H41.4c-9.5,0-17.2,7.7-17.2,17.2v20.6c0,1.9,1.5,3.4,3.4,3.4h192.6C222.1,231.6,223.6,230.1,223.6,228.2z
		 M62,207.5v17.2H31v-17.2c0-5.7,4.6-10.3,10.3-10.3h13.8c3.2,0,6.2,1.6,8.1,4.1C62.4,203.3,62,205.4,62,207.5z M99.8,207.5v17.2
		H68.9v-17.2c0-5.7,4.6-10.3,10.3-10.3h13.8c3.2,0,6.2,1.6,8.1,4.1C100.2,203.3,99.8,205.4,99.8,207.5z M141.1,224.7h-34.4v-17.2
		c0-5.7,4.6-10.3,10.3-10.3h5.7l-2.3,6.9l3.4,13.8l3.4-13.8l-2.3-6.9h5.7c5.7,0,10.3,4.6,10.3,10.3V224.7z M178.9,224.7H148v-17.2
		c0-2.1-0.4-4.2-1.2-6.2c1.9-2.5,4.9-4,8.1-4.1h13.8c5.7,0,10.3,4.6,10.3,10.3V224.7z M216.7,224.7h-30.9v-17.2
		c0-2.1-0.4-4.3-1.2-6.3c1.9-2.5,4.9-4,8.1-4.1h13.8c5.7,0,10.3,4.6,10.3,10.3V224.7z"/>
	<path class="st1" d="M79.2,87.2h6.9v6.9h-6.9V87.2z"/>
	<path class="st1" d="M79.2,100.9h6.9v6.9h-6.9V100.9z"/>
	<path class="st1" d="M79.2,114.7h6.9v6.9h-6.9V114.7z"/>
	<path class="st1" d="M106.7,70h6.9v6.9h-6.9V70z"/>
	<path class="st1" d="M106.7,83.7h6.9v6.9h-6.9V83.7z"/>
	<path class="st1" d="M106.7,97.5h6.9v6.9h-6.9V97.5z"/>
	<path class="st1" d="M120.4,70h6.9v6.9h-6.9V70z"/>
	<path class="st1" d="M113.6,45.9h6.9v6.9h-6.9V45.9z"/>
	<path class="st1" d="M127.3,45.9h6.9v6.9h-6.9V45.9z"/>
	<path class="st1" d="M120.4,83.7h6.9v6.9h-6.9V83.7z"/>
	<path class="st1" d="M120.4,97.5h6.9v6.9h-6.9V97.5z"/>
	<path class="st1" d="M134.2,70h6.9v6.9h-6.9V70z"/>
	<path class="st1" d="M134.2,83.7h6.9v6.9h-6.9V83.7z"/>
	<path class="st1" d="M134.2,97.5h6.9v6.9h-6.9V97.5z"/>
	<path class="st1" d="M161.7,87.2h6.9v6.9h-6.9V87.2z"/>
	<path class="st1" d="M161.7,100.9h6.9v6.9h-6.9V100.9z"/>
	<path class="st1" d="M161.7,114.7h6.9v6.9h-6.9V114.7z"/>
	<path class="st0" d="M144.5,35.6h-41.3c-1.9,0-3.4,1.5-3.4,3.4v17.2h-3.4c-1.9,0-3.4,1.5-3.4,3.4v11l-24.9,5.9
		c-1.6,0.4-2.7,1.8-2.6,3.4v58.7H55.1v6.9h137.5v-6.9h-10.3V80c0-1.6-1.1-3.1-2.6-3.4l-24.9-5.8v-11c0-1.9-1.5-3.4-3.4-3.4H148V39
		C148,37.1,146.4,35.6,144.5,35.6z M92.9,138.8h-6.9v-10.3h-6.9v10.3h-6.9V82.7l20.6-4.9V138.8z M154.8,77.8l20.6,4.9v56.1h-6.9
		v-10.3h-6.9v10.3h-6.9V77.8z M106.7,42.5h34.4v13.8h-34.4V42.5z M130.8,138.8H117v-20.6h13.8V138.8z M148,138.8h-10.3v-24.1
		c0-1.9-1.5-3.4-3.4-3.4h-20.6c-1.9,0-3.4,1.5-3.4,3.4v24.1H99.8V63.1H148V138.8z"/>
	<path class="st1" d="M58.2,50l-4.5-5.2c-3.5,3.1-6.8,6.3-9.8,9.8l5.2,4.6C51.8,56,54.9,52.9,58.2,50z"/>
	<path class="st1" d="M41,69.7l-5.7-3.9c-2.5,3.9-4.8,7.9-6.9,12.1l6.2,3.1C36.5,77.1,38.6,73.3,41,69.7z"/>
	<path class="st1" d="M221.6,105.3l6.9-1.3c-0.9-4.6-2-9-3.4-13.4l-6.5,2.2C219.9,96.8,220.9,101,221.6,105.3z"/>
	<path class="st1" d="M29.5,92.9L23,90.6c-1.5,4.4-2.6,8.9-3.4,13.5l6.9,1.3C27.1,101.2,28.2,97,29.5,92.9z"/>
	<path class="st1" d="M79.8,35.6l-3-6.2c-4.2,2-8.2,4.3-12.1,6.9l3.8,5.7C72.1,39.7,75.9,37.5,79.8,35.6z"/>
	<path class="st1" d="M198.7,59.1l5.2-4.5c-3.1-3.5-6.4-6.8-9.9-9.8l-4.5,5.2C192.8,52.8,195.9,55.9,198.7,59.1z"/>
	<path class="st1" d="M158,24c-4.4-1.5-8.9-2.6-13.4-3.4l-1.3,6.9c4.3,0.9,8.5,2,12.6,3.4L158,24z"/>
	<path class="st1" d="M183,36.3c-3.9-2.5-7.9-4.8-12.1-6.9l-3.1,6.2c3.9,1.9,7.7,4.1,11.3,6.5L183,36.3z"/>
	<path class="st1" d="M219.4,77.6c-2-4.2-4.3-8.2-6.9-12l-5.7,3.9c2.4,3.6,4.6,7.4,6.5,11.2L219.4,77.6z"/>
	<path class="st1" d="M104.4,27.2l-1.3-6.9c-4.6,1-9.1,2.2-13.5,3.7l2.2,6.5C95.9,29.2,100.1,28,104.4,27.2z"/>
	<path class="st1" d="M130.3,25.5l0.4-6.9c-4.6-0.3-9.3-0.3-13.9,0l0.4,6.9C121.6,25.2,126,25.2,130.3,25.5z"/>
	<path class="st1" d="M223.4,118.4c0,2.2,0.2,4.4,0.2,6.6h6.9c0-2.4,0-4.7-0.2-7.1L223.4,118.4z"/>
</g>
</svg>
