<?xml version="1.0" encoding="utf-8"?>
<!-- Generator: Adobe Illustrator 27.9.1, SVG Export Plug-In . SVG Version: 6.00 Build 0)  -->
<svg version="1.1" id="Layer_1" xmlns="http://www.w3.org/2000/svg" xmlns:xlink="http://www.w3.org/1999/xlink" x="0px" y="0px"
	 viewBox="0 0 250 250" style="enable-background:new 0 0 250 250;" xml:space="preserve">
<style type="text/css">
	.st0{fill:#FFBB08;}
	.st1{fill:#27375D;}
</style>
<g>
	<path class="st0" d="M206.1,72.6V57.9c0-6.1-3.7-11.3-9.1-13.6c2-3.6,2.6-7.9,1.5-12.2c-1.6-6.2-6.7-11-13.1-12.4
		c-5.5-1.2-11,0.1-15.3,3.5c-4.1,3.3-6.4,8-6.4,13.1c0,2.8,0.7,5.5,2.1,7.9c-5.4,2.3-9.1,7.6-9.1,13.6v14.7
		C141,76.1,132,82.6,132,90.5c0,13.3,25.4,20.4,49.3,20.4s49.3-7.2,49.3-20.4C230.7,82.6,221.8,76.1,206.1,72.6z M174.6,28.7
		c2.6-2.1,6-2.8,9.4-2.1c3.7,0.8,6.8,3.7,7.7,7.2c0.9,3.7-0.3,7.4-3.2,9.9l-7,5.1l-7-5.1c-2.3-1.9-3.6-4.6-3.6-7.4
		C170.8,33.4,172.2,30.6,174.6,28.7z M184.5,66.8l-3.1,5.9l-3.1-5.9l3.1-5.9L184.5,66.8z M163.8,57.9c0-4,3.2-7.3,7.4-7.8l5.7,4.2
		l-5.7,10.9c-0.5,1-0.5,2.2,0,3.3l7,13.5c0.6,1.2,1.8,1.9,3.1,1.9c1.3,0,2.5-0.7,3.1-1.9l7-13.5c0.5-1,0.5-2.2,0-3.3l-5.7-10.9
		l5.7-4.2c4.1,0.5,7.4,3.8,7.4,7.8v31.8h-35.2V57.9z M181.4,103.9c-25.8,0-42.3-7.9-42.3-13.4c0-3.3,6.1-7.7,17.6-10.6v13.4
		c0,1.9,1.6,3.5,3.5,3.5h42.3c1.9,0,3.5-1.6,3.5-3.5V79.8c11.6,2.9,17.6,7.3,17.6,10.6C223.7,95.9,207.2,103.9,181.4,103.9z"/>
	<path class="st0" d="M195.5,192.4v-14.7c0-6.1-3.7-11.3-9.1-13.6c2-3.6,2.6-7.9,1.5-12.2c-1.6-6.2-6.7-11-13.1-12.4
		c-5.5-1.2-11,0.1-15.3,3.5c-4.1,3.3-6.4,8-6.4,13.1c0,2.8,0.7,5.5,2.1,7.9c-5.4,2.3-9.1,7.6-9.1,13.6v14.7
		c-15.7,3.5-24.7,10-24.7,17.9c0,13.3,25.4,20.4,49.3,20.4s49.3-7.2,49.3-20.4C220.2,202.4,211.2,196,195.5,192.4z M164,148.5
		c2.6-2.1,6-2.8,9.4-2.1c3.7,0.8,6.8,3.7,7.7,7.2c0.9,3.7-0.3,7.4-3.2,9.9l-7,5.1l-7-5.1c-2.3-1.9-3.6-4.6-3.6-7.4
		C160.2,153.2,161.6,150.4,164,148.5z M173.9,186.6l-3.1,5.9l-3.1-5.9l3.1-5.9L173.9,186.6z M153.2,177.7c0-4,3.2-7.3,7.4-7.8
		l5.7,4.2l-5.7,10.9c-0.5,1-0.5,2.2,0,3.3l7,13.5c0.6,1.2,1.8,1.9,3.1,1.9c1.3,0,2.5-0.7,3.1-1.9l7-13.5c0.5-1,0.5-2.2,0-3.3
		l-5.7-10.9l5.7-4.2c4.1,0.5,7.4,3.8,7.4,7.8v31.8h-35.2V177.7z M170.8,223.7c-25.8,0-42.3-7.9-42.3-13.4c0-3.3,6.1-7.7,17.6-10.6
		v13.4c0,1.9,1.6,3.5,3.5,3.5H192c1.9,0,3.5-1.6,3.5-3.5v-13.4c11.6,2.9,17.6,7.3,17.6,10.6C213.1,215.7,196.6,223.7,170.8,223.7z"
		/>
	<path class="st0" d="M93.3,114.9v-14.7c0-6.1-3.7-11.3-9.1-13.6c2-3.6,2.6-7.9,1.5-12.2c-1.6-6.2-6.7-11-13.1-12.4
		c-5.5-1.2-11,0.1-15.3,3.5c-4.1,3.3-6.4,8-6.4,13.1c0,2.8,0.7,5.5,2.1,7.9c-5.4,2.3-9.1,7.6-9.1,13.6v14.7
		c-15.7,3.5-24.7,10-24.7,17.9c0,13.3,25.4,20.4,49.3,20.4S118,146,118,132.8C118,124.9,109,118.4,93.3,114.9z M61.8,71
		c2.6-2.1,6-2.8,9.4-2.1c3.7,0.8,6.8,3.7,7.7,7.2c0.9,3.7-0.3,7.4-3.2,9.9l-7,5.1l-7-5.1c-2.3-1.9-3.6-4.6-3.6-7.4
		C58,75.7,59.4,72.9,61.8,71z M71.7,109.1l-3.1,5.9l-3.1-5.9l3.1-5.9L71.7,109.1z M51,100.2c0-4,3.2-7.3,7.4-7.8l5.7,4.2l-5.7,10.9
		c-0.5,1-0.5,2.2,0,3.3l7,13.5c0.6,1.2,1.8,1.9,3.1,1.9c1.3,0,2.5-0.7,3.1-1.9l7-13.5c0.5-1,0.5-2.2,0-3.3l-5.7-10.9l5.7-4.2
		c4.1,0.5,7.4,3.8,7.4,7.8V132H51V100.2z M68.6,146.1c-25.8,0-42.3-7.9-42.3-13.4c0-3.3,6.1-7.7,17.6-10.6v13.4
		c0,1.9,1.6,3.5,3.5,3.5h42.3c1.9,0,3.5-1.6,3.5-3.5v-13.4c11.6,2.9,17.6,7.3,17.6,10.6C110.9,138.2,94.4,146.1,68.6,146.1z"/>
	<path class="st1" d="M110.9,19.3h7v7h-7V19.3z"/>
	<path class="st1" d="M110.9,33.4h7v7h-7V33.4z"/>
	<path class="st1" d="M110.9,47.5h7v7h-7V47.5z"/>
	<path class="st1" d="M110.9,61.6h7v7h-7V61.6z"/>
	<path class="st1" d="M110.9,75.7h7v7h-7V75.7z"/>
	<path class="st1" d="M110.9,89.8h7v7h-7V89.8z"/>
	<path class="st1" d="M110.9,103.9h7v7h-7V103.9z"/>
	<path class="st1" d="M125,110.9h7v7h-7V110.9z"/>
	<path class="st1" d="M139.1,125h7v7h-7V125z"/>
	<path class="st1" d="M153.2,125h7v7h-7V125z"/>
	<path class="st1" d="M167.3,125h7v7h-7V125z"/>
	<path class="st1" d="M181.4,125h7v7h-7V125z"/>
	<path class="st1" d="M195.5,125h7v7h-7V125z"/>
	<path class="st1" d="M209.6,125h7v7h-7V125z"/>
	<path class="st1" d="M223.7,125h7v7h-7V125z"/>
	<path class="st1" d="M125,125h7v7h-7V125z"/>
	<path class="st1" d="M125,139.1h7v7h-7V139.1z"/>
	<path class="st1" d="M125,153.2h7v7h-7V153.2z"/>
	<path class="st1" d="M125,167.3h7v7h-7V167.3z"/>
	<path class="st1" d="M110.9,167.3h7v7h-7V167.3z"/>
	<path class="st1" d="M96.8,167.3h7v7h-7V167.3z"/>
	<path class="st1" d="M82.7,167.3h7v7h-7V167.3z"/>
	<path class="st1" d="M68.6,167.3h7v7h-7V167.3z"/>
	<path class="st1" d="M68.6,181.4h7v7h-7V181.4z"/>
	<path class="st1" d="M68.6,195.5h7v7h-7V195.5z"/>
	<path class="st1" d="M54.5,195.5h7v7h-7V195.5z"/>
	<path class="st1" d="M40.4,195.5h7v7h-7V195.5z"/>
	<path class="st1" d="M40.4,209.6h7v7h-7V209.6z"/>
	<path class="st1" d="M40.4,223.7h7v7h-7V223.7z"/>
</g>
</svg>
