<?xml version="1.0" encoding="utf-8"?>
<!-- Generator: Adobe Illustrator 27.9.1, SVG Export Plug-In . SVG Version: 6.00 Build 0)  -->
<svg version="1.1" id="Layer_1" xmlns="http://www.w3.org/2000/svg" xmlns:xlink="http://www.w3.org/1999/xlink" x="0px" y="0px"
	 viewBox="0 0 250 250" style="enable-background:new 0 0 250 250;" xml:space="preserve">
<style type="text/css">
	.st0{fill:#FFBB08;}
	.st1{fill:#27375D;}
</style>
<g>
	<path class="st0" d="M230.7,117c0-18.4-13.5-33.9-31.6-36.6V22.6c0-2.5-2.1-4.5-4.7-4.5c-0.1,0-0.2,0-0.3,0c-1.1,0-2.3,0.4-3.1,1.2
		c-21.9,21-56.4,21-78.3,0c-2.1-1.7-5.1-1.7-7.1,0c-21.9,21.1-56.5,21.1-78.4,0c-0.8-0.8-1.9-1.2-3-1.3c-2.5-0.2-4.7,1.6-4.9,4.1
		c0,0.1,0,0.3,0,0.4v119.8c0,49.7,84.5,87.9,88.1,89.5c4,2.9,78.8-35.1,90.1-77.7C216.4,152,230.8,136.1,230.7,117z M149.4,198.8
		c-12.7,9.1-26.1,17-40.2,23.8c-31.5-14.3-82.5-49.6-80.9-80.3V31.9c24.6,17.6,58,16.1,80.9-3.6c22.9,19.7,56.4,21.2,81,3.6v48.3
		c-43.4,5-44.7,66.3-1.9,73.6C182.5,171.6,164.7,187.7,149.4,198.8L149.4,198.8z M193.6,145.2c-15.5,0-28.1-12.6-28.1-28.1
		c1.3-37.2,54.9-37.2,56.3,0C221.7,132.6,209.1,145.1,193.6,145.2z"/>
	<path class="st1" d="M212.6,106c-1.8-1.7-4.6-1.7-6.4,0l-12.6,12.6l-5-5c-1.9-1.6-4.7-1.4-6.3,0.4c-1.5,1.7-1.5,4.2,0,5.9l8.2,8.2
		c1.7,1.7,4.6,1.7,6.3,0l15.8-15.7c1.8-1.7,1.9-4.5,0.2-6.3C212.7,106.1,212.6,106.1,212.6,106L212.6,106z"/>
	<path class="st1" d="M109.2,116.7c12.7-0.6,22.5-11.4,21.9-24.1c-0.6-11.9-10-21.4-21.9-21.9C78.9,71.8,78.9,115.8,109.2,116.7z
		 M109.2,79.7c7.8,0.5,13.7,7.1,13.2,14.9c-0.4,7.1-6.1,12.8-13.2,13.2c-7.8-0.5-13.7-7.1-13.2-14.9
		C96.4,85.8,102.1,80.1,109.2,79.7L109.2,79.7z"/>
	<path class="st1" d="M122.3,120.7c-1.5-0.4-3.1,0-4.2,1c-5.1,4.6-12.7,4.6-17.8,0c-1.1-1-2.7-1.4-4.2-1
		c-31.1,8.1-32.6,57.2,2.6,58.7h21.1C154.9,177.9,153.5,128.8,122.3,120.7L122.3,120.7z M136.7,156.4c-1.5,8.1-8.6,14-16.9,14.1
		H98.8c-23.5-0.9-21.6-34-2.2-40.5c7.7,5.4,17.9,5.4,25.6,0C132.7,134.2,138.8,145.3,136.7,156.4z"/>
</g>
</svg>
