<?xml version="1.0" encoding="utf-8"?>
<!-- Generator: Adobe Illustrator 27.9.1, SVG Export Plug-In . SVG Version: 6.00 Build 0)  -->
<svg version="1.1" id="Layer_1" xmlns="http://www.w3.org/2000/svg" xmlns:xlink="http://www.w3.org/1999/xlink" x="0px" y="0px"
	 viewBox="0 0 250 250" style="enable-background:new 0 0 250 250;" xml:space="preserve">
<style type="text/css">
	.st0{fill:#27375D;}
	.st1{fill:#FFBB08;}
</style>
<g>
	<path class="st0" d="M40.4,59.6V44.8h14.9c3.1,0,3.1-4.8,0-4.8H38c-1.3,0-2.4,1.1-2.4,2.4v17.2C35.6,62.8,40.3,62.8,40.4,59.6z"/>
	<path class="st0" d="M38,89c-3.1,0-3.1,4.8,0,4.8h8.6c3.1,0,3.1-4.8,0-4.8H38z"/>
	<path class="st0" d="M50.1,122.7c0,1.3,1.1,2.4,2.4,2.4h69c1.3,0,2.4-1.1,2.4-2.4c0-6.6-5.4-12-12-12c-0.6,0-1.1-0.3-1.4-0.9
		c-2.5-4.2-7.3-6.1-12.1-5.7c-0.4,0-0.8-0.3-0.9-0.7l-0.8-5l5-5.7c11.5-12.9,2.7-35.8-14.7-35.1C69.6,57,60.8,79.9,72.4,92.8l5,5.6
		l-0.8,5c-0.1,1.1-2.1,0.6-2.8,0.7c-4.2,0-8,2.1-10.2,5.7c-0.3,0.6-0.9,0.9-1.4,0.9C55.7,110.6,50,116.3,50.1,122.7z M76,89.7
		c-8.8-9.8-2.2-27.9,11.1-27.2c9,0,15,6.7,15,16.7h2.4l-2.4,0.1c0.5,7-6.1,12.8-10.2,17.6c-2.1,2-5.5,1.6-8.1,1
		c-0.8-0.2-1.5-1-2-1.6C81.7,96.2,76,89.7,76,89.7z M57,117.6c1.4-1.4,3.2-2.1,5.1-2.1c2.2,0,4.3-1.2,5.5-3.1
		c1.3-2.1,3.6-3.4,6.1-3.4h1.9c2.8,0,5.2-2,5.6-4.8l0.3-2.1c3.5,1.3,7.4,1.3,10.8,0l0.3,2.1c0.4,2.8,2.8,4.8,5.6,4.8h1.9
		c2.5,0,4.8,1.3,6.1,3.4c1.2,2,3.3,3.1,5.5,3.1c3.1,0,5.8,2,6.8,4.8H55.3C55.7,119.3,56.2,118.4,57,117.6z"/>
	<path class="st1" d="M217.4,40h-58.5c-1.3,0-2.4,1.1-2.4,2.4v14.7c0,1.3,1.1,2.4,2.4,2.4h58.5c1.3,0,2.4-1.1,2.4-2.4V42.4
		C219.7,41,218.7,40,217.4,40z M215,54.7h-53.7v-9.9H215V54.7z"/>
	<path class="st1" d="M224.8,22H25.2c-6.5,0-11.7,5.2-11.7,11.7V176c0,6.5,5.2,11.7,11.7,11.7h77.1v18.6h-4.5
		c-10.6,0-19.3,8.7-19.3,19.3c0,1.3,1.1,2.4,2.4,2.4H169c1.3,0,2.4-1.1,2.4-2.4c0-10.6-8.7-19.3-19.3-19.3h-4.5v-18.6h77.2
		c6.5,0,11.7-5.2,11.7-11.7V33.7C236.5,27.2,231.2,22,224.8,22z M18.3,33.7c0-3.8,3.1-6.9,6.9-6.9h199.6c3.8,0,6.9,3.1,6.9,6.9V157
		H18.3V33.7z M152.1,211.2c7.2,0,13.2,5.2,14.3,12.1H83.6c1.1-6.9,7.1-12.1,14.3-12.1H152.1z M107.1,206.4v-18.6h35.7v18.6H107.1z
		 M231.7,176c0,3.8-3.1,6.9-6.9,6.9H25.2c-3.8,0-6.9-3.1-6.9-6.9v-14.3h213.4L231.7,176z"/>
	<path class="st0" d="M89.4,51v-8.6c0-3.1-4.8-3.1-4.8,0V51C84.6,54.1,89.4,54.1,89.4,51z"/>
	<path class="st0" d="M55.2,138.1H40.4v-14.9c0-3.1-4.8-3.1-4.8,0v17.3c0,1.3,1.1,2.4,2.4,2.4h17.2
		C58.3,142.9,58.3,138.1,55.2,138.1z"/>
	<path class="st0" d="M84.6,131.8v8.6c0,3.1,4.8,3.1,4.8,0v-8.6C89.4,128.7,84.6,128.7,84.6,131.8z"/>
	<path class="st1" d="M217.4,126.5h-52.3c-3.1,0-3.1,4.8,0,4.8h52.3C220.5,131.3,220.5,126.6,217.4,126.5z"/>
	<path class="st1" d="M217.4,108h-52.3c-3.1,0-3.1,4.8,0,4.8h52.3C220.5,112.8,220.5,108,217.4,108z"/>
	<path class="st1" d="M217.4,89.5h-42.9c-3.1,0-3.1,4.8,0,4.8h42.9C220.5,94.2,220.5,89.5,217.4,89.5z"/>
	<path class="st0" d="M136,40h-17.3c-3.1,0-3.1,4.8,0,4.8h14.9v14.9c0,3.1,4.8,3.1,4.8,0V42.4C138.4,41,137.4,40,136,40z"/>
	<path class="st0" d="M133.6,123.2v14.9h-14.9c-3.1,0-3.1,4.8,0,4.8H136c1.3,0,2.4-1.1,2.4-2.4v-17.3
		C138.4,120.1,133.7,120.1,133.6,123.2z"/>
	<path class="st0" d="M136,93.8c3.1,0,3.1-4.8,0-4.8h-8.6c-3.1,0-3.1,4.8,0,4.8H136z"/>
	<path class="st1" d="M217.4,75.7c3.1,0,3.1-4.8,0-4.8h-29.3c-3.1,0-3.1,4.8,0,4.8H217.4z"/>
</g>
</svg>
