<?xml version="1.0" encoding="utf-8"?>
<!-- Generator: Adobe Illustrator 27.9.1, SVG Export Plug-In . SVG Version: 6.00 Build 0)  -->
<svg version="1.1" id="Layer_1" xmlns="http://www.w3.org/2000/svg" xmlns:xlink="http://www.w3.org/1999/xlink" x="0px" y="0px"
	 viewBox="0 0 250 250" style="enable-background:new 0 0 250 250;" xml:space="preserve">
<style type="text/css">
	.st0{fill:#27375D;}
	.st1{fill:#FFBB08;}
</style>
<g>
	<path class="st0" d="M128.7,182.2H45.7c-1.7,0-3,1.4-3,3s1.4,3,3,3h83.1c1.7,0,3-1.4,3-3h0C131.8,183.6,130.4,182.2,128.7,182.2z"
		/>
	<path class="st0" d="M45.7,150.5h74.9c1.7,0,3-1.4,3-3s-1.4-3-3-3H45.7c-1.7,0-3,1.4-3,3h0C42.6,149.1,44,150.5,45.7,150.5z"/>
	<path class="st0" d="M131.8,166.4c0-1.7-1.4-3-3-3H45.7c-1.7,0-3,1.4-3,3c0,1.7,1.4,3,3,3h83.1C130.4,169.4,131.8,168,131.8,166.4
		L131.8,166.4z"/>
	<path class="st1" d="M25.5,154.2L25.5,154.2c1.7,0,3-1.4,3-3V69.4h38.8c3.7,3.4,8.2,6.1,12.4,8.6c0.7,0.4,1.5,0.9,2.2,1.3l3.7,2.3
		c0.5,0.3,1,0.4,1.6,0.4c0.5,0,1.1-0.1,1.6-0.4l3.7-2.3c0.7-0.4,1.4-0.9,2.2-1.3c4.1-2.5,8.6-5.1,12.4-8.6h11.3c1.7,0,3-1.4,3-3
		c0-1.7-1.4-3-3-3h-6.2c0-0.1,0.1-0.1,0.1-0.2c2-3.4,3.1-7.2,3.1-11.3V28.6c0-1.4-0.9-2.6-2.3-2.9l-5.4-1.4
		c-6.2-1.6-11.3-3.6-15.1-6l-3.8-2.4c-1-0.6-2.2-0.6-3.2,0l-3.8,2.4c-3.8,2.4-8.9,4.4-15.1,6l-5.4,1.4C59.9,26,59,27.2,59,28.6v23.2
		c0,4,1,7.8,3.1,11.3c0,0.1,0.1,0.1,0.1,0.2H25.5c-1.7,0-3,1.4-3,3v84.9C22.4,152.9,23.8,154.2,25.5,154.2z M68.2,30.1
		c6.8-1.7,12.5-4,16.8-6.7l2.2-1.4l2.2,1.4c4.3,2.7,10,5,16.8,6.7l3.1,0.8v20.9c0,2.9-0.7,5.7-2.2,8.2c-3.2,5.4-9.8,9.3-15.6,12.7
		c-0.8,0.4-1.5,0.9-2.2,1.3l-2.2,1.3L85.1,74c-0.7-0.4-1.5-0.9-2.2-1.3C77,69.3,70.5,65.4,67.3,60c-1.5-2.5-2.2-5.2-2.2-8.2V30.9h0
		L68.2,30.1z"/>
	<path class="st0" d="M73.6,48.7l5.6,9.6c0.5,0.8,1.3,1.4,2.2,1.5c0.1,0,0.3,0,0.4,0c0.8,0,1.6-0.3,2.2-0.9l16.3-16.3
		c1.2-1.2,1.2-3.1,0-4.3c-1.2-1.2-3.1-1.2-4.3,0L82.5,51.9l-3.6-6.2c-0.8-1.5-2.7-2-4.2-1.1C73.3,45.4,72.8,47.3,73.6,48.7
		L73.6,48.7z"/>
	<path class="st0" d="M45.7,131.6h75.1c1.7,0,3-1.4,3-3c0-1.7-1.4-3-3-3H45.7c-1.7,0-3,1.4-3,3h0C42.6,130.2,44,131.6,45.7,131.6z"
		/>
	<path class="st1" d="M167.5,201.8H152V150c0-1.7-1.4-3-3-3c-1.7,0-3,1.4-3,3v51.8H63.8c-1,0-1.9,0.5-2.5,1.3
		c-0.6,0.8-0.7,1.9-0.3,2.8c0.7,1.9,1.1,3.8,1.1,5.9c0,9.2-7.5,16.8-16.8,16.8c-9.2,0-16.8-7.5-16.8-16.8v-48.6c0-1.7-1.4-3-3-3
		c-1.7,0-3,1.4-3,3v48.6c0,12.6,10.2,22.8,22.8,22.8h77.2c1.7,0,3-1.4,3-3c0-1.7-1.4-3-3-3H60.8c4.5-4.2,7.3-10.1,7.3-16.8
		c0-1.3-0.1-2.6-0.3-3.9h97.5c0.3,1.3,0.5,2.6,0.5,3.9c0,9.2-7.5,16.8-16.8,16.8h-14.6c-1.7,0-3,1.4-3,3s1.4,3,3,3H149
		c12.6,0,22.8-10.2,22.8-22.8c0-2.7-0.5-5.4-1.5-8C169.9,202.6,168.8,201.8,167.5,201.8z"/>
	<path class="st1" d="M220.6,79.2L220.6,79.2c4.7-3.3,7-7.6,7-12.9c0-5.3-2.3-9.5-7-12.9c-3-2.1-4.4-5.5-3.8-9.1
		c1-5.7-0.4-10.3-4.2-14.1c-3.8-3.8-8.4-5.1-14.1-4.2c-3.6,0.6-6.9-0.8-9.1-3.8c-3.3-4.7-7.6-7-12.9-7s-9.5,2.3-12.9,7
		c-2.1,3-5.4,4.4-9.1,3.8c-5.7-1-10.3,0.4-14.1,4.2c-3.8,3.8-5.1,8.4-4.2,14.1c0.6,3.6-0.8,6.9-3.8,9.1c-4.7,3.3-7,7.6-7,12.9
		c0,5.3,2.3,9.5,7,12.9c3,2.1,4.4,5.4,3.8,9.1c-1,5.7,0.4,10.3,4.2,14.1c1.2,1.2,2.6,2.2,4,3l-13.3,28.1c-0.5,1-0.4,2.2,0.3,3
		c0.6,0.9,1.7,1.4,2.8,1.3l13.2-1.2l8.5,10.2c0.6,0.7,1.4,1.1,2.3,1.1c0.2,0,0.4,0,0.5,0c1.1-0.2,2-0.9,2.3-2l10.5-29.3
		c1.5,0.5,3.1,0.7,4.8,0.7c1.8,0,3.4-0.3,5-0.8l10.4,29.2c0.4,1,1.3,1.8,2.3,2c0.2,0,0.4,0,0.5,0c0.9,0,1.8-0.4,2.3-1.1l8.5-10.2
		l13.2,1.2c1.1,0.1,2.2-0.4,2.8-1.3c0.6-0.9,0.7-2.1,0.3-3l-13.3-28.1c1.4-0.7,2.7-1.7,3.9-2.9c3.8-3.8,5.1-8.4,4.2-14.1
		C216.2,84.7,217.6,81.4,220.6,79.2z M157.4,138.8l-6.1-7.4c-0.6-0.8-1.6-1.2-2.6-1.1l-9.5,0.9l11.5-24.4c1.3,0,2.6-0.1,4-0.3
		c3.6-0.6,6.9,0.8,9.1,3.8c0.8,1.2,1.7,2.2,2.7,3.1L157.4,138.8z M214.2,131.1l-9.5-0.9c-1-0.1-2,0.3-2.6,1.1l-6.1,7.4l-9.1-25.4
		c0.9-0.9,1.8-1.9,2.6-3c2.1-3,5.4-4.4,9.1-3.8c1.5,0.2,2.8,0.3,4.2,0.3L214.2,131.1z M217,74.3c-4.9,3.5-7.2,9.1-6.2,15.1
		c0.6,3.8-0.1,6.4-2.5,8.7c-2.4,2.4-5,3.1-8.7,2.5c-5.9-1-11.6,1.3-15.1,6.2c-2.2,3.1-4.6,4.4-7.9,4.4c-3.3,0-5.7-1.3-7.9-4.4
		c-3-4.2-7.4-6.5-12.4-6.5c-0.9,0-1.8,0.1-2.7,0.2c-3.8,0.6-6.4-0.1-8.7-2.5c-2.4-2.4-3.1-5-2.5-8.7c1-5.9-1.3-11.6-6.2-15.1
		c-3.1-2.2-4.4-4.6-4.4-7.9c0-3.3,1.3-5.7,4.4-7.9c4.9-3.5,7.3-9.1,6.2-15.1c-0.6-3.8,0.1-6.4,2.5-8.7c2.4-2.4,5-3.1,8.7-2.5
		c5.9,1,11.6-1.3,15.1-6.2c2.2-3.1,4.6-4.4,7.9-4.4c3.3,0,5.7,1.3,7.9,4.4c3.5,4.9,9.1,7.2,15.1,6.2c3.8-0.6,6.4,0.1,8.7,2.5
		c2.4,2.4,3.1,5,2.5,8.7c-1,5.9,1.3,11.6,6.2,15.1c3.1,2.2,4.4,4.6,4.4,7.9C221.5,69.7,220.2,72.1,217,74.3L217,74.3z"/>
	<path class="st0" d="M176.6,37.7c-15.8,0-28.7,12.9-28.7,28.7S160.8,95,176.6,95c5.3,0,10.5-1.5,15-4.2c1.4-0.9,1.9-2.8,1-4.2
		c-0.9-1.4-2.8-1.9-4.2-1c-3.5,2.2-7.6,3.3-11.8,3.3c-12.5,0-22.6-10.1-22.6-22.6c0-12.5,10.1-22.6,22.6-22.6
		c12.5,0,22.6,10.1,22.6,22.6c0,4.2-1.2,8.3-3.3,11.8c-0.9,1.4-0.4,3.3,1,4.2c1.4,0.9,3.3,0.4,4.2-1c2.8-4.5,4.2-9.7,4.2-15
		C205.3,50.5,192.4,37.7,176.6,37.7z"/>
	<path class="st0" d="M131.8,109.7c0-1.7-1.4-3-3-3H45.7c-1.7,0-3,1.4-3,3c0,1.7,1.4,3,3,3h83.1
		C130.4,112.7,131.8,111.3,131.8,109.7L131.8,109.7z"/>
	<path class="st0" d="M45.7,93.8h28.1c1.7,0,3-1.4,3-3c0-1.7-1.4-3-3-3H45.7c-1.7,0-3,1.4-3,3h0C42.6,92.4,44,93.8,45.7,93.8z"/>
</g>
</svg>
