<?xml version="1.0" encoding="utf-8"?>
<!-- Generator: Adobe Illustrator 27.9.1, SVG Export Plug-In . SVG Version: 6.00 Build 0)  -->
<svg version="1.1" id="Layer_1" xmlns="http://www.w3.org/2000/svg" xmlns:xlink="http://www.w3.org/1999/xlink" x="0px" y="0px"
	 viewBox="0 0 250 250" style="enable-background:new 0 0 250 250;" xml:space="preserve">
<style type="text/css">
	.st0{fill:#FFBB08;}
	.st1{fill:#27375D;}
</style>
<g id="g2755">
	<g id="g2761" transform="translate(256,471.165)">
		<g id="path2763">
			<path class="st0" d="M-42.6-402c-0.9,0-1.7-0.3-2.4-1c-23-23-53.6-35.7-86.1-35.7c-1.8,0-3.3-1.5-3.3-3.3c0-1.8,1.5-3.3,3.3-3.3
				c34.3,0,66.5,13.4,90.8,37.6c1.3,1.3,1.3,3.4,0,4.7C-40.9-402.3-41.7-402-42.6-402z"/>
		</g>
	</g>
	<g id="g2765" transform="translate(148.8101,414.5898)">
		<g id="path2767">
			<path class="st0" d="M52.8-336.9c-0.8,0-1.7-0.3-2.3-0.9C30.4-357.1,4-367.7-23.8-367.7c-16.2,0-31.8,3.5-46.3,10.5
				c-1.7,0.8-3.7,0.1-4.5-1.6c-0.8-1.7-0.1-3.7,1.6-4.5c15.4-7.4,32-11.1,49.2-11.1c29.6,0,57.6,11.3,78.9,31.7
				c1.3,1.3,1.4,3.4,0.1,4.7C54.6-337.2,53.7-336.9,52.8-336.9z"/>
		</g>
	</g>
	<g id="g2769" transform="translate(118.3999,397.29)">
		<g id="path2771">
			<path class="st0" d="M-76.2-239.7h-27.9c-1.8,0-3.3-1.5-3.3-3.3c0-30.3,11.8-58.9,33.2-80.4c0.1-0.1,0.1-0.1,0.2-0.2
				c5.3-5.3,11.2-10.2,17.5-14.3c1.5-1,3.6-0.6,4.6,0.9c1,1.5,0.6,3.6-0.9,4.6c-5.8,3.9-11.3,8.3-16.3,13.3
				c-0.1,0.1-0.1,0.1-0.2,0.2c-19.5,19.5-30.6,45.1-31.4,72.5h21.2c0.8-21.7,9.7-42.1,25.2-57.5c7.9-7.9,17.1-14.1,27.4-18.5
				c10.6-4.5,21.9-6.8,33.5-6.8c20.4,0,40.2,7.3,55.7,20.5c1.4,1.2,1.6,3.3,0.4,4.7c-1.2,1.4-3.3,1.6-4.7,0.4
				c-14.3-12.2-32.6-18.9-51.4-18.9c-10.7,0-21.1,2.1-30.9,6.2c-9.5,4-18,9.7-25.2,17c-15,15-23.3,34.9-23.3,56.2
				C-72.8-241.2-74.3-239.7-76.2-239.7z"/>
		</g>
	</g>
	<g id="g2773" transform="translate(435.2798,362.3701)">
		<g id="path2775">
			<path class="st0" d="M-199.6-204.8h-27.9c-1.8,0-3.3-1.5-3.3-3.3c0-10.7-2.1-21.1-6.2-30.9c-3.1-7.4-7.4-14.3-12.6-20.5
				c-1.2-1.4-1-3.5,0.4-4.7c1.4-1.2,3.5-1,4.7,0.4c5.7,6.7,10.3,14.2,13.7,22.2c4.1,9.6,6.3,19.7,6.7,30.2h21.2
				c-0.8-26.6-11.3-51.7-29.8-71c-1.3-1.3-1.2-3.4,0.1-4.7c1.3-1.3,3.4-1.2,4.7,0.1c20.5,21.3,31.8,49.4,31.8,78.9
				C-196.3-206.3-197.8-204.8-199.6-204.8z"/>
		</g>
	</g>
	<g id="g2777" transform="translate(80.2842,366.0557)">
		<g id="path2779">
			<path class="st0" d="M-13.8-267c-0.9,0-1.7-0.3-2.4-1l-19.7-19.7c-1.3-1.3-1.3-3.4,0-4.7c1.3-1.3,3.4-1.3,4.7,0l19.7,19.7
				c1.3,1.3,1.3,3.4,0,4.7C-12.1-267.3-13-267-13.8-267z"/>
		</g>
	</g>
	<g id="g2781" transform="translate(256,376.209)">
		<g id="path2783">
			<path class="st0" d="M-131-301.4c-1.8,0-3.3-1.5-3.3-3.3v-27.9c0-1.8,1.5-3.3,3.3-3.3c1.8,0,3.3,1.5,3.3,3.3v27.9
				C-127.7-302.9-129.2-301.4-131-301.4z"/>
		</g>
	</g>
	<g id="g2785" transform="translate(296.3198,273.9102)">
		<g id="path2787">
			<path class="st0" d="M-121.2-152.1c-0.7,0-1.4-0.2-2-0.6c-1.5-1.1-1.8-3.2-0.7-4.7L-98-193l-53.4,38.8c-1.5,1.1-3.6,0.8-4.7-0.7
				c-1.1-1.5-0.8-3.6,0.7-4.7l70.5-51.2c1.3-1,3.2-0.8,4.3,0.3c1.2,1.2,1.3,3,0.3,4.3l-38.3,52.7
				C-119.1-152.5-120.2-152.1-121.2-152.1z"/>
		</g>
	</g>
	<g id="g2789" transform="translate(348.02,242.29)">
		<g id="path2791">
			<path class="st0" d="M-199.2-84.3c-0.7,0-1.4-0.2-2-0.6c-1.5-1.1-1.8-3.2-0.7-4.7l17.1-23.6c1.1-1.5,3.2-1.8,4.7-0.7
				c1.5,1.1,1.8,3.2,0.7,4.7l-17.1,23.6C-197.1-84.7-198.2-84.3-199.2-84.3z"/>
		</g>
	</g>
	<g id="g2793" transform="translate(171.1465,149.9326)">
		<g id="path2795">
			<path class="st1" d="M-8.4,45.4h-75.6c-1.8,0-3.3-1.5-3.3-3.3V22.3C-87.3,10.5-77.7,1-65.9,1h39.6C-14.6,1-5,10.5-5,22.3v19.8
				C-5,43.9-6.5,45.4-8.4,45.4z M-80.6,38.8h68.9V22.3c0-8.1-6.6-14.7-14.7-14.7h-39.6c-8.1,0-14.7,6.6-14.7,14.7V38.8z"/>
		</g>
	</g>
	<g id="g2797" transform="translate(298.4268,125.6895)">
		<g id="path2799">
			<path class="st1" d="M-154.5,69.7c-1.8,0-3.3-1.5-3.3-3.3v-9c0-1.8,1.5-3.3,3.3-3.3c1.8,0,3.3,1.5,3.3,3.3v9
				C-151.2,68.2-152.7,69.7-154.5,69.7z"/>
		</g>
	</g>
	<g id="g2801" transform="translate(213.5732,125.6895)">
		<g id="path2803">
			<path class="st1" d="M-107.5,69.7c-1.8,0-3.3-1.5-3.3-3.3v-9c0-1.8,1.5-3.3,3.3-3.3c1.8,0,3.3,1.5,3.3,3.3v9
				C-104.1,68.2-105.6,69.7-107.5,69.7z"/>
		</g>
	</g>
	<g id="g2805" transform="translate(306.5083,240.8477)">
		<g id="path2807">
			<path class="st1" d="M-181.5-83.3c-14.2,0-25.8-11.6-25.8-25.8s11.6-25.8,25.8-25.8c14.2,0,25.8,11.6,25.8,25.8
				S-167.3-83.3-181.5-83.3z M-181.5-128.3c-10.6,0-19.2,8.6-19.2,19.2s8.6,19.2,19.2,19.2c10.6,0,19.2-8.6,19.2-19.2
				S-170.9-128.3-181.5-128.3z"/>
		</g>
	</g>
	<g id="g2809" transform="translate(229.4199,73.1602)">
		<g id="path2811">
			<path class="st0" d="M-66.6,151h-75.6c-1.8,0-3.3-1.5-3.3-3.3v-14.4c0-1.8,1.5-3.3,3.3-3.3h10.4c1.8,0,3.3,1.5,3.3,3.3
				s-1.5,3.3-3.3,3.3h-7v7.7H-70v-7.7h-46.3c-1.8,0-3.3-1.5-3.3-3.3s1.5-3.3,3.3-3.3h49.6c1.8,0,3.3,1.5,3.3,3.3v14.4
				C-63.3,149.5-64.8,151-66.6,151z"/>
		</g>
	</g>
	<g id="g2813" transform="translate(441.8696,158.9102)">
		<g id="path2815">
			<path class="st0" d="M-206.2,12.7h-27.9c-1.8,0-3.3-1.5-3.3-3.3s1.5-3.3,3.3-3.3h27.9c1.8,0,3.3,1.5,3.3,3.3
				S-204.4,12.7-206.2,12.7z"/>
		</g>
	</g>
	<g id="g2817" transform="translate(484.2969,126.585)">
		<g id="path2819">
			<path class="st0" d="M-257.6,59.4h-9.9c-1.8,0-3.3-1.5-3.3-3.3c0-1.8,1.5-3.3,3.3-3.3h9.9c1.8,0,3.3,1.5,3.3,3.3
				C-254.3,57.9-255.8,59.4-257.6,59.4z"/>
		</g>
	</g>
	<g id="g2821" transform="translate(70.1304,158.9102)">
		<g id="path2823">
			<path class="st0" d="M-27.9,12.7h-27.9c-1.8,0-3.3-1.5-3.3-3.3S-57.6,6-55.8,6h27.9c1.8,0,3.3,1.5,3.3,3.3S-26.1,12.7-27.9,12.7z
				"/>
		</g>
	</g>
	<g id="g2825" transform="translate(27.7031,126.585)">
		<g id="path2827">
			<path class="st0" d="M5.5,59.4h-9.9c-1.8,0-3.3-1.5-3.3-3.3c0-1.8,1.5-3.3,3.3-3.3h9.9c1.8,0,3.3,1.5,3.3,3.3
				C8.9,57.9,7.4,59.4,5.5,59.4z"/>
		</g>
	</g>
</g>
</svg>
