<?xml version="1.0" encoding="utf-8"?>
<!-- Generator: Adobe Illustrator 27.9.1, SVG Export Plug-In . SVG Version: 6.00 Build 0)  -->
<svg version="1.1" id="Layer_1" xmlns="http://www.w3.org/2000/svg" xmlns:xlink="http://www.w3.org/1999/xlink" x="0px" y="0px"
	 viewBox="0 0 250 250" style="enable-background:new 0 0 250 250;" xml:space="preserve">
<style type="text/css">
	.st0{fill:#27375D;}
	.st1{fill:#FFBB08;}
</style>
<g>
	<path class="st0" d="M168.8,162.5c0.6,0.5,1.4,0.7,2.2,0.7c1.1,0,2.2-0.5,2.9-1.4c8-10.7,12.3-23.4,12.3-36.8
		c0-33.7-27.4-61.1-61.1-61.1c-33.7,0-61.1,27.4-61.1,61.1c0,13.4,4.3,26.1,12.3,36.8c1.2,1.6,3.4,1.9,5,0.7c1.6-1.2,1.9-3.4,0.7-5
		c-7.1-9.4-10.9-20.6-10.9-32.4c0-29.7,24.2-53.9,53.9-53.9c29.7,0,53.9,24.2,53.9,53.9c0,11.8-3.8,23-10.9,32.4
		C166.9,159,167.2,161.3,168.8,162.5z"/>
	<path class="st1" d="M151.2,161.7c-1.6-0.1-3.1,0.8-3.7,2.3l-6.5,17.4l-4.9,12.8l-2.5-13.5l7.5-13.9c0.6-1.1,0.6-2.5-0.1-3.6
		c-0.6-1.1-1.8-1.8-3.1-1.8H112c-1.3,0-2.4,0.7-3.1,1.8c-0.6,1.1-0.7,2.4-0.1,3.6l7.5,13.9l-2.5,13.5l-4.9-12.8l-6.5-17.5
		c-0.6-1.5-2.1-2.5-3.7-2.3C89.3,162.6,80.5,167,74,174c-6.5,7.1-10.1,16.3-10.1,25.9v36.4c0,2,1.6,3.6,3.6,3.6h115.1
		c2,0,3.6-1.6,3.6-3.6V200c0-9.6-3.6-18.8-10.1-25.9C169.5,167,160.7,162.6,151.2,161.7z M71,232.8V200c0-15.1,11.1-28.1,25.7-30.7
		l5.5,14.8l18.6,48.8H71z M118.8,207.1l5-26.3c0.2-0.8,0-1.7-0.4-2.4l-5.3-9.7h13.8l-5.3,9.7c-0.4,0.7-0.5,1.6-0.4,2.4l5,26.3
		l-6.2,16.4L118.8,207.1z M179,232.8h-49.8l18.6-48.8l5.5-14.8c14.6,2.6,25.7,15.6,25.7,30.7V232.8z"/>
	<path class="st1" d="M228,100h-17.6c-1.8-6.1-4.2-12-7.3-17.6l12.5-12.5c4.7-4.7,4.7-12.3,0-17l-18.5-18.5
		c-2.3-2.3-5.3-3.5-8.5-3.5c-3.2,0-6.2,1.2-8.5,3.5l-12.5,12.5c-5.6-3.1-11.5-5.5-17.6-7.3V22c0-6.6-5.4-12-12-12h-26.1
		c-6.6,0-12,5.4-12,12v17.6c-6.1,1.8-12,4.2-17.6,7.3L69.9,34.5c-2.3-2.3-5.3-3.5-8.5-3.5c-3.2,0-6.2,1.2-8.5,3.5L34.5,52.9
		c-4.7,4.7-4.7,12.3,0,17l12.5,12.5c-3.1,5.6-5.5,11.5-7.3,17.6H22c-6.6,0-12,5.4-12,12v26.1c0,6.6,5.4,12,12,12h17.6
		c1.8,6.1,4.2,12,7.3,17.6l-12.5,12.5c-4.7,4.7-4.7,12.3,0,17l18.5,18.5c0.1,0.1,0.2,0.2,0.3,0.3c1.5,1.3,3.7,1.3,5.1-0.2
		c1.3-1.5,1.3-3.7-0.2-5.1c0,0-0.1-0.1-0.1-0.1L39.5,192c-1.9-1.9-1.9-4.9,0-6.8L54,170.8c1.2-1.2,1.4-3,0.6-4.4
		c-3.8-6.5-6.8-13.6-8.7-20.9c-0.4-1.6-1.8-2.7-3.5-2.7H22c-2.6,0-4.8-2.2-4.8-4.8v-26.1c0-2.6,2.2-4.8,4.8-4.8h20.4
		c1.6,0,3.1-1.1,3.5-2.7c1.9-7.3,4.8-14.3,8.7-20.9c0.8-1.4,0.6-3.2-0.6-4.4L39.5,64.8c-1.9-1.9-1.9-4.9,0-6.8L58,39.5
		c0.9-0.9,2.1-1.4,3.4-1.4c1.3,0,2.5,0.5,3.4,1.4L79.2,54c1.2,1.2,3,1.4,4.4,0.6c6.5-3.8,13.6-6.8,20.9-8.7c1.6-0.4,2.7-1.8,2.7-3.5
		V22c0-2.6,2.2-4.8,4.8-4.8h26.1c2.6,0,4.8,2.2,4.8,4.8v20.4c0,1.6,1.1,3.1,2.7,3.5c7.3,1.9,14.3,4.8,20.9,8.7
		c1.4,0.8,3.2,0.6,4.4-0.6l14.4-14.4c0.9-0.9,2.1-1.4,3.4-1.4c1.3,0,2.5,0.5,3.4,1.4L210.5,58c1.9,1.9,1.9,4.9,0,6.8L196,79.2
		c-1.2,1.2-1.4,3-0.6,4.4c3.8,6.5,6.8,13.6,8.7,20.9c0.4,1.6,1.8,2.7,3.5,2.7H228c2.6,0,4.8,2.2,4.8,4.8v26.1c0,2.6-2.2,4.8-4.8,4.8
		h-20.4c-1.6,0-3.1,1.1-3.5,2.7c-1.9,7.3-4.8,14.3-8.7,20.9c-0.8,1.4-0.6,3.2,0.6,4.4l14.4,14.4c1.9,1.9,1.9,4.9,0,6.8L192,210.5
		c0,0-0.1,0.1-0.1,0.1c-1.5,1.3-1.5,3.6-0.2,5.1c0.7,0.8,1.7,1.2,2.6,1.2c0.9,0,1.8-0.3,2.4-1c0.1-0.1,0.2-0.2,0.3-0.3l18.5-18.5
		c4.7-4.7,4.7-12.3,0-17l-12.5-12.5c3.1-5.6,5.5-11.5,7.3-17.6H228c6.6,0,12-5.4,12-12v-26.1C240,105.3,234.6,100,228,100z"/>
	<path class="st0" d="M91.9,125.5c0,18.3,14.9,33.1,33.1,33.1s33.1-14.9,33.1-33.1c0-18.3-14.9-33.1-33.1-33.1
		S91.9,107.2,91.9,125.5z M150.9,125.5c0,14.3-11.6,25.9-25.9,25.9c-14.3,0-25.9-11.6-25.9-25.9c0-14.3,11.6-25.9,25.9-25.9
		C139.3,99.5,150.9,111.2,150.9,125.5z"/>
</g>
</svg>
