<?xml version="1.0" encoding="utf-8"?>
<!-- Generator: Adobe Illustrator 27.9.1, SVG Export Plug-In . SVG Version: 6.00 Build 0)  -->
<svg version="1.1" id="Layer_1" xmlns="http://www.w3.org/2000/svg" xmlns:xlink="http://www.w3.org/1999/xlink" x="0px" y="0px"
	 viewBox="0 0 429 451" style="enable-background:new 0 0 429 451;" xml:space="preserve">
<style type="text/css">
	.st0{fill:#FFFFFF;}
	.st1{fill:#F2F2F2;}
	.st2{fill:#FFBB08;}
	.st3{fill:#27375D;}
</style>
<g>
	<g id="color">
		<g>
			<path class="st0" d="M142.7,374.7c-8.1,12.9-12.3,27.9-12.2,43.1H20.6c0-37.9,30.7-68.7,68.7-68.7
				C110,349.1,129.6,358.5,142.7,374.7z"/>
			<circle class="st1" cx="89.2" cy="314.8" r="34.3"/>
			<path class="st0" d="M405.1,417.8H295.3c0.1-15.2-4.2-30.2-12.2-43.1c23.8-29.5,67-34.1,96.6-10.3
				C395.7,377.4,405.1,397,405.1,417.8z"/>
			<circle class="st1" cx="336.5" cy="314.8" r="34.3"/>
		</g>
		<circle class="st2" cx="212.9" cy="294.2" r="41.2"/>
		<path class="st2" d="M295.3,417.8H130.4c-0.1-15.2,4.2-30.2,12.2-43.1c23.8-38.8,74.5-50.9,113.2-27.1
			c11.1,6.8,20.3,16.1,27.1,27.1C291.1,387.6,295.3,402.5,295.3,417.8z"/>
		<path class="st0" d="M212.9,33.2c-45.5,0-82.4,54.9-82.4,54.9s36.9,54.9,82.4,54.9s82.4-54.9,82.4-54.9S258.3,33.2,212.9,33.2z
			 M212.9,115.6c-15.2,0-27.5-12.3-27.5-27.5s12.3-27.5,27.5-27.5s27.5,12.3,27.5,27.5C240.3,103.3,228,115.6,212.9,115.6z"/>
		<circle class="st2" cx="212.9" cy="88.2" r="27.5"/>
	</g>
	<g id="outline_00000048501012061771248960000007764353771092958629_">
		<path class="st3" d="M362.1,346.8c17.8-14.1,20.8-40.1,6.7-57.9c-14.1-17.8-40.1-20.8-57.9-6.7c-17.8,14.1-20.8,40.1-6.7,57.9
			c2,2.5,4.2,4.7,6.7,6.7c-10.1,3.7-19.4,9.5-27.1,17c-11-14.3-26-24.9-43-30.6c21.6-15.4,26.7-45.4,11.4-67s-45.4-26.7-67-11.4
			c-21.6,15.4-26.7,45.4-11.4,67c3.1,4.4,7,8.2,11.4,11.4c-17.1,5.6-32.1,16.3-43,30.6c-7.7-7.5-17-13.3-27.1-17
			c17.8-14.2,20.8-40.1,6.6-57.9s-40.1-20.8-57.9-6.6c-17.8,14.2-20.8,40.1-6.6,57.9c2,2.5,4.2,4.7,6.7,6.7
			c-29.9,10.8-49.9,39.2-49.9,71c0,3.8,3.1,6.9,6.9,6.9c0,0,0,0,0,0h164.8c3.8,0,6.9-3.1,6.9-6.9c0-3.8-3.1-6.9-6.9-6.9h-47.8
			c1-11.6,4.7-22.8,10.9-32.7c21.8-35.5,68.3-46.7,103.8-24.9c10.1,6.2,18.7,14.8,24.9,24.9c6.1,9.9,9.9,21,10.9,32.6h-47.8
			c-3.8,0-6.9,3.1-6.9,6.9c0,3.8,3.1,6.9,6.9,6.9h164.8c3.8,0,6.9-3.1,6.9-6.9c0,0,0,0,0,0C411.9,386,392,357.6,362.1,346.8
			L362.1,346.8z M61.8,314.8c0-15.2,12.3-27.5,27.5-27.5s27.5,12.3,27.5,27.5s-12.3,27.5-27.5,27.5
			C74.1,342.2,61.8,329.9,61.8,314.8z M89.2,356c17.1,0,33.5,7.2,45.1,19.7c-5.9,10.9-9.4,22.9-10.3,35.2H27.8
			C31.4,379.7,57.8,356,89.2,356z M178.5,294.2c0-19,15.4-34.3,34.3-34.3s34.3,15.4,34.3,34.3c0,19-15.4,34.3-34.3,34.3
			C193.9,328.5,178.5,313.1,178.5,294.2z M309,314.8c0-15.2,12.3-27.5,27.5-27.5s27.5,12.3,27.5,27.5s-12.3,27.5-27.5,27.5
			C321.3,342.2,309,329.9,309,314.8z M301.7,410.9c-0.9-12.3-4.4-24.3-10.3-35.2c23.2-25,62.2-26.4,87.2-3.3
			c10.9,10.1,17.7,23.7,19.4,38.5H301.7z"/>
		<path class="st3" d="M89.2,259.8c3.8,0,6.9-3.1,6.9-6.9c0,0,0,0,0,0v-34.3H206v6.9c0,3.8,3.1,6.9,6.9,6.9c3.8,0,6.9-3.1,6.9-6.9
			v-6.9h109.9V253c0,3.8,3.1,6.9,6.9,6.9s6.9-3.1,6.9-6.9v-41.2c0-3.8-3.1-6.9-6.9-6.9c0,0,0,0,0,0H219.7v-34.3
			c0-3.8-3.1-6.9-6.9-6.9c-3.8,0-6.9,3.1-6.9,6.9v34.3H89.2c-3.8,0-6.9,3.1-6.9,6.9c0,0,0,0,0,0V253
			C82.4,256.8,85.4,259.8,89.2,259.8C89.2,259.8,89.2,259.8,89.2,259.8z"/>
		<path class="st3" d="M212.9,150c48.6,0,86.5-55.6,88.1-58c1.6-2.3,1.6-5.3,0-7.7c-1.6-2.4-39.5-58-88.1-58s-86.5,55.6-88.1,58
			c-1.6,2.3-1.6,5.3,0,7.7C126.3,94.4,164.2,150,212.9,150z M212.9,40.1c34.6,0,64.8,36.1,73.9,48.1c-9.1,12-39.4,48.1-73.9,48.1
			s-64.8-36.1-73.9-48.1C148,76.2,178.3,40.1,212.9,40.1z"/>
		<path class="st3" d="M212.9,122.5c19,0,34.3-15.4,34.3-34.3s-15.4-34.3-34.3-34.3s-34.3,15.4-34.3,34.3
			C178.5,107.1,193.9,122.5,212.9,122.5z M212.9,67.6c11.4,0,20.6,9.2,20.6,20.6s-9.2,20.6-20.6,20.6c-11.4,0-20.6-9.2-20.6-20.6
			C192.3,76.8,201.5,67.6,212.9,67.6z"/>
		<circle class="st3" cx="212.9" cy="417.8" r="6.9"/>
	</g>
</g>
</svg>
