<?xml version="1.0" encoding="utf-8"?>
<!-- Generator: Adobe Illustrator 27.9.0, SVG Export Plug-In . SVG Version: 6.00 Build 0)  -->
<svg version="1.1" id="Layer_1" xmlns="http://www.w3.org/2000/svg" xmlns:xlink="http://www.w3.org/1999/xlink" x="0px" y="0px"
	 viewBox="0 0 225 225" style="enable-background:new 0 0 225 225;" xml:space="preserve">
<style type="text/css">
	.st0{fill:#2BB741;}
	.st1{fill-rule:evenodd;clip-rule:evenodd;fill:#FFFFFF;}
</style>
<g>
	<circle class="st0" cx="112.5" cy="112.5" r="100.1"/>
	<path class="st1" d="M150.3,74.4c-10-10.1-23.4-15.6-37.6-15.6c-29.3,0-53.2,23.9-53.2,53.2c0,9.4,2.4,18.5,7.1,26.6l-7.5,27.6
		l28.2-7.4c7.8,4.2,16.5,6.5,25.4,6.5h0c29.3,0,53.2-23.9,53.2-53.2C165.9,97.8,160.4,84.5,150.3,74.4z M112.7,158.8L112.7,158.8
		c-8.4,0-16.6-2.3-23.8-6.5l-1.7-1l-17.7,4.6l4.7-17.3l-1.1-1.8c-4.7-7.4-7.2-16.1-7.2-24.9c0-25.8,21-46.8,46.8-46.8
		c12.5,0,24.2,4.9,33.1,13.7c8.8,8.8,13.7,20.6,13.7,33.1C159.5,137.8,138.5,158.8,112.7,158.8z M137,123.2
		c-1.3-0.7-7.9-3.9-9.1-4.3c-1.2-0.4-2.1-0.7-3,0.7c-0.9,1.3-3.4,4.3-4.2,5.2c-0.8,0.9-1.5,1-2.9,0.3c-1.3-0.7-5.6-2.1-10.7-6.6
		c-3.9-3.5-6.6-7.9-7.4-9.2c-0.8-1.3,0-2,0.6-2.7c1.4-1.8,2.9-3.7,3.3-4.5c0.4-0.9,0.2-1.7-0.1-2.3c-0.3-0.7-3-7.2-4.1-9.9
		c-1.1-2.6-2.2-2.2-3-2.3c-0.8,0-1.7,0-2.5,0c-0.9,0-2.3,0.3-3.5,1.7c-1.2,1.3-4.6,4.5-4.6,11.1s4.8,12.9,5.4,13.7
		c0.7,0.9,9.4,14.3,22.7,20.1c3.2,1.4,5.6,2.2,7.6,2.8c3.2,1,6.1,0.9,8.4,0.5c2.6-0.4,7.9-3.2,9-6.3c1.1-3.1,1.1-5.8,0.8-6.3
		C139.2,124.1,138.3,123.8,137,123.2z"/>
</g>
</svg>
